<svg id="Capa_1" data-name="Capa 1" xmlns="http://www.w3.org/2000/svg" viewBox="0 0 1000 1000"><defs><style>.cls-1{fill:#d3d3d3;}.cls-11,.cls-12,.cls-2{opacity:0.3;}.cls-11,.cls-12,.cls-13,.cls-14,.cls-15,.cls-21,.cls-27,.cls-3,.cls-6,.cls-7{fill:none;}.cls-11,.cls-12,.cls-13,.cls-14,.cls-3{stroke:#000;}.cls-15,.cls-17,.cls-21,.cls-22,.cls-3,.cls-4{stroke-miterlimit:10;}.cls-11,.cls-14,.cls-15,.cls-17,.cls-22,.cls-24,.cls-25,.cls-26,.cls-27,.cls-28,.cls-3,.cls-4,.cls-5,.cls-6,.cls-8,.cls-9{stroke-width:1.97px;}.cls-10,.cls-23,.cls-24,.cls-28,.cls-4{fill:#263238;}.cls-15,.cls-16,.cls-17,.cls-18,.cls-21,.cls-22,.cls-24,.cls-25,.cls-26,.cls-28,.cls-4,.cls-5,.cls-6,.cls-7,.cls-8,.cls-9{stroke:#263238;}.cls-17,.cls-25,.cls-5{fill:#fff;}.cls-11,.cls-12,.cls-13,.cls-14,.cls-16,.cls-18,.cls-21,.cls-26,.cls-27,.cls-28,.cls-5,.cls-6,.cls-7,.cls-8,.cls-9{stroke-linecap:round;}.cls-11,.cls-12,.cls-13,.cls-14,.cls-16,.cls-18,.cls-24,.cls-25,.cls-26,.cls-27,.cls-28,.cls-5,.cls-6,.cls-7,.cls-8,.cls-9{stroke-linejoin:round;}.cls-12,.cls-21,.cls-7{stroke-width:3.93px;}.cls-8{fill:#dbdbdb;}.cls-9{fill:#949494;}.cls-11,.cls-12,.cls-20,.cls-23{isolation:isolate;}.cls-13{stroke-width:1.97px;}.cls-16{fill:#a88556;}.cls-16,.cls-18{stroke-width:2.28px;}.cls-18{fill:#42bed3;}.cls-19,.cls-20,.cls-23{opacity:0.2;}.cls-22{fill:#9e9e9e;}.cls-26{fill:#7acc1b;}.cls-27{stroke:#fff;}</style></defs><g id="freepik--background-simple--inject-2"><path class="cls-1" d="M831.15,869.79a244.13,244.13,0,0,0,75.17-85.55c112.36-210.51,87-520.92-129.4-654C676.9,68.66,533,29.72,424.84,92.92,337.17,144.16,283.42,240.66,239,328.45c-27.93,55.29-51,114.64-85.39,166.3-44.66,67-93.83,156.47-44.19,234.31,67.64,106,195.39,154.45,311.23,186.33,125.69,34.58,267,39.49,383.12-28Q817.82,879.22,831.15,869.79Z"/></g><g id="freepik--Picture--inject-2"><g class="cls-2"><rect class="cls-3" x="727.27" y="173.69" width="202.47" height="265.37"/><rect class="cls-3" x="764.62" y="222.83" width="127.77" height="169.05"/></g></g><g id="freepik--Test--inject-2"><rect class="cls-4" x="143.45" y="144.2" width="536.64" height="477.67"/><rect class="cls-5" x="133.62" y="132.41" width="536.64" height="477.67"/><rect class="cls-5" x="566.08" y="297.53" width="27.52" height="27.52"/><rect class="cls-5" x="599.5" y="297.53" width="27.52" height="27.52"/><line class="cls-6" x1="554.29" y1="313.26" x2="418.65" y2="313.26"/><rect class="cls-5" x="566.08" y="360.43" width="27.52" height="27.52"/><rect class="cls-5" x="599.5" y="360.43" width="27.52" height="27.52"/><line class="cls-6" x1="554.29" y1="376.16" x2="418.65" y2="376.16"/><rect class="cls-5" x="566.08" y="423.34" width="27.52" height="27.52"/><rect class="cls-5" x="599.5" y="423.34" width="27.52" height="27.52"/><line class="cls-6" x1="554.29" y1="439.06" x2="418.65" y2="439.06"/><rect class="cls-5" x="310.54" y="297.53" width="27.52" height="27.52"/><rect class="cls-5" x="345.92" y="297.53" width="27.52" height="27.52"/><line class="cls-6" x1="300.71" y1="313.26" x2="165.07" y2="313.26"/><rect class="cls-5" x="310.54" y="360.43" width="27.52" height="27.52"/><rect class="cls-5" x="345.92" y="360.43" width="27.52" height="27.52"/><line class="cls-6" x1="300.71" y1="376.16" x2="165.07" y2="376.16"/><rect class="cls-5" x="310.54" y="423.34" width="27.52" height="27.52"/><rect class="cls-5" x="345.92" y="423.34" width="27.52" height="27.52"/><line class="cls-6" x1="300.71" y1="439.06" x2="165.07" y2="439.06"/><rect class="cls-5" x="172.94" y="543.24" width="29.49" height="29.49"/><rect class="cls-5" x="292.85" y="543.24" width="29.49" height="29.49"/><rect class="cls-5" x="416.69" y="543.24" width="29.49" height="29.49"/><polyline class="cls-7" points="354.4 307.75 358.94 316.87 380.94 295.62"/><polyline class="cls-7" points="354.4 369.96 358.94 379.06 380.94 357.81"/><polyline class="cls-7" points="316.47 435.2 321.03 444.31 343.02 423.06"/><polyline class="cls-7" points="607.77 307 612.31 316.1 634.3 294.85"/><polyline class="cls-7" points="571.05 370.71 575.59 379.81 597.58 358.58"/><polyline class="cls-7" points="571.05 434.63 575.59 443.74 597.58 422.51"/><rect class="cls-1" x="133.62" y="132.41" width="536.64" height="74.7"/><rect class="cls-8" x="650.61" y="132.41" width="19.66" height="477.67"/><rect class="cls-9" x="650.61" y="205.14" width="19.66" height="92.39"/><rect class="cls-8" x="133.62" y="132.41" width="536.64" height="35.38"/><rect class="cls-5" x="161.14" y="142.24" width="212.3" height="15.73"/><line class="cls-6" x1="638.81" y1="144.2" x2="656.5" y2="144.2"/><line class="cls-6" x1="638.81" y1="152.07" x2="656.5" y2="152.07"/><line class="cls-6" x1="638.81" y1="159.93" x2="656.5" y2="159.93"/><path class="cls-10" d="M196.07,536.36h-4.74l-.79-5.89H185l-.79,5.89h-4.39l4.71-29.48h6.79Zm-10.54-9.82h4.4l-2.2-14.69Z"/><path class="cls-10" d="M313.49,513.61v.89s-.52,4.9-2.57,5.9c2.46.94,3.4,3.14,4.53,6.21V529c-1.13,4.48-8.05,7.37-8.05,7.37h-7.67V506.88h6.93C311.44,506.88,313.49,509.12,313.49,513.61Zm-7.87-2.8v7.86h1c1.69-.06,2.73-.81,3-3.13v-1.61c-.24-2.08-.95-3-2.56-3.12Zm-2,11.79v9.83h3.74c1.54-.77,2.36-1.47,2.15-3.64v-2.51c.21-2.72-.65-3.54-2.72-3.68Z"/><path class="cls-10" d="M439.29,524.57v3.71c0,4.39-2.35,6.9-6.88,6.9s-6.88-2.51-6.88-6.9V514c0-4.38,2.35-6.88,6.88-6.88s6.88,2.5,6.88,6.88v2.67h-3.93v-3.23c0-2.08-.93-2.87-2.39-2.87s-2.35.79-1.54,2.87v15.73c-.81,2.08.11,2.83,1.54,2.83s2.38-.75,2.39-2.83v-4.64Z"/><line class="cls-6" x1="167.04" y1="492.14" x2="514.97" y2="492.14"/></g><g id="freepik--Graphics--inject-2"><rect class="cls-11" x="739.06" y="97.03" width="39.31" height="39.31"/><rect class="cls-11" x="788.21" y="97.03" width="39.31" height="39.31"/><polyline class="cls-12" points="747.29 112 753.86 125.13 773.16 103.88"/><rect class="cls-11" x="157.21" y="661.19" width="39.31" height="39.31"/><rect class="cls-11" x="206.35" y="661.19" width="39.31" height="39.31"/><polyline class="cls-12" points="164.91 676.4 171.47 689.53 190.78 668.28"/><rect class="cls-11" x="338.06" y="661.19" width="39.31" height="39.31"/><rect class="cls-11" x="389.17" y="661.19" width="39.31" height="39.31"/><polyline class="cls-12" points="347.17 676.4 353.74 689.53 373.04 668.28"/><g class="cls-2"><circle class="cls-13" cx="394.64" cy="91.66" r="24.69"/><polyline class="cls-14" points="401.96 100.58 395.06 91.66 395.06 77.37"/></g><g class="cls-2"><path d="M855.64,565.85h-4l-.6-3.93h-4.19l-.59,3.93h-3.64l3.79-23.59h5.42ZM847.23,558h3.48L849,546.33Z"/><path d="M907.13,547.66v.65s-.81,3.74-2.48,4.64c1.89.86,3,2.87,4.45,4.94v2c-1.43,2.68-3.34,5.13-6,5.45a4.7,4.7,0,0,0-1.24.55h-6.5V542.26h6C905.37,542.26,907.13,544,907.13,547.66Zm-7.86-1.47v5.9h1.55c1.47,0,2.38-.57,2.38-2.36V548.5c0-1.6-.6-2.31-2-2.31Zm0,8.65v7.08h2c1.19,0,1.92-.55,1.92-2.26v-2c0-2.12-.69-2.79-2.28-2.79Z"/><path d="M958.24,556v3.75c.86,3.7-1,5.8-4.53,5.8s-5.4-2.1-5.3-5.8v-12c-.1-3.69,1.74-5.8,5.3-5.8s5.39,2.11,4.53,5.8v2.32h-2v-2.63c-.59-1.65-1.32-2.26-2.46-2.26s-2,.61-1.47,2.26v12.44c-.5,1.65.23,2.24,1.47,2.24s1.87-.59,2.46-2.24V556Z"/><rect class="cls-3" x="835.38" y="578.63" width="27.52" height="27.52"/><rect class="cls-3" x="886.49" y="578.63" width="27.52" height="27.52"/><rect class="cls-3" x="939.57" y="578.63" width="27.52" height="27.52"/></g></g><g id="freepik--Table--inject-2"><line class="cls-15" x1="199.47" y1="901" x2="140.5" y2="901"/><line class="cls-15" x1="972" y1="901" x2="219.13" y2="901"/></g><g id="freepik--Character--inject-2"><path class="cls-16" d="M744.54,901,757.2,708.76l9.32-91.41L741,588.83l-12.81-9.32s-18,15.73-30.85,19.21-25.1,7-25.1,7S628.54,687.8,625,725.05s-9.31,175.25-9.31,175.25l4.85.7Z"/><path class="cls-15" d="M684.53,742.66s-2.19-1.12,2.18-12.36"/><path class="cls-4" d="M679.4,603.9A377,377,0,0,1,683,650.77s13.11-5.25,23.59-23.59a212,212,0,0,0,14.9-30.79Z"/><path class="cls-17" d="M744.51,901l11.38-172.84c-11.17,5.7-33.2,15.12-57.52,15.53-29.13.49-65.2-22.14-65.2-22.14l-8.12,3.19v.31c-3.5,37.35-9.32,175.25-9.32,175.25l4.86.7Z"/><path class="cls-18" d="M725.59,805.27c0,44.53,1.53,87.36,2,96.72h85.8c1.18-13.88,8.57-100.25,12.36-131.21,4.15-33.83,31.36-84.2,31.36-102.22s5.52-15.18-19.33-28.29-79.65-41.42-87.23-44.87-15.89-11.8-15.89-11.8,2.76,17.26,2,64.18S725.59,754.93,725.59,805.27Z"/><g class="cls-19"><path d="M734.35,582.91a232.85,232.85,0,0,1,1.76,24.61V584.58C735,583.58,734.35,582.91,734.35,582.91Z"/><path d="M848.16,695.53v6c.67-1.78,1.34-3.51,2-5.22v-.71h.25c.26-.65.49-1.32.73-2h-1V668.07H858v-2h-7.86v-21c-.61-.38-1.26-.73-2-1.12V666.1H826.54V642.51h16.25l-3.7-3.93H826.54v-4.8l-2-1v7.81H804.91v-18.2l-2-1v19.23H781.33V615h10.28l-3.82-2h-6.46v-3.32l-2-1V613H759.7V598.89l-3.93-1V613H736.11v2h19.66v25.56H736.11v2h21.63v25.56H736.11V657.83c-.39,9.59-1.1,19.65-2,29.89v5.9h-.51l-.18,2h.69v23.59h-2.66l-.2,2h4.82l-2,25.56h-5.58l-.18,2h5.76v23.59h-7.28l-.12,2h9.36v25.55h-9.82v2h7.86v25.55h0v25.55h-7.86v2h7.86V902h2V854.81h21.63V902h2V854.81h19.66V902h2V854.81H803V902h2V854.81h13.23a7.38,7.38,0,0,1,.18-2H804.91V827.29h15.73c0-.65.14-1.3.2-2H804.91V801.74h18.17a18.75,18.75,0,0,1,.19-2H803V774.22h21.62v3.59l.87-7.53c.27-2.2.64-4.48,1.1-6.82v-14.8h3.67l.59-2h-4.26V721.14H839.6a2.93,2.93,0,0,0,.75,0H826.54V695.59Zm-21.62-27.46h21.62v25.55H826.54Zm-68.8,184.77H736.11V829.26h21.63Zm0-25.55H736.11V801.74h21.63Zm0-27.52H736.11V776.18h21.63Zm0-25.55H736.11V748.66h21.63Zm0-27.52H736.11V723.11h21.63Zm0-25.56H736.11V695.59h21.63Zm0-27.52H736.11V670h21.63Zm21.62,159.22H757.74V829.26h21.62Zm0-25.55H757.74V801.74h21.62Zm0-27.52H757.74V776.18h21.62Zm0-25.55H757.74V748.66h21.62Zm0-27.52H757.74V723.11h21.62Zm0-25.56H757.74V695.59h21.62Zm0-27.52H757.74V670h21.62Zm0-25.55H757.74V642.51h21.62Zm0-27.52H757.74V617h21.62ZM803,852.84H781.33V829.26H803Zm0-25.55H781.33V801.74H803Zm0-27.52H781.33V776.18H803Zm0-25.55H781.33V748.66H803Zm0-27.52H781.33V723.11H803Zm0-25.56H781.33V695.59H803Zm0-27.52H781.33V670H803Zm0-25.55H781.33V642.51H803Zm21.62,106.15H803V748.66h21.62Zm0-27.52H803V723.11h21.62Zm0-25.56H803V695.59h21.62Zm0-27.52H803V670h21.62Zm0-25.55H803V642.51h21.62Z"/></g><path class="cls-15" d="M725.59,804.29c0,44.53,1.53,87.36,2,96.71h85.8c1.18-13.87,8.57-100.25,12.36-131.21,4.15-33.83,31.36-84.19,31.36-102.21s5.52-15.18-19.33-28.29-79.65-41.42-87.23-44.88-15.89-11.79-15.89-11.79,2.76,17.26,2,64.18S725.59,754,725.59,804.29Z"/><path class="cls-4" d="M734.63,582.52s2.75,17.26,2,64.18c-.16,11.79-1,24.53-2,37.66,2.36-3.24,10-13.6,11.8-14.19,2.06-.69,13.11,9.67,22.07,11.05s12.43,1.37,2.77-9-13.76-40.7-17.26-63.49a87.68,87.68,0,0,0-3.2-14.39h-.24C742.91,590.82,734.63,582.52,734.63,582.52Z"/><path class="cls-15" d="M791.27,796.39c6.34-2.89,11.34-5.39,11.34-5.39l2.34,18s-34.36,15.13-53.57,16.29-21,1.75-21,1.75l.57-17.46"/><path class="cls-15" d="M774.07,803.44c3.51-1.18,7.64-2.85,11.67-4.6"/><path class="cls-15" d="M737.38,807.89a230.2,230.2,0,0,0,30-2.74"/><line class="cls-15" x1="804.95" y1="809.05" x2="806.11" y2="823.02"/><path class="cls-18" d="M541.58,902h96.56c.21-7.57,3-103.75,4.89-152.84,2-51.11,36.64-128.63,36.64-128.63s4.64-10.93-.27-15.85-16.71-2.95-25.56,3.93-90.42,42.27-95.34,47.18-3.93,21.62-5.89,41.28-34.4,155.29-34.4,155.29-8.85,2-11.8,3.93-3,7.87-3,7.87,3.94,1,15.73,6.88C530,876.45,540.05,898.47,541.58,902Z"/><path class="cls-20" d="M667.31,642.45v10.11c.67-1.81,1.32-3.56,2-5.25v-4.8h1.85l.76-2h-2.61V615h12.38c.14-.61.3-1.27.4-2H669.28V600.68c-.65.1-1.3.2-2,.36v12H645.69v-1.34l-2,1V613h-.67l-3.93,2h4.6v23.59H624.07V623.36l-2,.93v16.26H600.48v-6.27l-2,.92v5.35H587.09l-4.16,2h15.58v25.56H578.86V645.86l-2,.94v19.3H555.27v-3.93a174,174,0,0,0-2,21.62v9.83h-.7l-.18,2h.88v23.59H548l-.41,2h5.7V746.7h-11c-.14.64-.3,1.31-.44,2H553.3v23.59h-17c-.16.67-.3,1.32-.45,2H553.3v25.55H531.68v0h-1.21l-.45,2h1.66v23.58H525l-.47,2h7.19v25.55H514a53,53,0,0,0-5.9,2h0V865.5c.59.24,1.24.52,2,.85V854.81h21.62v27.24c0,1,0,3,0,3V854.81H553.3V902h2V854.81h21.62V902h2V854.81h19.65V902h2V854.81H622.1V902h2l-2-47.18h17.69v-2H622.1V827.29h17.69v-2H622.1V801.74h19.66v-2H622.1V774.22h19.66v-2H622.1V748.66h19.66a12.94,12.94,0,0,1,.1-2H624.07V721.14h19.66v14.53c.51-4.19,1.16-8.49,2-12.86v-1.67H646c.11-.65.25-1.3.37-2h-.69V695.59h6.59c.17-.65.37-1.3.55-2h-7.14V668.07h15a2.79,2.79,0,0,0,.67,0h-15.7V642.51ZM645.69,615h21.62v25.56H645.69ZM553.3,852.84H531.68V827.29H553.3Zm0-25.55H531.68V801.74H553.3Zm23.59,25.55H555.27V827.29h21.62Zm0-25.55H555.27V801.74h21.62Zm0-27.52H555.27V774.22h21.62Zm0-25.55H555.27V748.66h21.62Zm0-27.52H555.27V721.14h21.62Zm0-25.56H555.27V695.59h21.62Zm0-27.52H555.27V668.07h21.62Zm21.62,159.22H576.89V827.29h21.62Zm0-25.55H576.89V801.74h21.62Zm0-27.52H576.89V774.22h21.62Zm0-25.55H576.89V748.66h21.62Zm0-27.52H576.89V721.14h21.62Zm0-25.56H576.89V695.59h21.62Zm0-27.52H576.89V668.07h21.62ZM622.1,852.84H600.48V827.29H622.1Zm0-25.55H600.48V801.74H622.1Zm0-27.52H600.48V774.22H622.1Zm0-25.55H600.48V748.66H622.1Zm0-27.52H600.48V721.14H622.1Zm0-25.56H600.48V695.59H622.1Zm0-27.52H600.48V668.07H622.1Zm0-25.55H600.48V642.51H622.1Zm21.63,53.07H622.1V695.59h21.63Zm0-27.52H622.1V668.07h21.63Zm0-25.55H622.1V642.51h21.63Z"/><path class="cls-15" d="M541.58,901h96.56c.21-7.56,3-103.75,4.89-152.83,2-51.11,36.64-128.64,36.64-128.64s4.64-10.93-.27-15.84-16.71-3-25.56,3.93-90.42,42.26-95.34,47.18-3.93,21.62-5.89,41.28-34.4,155.29-34.4,155.29-8.85,2-11.8,3.93-3,7.86-3,7.86,3.94,1,15.73,6.88C530,875.47,540.05,897.49,541.58,901Z"/><path class="cls-4" d="M503.46,862.67s3.94,1,15.73,6.88S541.8,901,541.8,901h19c1.2-3.57,4.13-16.59-9.22-32.43-15.72-18.67-33.41-17.69-33.41-17.69s-8.85,2-11.8,3.93S503.46,862.67,503.46,862.67Z"/><path class="cls-4" d="M667.52,601.5C663.3,612.69,653.29,638,645,650c-10.82,15.72-30.47,28.5-23.59,34.4s26.53-12.78,26.53-12.78,4.92,13.76,5.9,17.69a1.44,1.44,0,0,0,.26.49,617.49,617.49,0,0,1,25.55-70.15s4.64-10.93-.27-15.85C676.84,601.29,672.52,600.62,667.52,601.5Z"/><path class="cls-15" d="M595.74,696.39a103.42,103.42,0,0,0,1.1-11"/><path class="cls-15" d="M580.13,903.62s3-62.91,3-99.27c0-26.21,7.13-70.28,11.14-97.27"/><path class="cls-15" d="M585,790.65s15.73,4.91,23.59,5.89l23.59,3-1.79,22.27s-1.16-.65-18.85-6.54-28.5-10.81-28.5-10.81"/><path class="cls-15" d="M630.43,821.7s-1.16,43.64-1.16,49.54-17.69,2-17.69,2"/><path class="cls-16" d="M644.54,580.75s18.54,26.65,35.13,38.94,30.75-4.92,41.81-23.35,18.44-32,24-48,0-42.4-22.11-63.29-73.77-51.64-86.67-35.66-25.2,51.11-16.61,81.12A158.73,158.73,0,0,0,644.54,580.75Z"/><path class="cls-21" d="M636.74,523.41a37.3,37.3,0,0,1,21.45,0"/><path class="cls-10" d="M652.6,539.86c.59,3.18-.15,6-1.67,6.27s-3.18-2.08-3.77-5.29.16-6,1.67-6.27S652,536.66,652.6,539.86Z"/><path class="cls-10" d="M707.29,540.71c.57,3.18-.18,5.89-1.67,6.27s-3.19-2.09-3.78-5.29.16-6,1.68-6.27S706.7,537.5,707.29,540.71Z"/><path class="cls-15" d="M666.78,584.05a57.86,57.86,0,0,0,22.11,3.07c12.92-.61,24-9.83,24-9.83"/><path class="cls-4" d="M638.57,463s27.3,62.27,30.72,64,10.24-18.77,10.24-18.77,9.38,17,20.51,22.17,14.5-3.4,14.5-3.4a188.36,188.36,0,0,1,16.22,10.25l4.27,3.4L739.29,556s-12.8,41.81-8.53,46.94,28.15-1.71,28.15-1.71-5.9,8.53,1.71,8.53,21.33,1.71,41-24.75,21.32-69.09,21.32-69.09,9.38,10.22,10.24-2.58-11.08-34.12-11.08-34.12,18.75,18.77,17.06-.85-12.8-41.81-17.06-46.92-29.88-19.66-29.88-19.66,10.24-1.71,2.57-13.66-35.83-15.35-46.07-15.35-31.57,3.42-31.57,3.42,13.66-26.46-.85-28.17-40.1,26.46-40.1,26.46S650.6,364,642.87,368.27s-2.55,10.24-2.55,10.24-33.26,2.56-42.66,17.07,1.71,23,1.71,23-59.72,40.95-50.34,56.3,26.46.87,26.46.87-23.9,61.43-20.48,65.69,19.65-1.71,19.65-1.71-.84,49.48,12,54.61S602,590.1,602,590.1s6.82,6.82,22.19,7.67,20.46-17.06,20.46-17.06-17.06-40.1-16.19-73.36S638.57,463,638.57,463Z"/><path class="cls-16" d="M672.93,534.87s-6.15,32-1.24,38.72,22.13,0,23.35-3.67"/><ellipse class="cls-15" cx="647.41" cy="536.71" rx="24.28" ry="17.83"/><ellipse class="cls-15" cx="705.8" cy="535.5" rx="24.28" ry="17.83"/><path class="cls-15" d="M672.93,534.87s4.91-3.68,8.59.63"/><path class="cls-22" d="M470.66,875s30.86-8.7,40.35-10.28,28.51,15.83,31.67,25.32-.88,11.62-.88,11.62l-63.24-2.1Z"/><path class="cls-22" d="M481.84,871.93s23.3,8.73,29.11,12.23,4.07,10.47.59,14a32.76,32.76,0,0,1-14.56,7,143,143,0,0,1-16.3,0c-7-.59-13.38.59-19.2.59s-23.3-1.75-23.3-1.75l-5.25-3.5s-9.82,2.91-17.45,5.9-5.25-3.5.57-8.16,20.38-16.3,22.72-17.46,32-9.82,32-9.82Z"/><path class="cls-22" d="M490.57,874.25s-15.16-7-19.22-7-33.19,9.83-37.26,12.8-8.15,30.86-5.24,32.61,5.24-3.5,5.89-7,8.75-22.13,8.75-22.13l-5.9,29.7s2.34,4.64,4.66.57,16.89-32,18.05-33.77a20.79,20.79,0,0,1,5.25-4.07s-2.91,12.81-5.25,25-.57,15.73,2.93,16.3,5.23-7.57,7-11.64,9.32-27.38,9.32-27.38"/><path class="cls-22" d="M507.4,885.9S489.94,904,487.6,908s-2.32,4.66,4.09,4.66,26.2-12.82,27.93-14.57,1.18-7-2.91-10.48A10.34,10.34,0,0,0,507.4,885.9Z"/><path class="cls-22" d="M616.41,883.9s-23.29,7.53-29,11.79-14,9-12.19,10.4,7.53,0,9.32-1.43,10-2.87,10-2.87,9.67-5.74,17.2-10.38S625,881.74,616.41,883.9Z"/><path class="cls-16" d="M745,844.47s-64.87,11.79-88.34,20-32.8,14-44.54,22.27-35.52,24-32,26.71,15.86-6.9,17.94-9,17.24-8.28,17.24-8.28l10.15-5.19s-15.28,18.82-20.78,23.59-1.79,7.77,2.36,6.39,12-9.61,12-9.61l25.22-16.59s-10.36,14.51-15.2,18.63,5.53,7.61,7.61,4.15,12.43-12.42,12.43-12.42,17.23-9,21.38-12.43,14.49-13.11,14.49-13.11l77.29,6.22s4.84-2.76,2.09-18.64S745,844.47,745,844.47Z"/><path class="cls-18" d="M797.44,722.32l38,93.88L774,837.59,791.23,888s44.11.12,78.62-2,58.74-22.9,53.22-47.72-26.23-60.75-42.8-103.54-11.44-68.31-19-81.42-29-16.57-29-16.57l-11.79-2"/><path class="cls-23" d="M917,864.72v-9.91h5.13c.22-.65.39-1.3.55-2H917V827.29h2.95c-.22-.63-.45-1.3-.67-2H917v-6c-.63-1.63-1.28-3.3-2-5v11H893.37V801.74h14.82c-.29-.65-.57-1.3-.86-2h-14V774.22h4c-.31,0-.61-.6-.9-2h-3.12v-3.4c.62-1.46,0-4.39,0-4.39v7.79H871.75V748.66h13.76c-.28-.65-.55-1.3-.81-2h-13V721.14h3.67c-.21-.65-.41-1.32-.6-2h-3.07V708c-.75-3.1-1.4-6.07-2-8.92v20.13H848.16V695.59H868l-.35-2H848.16V668.07h2V643.13a56.14,56.14,0,0,0-5.5-2.58H826.54v-4.41l-2-.35v4.76h-5.8l-.53,2h6.33V666.1H812.08l-.51,2h15v25.55h-19.8l-.53,2h18.36v25.55H803v-2h-4.86l-.51,2H803v0h21.62V746.7H806.88l.79,2h16.9v25.56h0v16l2,4.86V774.22h19.65v25.55H827.34l.81,2h20v25.55H826.54v-8.06l-2,.69v7.37H803v23.59H781.33v-16l-2,.69v17.28h-.28l2.25,7v-5.05H803v33.42h0V854.81h21.62v33.42h2V854.81h21.62v33.42h2V854.81h19.65v31.45l2-.16V854.81h21.62v27l2-.75V854.81H915v12.35C915.68,866.35,916.35,865.54,917,864.72Zm-92.39-11.88H803V827.29h21.62Zm23.59,0H826.54V827.29h21.62Zm0-78.62H826.54V748.66h21.62Zm0-27.52H826.54V721.14h21.62Zm0-25.56H826.54V695.59h21.62Zm0-27.52H826.54V668.07h21.62Zm0-25.55H826.54V642.51h21.62Zm21.62,184.77H848.16V827.29h21.62Zm0-25.55H848.16V801.74h21.62Zm0-27.52H848.16V774.22h21.62Zm0-25.55H848.16V748.66h21.62Zm0-27.52H848.16V721.14h21.62Zm23.59,106.14H871.75V827.29h21.62Zm0-25.55H871.75V801.74h21.62Zm0-27.52H871.75V774.22h21.62Zm0,53.1V827.29H915v25.55Z"/><path class="cls-15" d="M797.44,722.32l38,93.88L774,837.59,791.23,888s44.11.12,78.62-2,58.74-22.9,53.22-47.72-26.23-60.75-42.8-103.54-11.44-68.31-19-81.42-29-16.57-29-16.57l-11.79-2"/><path class="cls-15" d="M872.35,806.65a275.22,275.22,0,0,0-37,9.53s26.22-17.26,40.71-18.63"/><path class="cls-15" d="M889.92,805.82a37.58,37.58,0,0,0-8.21-.27"/><path class="cls-4" d="M791.91,830s14,13.35,18.09,23.69,2.61,38.43-.14,41.18-54.12,2.42-62.57-8.14c-2.2-2.75,12.88-9.1,5.29-24.3s-11.05-16.55-11.05-16.55-6.21-3.46,5.53-11S785.7,821.7,791.91,830Z"/></g><g id="freepik--Drink--inject-2"><polygon class="cls-24" points="914.16 936.39 863.45 936.39 857.11 836.14 920.5 836.14 914.16 936.39"/><rect class="cls-25" x="855.04" y="836.14" width="68.8" height="13.76"/><polygon class="cls-25" points="923.48 836.14 854.15 836.14 861.07 828.27 916.54 828.27 923.48 836.14"/><polygon class="cls-25" points="915.6 906.9 918.08 867.59 859.52 867.59 862.01 906.9 915.6 906.9"/></g><g id="freepik--Device--inject-2"><polygon class="cls-24" points="621.12 943.09 684.02 926.47 684.02 934.98 621.12 952.61 621.12 943.09"/><polygon class="cls-25" points="683.45 926.56 355.19 926.56 291.74 942.28 620.66 942.28 683.45 926.56"/><rect class="cls-25" x="292.85" y="753.58" width="328.27" height="198.54"/><path class="cls-24" d="M621.12,781.74c-71.43,3.41-114,69.36-177.18,113.54-57.61,40.3-128.76,47.18-151.09,48.26v8.57H621.12Z"/><rect class="cls-17" x="292.85" y="942.28" width="328.27" height="9.83"/></g><g id="freepik--Plant--inject-2"><path class="cls-26" d="M194.36,877.37S167,833.54,189,808.87s57.54-12.8,64.87,10-8.22,61.22-8.22,61.22Z"/><path class="cls-26" d="M195.26,827.13c-4.56,0-21.92-6.39-27.4-14.61S161.43,786,177,786s21,27.4,21,27.4l.91,10"/><path class="cls-26" d="M209.32,810.07c-4.09-2-16.77-15.49-18-25.3s6.11-26.56,20-19.66S217.89,799,217.89,799l-3.68,9.4"/><path class="cls-26" d="M225.91,814.67c-2.28-3.93-5.35-22.2-.95-31s19.82-18.72,27.52-5.23-13.34,31.84-13.34,31.84L230.86,816"/><path class="cls-26" d="M231.35,847.42c-.75-4.53,2.67-22.69,9.83-29.49s25.06-10.71,27.64,4.6-23.59,25.28-23.59,25.28l-9.83,2.55"/><line class="cls-27" x1="169.86" y1="801.5" x2="172.95" y2="806.35"/><line class="cls-27" x1="178.69" y1="813.41" x2="183.53" y2="817.36"/><line class="cls-27" x1="173.4" y1="792.24" x2="178.24" y2="799.3"/><line class="cls-27" x1="184.86" y1="805.04" x2="190.15" y2="814.73"/><line class="cls-27" x1="197.19" y1="781.66" x2="198.96" y2="786.95"/><line class="cls-27" x1="203.36" y1="796.64" x2="206.45" y2="801.06"/><line class="cls-27" x1="202.04" y1="771.09" x2="206.01" y2="779.89"/><line class="cls-27" x1="186.61" y1="833.24" x2="187.95" y2="841.16"/><line class="cls-27" x1="190.58" y1="848.65" x2="192.35" y2="855.28"/><line class="cls-27" x1="194.99" y1="833.68" x2="196.75" y2="842.48"/><line class="cls-27" x1="200.73" y1="848.65" x2="202.04" y2="855.28"/><line class="cls-27" x1="203.81" y1="822.22" x2="206.45" y2="834.56"/><line class="cls-27" x1="209.98" y1="846.45" x2="210.42" y2="852.19"/><line class="cls-27" x1="214.82" y1="818.24" x2="217.02" y2="829.7"/><line class="cls-27" x1="217.02" y1="841.62" x2="217.91" y2="853.51"/><line class="cls-27" x1="227.98" y1="822.38" x2="227.98" y2="832.2"/><line class="cls-27" x1="226.28" y1="844.7" x2="226.73" y2="852.19"/><line class="cls-27" x1="238.62" y1="776.81" x2="236.42" y2="782.11"/><line class="cls-27" x1="235.54" y1="788.27" x2="233.34" y2="795.78"/><line class="cls-27" x1="248.32" y1="786.95" x2="244.8" y2="794.01"/><line class="cls-27" x1="237.31" y1="801.95" x2="233.34" y2="806.35"/><line class="cls-27" x1="228.93" y1="786.52" x2="227.62" y2="792.24"/><line class="cls-27" x1="248.32" y1="818.24" x2="243.48" y2="826.19"/><line class="cls-27" x1="240.39" y1="831.02" x2="237.74" y2="838.08"/><line class="cls-27" x1="244.36" y1="841.62" x2="252.29" y2="837.19"/><line class="cls-27" x1="257.14" y1="818.24" x2="253.17" y2="824.87"/><line class="cls-27" x1="261.11" y1="825.73" x2="255.82" y2="829.7"/><rect class="cls-28" x="180.8" y="861.69" width="74.7" height="74.7"/></g></svg>