<svg id="Capa_1" data-name="Capa 1" xmlns="http://www.w3.org/2000/svg" viewBox="0 0 1000 1000"><defs><style>.cls-1{fill:#d3d3d3;}.cls-2{fill:#455a64;}.cls-17,.cls-18,.cls-22,.cls-3{fill:#263238;}.cls-4{fill:#e0e0e0;}.cls-5{fill:#b4b4b5;}.cls-6{fill:#ba68c8;}.cls-7{opacity:0.8;}.cls-8{fill:#f9994b;}.cls-9{opacity:0.6;}.cls-10{fill:#fff;}.cls-11{fill:#fafafa;}.cls-12{fill:#a88556;stroke-width:2.28px;}.cls-12,.cls-14,.cls-16,.cls-17,.cls-18,.cls-19,.cls-20,.cls-21,.cls-22{stroke:#263238;}.cls-12,.cls-18,.cls-19,.cls-20,.cls-21,.cls-22{stroke-linecap:round;stroke-linejoin:round;}.cls-13{fill:#a57551;}.cls-14,.cls-16,.cls-19,.cls-20{fill:none;}.cls-14,.cls-16,.cls-17{stroke-miterlimit:10;}.cls-14{stroke-width:4.17px;}.cls-15{fill:#9ec10c;}.cls-16{stroke-width:1.04px;}.cls-17{stroke-width:2.09px;}.cls-18,.cls-19{stroke-width:1.52px;}.cls-20{stroke-width:3.05px;}.cls-21{fill:#ce6b51;}.cls-21,.cls-22{stroke-width:1.4px;}</style></defs><g id="freepik--background-simple--inject-2"><path class="cls-1" d="M789.19,316.75S695,192.74,513.61,176.31,282.23,279.4,219.39,340.6,25.13,446.73,15.12,594.66s70,222.62,181.4,219.63,145.7,22.43,240,73.22,251.39,29.87,325.67-46.32S892.21,727.65,907.84,585.62,789.19,316.75,789.19,316.75Z"/></g><g id="freepik--character-1--inject-3"><rect class="cls-2" x="331.27" y="356.16" width="173.49" height="300.16" rx="26.68"/><path class="cls-3" d="M346.06,366.34c-.36,0-.64,64.38-.64,143.74s.28,143.78.64,143.78.63-64.36.63-143.78S346.42,366.34,346.06,366.34Z"/><path class="cls-4" d="M678.24,561.28v3.66c-1.76,2.45-1.93,5.95-2.06,10.46-.22,9.12-.56,22.23-.94,38.42-.66,32.52-1.6,77.32-2.75,126.81,0,4,.24,11.62.24,11.62v2.53l.61-2.31,50.28-108,14.84-32.44,4-8.78,1-2.29.33-.8a7.18,7.18,0,0,0-.42.75l-1.1,2.26-4.07,8.7c-3.64,7.65-8.81,18.64-15.29,32.27-12.83,27.4-30.65,65.37-50.55,107.81l1,.22c0-3.66.17-7.63.25-11.59.91-49.57,1.71-94.32,2.32-126.81.24-16.19,2.28-38.56,2.28-38.56V562.05C676.55,561.79,678.24,561.28,678.24,561.28Z"/><path class="cls-4" d="M600,620.76a5.91,5.91,0,0,0,.58,1.4l1.85,3.86c1.62,3.36,4,8.26,7.07,14.15,6.06,11.9,14.62,28.2,24.48,46s19.28,33.78,26,45.24c3.44,5.73,6.25,10.33,8.26,13.49l2.29,3.64a9.39,9.39,0,0,0,.85,1.24,6.5,6.5,0,0,0-.66-1.35l-2.12-3.75-7.93-13.77c-6.66-11.56-15.83-27.53-25.69-45.38s-18.51-34.06-24.79-45.85c-3.08-5.81-5.5-10.57-7.38-14-.85-1.54-1.51-2.75-2-3.77S600,620.76,600,620.76Z"/><path class="cls-4" d="M563.46,729.83c0,.3,24.79,5.51,55.3,11.84s55.46,11,55.52,10.77-24.79-5.51-55.3-11.84S563.52,729.56,563.46,729.83Z"/><path class="cls-4" d="M566.93,806.91c0,.27,24.15-11,53.65-25.31s53.28-26.05,53.14-26.32-24.12,11-53.61,25.33S566.8,806.66,566.93,806.91Z"/><path class="cls-4" d="M588.72,864.77a7,7,0,0,0,1-.94l2.75-2.75c2.42-2.46,5.86-6.09,10-10.63,8.26-9.09,19.58-22,31.31-36.68s21.7-28.59,28.67-38.75c3.5-5.09,6.25-9.25,8.1-12.17l2.12-3.36a5.53,5.53,0,0,0,.68-1.21,6.09,6.09,0,0,0-.85,1.1c-.61.83-1.35,1.9-2.29,3.25l-8.37,11.92c-7.1,10.05-17.18,23.8-28.88,38.56s-22.83,27.53-31,36.81l-9.72,10.8c-1.07,1.24-2,2.2-2.75,3A5.59,5.59,0,0,0,588.72,864.77Z"/><path class="cls-4" d="M634.43,920.67a9.43,9.43,0,0,0,.47-1.71c.24-1.24.63-2.89,1.07-5,1-4.43,2.29-10.63,3.94-18.28,3.39-15.4,8.26-36.63,14.26-60s12-44.28,16.53-59.4c2.23-7.49,4.07-13.58,5.37-17.9l1.43-4.87a11.3,11.3,0,0,0,.44-1.71,8.94,8.94,0,0,0-.64,1.65c-.41,1.19-1,2.76-1.65,4.82-1.4,4.16-3.36,10.24-5.7,17.79-4.68,15.06-10.77,36-16.77,59.34s-10.82,44.61-14.1,60.23c-1.59,7.71-2.75,14-3.6,18.34-.36,2.09-.67,3.74-.89,5A14.74,14.74,0,0,0,634.43,920.67Z"/><path class="cls-4" d="M714,939.27v-.51a11.38,11.38,0,0,0-.31-1.41c-.34-1.36-.77-3.17-1.33-5.47-1.16-4.86-2.83-11.68-4.81-20.12-4-17-9.26-40.49-14.15-66.64s-8.8-50-11.32-67.24c-1.22-8.49-2.21-15.54-2.83-20.46-.34-2.35-.6-4.22-.79-5.66l-.26-1.44v0a6,6,0,0,0,.14,1.47l.6,5.66c.53,4.84,1.38,11.85,2.57,20.51,2.32,17.3,6,41.15,11,67.33s10.39,49.69,14.6,66.64c2.1,8.49,3.88,15.31,5.18,20l1.5,5.43.43,1.39C714,939.1,714,939.27,714,939.27Z"/><path class="cls-4" d="M787.15,806.91a5.5,5.5,0,0,0-1.1-.58l-3.25-1.49-12-5.37-39.6-17.81c-15.45-7-29.5-13.22-39.74-17.54-5.12-2.18-9.25-3.89-12.14-5L676,757.75l-1.19-.38a4.63,4.63,0,0,0,1.1.58l3.25,1.51,12,5.34,39.6,17.85c15.45,7,29.49,13.19,39.73,17.54,5.13,2.15,9.28,3.88,12.17,5l3.34,1.29C786.74,806.83,787.12,807,787.15,806.91Z"/><path class="cls-4" d="M665.24,750.32a5.83,5.83,0,0,0,1.3-.36l3.63-1.24c3.14-1.07,7.69-2.75,13.25-4.82,11-4.18,26.38-10.35,43-17.79s31.31-14.89,41.83-20.4c5.28-2.75,9.5-5.07,12.41-6.69l3.31-1.9c.77-.44,1.16-.69,1.13-.75a8.29,8.29,0,0,0-1.21.55l-3.45,1.71-12.53,6.42c-10.62,5.51-25.38,12.58-41.93,20s-31.78,13.68-42.8,18.12L670,748.34l-3.58,1.4Z"/><path class="cls-4" d="M663.54,752.22c0,8.84,4.13,16,9.22,16s9.2-7.13,9.2-16-4.13-16-9.2-16S663.54,743.38,663.54,752.22Z"/><path class="cls-4" d="M759.26,882.66c.24-.16-18.92-29.52-42.8-65.51s-43.45-65.1-43.7-64.93,18.92,29.49,42.79,65.51S759,882.83,759.26,882.66Z"/><path class="cls-4" d="M667.83,754.42c0,.31,27.21-1,60.72-3s60.58-3.75,60.58-4.05-27.2,1-60.72,3S667.83,754.12,667.83,754.42Z"/><path class="cls-4" d="M577.7,685a4.69,4.69,0,0,0,.94.66l2.75,1.71c2.45,1.43,6,3.58,10.38,6.22,8.76,5.32,20.68,12.95,33.41,22s23.79,17.9,31.66,24.43c3.94,3.28,7.11,6,9.28,7.82l2.54,2.12a5.42,5.42,0,0,0,.91.66,6.06,6.06,0,0,0-.77-.83l-2.4-2.28c-2.09-2-5.18-4.71-9.06-8.07-7.77-6.69-18.81-15.61-31.56-24.78S601,698.16,592.19,692.93c-4.44-2.59-8.07-4.62-10.61-5.95l-2.91-1.54Z"/><path class="cls-4" d="M667.94,944.16a8,8,0,0,0,.17-1.82c0-1.3,0-3,.19-5.21.16-4.62.36-11.15.61-19.27.49-16.28,1.18-38.56,2-63.34s1.68-47,2.29-63.33c.27-8-.42-19.28-.42-19.28V770.6a10.23,10.23,0,0,0,0-1.75,12.38,12.38,0,0,0-.18,1.72c0,1.23-.18,2.87-.34,4.93-.23,4.39-.55,10.57-1,18.27-.76,15.35-1.68,36.55-2.46,60s-1.3,44.63-1.56,60L670,937.11v5.23S667.84,943.55,667.94,944.16Z"/><path class="cls-4" d="M560.88,766.46h2.17l6.25-.28c5.51-.29,13.36-.79,23.22-1.57,19.69-1.55,47.17-4.37,78.12-9.16h.19l.14-.13c4.76-5.05,9.78-10.28,14.87-15.7l62.7-66.25,18.92-20.14,5.1-5.5,1.29-1.46c.3-.34.44-.5.41-.53l-.49.45-1.38,1.39L767.13,653,747.86,672.9l-62.93,66c-5.09,5.36-10.1,10.6-14.87,15.7l.3-.16c-30.92,4.82-58.35,7.85-78,9.5-9.86.86-17.73,1.46-23.18,1.86l-6.23.47-1.62.15A1.62,1.62,0,0,0,560.88,766.46Z"/><path class="cls-4" d="M712.25,570.34a13,13,0,0,0-1.07,3.5c-.58,2.31-1.38,5.76-2.4,10.19-2,8.84-4.76,21.7-8.26,37.59-6.75,31.78-15.86,75.73-25.78,124.3l-.69,4h1.05c-11.18-47.36-21.28-90.05-28.58-120.94-3.69-15.4-6.67-27.84-8.73-36.49l-2.45-9.89c-.28-1.1-.5-2-.64-2.56a4.7,4.7,0,0,0-.27-.88,9.1,9.1,0,0,0,.16.91,16.71,16.71,0,0,0,.55,2.59l2.24,9.94c2,8.68,4.87,21.12,8.39,36.54,7.25,30.93,17.21,73.64,28.28,121l.56,2.4.49-2.43.8-3.91,25.47-124.36c3.31-15.86,6-28.72,7.82-37.67,1-4.4,1.68-7.85,2.21-10.21.24-1.13.46-2,.6-2.76A7.21,7.21,0,0,1,712.25,570.34Z"/><path class="cls-5" d="M783.46,752.22c0-99.3-44.53-180.89-101.5-190.28a68.82,68.82,0,0,1,11-.91c62.13,0,112.47,85.61,112.47,191.19S755.1,943.41,693,943.41a68.82,68.82,0,0,1-11-.91C738.93,933.11,783.46,851.66,783.46,752.22Z"/><path class="cls-3" d="M783.05,752.22s0,1.44-.17,4.27v5.15s.2,4.46.09,7.16a315.09,315.09,0,0,1-6.2,46.48A264.82,264.82,0,0,1,768,847.55a217.06,217.06,0,0,1-15.91,36,157.17,157.17,0,0,1-11.82,18.29A130,130,0,0,1,725,919.12,84.26,84.26,0,0,1,681.79,942l-3.27.55,3.27.53a60.84,60.84,0,0,0,13.94.8,70.91,70.91,0,0,0,14.12-2,83.21,83.21,0,0,0,26.52-12.55c16.36-11.65,29.47-28.45,39.66-47.12a238.39,238.39,0,0,0,22.52-61.63,318.29,318.29,0,0,0,0-136.56A238.32,238.32,0,0,0,776,622.33c-10.19-18.7-23.3-35.5-39.66-47.15a82.64,82.64,0,0,0-26.52-12.53,69.41,69.41,0,0,0-14.12-2,62,62,0,0,0-13.94.8l-3.27.53,3.27.55A84.26,84.26,0,0,1,725,585.32a132.76,132.76,0,0,1,15.22,17.26,157.17,157.17,0,0,1,11.82,18.29,217.06,217.06,0,0,1,15.91,36,265.28,265.28,0,0,1,8.79,32.3,313,313,0,0,1,6,46.45c0,2.76.22,5.1.33,7.16s0,3.77,0,5.18a5.36,5.36,0,0,0,2.54,4.24V745.7c0-2.14-.17-4.58-.26-7.37a316.57,316.57,0,0,0-5.72-48,271.35,271.35,0,0,0-9-33.5,224.32,224.32,0,0,0-16.39-37.66,167.45,167.45,0,0,0-12.22-19,138,138,0,0,0-15.82-18,88.23,88.23,0,0,0-45.24-24v3.19a60.73,60.73,0,0,1,13.86-.78,69.61,69.61,0,0,1,13.85,2A82.46,82.46,0,0,1,735,575.07c16.27,11.61,29.35,28.35,39.52,47.11A239.39,239.39,0,0,1,797,683.89a320.31,320.31,0,0,1,0,136.86,239.32,239.32,0,0,1-22.5,61.68c-10.2,18.7-23.25,35.47-39.52,47.1A82.56,82.56,0,0,1,708.7,942a68.89,68.89,0,0,1-13.85,2,60.17,60.17,0,0,1-13.86-.77v1.08A85.73,85.73,0,0,0,725,921a133.81,133.81,0,0,0,15.43-17.52A162,162,0,0,0,752.32,885a218.56,218.56,0,0,0,16-36.44A257.16,257.16,0,0,0,777,815.92a306.27,306.27,0,0,0,5.76-46.85c0-2.77.17-5.13.25-7.21s0-3.82,0-5.23C783.08,753.66,783.05,752.22,783.05,752.22Z"/><path class="cls-3" d="M671,561a68.82,68.82,0,0,1,11,.91c-56.94,9.39-101.47,90.87-101.47,190.28S625.07,933.11,682,942.5a68.82,68.82,0,0,1-11,.91c-62.13,0-112.46-85.61-112.46-191.19S608.79,561,671,561Z"/><path class="cls-6" d="M709.25,794.14l-3,59.42s59.4,23,59.89,34.07L650.7,885.89l.88-92.77Z"/><g class="cls-7"><path class="cls-8" d="M709.25,794.14l-3,59.42s59.4,23,59.89,34.07L650.7,885.89l.88-92.77Z"/></g><path class="cls-3" d="M709,853.47c0,.58-2.76.8-5.65,2.57s-4.32,4.1-4.82,3.88.36-3.47,3.8-5.51S709.17,853,709,853.47Z"/><path class="cls-3" d="M721.06,858.68c0,.55-2.34,1.46-4.27,3.83s-2.56,4.84-3.11,4.82-.88-3.23,1.6-6.12S721.06,858.13,721.06,858.68Z"/><path class="cls-3" d="M727.73,873.27c-.53,0-1.27-2.75.24-5.78s4.13-4.27,4.38-3.8-1.43,2.12-2.75,4.66S728.28,873.22,727.73,873.27Z"/><path class="cls-3" d="M708.23,839.87c-.25.5-2.75-.3-6-.14s-5.67,1.13-6,.64,2.12-2.45,5.87-2.59S708.5,839.43,708.23,839.87Z"/><path class="cls-3" d="M708.61,827.87a11.11,11.11,0,0,1-5.78,0,25.63,25.63,0,0,1-6-2,24.42,24.42,0,0,1-3.28-1.82,6.39,6.39,0,0,1-1.73-1.37,2.47,2.47,0,0,1-.22-3,3.08,3.08,0,0,1,2.5-1.24,7.43,7.43,0,0,1,2.15.34,19.91,19.91,0,0,1,8.87,4.84c2.75,2.54,3.52,4.66,3.33,4.77s-1.54-1.63-4.24-3.69a23.1,23.1,0,0,0-5.12-3,22.42,22.42,0,0,0-3.31-1.07c-1.21-.33-2.25-.36-2.56.19s-.13.28,0,.64a6.25,6.25,0,0,0,1.27,1c1,.65,2,1.24,3,1.79a35.1,35.1,0,0,0,5.51,2.23A38.51,38.51,0,0,1,708.61,827.87Z"/><path class="cls-3" d="M707.93,828.66c-.22,0-1.3-1.95-1.46-5.5a19.27,19.27,0,0,1,.88-6.31,18.8,18.8,0,0,1,1.54-3.5,4.75,4.75,0,0,1,3.72-2.75,2.75,2.75,0,0,1,2.39,1.65,7.45,7.45,0,0,1,.55,2.12,12.21,12.21,0,0,1,0,3.91A13.16,13.16,0,0,1,713,824.2c-2.31,3-4.68,3.61-4.71,3.42a24.05,24.05,0,0,0,3.55-4.19,13,13,0,0,0,1.9-5.51,10.94,10.94,0,0,0,0-3.33c-.13-1.24-.6-2.23-1-2.09a4.46,4.46,0,0,0-2.07,1.84,20.22,20.22,0,0,0-1.48,3.12,21.33,21.33,0,0,0-1.19,5.75C707.6,826.46,708.17,828.58,707.93,828.66Z"/><path class="cls-8" d="M677.59,800l-2.37,56S731.4,877.21,732,887.63L623.17,887V799.51Z"/><path class="cls-4" d="M640.68,851.24a4.43,4.43,0,0,0-3.08,5,4.25,4.25,0,0,0,4.95,3.14,4.69,4.69,0,0,0,3.28-5.37,4.43,4.43,0,0,0-5.51-2.75"/><g class="cls-9"><path class="cls-10" d="M622.26,887l.33-8.81,104.14,3.91s4.82,2.15,4.27,5.51Z"/></g><path class="cls-3" d="M676.07,855.62c0,.53-2.76.75-5.32,2.45s-4,3.91-4.52,3.69.33-3.27,3.53-5.26S676.18,855.13,676.07,855.62Z"/><path class="cls-3" d="M687.44,860.41c0,.5-2.2,1.41-4,3.64s-2.34,4.6-2.76,4.57-.85-3,1.46-5.75S687.41,859.92,687.44,860.41Z"/><path class="cls-3" d="M693.83,874.1c-.5,0-1.21-2.56.16-5.51s3.88-4.05,4.11-3.6-1.33,2-2.43,4.4S694.35,874.05,693.83,874.1Z"/><path class="cls-3" d="M675.18,842.79c-.24.5-2.75-.25-5.67,0s-5.34,1.13-5.51.66,2-2.34,5.51-2.5S675.43,842.38,675.18,842.79Z"/><path class="cls-3" d="M675.43,831.5a10.31,10.31,0,0,1-5.51,0,24.52,24.52,0,0,1-5.67-1.76,26.65,26.65,0,0,1-3.11-1.68,7.17,7.17,0,0,1-1.65-1.3,2.32,2.32,0,0,1-.22-2.75,2.84,2.84,0,0,1,2.34-1.18,7.06,7.06,0,0,1,2,.27,20.24,20.24,0,0,1,3.38,1.19,19,19,0,0,1,5,3.33c2.5,2.34,3.36,4.35,3.19,4.43s-1.46-1.49-4-3.44a21.94,21.94,0,0,0-4.85-2.76,20.84,20.84,0,0,0-3.11-1c-1.15-.3-2.15-.33-2.42.2s0,.27,0,.6a4.89,4.89,0,0,0,1.18.94,33.4,33.4,0,0,0,2.89,1.68,30.58,30.58,0,0,0,5.24,2A32.08,32.08,0,0,1,675.43,831.5Z"/><path class="cls-3" d="M674.88,832.38a8.52,8.52,0,0,1-1.4-5.26,18,18,0,0,1,.77-6,18.29,18.29,0,0,1,1.4-3.28,4.49,4.49,0,0,1,3.5-2.75,2.48,2.48,0,0,1,2.26,1.51,7.06,7.06,0,0,1,.55,2,12.33,12.33,0,0,1-2.37,9.28c-2.15,2.75-4.35,3.41-4.41,3.25a23.41,23.41,0,0,0,3.34-4,12.67,12.67,0,0,0,1.73-5.1,11.15,11.15,0,0,0,0-3.16c-.16-1.16-.58-2.1-1-2a4,4,0,0,0-1.9,1.76,16.81,16.81,0,0,0-1.37,2.95,20.75,20.75,0,0,0-1.11,5.51C674.47,830.18,675.05,832.16,674.88,832.38Z"/><path class="cls-3" d="M373.94,568.28l56.66-7.7s118.1-23.74,177.85-31.14a102.8,102.8,0,0,1,32.51.8c21.92,4.41,29.32,30.78,33.08,47.11s14.14,260.71,14.14,260.71H617.77l-28.2-211-74.5,23.79H387.24C372.44,639.16,373.94,568.28,373.94,568.28Z"/><path class="cls-3" d="M585,534.62s75.56-8.54,90.87-5.76c18.59,3.39,37.92,21.54,38.14,44.95V837.15c0,2.91-71.87,0-71.87,0l-33-208.77-80.71-25.55Z"/><path class="cls-2" d="M599.73,531.43a5.24,5.24,0,0,0,1,0l2.75-.47c2.45-.42,6.08-.94,10.79-1.35a108.42,108.42,0,0,1,17.19-.2c1.65.14,3.38.25,5.15.56l2.75.41,2.75.6a52.28,52.28,0,0,1,5.51,1.68c.91.36,1.82.8,2.76,1.22l1.37.66,1.11.69a36.41,36.41,0,0,1,8.53,7.16A57.11,57.11,0,0,1,670,556a76.74,76.74,0,0,1,4.82,14.21,90.75,90.75,0,0,1,2.4,15.72c1,21.89,2.09,45.93,3.25,71.19,2.36,50.5,4.54,96.21,6.08,129.42.86,16.52,1.52,29.88,2,39.19.25,4.6.47,8.26.61,10.65,0,1.19.14,2.1.17,2.76s0,.93,0,.93q0-.48,0-1v-2.75c0-2.51-.22-6.09-.39-10.69-.39-9.31-1-22.66-1.65-39.18-1.46-33.05-3.53-78.87-5.79-129.43-1.15-25.25-2.28-49.32-3.3-71.21A91.36,91.36,0,0,0,675.65,570a76.07,76.07,0,0,0-4.93-14.38,57.43,57.43,0,0,0-8.87-13.87,37,37,0,0,0-8.79-7.26l-1-.62-1.43-.66c-1-.42-1.87-.88-2.75-1.24a51.19,51.19,0,0,0-5.68-1.65l-2.75-.61-2.75-.39a50.77,50.77,0,0,0-5.21-.52,105.63,105.63,0,0,0-17.24.39c-4.73.49-8.26,1.07-10.79,1.54l-2.75.58A6.3,6.3,0,0,0,599.73,531.43Z"/><path class="cls-2" d="M586.4,598.07a17.6,17.6,0,0,0,0,3.08c0,2,.36,4.85.75,8.26.77,7,2,16.72,3.58,27.4s3,20.35,4.24,27.32c.58,3.5,1.1,6.3,1.46,8.26a18.17,18.17,0,0,0,.71,3,14.31,14.31,0,0,0-.3-3.06c-.28-2.14-.66-5-1.13-8.26-1-7.21-2.39-16.77-3.91-27.37s-2.75-20.13-3.88-27.34c-.44-3.34-.83-6.14-1.1-8.27A21.94,21.94,0,0,0,586.4,598.07Z"/><path class="cls-2" d="M572.14,607a10.62,10.62,0,0,0,1.1,4A32.36,32.36,0,0,0,586,626.29a11.58,11.58,0,0,0,3.77,1.79A57.83,57.83,0,0,1,579.24,619,55.31,55.31,0,0,1,572.14,607Z"/><path class="cls-2" d="M669.68,528.23a16.5,16.5,0,0,0,2,.39c1.32.27,3.3.38,5.73,1l4.07,1c1.46.47,3,1.1,4.68,1.71s3.34,1.6,5.18,2.45c.88.47,1.74,1.1,2.75,1.68a25.72,25.72,0,0,1,2.76,1.87,46.11,46.11,0,0,1,16.36,26.19,62.59,62.59,0,0,1,.85,9v29.77c.63,27.54.8,52.65.91,70.91a182.73,182.73,0,0,0,1.84,21.48v5.84s-1.51,1.36-1.43,2c.1-.68-1.32-2-1.32-2V573.5c1.27-3.1.81-6.18.08-9.2a46.68,46.68,0,0,0-16.93-26.57,21.57,21.57,0,0,0-2.76-1.87,31.63,31.63,0,0,0-2.75-1.68c-1.87-.83-3.55-1.82-5.29-2.42s-3.3-1.19-4.79-1.6l-4.13-.94a51.68,51.68,0,0,0-5.81-.8A10.14,10.14,0,0,0,669.68,528.23Z"/><path class="cls-8" d="M373.21,568.82c.38-8.62,4.79-29.16,19.61-81l26.65-186.59,35.11-4.38h0l57.83,2.48,26.44,11s22.3,55.77,22.6,96.38c0,0-9.33,47.4-20,108.94l12.53,22.44Z"/><path class="cls-8" d="M420.19,301.24s-16.14,1.85-33.4,18.67-21.48,86.17-21.48,86.17l57.82,7.24S428.28,309.94,420.19,301.24Z"/><path class="cls-8" d="M537.19,310.16s14.65,1,28.06,23.27c8.87,14.71,34.29,59.95,34.29,59.95l-50.06,41.31Z"/><path class="cls-3" d="M365.31,405.72a1.42,1.42,0,0,0,1.18.63l3.47.47,12.69,1.54a388.14,388.14,0,0,0,41.94,2.87h.31v-5.07a37.72,37.72,0,0,0,.69-5.92c.19-3.86.35-7.6.52-11.18.33-7.08.6-13.47.82-18.92s.34-9.56.72-12.75v-3.5a3.53,3.53,0,0,1-.27-1.21,5.56,5.56,0,0,0-.2,1.21c0,.94-.16,2.07-.27,3.47-.22,3.2-.5,7.49-.86,12.72S425.36,381.92,425,389c-.19,3.58-.39,7.3-.61,11.18,0,1.93-.19,3.91-.3,5.92s0,4,0,6.14l.72-.66h0c-16.53-1.7-31.23-3.19-42-4.21l-12.75-1.13-3.61-.52Z"/><path class="cls-3" d="M402.76,312.72c0,.2,2,.31,5,1.1a29.83,29.83,0,0,1,11,5.37,30.22,30.22,0,0,1,7.66,9.42c1.46,2.76,2,4.71,2.17,4.66a12.27,12.27,0,0,0-1.34-5,26.76,26.76,0,0,0-7.69-10,26.1,26.1,0,0,0-11.45-5.26A11.61,11.61,0,0,0,402.76,312.72Z"/><rect class="cls-11" x="528.46" y="291.45" width="269.77" height="215.69" transform="translate(-74.23 163.82) rotate(-13.34)"/><path class="cls-3" d="M508,327.84l1.3-.27,3.72-.83,14.32-3.28,54-12.53,190.28-44.5-.85-.52c14.73,62.7,31.64,134.55,49.57,210.61h0l.57-.94L557.49,537.73l.8.5C543.2,474.89,530.75,422.29,522,385.56L511.72,342.9,509,331.67c-.61-2.53-1-3.88-1-3.88l.82,3.77c.61,2.59,1.46,6.3,2.56,11.18,2.29,9.83,5.51,24.23,9.86,42.57,8.62,36.87,20.9,89.61,35.8,153.19l.14.66.63-.16,263.42-61.85L822,477l-.17-.77h0c-18-76-34.92-147.85-49.7-210.53L772,265l-.69.14L580.7,310.38,527,323.22l-14.16,3.44-3.6.88Z"/><rect class="cls-2" x="538.88" y="307.49" width="251.61" height="189.13" transform="translate(-74.5 163.18) rotate(-13.26)"/><polygon class="cls-2" points="808.85 465.23 696.33 370.96 660.23 455.04 615.26 425.24 563.96 522.94 808.85 465.23"/><path class="cls-2" d="M617.55,374.74a19.83,19.83,0,1,0,14.78-23.83h0a19.8,19.8,0,0,0-14.77,23.79Z"/><path class="cls-12" d="M704.68,282.49a14.85,14.85,0,0,1-2-6.47,5.66,5.66,0,0,1,3.36-5.51,7.78,7.78,0,0,1,6,1.16,11,11,0,0,0,5.89,1.81,34.85,34.85,0,0,0,4.47-1.35c1.51-.33,3.47.2,3.85,1.71a2.76,2.76,0,0,1-1.18,2.75,7.71,7.71,0,0,1-2.76,1.11L704,282.16"/><path class="cls-12" d="M756.47,263.07s-4.35,13.94-6.41,14.27a8.25,8.25,0,0,1-4.79-1.6s.77,13-7.66,14.65c0,0-1.57,3.94-4.46,4.24s-3.39-3.33-3.39-3.33-4.65,5.51-6.39-.61A155.13,155.13,0,0,1,720.43,271s1.73-6.17,4.32-5.51a7.22,7.22,0,0,1,3.86,2.12,18,18,0,0,1,5.31-5,3.69,3.69,0,0,1,4.63,1s3.94-6,6.33-4.27,1.27,3.44,1.27,3.44,5.06-3.91,7.24-2.92A6.64,6.64,0,0,1,756.47,263.07Z"/><path class="cls-13" d="M729.76,291.3a125,125,0,0,1-1.15-24A125,125,0,0,1,729.76,291.3Z"/><path class="cls-13" d="M745.27,275.74a18.48,18.48,0,0,1-.47-6.5,13,13,0,0,1,1.21-6.41,31.8,31.8,0,0,1,0,6.47A17.77,17.77,0,0,1,745.27,275.74Z"/><path class="cls-13" d="M737.5,290.47a75.41,75.41,0,0,1,0-13.44,76,76,0,0,1,1.1-13.38,75.41,75.41,0,0,1,0,13.44A74,74,0,0,1,737.5,290.47Z"/><path class="cls-12" d="M372.58,407v75.9a31,31,0,0,0,2.5,9.55c10.41,24.21,41.14,31.92,62.79,16.91l90.59-62.87-20-30.29L418.34,460,423,412.33Z"/><path class="cls-12" d="M520.67,384.68s8.62-9.34,11-12.37c4.51-5.67-1.71-10.38-6.42-6.41-2.62,2.23-11.34,9.47-16.19,13.77a10,10,0,0,0-3.44,7.57l1.65,29-45.22,22,24.32,35,40.92-26.71s8.26-5.07,9.72-8.27.8-15.64.8-15.64,18.81-11,15.67-17.37-20,2.25-20,2.25,19.77-12.88,16.52-18.25-23.57,6.94-23.57,6.94,12.53-9.48,17.16-13.44,1.65-10.74-4.46-7.68C536.62,376.39,520.67,384.68,520.67,384.68Z"/><path class="cls-13" d="M540,405.55c0,.36-4.77,2.37-10.27,5.76a7.15,7.15,0,0,0-3.09,2.75,7.45,7.45,0,0,0-.66,3.39c0,2.06.28,3.41,0,3.44s-.71-1.18-1-3.39a7.76,7.76,0,0,1,.5-4,7.92,7.92,0,0,1,3.5-3.44A28.5,28.5,0,0,1,540,405.55Z"/><path class="cls-13" d="M519.43,411.06c0,.14-1.26-1.1-1.1-3.55a7.82,7.82,0,0,1,1.38-3.91A16.06,16.06,0,0,1,523.1,400a54.13,54.13,0,0,1,10.35-6.91A59.05,59.05,0,0,1,524,401a11.48,11.48,0,0,0-4.68,6.64A11,11,0,0,0,519.43,411.06Z"/><path class="cls-13" d="M522.71,383.94c0,.19-1.16.88-3,2a13.26,13.26,0,0,0-5.75,5.87,21.24,21.24,0,0,0-.5,8.4,7.83,7.83,0,0,1-.28,3.69,18.5,18.5,0,0,1-.66-3.61,17.53,17.53,0,0,1,.2-9,12.51,12.51,0,0,1,6.52-6.19C521.28,384.16,522.63,383.77,522.71,383.94Z"/><path class="cls-13" d="M401.43,479.9a13.78,13.78,0,0,0,1.57-3.58,37.21,37.21,0,0,1,4.22-8.26,21.86,21.86,0,0,1,6.69-6.19,24,24,0,0,0,3.36-2,8.52,8.52,0,0,0-3.8,1.16,19,19,0,0,0-7.3,6.25,28.31,28.31,0,0,0-3.91,8.76A10.69,10.69,0,0,0,401.43,479.9Z"/><rect class="cls-3" x="353.3" y="744.43" width="220.3" height="13.77"/><rect class="cls-5" x="504.76" y="664.58" width="13.77" height="209.28"/><path class="cls-5" d="M598.38,681.1H328.52V650.81h269.2c7.09.84,12.83,6.59,14.43,13.68h0v4.73c-1.6,7.09-7.34,12.83-13.77,12.83h0Z"/><path class="cls-5" d="M622.56,908.33l13.77-4.82L573,723.14a21.2,21.2,0,0,0-20.15-14.5H507.51V722.4H553a12.26,12.26,0,0,1,6.8,5.23v.22Z"/><polygon class="cls-5" points="386.34 670.08 400.11 670.08 398.6 546.16 386.34 546.16 386.34 670.08"/><path class="cls-5" d="M504.76,661.82h13.76V584.17a41,41,0,0,0-41.14-40.76H347.79v13.77H477.9a26.8,26.8,0,0,1,26.86,26.62Z"/><rect class="cls-3" x="386.34" y="681.1" width="13.77" height="104.64"/><path class="cls-2" d="M474.46,888.36a56.54,56.54,0,1,0,0-.05Zm22.12-.73a34,34,0,1,1,34,34h0a34,34,0,0,1-34-34h.09Z"/><path class="cls-4" d="M526.87,925.35a36.79,36.79,0,0,1-33.6-39.73v0h0A36.82,36.82,0,1,1,530,925.46C528.93,925.46,527.91,925.43,526.87,925.35Zm-27.18-40.48h0a30.2,30.2,0,0,0,27.54,32.65h0c12.07,1,23.89-5.21,29.1-16.15,9.83-20.67-3.85-42.08-24-44h-2.56a30.26,30.26,0,0,0-30,27.53Z"/><rect class="cls-4" x="496.4" y="885.95" width="67.91" height="6.22" transform="translate(-401.11 437.32) rotate(-33.31)"/><path class="cls-4" d="M550.55,915.68l4.65-4.1S544,898.91,532.82,886.27c-5.51-6.33-11.21-12.64-15.43-17.37l-5-5.73c-2.4-2.76-3.72-4.16-6-2.76l3.49,5.15L508.14,863,506,865.26C507.18,866.69,533.31,896.19,550.55,915.68Z"/><rect class="cls-4" x="497.69" y="886.43" width="65.87" height="6.22" transform="translate(-410.34 1322.47) rotate(-83.89)"/><rect class="cls-4" x="526.82" y="855.01" width="6.22" height="67.36" transform="translate(-399.98 1342.4) rotate(-85.2)"/><path class="cls-3" d="M560.55,833.79,530.25,887l-59-9.22S479.53,807.05,560.55,833.79Z"/><rect class="cls-2" x="680.99" y="887.63" width="123.92" height="22.03"/><rect class="cls-3" x="620.41" y="887.63" width="123.92" height="22.03"/><path class="cls-4" d="M357.57,561.41c0,.31,1.24.91,1.24.91v2.76a64,64,0,0,0-1.55,10.46c-.22,9.11-.55,22.22-.93,38.41-.66,32.53-1.6,77.33-2.76,126.81,0,4-.27,11.63-.27,11.63v2.53l1.16-2.31,50.25-108c6.31-13.77,11.43-24.78,15-32.41l4-8.79,1-2.28c.12-.26.23-.53.33-.8a7.56,7.56,0,0,0-.42.74l-1.1,2.26-4.32,8.7-15.26,32.25L353.33,752.14l1,.22c0-3.66.16-7.63.24-11.6.91-49.56,1.71-94.31,2.32-126.81.24-16.19-.86-38.55-.86-38.55V562.18C357.6,561.72,357.57,561.41,357.57,561.41Z"/><path class="cls-4" d="M281.1,620.89a6,6,0,0,0,.57,1.41l1.85,3.85c1.62,3.36,4.05,8.27,7.08,14.16,6.06,11.89,14.62,28.2,24.48,46s19.14,33.79,26,45.25c3.44,5.72,6.25,10.32,8.26,13.49l2.28,3.64a9.37,9.37,0,0,0,.86,1.23,5.57,5.57,0,0,0-.66-1.34c-.56-.94-1.24-2.21-2.13-3.75l-7.93-13.77c-6.66-11.56-15.83-27.54-25.66-45.38s-18.53-34.06-24.78-45.85c-3.09-5.81-5.51-10.57-7.38-14-.86-1.54-1.52-2.75-2-3.77A11.5,11.5,0,0,0,281.1,620.89Z"/><path class="cls-4" d="M244.53,730c0,.3,24.78,5.51,55.29,11.84s55.46,11,55.52,10.77-24.79-5.51-55.3-11.84S244.58,729.69,244.53,730Z"/><path class="cls-4" d="M248.05,807.05c.14.27,24.15-11,53.64-25.31s53.29-26,53.15-26.33-24.12,11-53.61,25.34S247.86,806.8,248.05,807.05Z"/><path class="cls-4" d="M269.78,864.9a6.4,6.4,0,0,0,1-.93l2.75-2.76c2.42-2.45,5.87-6.08,10-10.63,8.27-9.08,19.58-22,31.31-36.68s21.7-28.58,28.67-38.74c3.5-5.1,6.25-9.25,8.1-12.17.88-1.38,1.59-2.48,2.12-3.36a5.81,5.81,0,0,0,.69-1.21,7.58,7.58,0,0,0-.86,1.1c-.6.82-1.35,1.9-2.28,3.25L343,774.55c-7.11,10.05-17.19,23.8-28.89,38.56s-22.83,27.53-31,36.81l-9.77,10.85c-1.08,1.24-2,2.21-2.76,3A7.76,7.76,0,0,0,269.78,864.9Z"/><path class="cls-4" d="M315.49,920.8a8.41,8.41,0,0,0,.47-1.7c.25-1.24.63-2.9,1.07-5,1-4.43,2.32-10.63,3.94-18.26,3.39-15.42,8.26-36.65,14.27-60s12-44.28,16.52-59.4c2.23-7.49,4.07-13.58,5.51-17.9l1.43-4.88a10.88,10.88,0,0,0,.44-1.7,10.63,10.63,0,0,0-.64,1.65c-.41,1.18-1,2.75-1.65,4.82-1.4,4.16-3.36,10.24-5.7,17.79-4.68,15.06-10.77,36-16.77,59.34s-10.77,44.61-14,60.09c-1.6,7.71-2.75,14-3.61,18.34-.36,2.09-.66,3.74-.88,5A15.61,15.61,0,0,0,315.49,920.8Z"/><path class="cls-4" d="M394.61,938.66v-.5l-.31-1.4L393,931.34c-1.15-4.83-2.81-11.6-4.78-20-4-16.84-9.18-40.18-14-66.12s-8.74-49.58-11.24-66.71c-1.2-8.42-2.19-15.41-2.8-20.3-.34-2.33-.59-4.18-.79-5.62l-.53-1.34v1.46l.59,5.61c.53,4.8,1.37,11.77,2.55,20.36,2.3,17.15,5.95,40.82,10.9,66.79s10.3,49.31,14.48,66.13c2.08,8.42,3.85,15.19,5.14,19.85q.93,3.4,1.49,5.39l.42,1.37C394.52,938.5,394.58,938.66,394.61,938.66Z"/><path class="cls-4" d="M468.35,807.05a5.5,5.5,0,0,0-1.1-.58L464,805l-12.17-5.37L412.26,781.8c-15.48-7-29.52-13.22-39.77-17.55-5.09-2.17-9.25-3.88-12.14-5L357,758l-1.19-.39a4.3,4.3,0,0,0,1.1.58l3.25,1.52,12,5.34,39.6,17.73c15.45,7,29.49,13.19,39.74,17.55,5.12,2.14,9.28,3.88,12.17,5l3.33,1.3A3.76,3.76,0,0,0,468.35,807.05Z"/><path class="cls-4" d="M346.31,750.46a5.9,5.9,0,0,0,1.29-.36l3.63-1.24c3.14-1.07,7.69-2.75,13.25-4.82,11-4.18,26.41-10.35,43-17.79s31.31-14.79,41.83-20.35c5.28-2.75,9.5-5.06,12.42-6.69l3.33-1.9c.74-.44,1.13-.69,1.1-.74a7.75,7.75,0,0,0-1.21.55l-3.44,1.73-12.4,6.39c-10.62,5.37-25.38,12.59-41.93,20s-31.76,13.77-42.8,18.07l-13.11,5.14-3.58,1.44A7.41,7.41,0,0,0,346.31,750.46Z"/><ellipse class="cls-4" cx="353.82" cy="752.36" rx="9.2" ry="15.97"/><path class="cls-4" d="M440.32,882.8c.25-.16-18.92-29.52-42.8-65.51s-43.45-65.1-43.7-64.93,18.92,29.49,42.93,65.51S440.07,883,440.32,882.8Z"/><path class="cls-4" d="M348.92,754.56c0,.3,27.18-1,60.58-3s60.59-3.75,60.59-4.05-27.21,1-60.59,3S348.89,754.26,348.92,754.56Z"/><path class="cls-4" d="M258.76,685.14a5.13,5.13,0,0,0,.94.66l2.75,1.71c2.45,1.43,6,3.58,10.39,6.22,8.75,5.34,20.68,12.94,33.4,22s23.79,17.9,31.67,24.43c3.93,3.27,7.1,5.94,9.28,7.82l2.53,2.12a3.88,3.88,0,0,0,.94.66,7,7,0,0,0-.8-.83l-2.4-2.28c-2.09-2-5.18-4.71-9.06-8.07-7.76-6.69-18.81-15.62-31.53-24.79S282.09,698.3,273.25,693c-4.44-2.59-8.07-4.62-10.6-5.95l-2.92-1.54Z"/><path class="cls-4" d="M348.09,944.29a13.67,13.67,0,0,0,0-1.81c0-1.3,0-3,.18-5.21.15-4.63.32-11,.55-19.28.45-16.27,1.07-38.55,1.78-63.33s1.52-47,2.07-63.34c.25-8,.48-14.54.63-19.27v-5.21a14.12,14.12,0,0,0,0-1.84,13.7,13.7,0,0,0-.18,1.81l-.3,5.21c-.25,4.63-.55,11.15-.95,19.28-.72,16.19-1.6,38.55-2.35,63.33S348.27,901.72,348,918c0,8-.18,14.54-.23,19.27v5.29A8.64,8.64,0,0,0,348.09,944.29Z"/><path class="cls-4" d="M241.94,766.46h2.2l6.25-.28c5.51-.29,13.36-.79,23.22-1.57,19.69-1.55,47.17-4.37,78.12-9.16h.19l.14-.13c4.76-5.05,9.78-10.28,14.87-15.7l62.68-66.27,18.91-20.15,5.1-5.49,1.29-1.47.44-.52-.52.44c-.33.37-.8.81-1.38,1.39l-5.26,5.39-19.27,19.94-62.82,66-14.87,15.7.31-.15c-30.93,4.81-58.35,7.84-78,9.49-9.85.87-17.73,1.47-23.16,1.86l-6.25.47-1.62.16Z"/><path class="cls-4" d="M393.31,570.48a17.25,17.25,0,0,0-1.07,3.5c-.58,2.31-1.38,5.75-2.37,10.19-2,8.84-4.79,21.7-8.26,37.59-6.67,31.8-15.78,75.86-25.69,124.3l-.8,3.88h1C345,702.58,334.88,659.89,327.58,629c-3.69-15.4-6.66-27.84-8.73-36.49-1.05-4.24-1.87-7.57-2.42-9.89-.3-1.1-.52-2-.66-2.56a5.62,5.62,0,0,0-.28-.88l.17.91c.13.63.3,1.49.55,2.59l2.23,9.94c2,8.68,4.87,21.12,8.42,36.54,7.22,30.93,17.19,73.64,28.26,121.17l.55,2.39.49-2.39c.25-1.27.53-2.59.8-3.94L382.43,622c3.31-15.86,6-28.72,7.82-37.67,1-4.41,1.71-7.85,2.21-10.22.27-1.13.47-2,.6-2.75A7.21,7.21,0,0,1,393.31,570.48Z"/><path class="cls-2" d="M464.52,752.36c0-99.3-44.52-180.9-101.5-190.29a68.93,68.93,0,0,1,11-.9c62.09,0,112.43,85.61,112.43,191.19S436.13,943.55,374,943.55a68.94,68.94,0,0,1-11-.91C420,933.25,464.52,851.66,464.52,752.36Z"/><path class="cls-3" d="M352.06,561.17a69,69,0,0,1,11,.9C306.13,571.46,261.6,653,261.6,752.36S306.07,933.25,363,942.53a68.82,68.82,0,0,1-11,.91c-62.13,0-112.47-85.61-112.47-191.19S289.94,561.17,352.06,561.17Z"/><path class="cls-4" d="M260.5,751.34a284.61,284.61,0,0,1,18.45-101c11-28.39,26.1-52.9,42.87-69,14.24-13.77,28.75-20.65,41.86-20.15,23,.88,48.55,22,68.35,56.39,21.62,37.59,33.51,85.09,33.51,133.78,0,105.3-46,191-102.52,191S260.5,856.64,260.5,751.34Zm62.76-169.07C281.34,622.64,262.67,696,262.67,750.8c0,104.17,45.08,188.9,100.46,188.9S463.59,855,463.59,750.8c0-48.33-11.82-95.48-33.24-132.73-19.47-33.82-44.36-54.53-66.64-55.38h-1.24C350.11,562.66,336.61,569.41,323.26,582.27Z"/></g><g id="freepik--Plant--inject-2"><line class="cls-14" x1="161.92" y1="577.65" x2="190.91" y2="855.61"/><line class="cls-14" x1="186.24" y1="802.42" x2="173.1" y2="788.52"/><path class="cls-15" d="M177.08,792.67a14.84,14.84,0,0,0-5.23-11.13c-3.36-3-21.13-10.43-22.82-4.18C147.23,784.1,165.38,797.47,177.08,792.67Z"/><line class="cls-16" x1="177.08" y1="792.67" x2="160.19" y2="782.14"/><line class="cls-14" x1="189.54" y1="834.02" x2="176.39" y2="820.13"/><path class="cls-15" d="M180.38,824.3a14.88,14.88,0,0,0-5.24-11.16c-3.36-3-21.13-10.43-22.82-4.17C150.49,815.7,168.68,829.07,180.38,824.3Z"/><line class="cls-16" x1="180.38" y1="824.3" x2="163.48" y2="813.76"/><line class="cls-14" x1="178.19" y1="725.28" x2="165.05" y2="711.38"/><path class="cls-15" d="M169,715.56a14.86,14.86,0,0,0-5.24-11.16c-3.35-3-21.13-10.43-22.82-4.18C139.14,707,157.33,720.33,169,715.56Z"/><line class="cls-16" x1="169.03" y1="715.56" x2="152.13" y2="705"/><line class="cls-14" x1="181.48" y1="756.88" x2="168.34" y2="743.01"/><path class="cls-15" d="M172.26,747.24a14.85,14.85,0,0,0-5.21-11.16c-3.38-3-21.15-10.43-23-4.17C142.46,738.59,160.62,751.94,172.26,747.24Z"/><line class="cls-16" x1="172.33" y1="747.16" x2="155.43" y2="736.62"/><line class="cls-14" x1="172.83" y1="673.92" x2="159.69" y2="660.05"/><path class="cls-15" d="M163.67,664.2A14.91,14.91,0,0,0,158.45,653c-3.37-3-21.15-10.43-22.94-4.17C133.78,655.63,152,669,163.67,664.2Z"/><line class="cls-16" x1="163.67" y1="664.2" x2="146.77" y2="653.67"/><line class="cls-14" x1="167.44" y1="622.35" x2="154.3" y2="608.46"/><path class="cls-15" d="M158.29,612.63a14.93,14.93,0,0,0-5.22-11.16c-3.38-3-21.15-10.43-22.84-4.17C128.46,604,146.59,617.41,158.29,612.63Z"/><line class="cls-16" x1="158.29" y1="612.63" x2="141.39" y2="602.1"/><line class="cls-14" x1="184.03" y1="783.7" x2="194.02" y2="767.41"/><path class="cls-15" d="M191,772.27a14.94,14.94,0,0,1,2.81-12c2.69-3.65,18.53-14.6,21.47-8.85C218.45,757.67,203.43,774.57,191,772.27Z"/><line class="cls-16" x1="190.97" y1="772.29" x2="206.2" y2="757.76"/><line class="cls-14" x1="175.35" y1="700.54" x2="185.34" y2="684.22"/><path class="cls-15" d="M182.3,689.13a15,15,0,0,1,2.81-12c2.69-3.65,18.53-14.6,21.47-8.86C209.81,674.55,194.75,691.38,182.3,689.13Z"/><line class="cls-16" x1="182.3" y1="689.13" x2="197.52" y2="674.57"/><line class="cls-14" x1="171.53" y1="663.97" x2="181.53" y2="647.66"/><path class="cls-15" d="M178.52,652.56a14.93,14.93,0,0,1,2.82-12c2.69-3.66,18.52-14.61,21.46-8.85C206,638,191,654.83,178.52,652.56Z"/><line class="cls-16" x1="178.48" y1="652.56" x2="193.71" y2="638"/><line class="cls-14" x1="165.94" y1="610.38" x2="175.93" y2="594.07"/><path class="cls-15" d="M172.89,599a14.89,14.89,0,0,1,2.82-12c2.69-3.65,18.52-14.6,21.46-8.85C200.36,584.41,185.34,601.22,172.89,599Z"/><line class="cls-16" x1="172.89" y1="598.97" x2="188.12" y2="584.41"/><path class="cls-15" d="M161.67,576.19a14.93,14.93,0,0,1,2.81-12c2.69-3.65,18.53-14.6,21.47-8.87C189.14,561.59,174.12,578.38,161.67,576.19Z"/><line class="cls-16" x1="161.67" y1="576.13" x2="176.89" y2="561.57"/><path class="cls-15" d="M162.54,576.76a14.91,14.91,0,0,1-11.62-4.07c-3.35-3.05-12.62-19.94-6.57-22.28C150.94,547.89,166.11,564.62,162.54,576.76Z"/><line class="cls-16" x1="162.54" y1="576.76" x2="149.67" y2="560.07"/><line class="cls-14" x1="238.41" y1="615.93" x2="209.58" y2="893.89"/><line class="cls-14" x1="215.94" y1="840.88" x2="205.93" y2="824.59"/><path class="cls-15" d="M209,829.47a14.9,14.9,0,0,0-2.84-12c-2.67-3.63-18.52-14.61-21.46-8.83C181.5,814.93,196.54,831.74,209,829.47Z"/><line class="cls-16" x1="209" y1="829.47" x2="194.63" y2="815.68"/><line class="cls-14" x1="223.95" y1="763.74" x2="213.94" y2="747.45"/><path class="cls-15" d="M217,752.33a14.9,14.9,0,0,0-2.84-12c-2.67-3.63-18.52-14.6-21.46-8.83C189.51,737.79,204.55,754.61,217,752.33Z"/><line class="cls-16" x1="217.01" y1="752.33" x2="202.61" y2="738.54"/><line class="cls-14" x1="220.68" y1="795.34" x2="210.67" y2="779.05"/><path class="cls-15" d="M213.71,784a14.82,14.82,0,0,0-2.81-12c-2.7-3.65-18.53-14.6-21.47-8.84C186.24,769.39,201.28,786.23,213.71,784Z"/><line class="cls-16" x1="213.71" y1="783.95" x2="199.34" y2="770.17"/><line class="cls-14" x1="229.27" y1="712.39" x2="219.28" y2="696.09"/><path class="cls-15" d="M222.33,701a15,15,0,0,0-2.82-12c-2.69-3.65-18.54-14.6-21.46-8.84C194.83,686.44,209.81,703.25,222.33,701Z"/><line class="cls-16" x1="222.33" y1="701" x2="207.95" y2="687.19"/><line class="cls-14" x1="234.63" y1="660.82" x2="224.62" y2="644.53"/><path class="cls-15" d="M227.69,649.41a14.9,14.9,0,0,0-2.84-12c-2.67-3.63-18.52-14.61-21.46-8.83C200.19,634.87,215.23,651.68,227.69,649.41Z"/><line class="cls-16" x1="227.69" y1="649.41" x2="213.29" y2="635.62"/><line class="cls-14" x1="217.63" y1="822.13" x2="230.77" y2="808.24"/><path class="cls-15" d="M226.79,812.39A14.89,14.89,0,0,1,232,801.23c3.37-3,21.13-10.43,22.82-4.18C256.68,803.79,238.49,817.16,226.79,812.39Z"/><line class="cls-16" x1="226.79" y1="812.39" x2="244.69" y2="801.29"/><line class="cls-14" x1="226.27" y1="738.94" x2="239.41" y2="725.05"/><path class="cls-15" d="M235.43,729.2A14.85,14.85,0,0,1,240.64,718c3.38-3,21.13-10.43,22.82-4.17C265.3,720.6,247.13,734,235.43,729.2Z"/><line class="cls-16" x1="235.43" y1="729.2" x2="253.32" y2="718.1"/><line class="cls-14" x1="230.07" y1="702.37" x2="243.21" y2="688.48"/><path class="cls-15" d="M239.2,692.65a14.88,14.88,0,0,1,5.24-11.16c3.38-3,21.13-10.43,22.82-4.17C269.09,684.06,250.93,697.43,239.2,692.65Z"/><line class="cls-16" x1="239.2" y1="692.65" x2="257.1" y2="681.53"/><line class="cls-14" x1="235.61" y1="648.78" x2="248.76" y2="634.89"/><path class="cls-15" d="M244.77,639.06A14.88,14.88,0,0,1,250,627.9c3.36-3,21.13-10.43,22.82-4.17C274.66,630.43,256.49,643.84,244.77,639.06Z"/><line class="cls-16" x1="244.77" y1="639.06" x2="262.67" y2="627.95"/><path class="cls-15" d="M238.49,614.39a14.92,14.92,0,0,1,5.24-11.08c3.36-3,21.13-10.43,22.82-4.17C268.38,605.77,250.2,619.16,238.49,614.39Z"/><line class="cls-16" x1="238.49" y1="614.39" x2="256.39" y2="603.27"/><path class="cls-15" d="M239.22,615.18a14.92,14.92,0,0,1-10.43-6.36c-2.65-3.67-8.34-22.14-1.83-23.16C233.82,584.54,245.27,604,239.22,615.18Z"/><line class="cls-16" x1="239.22" y1="615.18" x2="230.07" y2="596.22"/><line class="cls-14" x1="205.14" y1="501.75" x2="205.14" y2="854.28"/><line class="cls-14" x1="205.64" y1="801.39" x2="194" y2="786.23"/><path class="cls-15" d="M197.55,790.78a14.85,14.85,0,0,0-4.05-11.64c-3.05-3.36-19.94-12.62-22.26-6.57C168.72,779.14,185.41,794.32,197.55,790.78Z"/><line class="cls-16" x1="197.55" y1="790.78" x2="181.82" y2="778.53"/><line class="cls-14" x1="205.64" y1="735.35" x2="194" y2="720.17"/><path class="cls-15" d="M197.55,724.71a14.86,14.86,0,0,0-4.05-11.64c-3.05-3.33-19.94-12.62-22.26-6.57C168.72,713.07,185.41,728.26,197.55,724.71Z"/><line class="cls-16" x1="197.55" y1="724.71" x2="181.82" y2="712.49"/><line class="cls-14" x1="205.64" y1="657.8" x2="194" y2="642.61"/><path class="cls-15" d="M197.55,647.12a14.81,14.81,0,0,0-4.05-11.62c-3.05-3.36-19.94-12.64-22.26-6.6C168.72,635.54,185.41,650.7,197.55,647.12Z"/><line class="cls-16" x1="197.55" y1="647.16" x2="181.82" y2="634.93"/><line class="cls-14" x1="205.64" y1="606.17" x2="194" y2="590.98"/><path class="cls-15" d="M197.55,595.53a14.81,14.81,0,0,0-4.05-11.62c-3.05-3.36-19.94-12.64-22.26-6.59C168.72,583.91,185.41,599.14,197.55,595.53Z"/><line class="cls-16" x1="197.55" y1="595.53" x2="181.82" y2="583.31"/><line class="cls-14" x1="205.64" y1="554.31" x2="194" y2="539.12"/><path class="cls-15" d="M197.55,543.69a14.86,14.86,0,0,0-4.05-11.64c-3.05-3.35-19.94-12.51-22.26-6.57C168.72,532.05,185.41,547.24,197.55,543.69Z"/><line class="cls-16" x1="197.55" y1="543.69" x2="181.82" y2="531.45"/><line class="cls-14" x1="205.39" y1="821.56" x2="217.03" y2="806.38"/><path class="cls-15" d="M213.48,811a14.87,14.87,0,0,1,4.05-11.56c3-3.36,19.94-12.51,22.26-6.57C242.31,799.39,225.62,814.49,213.48,811Z"/><line class="cls-16" x1="213.48" y1="810.95" x2="230.13" y2="798.06"/><line class="cls-14" x1="205.39" y1="716.52" x2="217.03" y2="701.33"/><path class="cls-15" d="M213.48,705.88a14.81,14.81,0,0,1,4.05-11.62c3-3.36,19.94-12.64,22.26-6.59C242.31,694.26,225.62,709.42,213.48,705.88Z"/><line class="cls-16" x1="213.48" y1="705.88" x2="230.13" y2="692.99"/><line class="cls-14" x1="205.39" y1="664.66" x2="217.03" y2="649.47"/><path class="cls-15" d="M213.48,654a14.86,14.86,0,0,1,4.05-11.64c3-3.36,19.94-12.62,22.26-6.57C242.31,642.4,225.62,657.55,213.48,654Z"/><line class="cls-16" x1="213.48" y1="654.04" x2="230.13" y2="641.15"/><line class="cls-14" x1="205.39" y1="596.13" x2="217.03" y2="580.95"/><path class="cls-15" d="M213.48,585.5a14.85,14.85,0,0,1,4.05-11.64c3-3.34,19.94-12.62,22.26-6.57C242.31,573.86,225.62,589,213.48,585.5Z"/><line class="cls-16" x1="213.48" y1="585.5" x2="230.13" y2="572.6"/><line class="cls-14" x1="205.39" y1="542.25" x2="217.03" y2="527.07"/><path class="cls-15" d="M213.48,531.62A14.85,14.85,0,0,1,217.53,520c3-3.34,19.94-12.62,22.26-6.58C242.31,520,225.62,535.16,213.48,531.62Z"/><line class="cls-16" x1="213.48" y1="531.62" x2="230.13" y2="518.72"/><path class="cls-15" d="M204.68,507.73a15,15,0,0,1,4-11.64c3-3.36,19.94-12.51,22.27-6.59C233.53,496.09,216.84,511.26,204.68,507.73Z"/><line class="cls-16" x1="204.68" y1="507.73" x2="221.35" y2="494.82"/><path class="cls-15" d="M205.49,508.44a14.88,14.88,0,0,1-11.14-5.26c-3-3.38-10.43-21.15-4.17-22.84C197,478.55,210.29,496.74,205.49,508.44Z"/><line class="cls-16" x1="205.49" y1="508.44" x2="194.42" y2="490.52"/><polygon class="cls-17" points="219.79 945.02 182.62 945.02 177.97 851.15 224.44 851.15 219.79 945.02"/></g><path class="cls-18" d="M467.55,142.8s-35.18.14-59.78,18-44,58.32-44.39,83.16,6.73,18.13,6.73,18.13,5.24,13.15,9.37,15.31,10.35-3.62,10.35-3.62l13.28,14.94,10.6-1.07,10.11,3.24a18.45,18.45,0,0,0,14.52-1.46s4.22,3,12.93,2.1,9.42-3.51,9.42-3.51,46.14,2.18,56.56-1.45a44.33,44.33,0,0,0,16.57-10.23s-.54,4.34,6.94,1,11.31-14,11.31-14,1.91,9.22,8.25,4.29S568,247.25,568,247.25s5.43,5.44,9,1.67,4.69-40.67-14.39-74.66S494.86,132.34,467.55,142.8Z"/><path class="cls-12" d="M453.68,278.08a34.91,34.91,0,0,1,3.8,15.45c.16,9-6.17,13.43,3.32,25.26s22.91,18,35.81,11.46,11.9-23.81,11.22-30.52l-2-20.14Z"/><path class="cls-18" d="M506.47,286.29l0-.39-35.94-7.33-16.76-.49a35.12,35.12,0,0,1,3.74,15.45c.1,5.74-2.43,9.62-1.82,14.75a39,39,0,0,0,17.2.28C498.77,303.74,505.52,288.79,506.47,286.29Z"/><path class="cls-12" d="M475.11,190.59s-25.68,26.2-31.36,32.25a100.76,100.76,0,0,1-7.86,7.88,163.21,163.21,0,0,0,7.29,41c2.66,8.59,16.33,17.16,23.12,22.15,24.82,18.46,46.82-4.83,52.44-29.87,2.72-12.07-3.44-49.22-7.33-57.42S475.11,190.59,475.11,190.59Z"/><path class="cls-18" d="M475.11,190.59s-7.42,18.89-16.1,27.65-22,21.9-20,18.86,9.53-11.68,15.23-21.79A148,148,0,0,0,463.07,197"/><path class="cls-3" d="M468.41,235.56c.26,2.56-.75,4.75-2.23,4.9s-2.9-1.79-3.16-4.35.75-4.67,2.23-4.82S468.15,233,468.41,235.56Z"/><path class="cls-3" d="M500.38,232.33c.25,2.56-.75,4.74-2.23,4.89s-2.91-1.78-3.17-4.34.75-4.67,2.24-4.82S500.12,229.78,500.38,232.33Z"/><path class="cls-19" d="M490.91,242.56s3.28,5.5.93,9.23-6.41,5.71-9.69,4"/><path class="cls-20" d="M453.19,227s7.07-6.93,16.85-6.37"/><path class="cls-20" d="M489.54,217.49s8.39-1.63,13.94,3.26"/><path class="cls-21" d="M497.13,268.51s.29,8.54-8,11.09-14.5-9-14.5-9l13.58-2c4.53-.7,8.49-1.7,8.49-1.7Z"/><path class="cls-22" d="M492.69,269.48a5.53,5.53,0,0,1-4.36,4,5.34,5.34,0,0,1-5.5-2.14Z"/><path class="cls-21" d="M499.53,266.06a19.05,19.05,0,0,0-11.36-.3c-5.62,1.89-11.57,4.36-13.78,4.92a10.16,10.16,0,0,1-4.18.15,50.67,50.67,0,0,0,17.84,0C497,269,499.53,266.06,499.53,266.06Z"/></svg>