<svg id="Capa_1" data-name="Capa 1" xmlns="http://www.w3.org/2000/svg" viewBox="0 0 1000 1000"><defs><style>.cls-1{fill:#d3d3d3;}.cls-11,.cls-13,.cls-2,.cls-6{fill:#fff;}.cls-2{opacity:0.7;isolation:isolate;}.cls-10,.cls-14,.cls-16,.cls-19,.cls-3,.cls-7,.cls-8{fill:none;}.cls-10,.cls-11,.cls-12,.cls-14,.cls-15,.cls-16,.cls-17,.cls-18,.cls-3,.cls-5,.cls-6,.cls-7,.cls-8{stroke:#263238;}.cls-10,.cls-11,.cls-12,.cls-15,.cls-16,.cls-17,.cls-19,.cls-3,.cls-5,.cls-6,.cls-8{stroke-linecap:round;stroke-linejoin:round;}.cls-10,.cls-11,.cls-14,.cls-18,.cls-19,.cls-3,.cls-5,.cls-7,.cls-8{stroke-width:1.93px;}.cls-4{fill:#9ec10c;}.cls-18,.cls-5,.cls-9{fill:#263238;}.cls-6{stroke-width:1.34px;}.cls-18,.cls-7{stroke-miterlimit:10;}.cls-8{stroke-dasharray:5.73 5.73;}.cls-10{stroke-dasharray:5.74 5.74;}.cls-12{fill:#91dbf2;}.cls-12,.cls-15,.cls-17{stroke-width:2.28px;}.cls-15{fill:#e8ab79;}.cls-16{stroke-width:0.97px;}.cls-17{fill:#5f929e;}.cls-19{stroke:#fff;}</style></defs><g id="freepik--background-simple--inject-7"><path class="cls-1" d="M712.8,812.75C749.86,783.27,777.4,743,798.19,704c30.88-58,47.32-130.4,4.21-186.8-24.86-32.54-63.71-53.08-106.83-60.81-41.49-7.43-81.83-5.83-117.51-29.09C542,403.7,510.57,374.32,478.26,347c-83.06-70.33-234-50.16-304.06,44.53s-51,217.68,16.49,274.74c60.61,51.26,145.17,61.27,212.1,101.35,33.16,19.9,56.35,49.18,91.49,66.66,40.87,20.31,91,28.64,137,18.27C662.65,845.46,689.59,831.22,712.8,812.75Z"/><path class="cls-2" d="M731.8,796.75C768.86,767.27,796.4,727,817.19,688c30.88-58,47.32-130.4,4.21-186.8-24.86-32.54-63.71-53.08-106.83-60.81-41.49-7.43-81.83-5.83-117.51-29.09C561,387.7,529.57,358.32,497.26,331c-83.06-70.33-234-50.16-304.06,44.53s-51,217.68,16.49,274.74c60.61,51.26,145.17,61.27,212.1,101.35,33.16,19.9,56.35,49.18,91.49,66.66,40.87,20.31,91,28.64,137,18.27C681.65,829.46,708.59,815.22,731.8,796.75Z"/></g><g id="freepik--Plants--inject-7"><line class="cls-3" x1="916.59" y1="819.84" x2="909.01" y2="748.66"/><path class="cls-4" d="M909,750.66s-13.62-10.6-13.62-34.83,18.16-43.91,18.16-43.91,19.69,24.23,15.15,48.45S909,750.66,909,750.66Z"/><line class="cls-3" x1="909.01" y1="748.66" x2="912.47" y2="695.18"/><path class="cls-3" d="M923.58,814.59a317.18,317.18,0,0,1,24.12-49.12"/><path class="cls-4" d="M940.57,778.35s-7.56-15.54,3.13-37.23,35.7-31.35,35.7-31.35,7,30.43-7.84,50.16S940.57,778.35,940.57,778.35Z"/><line class="cls-3" x1="940.57" y1="778.35" x2="968.14" y2="733.03"/><path class="cls-3" d="M904.3,820.94a196.63,196.63,0,0,0-16.65-39.36l-10.6-18.26"/><path class="cls-4" d="M885.57,777.44a51.81,51.81,0,0,1-49-10.22c-23.51-19.75-22.2-60.05-22.2-60.05s45.58-6.51,64,19.31A54.15,54.15,0,0,1,885.57,777.44Z"/><line class="cls-3" x1="885.57" y1="777.44" x2="831.56" y2="721.15"/><rect class="cls-5" x="884.91" y="804.48" width="56.82" height="56.82"/></g><g id="freepik--Window--inject-7"><rect class="cls-6" x="459.76" y="175.57" width="385.97" height="157.27"/><rect class="cls-7" x="520.49" y="224.54" width="266.46" height="33.31"/><rect class="cls-1" x="520.49" y="273.52" width="266.46" height="33.31"/><rect class="cls-1" x="459.76" y="175.57" width="385.97" height="7.58"/><line class="cls-3" x1="201.14" y1="508.63" x2="201.14" y2="506.67"/><path class="cls-8" d="M201.14,500.79V253a38.2,38.2,0,0,1,38.2-38.2H420.57"/><line class="cls-3" x1="424.49" y1="214.75" x2="426.45" y2="214.75"/><polygon class="cls-9" points="446.9 215.47 415.68 197.43 415.68 233.5 446.9 215.47"/><line class="cls-3" x1="743.85" y1="751.58" x2="747.77" y2="751.58"/><path class="cls-10" d="M753.64,751.58h10.64a38.34,38.34,0,0,0,38.34-38.35h0V349.93"/><line class="cls-3" x1="802.62" y1="347.97" x2="802.62" y2="344.05"/><polygon class="cls-9" points="733.19 749.41 764.42 767.43 764.42 731.36 733.19 749.41"/></g><g id="freepik--Character--inject-7"><path class="cls-11" d="M570,515.18a19.57,19.57,0,0,1,17.37-10.47H754.67s12.09,0,8.47,23S709.91,691,697.8,733.35s-14.51,131.86-14.51,131.86H482.47S498.57,651.46,570,515.18Z"/><path class="cls-5" d="M725.8,544.13c-16.95,39.54-52.9,195.93-58.62,321.08h16.2s2.49-89.73,14.54-132.07,61.79-182.95,65.44-206-8.49-23-8.49-23S739.37,512.43,725.8,544.13Z"/><path class="cls-5" d="M407.07,506.91s-30.76-3.74-51.08-25.1,44.16-97.51,78.59-115.45,48.6-13,85.52,14.18S593,451.43,592.59,480.72s-16.4,43.3,5.88,57.74S683.79,593.9,693,622.08s-6.76,63.22-43.73,82.28-97.63,18.19-156-.7S422.08,625,429.6,600.7s27.43-41,21.43-59.52S407.07,506.91,407.07,506.91Z"/><path class="cls-12" d="M433.43,589.94s-31.9-4.44-46.64,5.09-87.55,134-87.55,134L259,674.88l-34.87,15.66s16.34,63.26,35.36,94.74,29.87,34.66,36.39,33.61c19.41-3.08,75.64-68.13,75.64-68.13l20.44,68-13.87,49.41H636.47l-31.33-52.26S646,627.27,635.61,607.29s-71.09-17.35-90.16-17.35H490.83a136,136,0,0,1-25.13,2.59A317,317,0,0,1,433.43,589.94Z"/><path class="cls-13" d="M605.54,597.25l.53.22-4.94,12.58-.55-.22Zm-1.35,14,.53.22,4.95-12.58-.55-.22Zm22.47,39.69-.57-.16-2.17,7.74h.6Zm3.72,1.06-.57-.16-2,6.68h.59Zm-23.51.43,1.84,6.09h.61l-2-6.27Zm4.27-1.27-.57.15,2.18,7.21h.61Zm15.77-28.45L633.63,611l-.49-.3-6.72,11.76Zm3.37,2,6.29-11a2.7,2.7,0,0,0-.11-.94l-6.69,11.66Zm4.41,16.71,1.12-1.46.12-1.08L634.22,641Zm-16.63-11.93,9.36,9.8.42-.39-9.37-9.8Zm-3,2.61,9.35,9.79.43-.39-9.37-9.79Zm-10.14,0,.15-.57-7.23-1.78v.59Zm-7.36-5.88,8.14,2.06.13-.57-8.17-2Zm9.26,17.5-.18-.55-8.8,3v.61Zm-1.3-4.24L597.88,642v.61l7.84-2.61ZM601,748.9,606,736.32l-.53-.22-5,12.58Zm8-11.39-4.94,12.58.53.22,5-12.58Zm-.26,59-1.51-5-.56.16,1.84,6.07Zm9.8-84.27-.55.19,4.58,12.72h.12l.18-.88Zm3.07-1.45,2.41,6.64a7.9,7.9,0,0,1,.2-1.13l-2.06-5.7Zm8.59-33.11.31,1,.18-1.18Zm-12.9-1.28-.78,13.48h.57l.78-13.5Zm3.07,13.48H621l.79-13.71h-.57Zm-16.13-13.55.28-.51-6.67-3.59v.67Zm-6.72-7.84,8.2,4.41.28-.51L597.7,668Zm5.31,20.4-.37-.43-4.61,4.35v.76ZM600.49,686l-.37-.45-2.24,2v.76Zm-2.61,23.18v.6L610.07,705l-.21-.53Zm0-4.16v.63l10.78-4.21-.22-.55Zm7.19,24.53.14-.57-7.33-1.64v.59Zm.85-3.76.13-.57-8.17-1.84v.59Zm-.86,45.41.15-.54-7.33-1.87v.61Zm-7.18-5.87,8.14,2.07.13-.56-8.27-2.08ZM607,782.77l-.18-.55-8.9,2.94v.63Zm-1.22-3.66-.18-.55-7.68,2.55v.6ZM623,663.94l1.54-5.43h-.6l-1.49,5.27Zm5.54-5.43h-.59l-1.78,6.31.55.18Zm-17.83,6.84.57-.16-2-6.68h-.61Zm4.25-1.27-1.66-5.57h-.61l1.72,5.74Zm3.24,187.13,4.58,12.7.55-.2L618.72,851Zm8.75,11.19-4.58-12.7-.55.2,4.61,12.69Zm6.49,3-.57-.16-.82,2.94h.61ZM597.88,812l6.39,3.43.28-.51-6.67-3.58Zm0-4.38,7.84,4.29.12-.59-8-4.35Zm5,20.35-.37-.45-4.67,4.18v.74ZM600.49,825l-.37-.43-2.24,2v.77Zm9.27,18.34-11.88,4.74v.63L610.07,844Zm-11.88,1.16,10.78-4.21-.22-.53-10.56,4.11Zm0,21.56v.61l6.49,1.45h.74l.1-.39Zm8-1.42.13-.57-8.17-1.84v.61ZM461.5,609.77l.52.22,5-12.58-.55-.22Zm3.58,1.41.55.22,4.94-12.58-.53-.22ZM592,628.72l5.87,1.51v-.59l-5.78-1.47Zm1-4.29-.15.55,5,1.27v-.61Zm4.82,22.35v-.61L594,647.49l.17.55Zm-5.15-3,.18.55,5-1.64v-.61ZM582,658.51h.66l2.55-4.43-.49-.29Zm4.47,0h.66l1.43-2.51-.49-.29Zm-29.14-5.4-.45.37,4.13,5h.75Zm2.55-2.08,6.13,7.48h.75l-6.43-7.83Zm-14.62,6.6-.53.2.24.68h.63Zm3.1-1.08.72,2h.61l-.78-2.19Zm-21.2,2,1.66-6.56-.56-.14-1.71,6.7Zm4.84-5.76-1.47,5.76h.53l1.43-5.6Zm-44.42-1.82-.57-.16-2.19,7.74h.61Zm3.71,1.06-.55-.16-2,6.68h.6Zm-23.52.43,1.85,6.09h.6l-2-6.27Zm4.26-1.27-.55.15,2.17,7.21h.59Zm15.79-28.49,6.72-11.75-.51-.3-6.72,11.76Zm2.86,1.65.49.27,6.72-11.75-.51-.3Zm76.66,8.62,12.44,5.27.22-.53-12.44-5.27Zm-1.51,3.55,12.45,5.27.21-.53L566,636Zm10.49-20.3.55.16,3.68-13-.57-.18Zm3.7,1.06.57.15,3.66-13-.55-.15Zm-20.22-24.18L563.75,606l.55-.16-3.82-13Zm3.68-1.12,3.92,12.93.55-.15-3.92-12.93Zm-42.69,55.39L516.9,634.4l-.55.16,3.92,13Zm3.7-1.12-3.91-12.93-.57.16L524,646.39Zm14.59-7.45,13.71-2v-.58l-13.71,2Zm2,3.82,13.71-2V640l-13.71,2Zm9.08-16.51.57.14,3-13.17-.57-.13Zm6.78-12.3-3,13.17.57.13,3-13.16Zm-47.39,4.8.49.31,7.23-11.42-.49-.29Zm11-9-.49-.32-7.23,11.43.49.31Zm-13.4-14.06,12.38-5.4v-.14h-1L507,595Zm2.15,3.91.24.53,12.38-5.39-.24-.53Zm-11.75-9.45h-.61l-3.06,10.62.57.16Zm-6.76,9.8,2.74-9.8h-.61l-2.7,9.56Zm53-5.71-1.33-4.09h-.61l1.28,4.23Zm-4.25,3.22.57-.16-1.57-5.19h-.6Zm-44.35,43.81.45.35,8.22-10.71-.47-.36Zm3.05,2.35.47.36L506.91,633l-.45-.35ZM479,629.48l9.37,9.8.43-.39-9.37-9.8Zm-2.9,2.57,9.37,9.79.41-.39-9.35-9.79Zm51.3-17.32-.24.53,12.44,5.29.24-.55Zm1.27-3L541.1,617l.23-.53-12.44-5.27ZM466,632.05l.14-.57-7.33-1.78v.59Zm-7.35-5.88,8.11,2.06.15-.57-8.28-2Zm9.25,17.5-.2-.55-8.89,3v.61Zm-1.43-4.24L458.78,642v.61l7.84-2.61Zm0,96.67-4.93,12.58.52.22,5-12.58Zm3.61,1.41-5,12.58.55.22,4.94-12.58ZM592.38,669.9l5.5,3v-.67l-5.23-2.82Zm2.1-3.92-.28.49,3.68,2v-.66Zm3.4,26.81-5.46,4.74.37.43,5.09-4.41ZM590.26,695l7.62-6.58v-.77l-8,6.9Zm7,14.42.19.55.41-.18v-.61Zm-1.41-3.59.19.53,1.82-.7v-.63Zm1.77,21.55-5.87-1.33-.14.57,6,1.35Zm.24-3.91-5-1.14-.12.57,5.13,1.15Zm-.24,45.35-5.82-1.62-.13.56,5.87,1.51ZM593,763.65l-.16.57,5,1.06v-.59Zm4.87,22.14v-.63L594,786.48l.17.54Zm0-4.08v-.6l-5.15,1.7.18.55Zm-79.72-116-12.44-5.29-.22.53,12.44,5.29ZM504,664.51l12.44,5.27.22-.53L504.21,664ZM585.2,793.17l-.49-.27L582,797.62h.66Zm3.35,1.92-.49-.29-1.6,2.82h.66Zm-31.68-2.53,4.14,5.06h.74l-4.43-5.43Zm3-2.45,6.13,7.51h.75l-6.43-7.84Zm-14.62,6.63-.53.19.24.69h.63Zm3.1-1.08.72,2h.61l-.78-2.2Zm-19.59-4.6-.57-.16-1.71,6.72h.69Zm3.17.8-1.47,5.76h.63l1.43-5.62Zm-44.42-1.92-.56-.16-2.2,7.84h.61Zm3.71,1.13-.55-.15-2,6.7h.61Zm-23.51.44,1.84,6.11h.61l-2-6.27Zm3.7-1.1,2.17,7.21h.59L472,790.23ZM494,749.74l-6.72,11.76.51.29L494.47,750Zm3.92,2.19-.51-.29-6.7,11.76.49.29Zm54.64-64.38-8.62-10.44-.43.37L552,688Zm-3,2.45-8.66-10.5-.45.37L549,690.34Zm-21.18-5.72L533,697l.55-.2-4.59-12.69ZM532,683l4.58,12.7.53-.2-4.58-12.7Zm48,93.77-12.44-5.27-.22.53,12.45,5.27Zm-1.51,3.56L566,775l-.21.55,12.44,5.27Zm1.49-38-3.66,13,.55.15,3.68-13Zm4.27,1.21-.55-.16-3.68,13,.57.16Zm-19.92,1.39-3.92-12.93-.55.16L563.77,745Zm3.7-1.12-3.92-12.93-.57.16,3.92,12.95Zm-39.19-33.83-6.72,11.75.49.28,6.72-11.76ZM526,708.28l-.51-.29-6.7,11.75.49.28ZM503.15,719l-8.56-10.5-.45.37,8.56,10.46Zm3-2.45-8.55-10.46-.45.37,8.55,10.46Zm-27-4.25L483.67,725l.55-.2-4.6-12.72Zm3.62-1.31,4.59,12.71.55-.19-4.59-12.72Zm93.44,10.28.57.14,3.33-13.09-.57-.15Zm7.64-12-.57-.13-3.33,13.08.57.14Zm-22.1,11-12.44-5.27-.22.53,12.45,5.29Zm1.51-3.54-12.52-5.27-.22.53,12.45,5.27Zm-42.38,69.67-3.92-13-.55.17,3.92,12.94Zm3.7-1.12-3.91-13-.57.18L524,785.38Zm28.3-9.4v-.58l-13.71,2v.58Zm2,3.82v-.58l-13.71,2v.58Zm-4.1-14.36,3-13.17-.57-.14-3,13.19Zm3.76.86,3-13.17-.57-.13-3,13.18Zm-37.22-19.59-.49-.32-7.19,11.35.49.31Zm3.27,2.05-.49-.31-7.23,11.42.49.32Zm-.18-18.55-.21-.53-12.41,5.41.24.53Zm1.55,3.55-.24-.53-12.38,5.4.24.53Zm-23.8-5.88-.55-.18-3.65,12.91.57.16Zm-7.39,11.95,3.66-13-.55-.16-3.68,13Zm53-5.74L539.75,721l-.57.15,3.92,13Zm-8.13-11.76,3.91,12.93L540,735,536.1,722Zm-18.79-33.3L506,697l.35.45,10.8-8.13Zm-8.11,11.75,10.77-8.15-.33-.45-10.8,8.13Zm-9.33-11.19-3.74-13-.57.17,3.76,13Zm-8-11.75L495,690.83l.57-.16-3.71-13Zm-12.9-1.3-.78,13.48h.57l.78-13.5Zm3.05,13.48h.6l.79-13.71h-.59Zm22.21,79.75-.47-.36L495,780l.45.35Zm3.06,2.35-.46-.35L498,782.34l.47.35Zm-27.92-3.57,9.36,9.8.43-.41-9.36-9.8Zm-2.71,2.76,9.37,9.8.41-.39-9.35-9.8Zm98.4-75.25-.46-.35-8.5,10.5.45.37ZM571,693.12l-8.51,10.5.45.37,8.49-10.52Zm2.39-20.89h-.58l-1.56,13.71h.6Zm-4.43.27-1.51,13.44h.57l1.51-13.42Zm-29.17,86.59-12.44-5.27-.24.52,12.44,5.27Zm-11.17-8.31,12.44,5.27.23-.53-12.44-5.27ZM465.17,676.5l.27-.51-6.66-3.58v.67Zm-6.55-7.83,8.2,4.41.28-.51L458.6,668Zm5.31,20.39-.39-.43-4.76,4.16v.76Zm-2.55-2.92-.39-.45-2.21,2v.77Zm9.35,18.34-12,4.68v.61L471,705Zm-1.18-3.05-.19-.55L458.78,705v.63ZM466,729.54l.12-.57-7.31-1.64v.58Zm-7.19-5.62,8,1.82.14-.57-8.17-1.84ZM466,771.15l.14-.54-7.31-1.87v.61Zm-7.17-5.87,8.11,2.07.16-.56-8.27-2.08Zm9.07,17.49-.2-.55-8.87,2.94v.63Zm-1.22-3.66-.19-.55-7.66,2.55v.6ZM578,665.53l.49.27,4.18-7.29H582Zm3.35,1.92.49.27,5.29-9.21h-.66Zm-15.46-3.88-4.13-5.06H561l4.42,5.41Zm2.55-2.08.45-.37-2.13-2.61H566Zm-18.57,8.78-4.27-11.76h-.63l4.35,12Zm3.07-1,.55-.2-3.8-10.52h-.61Zm-28-4.33.56.14,1.67-6.53h-.61Zm3.74,1,.57.14,2-7.49h-.61Zm-44.77-1.92,1.53-5.43h-.61l-1.49,5.27Zm5.54-5.43h-.6L487,664.82l.57.18Zm-17.82,6.84.54-.16-1.95-6.68h-.61Zm4.25-1.27-1.69-5.57h-.59l1.71,5.74ZM592.65,808.46l-.27.51,5.5,3v-.67Zm1.83-3.39-.28.51,3.68,2v-.65Zm3.4,27.37v-.74l-5.46,4.72.37.43Zm0-5.09v-.77l-8,6.92.37.43Zm-.6,21,.19.55.41-.16v-.63Zm-1.41-3.59.19.55,1.82-.72V844ZM592,865l-.14.57,6,1.35v-.6Zm5.85-2.64-5-1.14-.12.57,5.13,1.18ZM518.16,804.7l-12.44-5.27-.22.53,12.44,5.27ZM504,803.5l12.44,5.29.22-.55L504.21,803Zm39.48,12.91L552,826.88l.45-.38-8.56-10.44Zm6,12.54-8.61-10.44-.45.35L549,829.32Zm-16,6.86-4.59-12.72-.54.2L532.89,836Zm3.62-1.31-4.58-12.72-.53.2,4.58,12.71Zm-7.83,14.71-.49-.29L522,860.67l.49.3Zm-3.35-2-.51-.27-6.7,11.75.49.3Zm-22.83,10.68-8.46-10.37-.45.36,8.56,10.46Zm3-2.45L497.49,845l-.45.35,8.54,10.46Zm-21.9,8.27-4.61-12.7-.53.2,4.59,12.69Zm3.62-1.31-4.58-12.7-.55.2,4.58,12.69Zm92.08-15.15-.56-.14-3.34,13.09.57.14Zm3.75.94-.57-.14-3.33,13.11.57.14Zm-21.89,11.09-12.44-5.27-.22.53,12.45,5.27Zm1.51-3.57-12.52-5.36-.22.53,12.45,5.29Zm-65.71,10.44-.55,2h.61l.49-1.72Zm-3.18-.82-.55-.16-.84,2.94h.61ZM539.22,860l2.47,8.19h.6l-2.5-8.36Zm-3.14.94-.54.16,2.11,7.09h.61Zm-19-32.3-.35-.45L506,836.28l.35.47Zm2.31,3.1-.33-.48-10.8,8.14.36.47Zm-20.65-2.88.55-.18-3.74-13-.57.16Zm-3.15.9-3.71-13.07-.55.15,3.75,13Zm-17.42,1,.78-13.48h-.57l-.78,13.5Zm3.92,0,.78-13.5h-.59l-.78,13.48Zm92.43,4.3-.45-.38-8.5,10.51.45.37Zm-3.44-2.81-8.51,10.51.45.37,8.49-10.5Zm2.39-20.87h-.58l-1.56,13.72h.6Zm-4.43.3-1.51,13.42h.57l1.51-13.44Zm-103.89,4,.27-.51-6.66-3.59v.67Zm2.17-3.92L458.78,807v.65L467,812ZM463.93,828l-.39-.45-4.76,4.16v.76ZM461.38,825l-.39-.43-2.21,2v.77Zm9.35,18.34-12,4.68v.63L471,843.9Zm-12,1.16,10.75-4.21-.19-.53-10.56,4.11Zm0,21.56v.61l6.48,1.45H466l.1-.39Zm8-1.42.14-.57-8.17-1.84v.61Zm111.67-59.76,4.18-7.29H582l-3.92,7Zm8-7.29-5.12,8.91.49.3,5.29-9.21Zm-21,5.41.45-.38-4.13-5H561Zm3-2.45.45-.38-2.13-2.58H566Zm-18.57,8.79-4.27-11.75H545l4.35,12Zm3.07-1,.55-.22-3.8-10.5h-.61Zm-27.43-4.2,1.67-6.52h-.61L524.94,804Zm3.18.81.57.13,2-7.46h-.61ZM483.91,803l1.53-5.41h-.61l-1.49,5.25Zm4.94-5.41-1.79,6.31.57.15,1.82-6.46Zm-17.22,6.84.54-.18-2-6.66h-.6Zm3.68-1.12.57-.16-1.69-5.56h-.59ZM452.9,628.78l5.88,1.51v-.59L453,628.23Zm1-4.29-.14.54,5,1.28v-.61Zm4.84,22.29v-.61l-3.92,1.32.2.55Zm-5.15-3,.17.55,5-1.64v-.61Zm-10.71,14.71h.67l2.55-4.43-.51-.29Zm4.45,0H448l1.45-2.51-.51-.29Zm-29.11-5.4-.46.37,4.14,5h.74ZM420.8,651l6.12,7.48h.76l-6.43-7.83Zm-14.61,6.6-.55.2.25.68h.61Zm3.09-1.08.71,2h.62l-.78-2.19Zm-21.22,2,1.67-6.56-.55-.14-1.7,6.7Zm4.86-5.76-1.47,5.76h.61l1.41-5.6Zm-46.57,5.76,2.14-7.58-.55-.16-2.2,7.74Zm5.88-6.52-.57-.16-2,6.68h.61Zm76-19.06,12.44,5.27.23-.53-12.44-5.27Zm-1.51,3.55,12.5,5.36.23-.52L427,636Zm10.48-20.3.57.16,3.66-13-.54-.18Zm3.72,1.06.55.15,3.69-13-.55-.15Zm-20.08-24.18L424.74,606l.55-.16-3.92-13Zm3.71-1.12,3.91,12.93.55-.15-3.92-12.93Zm-47.14,42.62,3.91,13,.55-.18-3.92-12.93Zm8.15,11.75-3.92-12.93-.55.16,3.92,13ZM400,638.86l13.72-2v-.58l-13.72,2Zm2,3.24v.58l13.72-2v-.58Zm12.75-29-.57-.14-3,13.17.55.14Zm3.21.73-3,13.16.54.14,3-13.17Zm-47.49,4.7.49.31,7.23-11.42-.49-.29Zm3.27,2.08.49.31,7.23-11.42-.49-.32Zm30.92-26.54-1.25-4.17h-.59l1.29,4.25Zm-4.25,2.08.55-.15-1.39-4.67-.57.12ZM356,641l.45.36,8.21-10.72-.45-.35Zm11.76-8-.47-.35-8.21,10.73.47.36Zm20.57-18.2-.22.53,12.44,5.29.22-.55Zm1.29-3L402.07,617l.22-.53-12.44-5.27ZM327.41,736.24l-4.94,12.58.53.21,4.93-12.57Zm3.58,1.41-4.94,12.58.53.22,5-12.58ZM453.25,670l5.53,3v-.67l-5.25-2.82Zm2.12-3.92-.27.49,3.68,2v-.67Zm3.41,26.67-5.49,4.74.39.43,5.1-4.41ZM451.16,695l7.62-6.58v-.77l-8,6.9Zm7,14.42.22.55.41-.18v-.61Zm.45-4.39-2,.8.21.53,1.82-.7Zm.18,22.32-5.88-1.34-.12.57,6,1.35Zm-5-5.1-.13.57,5.15,1.16v-.59Zm4.84,46.4-5.78-1.47-.16.56,5.88,1.51Zm-4.66-5.22-.14.57,5,1.24v-.59Zm4.84,22.32v-.63l-3.92,1.32.2.54Zm0-4.08v-.6l-5.15,1.7.17.55ZM366.51,661,379,666.24l.24-.53-12.44-5.29ZM365,664.51l12.44,5.27.24-.53L365.24,664Zm81.23,128.66-.51-.27-2.8,4.72h.67Zm3.35,1.92-.51-.29-1.6,2.82h.66Zm-31.68-2.53,4.14,5.06h.74l-4.43-5.43Zm3-2.45,6.11,7.51h.77l-6.43-7.84Zm-14.62,6.63-.54.19.25.69h.61Zm3.1-1.08.71,2h.62l-.78-2.2Zm-21.81,2h.59l1.67-6.56-.55-.16Zm5.45-5.76-1.47,5.76h.61l1.41-5.62Zm-63.73-.27-.55.16,1.08,3.56.47-.43Zm3.7-1.12-.57.18.53,1.68.45-.45ZM355.5,750l-.51-.28-6.72,11.76.51.29Zm-3.37,13.71,6.72-11.76-.51-.29-6.72,11.76Zm61.4-76.18-8.62-10.4-.45.37L413,688Zm-3,2.45L402,679.5l-.43.37,8.55,10.47Zm-21.16-5.72,4.58,12.7.55-.2-4.59-12.69Zm3.62-1.31,4.59,12.7.54-.2-4.58-12.7Zm48,93.77-12.44-5.27-.23.53,12.44,5.27Zm-1.51,3.57L427,775l-.23.54,12.44,5.27Zm1.49-38-3.68,13,.57.15,3.66-13Zm4.27,1.21-.54-.16-3.71,13,.55.16Zm-19.92,1.39-3.92-12.93-.55.16,3.92,13Zm3.7-1.11-3.92-12.94-.55.16,3.92,13Zm-39.18-33.84-6.72,11.76.51.27,6.72-11.76Zm-3.35-2-6.72,11.76.51.27L387,708.18Zm-31.35.88,8.56,10.46.43-.37-8.5-10.42Zm3-2.45,8.56,10.47.45-.38L358.67,706Zm-18,5.88,4.59,12.72.55-.2L340.59,712Zm3.65-1.31,4.58,12.71.53-.19-4.58-12.72ZM437,721.23l.57.14,3.31-13.09-.54-.15Zm7.65-12-.57-.13-3.33,13.08.56.14Zm-22,11-12.44-5.27-.23.53,12.44,5.29Zm1.51-3.54-12.44-5.27-.23.53L424,717.2Zm-43.1,55.78L385,785.38l.55-.16-3.92-13Zm32.61,3.37v-.58l-13.72,2v.58Zm2,3.82v-.58l-13.72,2v.58Zm-4-14.36,3-13.17-.57-.14-3,13.19Zm3.76.86,3-13.17-.55-.13-3,13.18Zm-37.73-19.91-5.1,8.06.22.74,5.43-8.56Zm3.27,2.06-6.9,10.89.22.73,7.17-11.31Zm-12.3-13.36.23.53,12.38-5.41-.23-.53Zm14.16-1.33-.23-.53-12.39,5.4.22.53Zm-23.8-5.88-.57-.18-3.72,12.91.55.16Zm-7.41,11.95,3.68-13-.54-.16-3.69,13Zm53-5.74L400.76,721l-.55.15,3.92,13Zm-8.15-11.76,3.92,12.93L401,735,397.08,722Zm-18.79-33.3L367,697l.36.45,10.77-8.13Zm-8.47,11.22.36.47,10.79-8.15-.35-.45ZM356,676.58l3.74,13,.57-.15-3.76-13Zm-3.7,1.53,3.74,13,.55-.15-3.8-12.83Zm-13.73,11.75h.6l.8-13.71h-.6Zm5.24-13.71h-.58l-.8,13.71H343Zm4.73,100.29-8.27-8.6-.41.4,8.28,8.62Zm-11.05-5.87-.38.58,8.39,8.72.39-.41Zm98-74.85-.45-.35-8.49,10.5.45.38ZM432,692.94l-8.5,10.5.45.38,8.5-10.53Zm2.43-20.71h-.6l-1.54,13.71h.58Zm-4.45.27-1.51,13.44h.59l1.51-13.42Zm-29.17,86.59-12.44-5.27-.22.52,12.44,5.27Zm1.51-3.57-12.44-5.27-.22.53,12.44,5.27Zm-77.59-66.44-.37-.43-.45.39-1,1.61Zm6.88,15.42-11.95,4.68v.61L331.84,705Zm-1.19-3.06-.22-.54L319.67,705v.63Zm-3.59,28.12L327,729l-7.31-1.64v.58Zm.87-3.76.11-.57-8.15-1.84V724Zm-.89,45.35.16-.54-7.31-1.87v.61Zm-7.15-5.87,8.11,2.07.14-.56-8.25-2.1Zm9.05,17.49-.17-.55-8.88,2.92v.63Zm-1.21-3.66-.18-.55-7.66,2.53v.61ZM439,665.53l.51.27,4.18-7.29h-.77Zm3.35,1.92.51.27,5.27-9.21h-.66Zm-15.43-3.88-4.14-5.06H422l4.42,5.41Zm2.52-2.08.45-.37-2.11-2.61H427Zm-18.57,8.78-4.27-11.76H406l4.33,12Zm3.09-1,.55-.2-3.8-10.52h-.62Zm-28-4.33.57.14,1.64-6.53h-.59Zm3.74,1,.55.14,2-7.49h-.61Zm-45.34-2.08.57.16,1.53-5.43h-.61Zm6.12-5.27h-.61l-1.78,6.31.54.18ZM453.25,809l5.53,3v-.66l-5.25-2.82Zm2.12-3.92-.27.51,3.68,2v-.65Zm3.41,27.33v-.76l-5.49,4.74.39.43Zm0-5.09v-.77l-8,6.92.38.43Zm-.63,21,.22.55.41-.16v-.63Zm-1.41-3.59.22.55,1.82-.72V844ZM452.9,865l-.12.57,6,1.35v-.6Zm5.88-2.64-5-1.14-.13.57,5.15,1.18Zm-54.32-45.91L413,826.88l.45-.38-8.56-10.44Zm6,12.54-8.56-10.44-.44.35L410,829.32Zm-16,6.86-3.92-10.93-.27,1L393.92,836Zm3.63-1.31-4.59-12.72-.55.2,4.59,12.71Zm-7.84,14.71-.51-.29L383,860.67l.51.3ZM386.32,847l-4.13,7.4-.65,2.29,5.43-9.48Zm54.49.31-.55-.14-3.33,13.09.57.14Zm3.76.94-.57-.14-3.33,13.11.57.14ZM422.7,859.32l-12.44-5.27-.23.53,12.44,5.27Zm1.51-3.57-12.44-5.27-.23.53L424,856.3Zm-24,4.21,2.47,8.19h.61l-2.53-8.36Zm-3.13.94-.57.16,2.13,7.09h.61Zm38.38-26-.45-.37-8.49,10.5.45.37Zm-3.45-2.8-8.5,10.5.45.37,8.5-10.5Zm2.41-20.8h-.6l-1.54,13.72h.58Zm-4.45.3-1.51,13.42h.59l1.51-13.44Zm9.5-6.72,4.18-7.29h-.75l-3.92,7Zm8-7.29-5.12,8.91.51.3,5.27-9.21Zm-21,5.41.45-.38-4.14-5H422Zm3-2.45.45-.38-2.11-2.58H427Zm-18.57,8.79-4.27-11.75H406l4.33,12Zm3.1-1,.54-.22-3.8-10.5h-.62Zm-27.24-7.47L387,802l1.1-4.33h-.59Zm3,4.08.55.13,2-7.46h-.61Zm-70.62-95.49.21.55.41-.18v-.61Zm.58-4.39-2,.8.21.53,1.83-.7Zm-6,21.55,6,1.35v-.58l-5.88-1.34Zm.86-3.76,5.15,1.16v-.59l-5-1.26Zm5.11,45.92-5.88-1.47-.14.57,5.88,1.51Zm-4.8-5.21-.13.57,5,1.25v-.58Zm4.84,22.32v-.63l-3.92,1.31.18.55Zm0-4.08v-.6l-5.17,1.7.18.55Zm-12.46,11.36-.49-.27L304,797.62h.67Zm3.35,1.92-.49-.29-1.61,2.82h.67Zm-31.67-2.53,4.12,5.06h.76l-4.42-5.43Zm3-2.45,6.14,7.51h.74l-6.43-7.84Zm-11,5.35-.55.2.73,2h.62Zm-8-115.39,2,2.51-2-2.61Zm-12.54,4.37,4.6,12.69.53-.19-4.52-12.89Zm3.64-1.31,4.59,12.69.55-.19-4.59-12.7Zm47.91,93.57-12.44-5.27-.22.53,12.44,5.27Zm-1.51,3.57L287.93,775l-.24.54,12.44,5.27Zm1.51-38-3.69,13,.55.15,3.69-13Zm4.27,1.21-.57-.16-3.66,13,.54.16Zm-19.93,1.39-3.92-12.93-.54.16,3.91,13Zm3.69-1.11L286,730.77l-.55.16,3.92,13Zm-38.64-33.55-.49-.29L244,721.63l.51.27Zm-3.35-2-.49-.29-6.72,11.76.51.27Zm35.79,12-12.44-5.27-.21.53,12.44,5.29Zm1.51-3.54-12.44-5.27-.21.53L285,717.2Zm-24.3,61.08,13.71-2v-.58l-13.71,2Zm2,3.82,13.72-2V779l-13.72,2Zm9.3-16.49.57.12,3-13.17-.57-.13Zm6.78-12.32-3,13.18.56.12,3-13.17ZM242.1,729.44,237,731.7l.19.54,5.2-2.27Zm1.53,3.55-5.43,2.37.2.55,5.46-2.39Zm17.63-11.76,3.92,12.95.57-.17-3.92-12.93Zm-3.7,1.12,3.92,12.93.57-.16-3.92-12.93ZM228,697.29l.36.45,10.79-8.13-.35-.47Zm13.48-4.6-.35-.45-10.79,8.13.35.47Zm20.4,66.43-12.44-5.27-.24.53,12.44,5.27Zm-11.17-8.3,12.44,5.27.24-.53-12.44-5.37Zm63.72,57.8-.28.5.49-.39Zm1.82-3.39-.28.51,1.43.76.47-.41ZM294,819.17h.64l.87-7.84h-.62Zm-3.86-.82.57.17.8-7.19h-.57Zm14.48-20.73h-.67l-3.91,7,.49.3Zm4.45,0h-.67l-5.11,8.91.51.3ZM287.36,803l.43-.38-4.11-5h-.77Zm3-2.45.45-.38-2.14-2.58h-.74ZM271,797.86l2.8,7.84,1.08,1.25-3.25-9Z"/><path class="cls-14" d="M433.43,590.92s-31.9-4.44-46.64,5.09-87.55,134-87.55,134L259,675.86l-34.87,15.66s16.34,63.26,35.36,94.74,29.87,34.66,36.39,33.61c19.41-3.08,75.64-68.13,75.64-68.13l20.44,68-13.87,49.41H636.47l-31.33-52.26S646,628.25,635.61,608.27s-71.09-17.35-90.16-17.35H490.83a136,136,0,0,1-25.13,2.59A317,317,0,0,1,433.43,590.92Z"/><path class="cls-5" d="M371.74,751.27a84.68,84.68,0,0,1-8.32-48.22c3.78-26.39,20.12-55.29,20.12-55.29s-32.6,47-32.6,62.7,9.69,38.59,9.69,38.59l-8.46,24.16Z"/><path class="cls-15" d="M460.42,564.91l.86,27.66-23.33.86s-4.82,101.51,15.94,119.67,83.47-122.2,83.47-122.2l-21.55-4.33-6.92-56.19Z"/><polygon class="cls-5" points="511.62 541.36 461.72 588.38 461.72 571.74 511.62 541.36"/><path class="cls-11" d="M453.89,713.1s2.51-16.34,15.07-37.69"/><path class="cls-15" d="M450.37,408.91,393.55,468a111.24,111.24,0,0,1,6.39,39.19c-.67,20.92,18.35,51.7,33.91,66s47.3-7.68,59.15-15.44a147.63,147.63,0,0,0,22-18.26,25.58,25.58,0,0,0,21.12-12.89S453.6,438.36,450.37,408.91Z"/><path class="cls-3" d="M435,469.57a39.69,39.69,0,0,1,3.76,12.73c.18,5.47-9.4,31.08-8,32.78s5.66,7.35,9,6.62"/><path class="cls-16" d="M458.6,497.57a36.61,36.61,0,0,1,24.88-.3"/><path class="cls-16" d="M414.38,499.6a49.5,49.5,0,0,1,13.14-1.84"/><path class="cls-9" d="M427.8,455.09A14.3,14.3,0,0,0,416,459.87c-4.92,5.66-7.31,10.6-8.54,6.6s4.25-11.34,6.19-12.83S424.72,446.31,427.8,455.09Z"/><path class="cls-9" d="M452.11,451.8a36.55,36.55,0,0,1,16.6,3.92c7.5,4.11,3.91-4.23-1.36-6.63S453,446.94,452.11,451.8Z"/><path class="cls-17" d="M539.1,550.05c.35,5.88-2.68,10.78-6.74,11s-7.64-4.31-8-10.15,2.09-20.91,6.15-21.14S538.77,544.2,539.1,550.05Z"/><path class="cls-9" d="M425.47,489c.27,3.92-1.22,7.1-3.32,7.23s-3.91-2.86-4.25-6.7,1.22-7.09,3.31-7.23S425.29,485.26,425.47,489Z"/><path class="cls-9" d="M467.75,487.52c.27,3.91-1.22,7.07-3.3,7.23s-3.91-2.87-4.27-6.72,1.24-7.08,3.31-7.21S467.49,483.68,467.75,487.52Z"/><path class="cls-3" d="M439.43,532.85s10,3.2,23.52-8.38"/><path class="cls-15" d="M259.52,675.64l-18.24-24.43c-.85-6.5-2.47-19.94-2.75-29-.37-12.34.24-19.88-6.77-30.83s-26.59-28.26-28.43-32.27-7.17,7.3-3.82,14.65,6.4,9.6,6.4,9.6-36-17.91-37.22-15,16.77,54.55,25,68.17c3.43,5.68,12.93,13.28,17.51,19.86a60.28,60.28,0,0,1,5.74,10.33c4.27,18.16,9.25,38.14,11.76,38.87C234.4,707.24,258.6,707.64,259.52,675.64Z"/><path class="cls-18" d="M208.3,619.51h0a2.59,2.59,0,0,1-3.17-1.83h0l-28.66-106a2.57,2.57,0,0,1,1.76-3.07h0a2.6,2.6,0,0,1,3.17,1.82l28.75,105.93A2.61,2.61,0,0,1,208.3,619.51Z"/><path class="cls-15" d="M187.63,552.09s-27.66,14.62-26,17.48,6.76,13.07,9.07,12.83,19.11-13.95,20.32-15.67S187.63,552.09,187.63,552.09Z"/><path class="cls-15" d="M192.57,570s-23,17-22.24,19.41,12,31.69,14,34.06,19.95-5.88,19.95-5.88Z"/><path class="cls-7" d="M196.06,585.79s-22,17.28-20.55,17.83"/><line class="cls-7" x1="200.21" y1="604.52" x2="181.72" y2="615.36"/><path class="cls-7" d="M205.85,583.34,216,593.26s-13.48,28.78-.56,44.67"/><path class="cls-12" d="M606.3,597s24.63-3.22,35.27,17.14,77.12,200.27,78.19,217.48-43.92,21.41-58.91,13.93S604,749.19,599.8,737.4"/><rect class="cls-13" x="605.85" y="727.9" width="13.48" height="0.59" transform="translate(-254.26 1120.75) rotate(-74.29)"/><polygon class="cls-13" points="622.64 685.03 618.9 672.04 618.33 672.21 622.1 685.18 622.64 685.03"/><rect class="cls-13" x="612.49" y="729.2" width="13.52" height="0.59" transform="translate(-251.57 1126.11) rotate(-74.16)"/><polygon class="cls-13" points="626.48 714.39 617.92 703.93 617.47 704.3 626.03 714.75 626.48 714.39"/><rect class="cls-13" x="632.13" y="731.09" width="13.52" height="0.59" transform="translate(-239.16 316.49) rotate(-23.57)"/><polygon class="cls-13" points="643.8 744 643.31 743.69 636.08 755.11 636.57 755.42 643.8 744"/><polygon class="cls-13" points="614.63 673.27 618.37 686.26 618.94 686.08 615.18 673.11 614.63 673.27"/><polygon class="cls-13" points="632.81 753.03 633.3 753.35 640.53 741.94 640.04 741.63 632.81 753.03"/><polygon class="cls-13" points="629.46 711.95 620.92 701.48 620.47 701.86 629.01 712.3 629.46 711.95"/><rect class="cls-13" x="630.43" y="691.56" width="13.52" height="0.59" transform="translate(-287.85 521.66) rotate(-36.93)"/><polygon class="cls-13" points="639.71 630.03 643.61 642.98 644.16 642.8 640.28 629.87 639.71 630.03"/><polygon class="cls-13" points="640.43 684.99 640.08 684.52 629.28 692.65 629.64 693.12 640.43 684.99"/><path class="cls-13" d="M633.3,614.42l4.06-6.41c-.14-.14-.26-.3-.39-.45l-4.16,6.54Z"/><polygon class="cls-13" points="621.45 638.81 621.92 639.16 630.13 628.42 629.68 628.07 621.45 638.81"/><polygon class="cls-13" points="628.82 656.42 641.26 661.69 641.49 661.16 629.05 655.89 628.82 656.42"/><polygon class="cls-13" points="643.41 628.91 647.31 641.86 647.86 641.69 643.98 628.76 643.41 628.91"/><polygon class="cls-13" points="642.59 715.43 649.31 703.7 648.8 703.42 642.1 715.14 642.59 715.43"/><rect class="cls-13" x="633.39" y="655.64" width="0.57" height="13.52" transform="translate(-223.61 987.02) rotate(-67.01)"/><rect class="cls-13" x="630.55" y="727.63" width="13.52" height="0.59" transform="translate(-237.83 315.41) rotate(-23.56)"/><path class="cls-13" d="M674.11,845.37l-.21.52,6.25,2.67h1.53Z"/><polygon class="cls-13" points="676.82 803.84 673.01 793.31 672.23 791.14 671.68 791.34 672.41 793.31 676.27 804.03 676.82 803.84"/><polygon class="cls-13" points="663.81 814.34 672.37 824.8 672.8 824.43 664.26 813.96 663.81 814.34"/><polygon class="cls-13" points="673.17 805.15 668.92 793.31 668.59 792.45 668.06 792.63 668.29 793.31 672.64 805.34 673.17 805.15"/><polygon class="cls-13" points="676.97 774.56 663.59 776.45 663.67 777.01 677.05 775.13 676.97 774.56"/><path class="cls-13" d="M715.84,832.32l3.63-3.13-.12-.65-3.92,3.35Z"/><polygon class="cls-13" points="618.39 636.46 618.84 636.81 627.07 626.07 626.6 625.72 618.39 636.46"/><rect class="cls-13" x="604.69" y="707.21" width="0.59" height="13.52" transform="translate(-206.49 247.85) rotate(-19.85)"/><path class="cls-13" d="M713.3,829.4l5.17-4.46c-.06-.21-.12-.42-.16-.63L712.93,829Z"/><polygon class="cls-13" points="675.8 821.98 667.24 811.53 666.78 811.89 675.35 822.35 675.8 821.98"/><rect class="cls-13" x="598.76" y="679.24" width="13.52" height="0.59" transform="translate(-108.04 1244.56) rotate(-86.67)"/><polygon class="cls-13" points="667 729.38 663.12 716.45 662.55 716.61 666.45 729.56 667 729.38"/><rect class="cls-13" x="657.56" y="677.86" width="0.57" height="13.52" transform="translate(-193.31 263.91) rotate(-19.84)"/><polygon class="cls-13" points="653.85 654.33 651.99 661.67 652.56 661.81 654.46 654.33 655.89 648.7 655.32 648.57 653.85 654.33"/><polygon class="cls-13" points="649.88 654.33 648.25 660.71 648.82 660.85 650.46 654.33 652.15 647.76 651.58 647.63 649.88 654.33"/><polygon class="cls-13" points="658.85 717.73 662.75 730.66 663.3 730.5 659.42 717.55 658.85 717.73"/><rect class="cls-13" x="653.9" y="679.23" width="0.57" height="13.52" transform="matrix(0.94, -0.34, 0.34, 0.94, -194.07, 262.89)"/><rect class="cls-13" x="608.35" y="705.86" width="0.59" height="13.52" transform="translate(-205.73 248.87) rotate(-19.84)"/><path class="cls-13" d="M636.57,616.37l3.29-5.19-.35-.55-3.43,5.45Z"/><polygon class="cls-13" points="651.99 746.19 664.43 751.46 664.65 750.93 652.21 745.66 651.99 746.19"/><polygon class="cls-13" points="617.8 606.46 617.29 606.17 610.57 617.88 611.08 618.18 617.8 606.46"/><path class="cls-13" d="M709.38,795.25l-.26-.72-4.4,7.72.49.27Z"/><polygon class="cls-13" points="696.74 807.6 696.17 807.54 694.64 820.96 695.23 821.02 696.74 807.6"/><rect class="cls-13" x="695.17" y="766.66" width="0.57" height="13.52" transform="translate(-288.16 1111.56) rotate(-67.01)"/><path class="cls-13" d="M706,793.31l1.7-2.95-.23-.75-2.14,3.7-4,7,.51.27Z"/><polygon class="cls-13" points="697.82 830.3 697.37 829.93 688.87 840.43 689.32 840.81 697.82 830.3"/><path class="cls-13" d="M701.17,771.29l-10.35-4.39-.21.53L701.42,772Z"/><polygon class="cls-13" points="694.8 827.88 694.35 827.5 685.87 838 686.32 838.38 694.8 827.88"/><polygon class="cls-13" points="680.81 748.37 680.25 748.23 677.23 761.4 677.8 761.53 680.81 748.37"/><polygon class="cls-13" points="688.77 798.74 689.22 798.37 685.08 793.31 680.66 787.91 680.21 788.28 684.34 793.31 688.77 798.74"/><polygon class="cls-13" points="613.92 619.8 614.43 620.1 621.15 608.36 620.64 608.09 613.92 619.8"/><rect class="cls-13" x="653.9" y="818.21" width="0.57" height="13.52" transform="translate(-241.26 271.15) rotate(-19.85)"/><path class="cls-13" d="M703.31,842.75l-.57-.16-1,4.07.65-.17Z"/><rect class="cls-13" x="657.58" y="816.85" width="0.57" height="13.52" transform="translate(-240.48 272.16) rotate(-19.84)"/><path class="cls-13" d="M673.88,707.4l5.17,2.2c0-.26-.2-.51-.27-.75l-4.69-2Z"/><path class="cls-13" d="M707.05,843.65l-.57-.14-.47,1.82.67-.23Z"/><path class="cls-13" d="M640,803.72l-10.26-4.35.43.8,9.6,4.08Z"/><polygon class="cls-13" points="604.89 627.66 611.57 634.62 612 634.22 604.93 626.88 604.89 627.66"/><path class="cls-13" d="M663.81,675.35l4.58,5.58-.65-1.68L664.32,675Z"/><polygon class="cls-13" points="608.79 637.3 609.2 636.89 604.7 632.19 604.66 632.99 608.79 637.3"/><polygon class="cls-13" points="683.14 727.52 687.04 740.47 687.59 740.3 683.71 727.37 683.14 727.52"/><polygon class="cls-13" points="641.49 800.17 629.05 794.88 628.82 795.41 641.26 800.7 641.49 800.17"/><polygon class="cls-13" points="627.07 765.08 626.6 764.73 618.39 775.45 618.84 775.8 627.07 765.08"/><polygon class="cls-13" points="647.86 780.7 643.98 767.75 643.41 767.92 647.31 780.85 647.86 780.7"/><polygon class="cls-13" points="644.16 781.81 640.28 768.86 639.71 769.04 643.61 781.97 644.16 781.81"/><polygon class="cls-13" points="630.13 767.41 629.68 767.08 621.45 777.8 621.92 778.15 630.13 767.41"/><polygon class="cls-13" points="610.38 660.63 610.95 660.79 612.77 654.33 614.61 647.8 614.06 647.63 612.16 654.33 610.38 660.63"/><polygon class="cls-13" points="608.14 654.33 606.66 659.6 607.22 659.75 608.75 654.33 610.89 646.74 610.34 646.59 608.14 654.33"/><polygon class="cls-13" points="617.8 745.45 617.29 745.16 610.57 756.89 611.08 757.17 617.8 745.45"/><polygon class="cls-13" points="621.15 747.37 620.64 747.08 613.92 758.81 614.43 759.09 621.15 747.37"/><polygon class="cls-13" points="652.17 705.34 645.45 717.06 645.94 717.35 652.66 705.62 652.17 705.34"/><polygon class="cls-13" points="676.48 747.37 673.47 760.54 674.03 760.67 677.05 747.51 676.48 747.37"/><path class="cls-13" d="M680.6,713.81l-8-3.39-.21.53,8.5,3.6C680.77,714.34,680.7,714.06,680.6,713.81Z"/><polygon class="cls-13" points="676.52 771.31 676.44 770.74 663.06 772.62 663.14 773.19 676.52 771.31"/><polygon class="cls-13" points="683.65 785.46 683.2 785.83 689.34 793.31 691.76 796.29 692.22 795.92 690.08 793.31 683.65 785.46"/><polygon class="cls-13" points="654.46 793.31 655.89 787.71 655.32 787.57 653.85 793.31 651.99 800.66 652.56 800.8 654.46 793.31"/><rect class="cls-13" x="656.54" y="745.42" width="0.57" height="13.52" transform="translate(-292.15 1063.05) rotate(-67.01)"/><polygon class="cls-13" points="650.46 793.31 652.15 786.75 651.58 786.61 649.88 793.31 648.25 799.7 648.82 799.86 650.46 793.31"/><polygon class="cls-13" points="691.39 820.59 692.9 807.16 692.33 807.11 690.8 820.53 691.39 820.59"/><path class="cls-14" d="M606.3,597s24.63-3.22,35.27,17.14,77.12,200.27,78.19,217.48-43.92,21.41-58.91,13.93S604,749.19,599.8,737.4"/><path class="cls-15" d="M457.42,841.84s-50.33-6.43-58.91-5.37-47.12,26.78-47.12,26.78H460.56Z"/><path class="cls-12" d="M665.2,808.53,457.52,842.82l3,21.41H716.63a188.33,188.33,0,0,0,3.21-32.13c0-16.06-9.64-34.27-9.64-34.27"/><polygon class="cls-13" points="682.4 843.39 686.3 856.32 686.85 856.17 682.97 843.22 682.4 843.39"/><polygon class="cls-13" points="696.62 806.79 688.12 817.29 688.57 817.67 697.08 807.16 696.62 806.79"/><polygon class="cls-13" points="685.12 814.87 685.57 815.24 694.06 804.74 693.61 804.36 685.12 814.87"/><polygon class="cls-13" points="658.11 833.58 662 846.53 662.55 846.35 658.67 833.42 658.11 833.58"/><polygon class="cls-13" points="690.55 855.05 686.65 842.1 686.1 842.27 690 855.21 690.55 855.05"/><polygon class="cls-13" points="666.26 845.25 662.38 832.3 661.81 832.48 665.71 845.41 666.26 845.25"/><rect class="cls-13" x="693.87" y="825.79" width="13.52" height="0.59" transform="translate(-272.5 1301.81) rotate(-75.75)"/><polygon class="cls-13" points="699.62 864.23 700.23 864.23 703.07 854.2 702.5 854.04 699.62 864.23"/><polygon class="cls-13" points="651.46 862.02 651.25 862.55 655.21 864.23 656.7 864.23 651.46 862.02"/><rect class="cls-13" x="697.56" y="826.64" width="13.52" height="0.59" transform="translate(-270.63 1305.86) rotate(-75.74)"/><rect class="cls-13" x="607.59" y="821.71" width="0.59" height="13.52" transform="translate(-245.1 255.49) rotate(-19.84)"/><polygon class="cls-13" points="671.62 826.82 684.05 832.09 684.28 831.56 671.84 826.27 671.62 826.82"/><polygon class="cls-13" points="675.74 863.74 675.62 864.23 676.21 864.23 676.31 863.86 675.74 863.74"/><rect class="cls-13" x="679.18" y="818.91" width="0.57" height="13.52" transform="translate(-346 1128.68) rotate(-67.01)"/><polygon class="cls-13" points="616.73 820.15 625.29 830.62 625.74 830.25 617.18 819.78 616.73 820.15"/><polygon class="cls-13" points="628.72 827.8 620.15 817.35 619.72 817.71 628.27 828.17 628.72 827.8"/><path class="cls-13" d="M712.57,806.26l1.2-1-.24-.57-1.33,1.17Z"/><rect class="cls-13" x="608.03" y="844.01" width="13.52" height="0.59" transform="translate(-365.26 1205.29) rotate(-74.16)"/><path class="cls-13" d="M714.64,834.09l4.72,1.07v-.58l-4.63-1.06Z"/><polygon class="cls-13" points="642.57 860.06 639.92 864.23 640.61 864.23 643.06 860.35 642.57 860.06"/><path class="cls-13" d="M719.65,838.49l-5.31-1.19-.14.55,5.41,1.23A5.65,5.65,0,0,0,719.65,838.49Z"/><path class="cls-13" d="M715.1,809.18l.14-.11-.22-.59-.29.27Z"/><rect class="cls-13" x="629.79" y="843.46" width="13.52" height="0.59" transform="translate(-284.2 324.77) rotate(-23.56)"/><polygon class="cls-13" points="639.79 858.3 639.3 857.98 635.34 864.23 636.02 864.23 639.79 858.3"/><rect class="cls-13" x="611.79" y="845.16" width="13.52" height="0.59" transform="translate(-363.64 1209.74) rotate(-74.16)"/><rect class="cls-13" x="631.38" y="846.96" width="13.52" height="0.59" transform="translate(-285.55 325.86) rotate(-23.57)"/><polygon class="cls-13" points="651.91 821.49 651.42 821.19 644.7 832.93 645.19 833.22 651.91 821.49"/><polygon class="cls-13" points="641.35 831.01 641.84 831.28 648.56 819.57 648.05 819.27 641.35 831.01"/><rect class="cls-13" x="490.81" y="843.47" width="13.52" height="0.59" transform="translate(-295.79 269.22) rotate(-23.56)"/><polygon class="cls-13" points="478.07 861.8 477.56 861.53 476.01 864.23 476.68 864.23 478.07 861.8"/><polygon class="cls-13" points="474.23 850.9 477.6 838.98 476.97 839.08 473.68 850.74 474.23 850.9"/><polygon class="cls-13" points="481.42 863.72 480.91 863.45 480.46 864.23 481.13 864.23 481.42 863.72"/><polygon class="cls-13" points="546.57 828.52 546.8 827.99 546.06 827.7 545 827.86 546.57 828.52"/><polygon class="cls-13" points="560.63 864.23 561.24 864.23 564.06 854.2 563.51 854.04 560.63 864.23"/><polygon class="cls-13" points="565.71 824.45 563.41 833.5 563.96 833.65 566.34 824.35 565.71 824.45"/><polygon class="cls-13" points="500.8 858.3 500.31 857.98 496.35 864.23 497.04 864.23 500.8 858.3"/><polygon class="cls-13" points="504.07 860.35 503.58 860.06 500.92 864.23 501.6 864.23 504.07 860.35"/><polygon class="cls-13" points="619.9 863.45 619.45 864.23 620.12 864.23 620.41 863.72 619.9 863.45"/><polygon class="cls-13" points="706.22 855.1 703.64 864.23 704.25 864.23 706.77 855.26 706.22 855.1"/><rect class="cls-13" x="603.95" y="823.05" width="0.59" height="13.52" transform="translate(-245.87 254.48) rotate(-19.85)"/><polygon class="cls-13" points="567.22 855.1 564.65 864.23 565.24 864.23 567.78 855.26 567.22 855.1"/><polygon class="cls-13" points="512.48 862.02 512.24 862.55 516.22 864.23 517.69 864.23 512.48 862.02"/><polygon class="cls-13" points="617.06 861.8 616.55 861.53 615 864.23 615.67 864.23 617.06 861.8"/><rect class="cls-13" x="469.84" y="844.24" width="13.48" height="0.59" transform="translate(-465.45 1074.66) rotate(-74.29)"/><polygon class="cls-13" points="589.57 847.8 589.02 847.59 584.09 860.16 584.61 860.38 589.57 847.8"/><rect class="cls-13" x="492.36" y="847.01" width="13.52" height="0.59" transform="translate(-297.07 270.13) rotate(-23.56)"/><polygon class="cls-13" points="593.16 849.19 592.61 849 587.67 861.57 588.22 861.77 593.16 849.19"/><polygon class="cls-13" points="575.21 837.87 581.21 839.22 588.38 840.83 588.51 840.26 581.21 838.61 575.33 837.3 575.21 837.87"/><polygon class="cls-13" points="589.24 837.06 589.38 836.5 581.21 834.65 576.19 833.52 576.05 834.09 581.21 835.24 589.24 837.06"/><polygon class="cls-13" points="560.24 832.69 562.18 825.03 561.55 825.13 559.67 832.56 560.24 832.69"/><polygon class="cls-13" points="545.29 831.56 538.95 828.85 537.89 829.03 545.06 832.09 545.29 831.56"/><polygon class="cls-13" points="526.7 845.41 527.27 845.25 523.37 832.3 522.82 832.48 526.7 845.41"/><polygon class="cls-13" points="523.57 846.35 519.67 833.42 519.12 833.58 523.02 846.53 523.57 846.35"/><polygon class="cls-13" points="543.41 843.39 547.31 856.32 547.86 856.17 543.96 843.22 543.41 843.39"/><polygon class="cls-13" points="536.73 863.74 536.61 864.23 537.22 864.23 537.3 863.86 536.73 863.74"/><polygon class="cls-13" points="551.56 855.05 547.66 842.1 547.12 842.27 550.99 855.21 551.56 855.05"/><path class="cls-14" d="M665.2,807.55,457.52,841.84l3,21.41H716.63a188.33,188.33,0,0,0,3.21-32.13c0-16.06-9.64-34.27-9.64-34.27"/></g><g id="freepik--Device--inject-7"><path class="cls-5" d="M710.5,859.33H453.08l-8.44-141.6a9.63,9.63,0,0,1,7.92-11.08,9.28,9.28,0,0,1,1.58-.14H709.41a9.62,9.62,0,0,1,9.63,9.6,8.86,8.86,0,0,1-.14,1.62Z"/><path class="cls-19" d="M465.64,710.43H707.91a9.4,9.4,0,0,1,9.5,9.31,8.52,8.52,0,0,1-.12,1.59"/><path class="cls-19" d="M446.17,719.14a9.45,9.45,0,0,1,9.49-8.72"/><rect class="cls-11" x="451.92" y="845.62" width="260.58" height="13.71"/><path class="cls-11" d="M599.31,784.2c0,6.12-8.27,11.07-18.46,11.07s-18.43-4.95-18.43-11.07,8.26-11.07,18.43-11.07S599.31,778.09,599.31,784.2Z"/></g><g id="freepik--Mug--inject-7"><path class="cls-5" d="M195.94,846a44.55,44.55,0,0,1-15.85-3.78,5.49,5.49,0,0,1,4.33-10.07c5.06,2.15,11.54,3.48,13.28,2.74,3.18-3.59,8.1-25.24,1.75-35.56a5,5,0,0,0-3.63-2.84c-3.6-.49-8.93,3.21-10.81,5a5.49,5.49,0,0,1-7.49-8c1-.94,10.09-9.11,19.75-7.84a15.86,15.86,0,0,1,11.5,8c9.35,15.2,3,44.2-4.23,49.88A13.56,13.56,0,0,1,195.94,846Z"/><rect class="cls-5" x="124.73" y="780.97" width="60.74" height="80.33"/><path class="cls-3" d="M131.29,776.76s0-6.68,12.24-13.36,18.93-16.7,12.25-35.62-5.57-32.29,7.83-43.44"/><path class="cls-3" d="M134.07,705.54c.62-8.13,4.25-15,11.75-21.2"/><path class="cls-3" d="M138,727.78a76.31,76.31,0,0,1-3-10.35"/><path class="cls-3" d="M181,734.3a49.42,49.42,0,0,0-1.86-6.52l-1-3"/><path class="cls-3" d="M154.66,776.76s0-6.68,12.24-13.36c8-4.39,13.72-10.21,14.72-19"/></g><g id="freepik--Table--inject-7"><rect class="cls-9" x="70.85" y="860.31" width="911.05" height="19.59"/></g></svg>