<svg id="Capa_1" data-name="Capa 1" xmlns="http://www.w3.org/2000/svg" viewBox="0 0 1000 1000"><defs><style>.cls-1{fill:#d3d3d3;}.cls-12,.cls-18,.cls-2{fill:#263238;}.cls-10,.cls-12,.cls-13,.cls-14,.cls-15,.cls-16,.cls-19,.cls-2,.cls-20,.cls-4,.cls-5,.cls-6,.cls-7{stroke:#263238;}.cls-14,.cls-16,.cls-19,.cls-2,.cls-20,.cls-21,.cls-5,.cls-7{stroke-miterlimit:10;}.cls-10,.cls-12,.cls-14,.cls-16,.cls-2,.cls-4,.cls-5,.cls-6,.cls-7{stroke-width:1.75px;}.cls-3{fill:#ba68c8;}.cls-14,.cls-4,.cls-9{fill:#fff;}.cls-10,.cls-12,.cls-13,.cls-15,.cls-19,.cls-4,.cls-6{stroke-linecap:round;}.cls-10,.cls-12,.cls-13,.cls-15,.cls-4,.cls-6{stroke-linejoin:round;}.cls-10,.cls-19,.cls-20,.cls-21,.cls-5{fill:none;}.cls-6{fill:#b8b8b8;}.cls-7{fill:#dbdbdb;}.cls-8{fill:#878787;}.cls-11{fill:#9ec10c;}.cls-13{fill:#208def;stroke-width:2px;}.cls-15{fill:#e8ab79;stroke-width:2.28px;}.cls-16,.cls-17{fill:#a4a4a5;}.cls-19,.cls-20{stroke-width:3.5px;}.cls-21{stroke:#eaeaea;stroke-width:1.98px;}</style></defs><g id="freepik--background-simple--inject-2"><path class="cls-1" d="M707.21,174s-94.87-70.09-216.15-31.49S320.44,285.39,251.75,358.74c-36,38.48-89.81,54.42-132.81,84.68C-18.56,540.2,5.33,742.54,113.7,814.26c93.86,62.15,209.91,63.79,360,7.92S731.27,732,822.47,587.52,824.22,269.68,707.21,174Z"/></g><g id="freepik--Screen--inject-2"><rect class="cls-2" x="147.33" y="151.18" width="584.25" height="456.55"/><rect class="cls-3" x="167.45" y="132.82" width="586" height="458.3"/><rect class="cls-4" x="166.57" y="131.94" width="586" height="458.3"/><rect class="cls-4" x="182.32" y="196.66" width="124.2" height="78.72"/><line class="cls-5" x1="216.43" y1="231.65" x2="268.9" y2="231.65"/><line class="cls-5" x1="202.43" y1="243.89" x2="289.89" y2="243.89"/><rect class="cls-4" x="182.32" y="291.12" width="124.2" height="78.72"/><line class="cls-5" x1="195.44" y1="310.37" x2="239.17" y2="310.37"/><line class="cls-5" x1="195.44" y1="320.86" x2="239.17" y2="320.86"/><line class="cls-5" x1="195.44" y1="329.61" x2="239.17" y2="329.61"/><line class="cls-5" x1="195.44" y1="340.1" x2="239.17" y2="340.1"/><line class="cls-5" x1="195.44" y1="350.6" x2="239.17" y2="350.6"/><line class="cls-5" x1="249.66" y1="310.37" x2="293.39" y2="310.37"/><line class="cls-5" x1="249.66" y1="320.86" x2="293.39" y2="320.86"/><line class="cls-5" x1="249.66" y1="329.61" x2="293.39" y2="329.61"/><line class="cls-5" x1="249.66" y1="340.1" x2="293.39" y2="340.1"/><line class="cls-5" x1="249.66" y1="350.6" x2="293.39" y2="350.6"/><rect class="cls-4" x="182.32" y="383.83" width="124.2" height="78.72"/><line class="cls-5" x1="195.44" y1="403.08" x2="239.17" y2="403.08"/><line class="cls-5" x1="195.44" y1="413.57" x2="239.17" y2="413.57"/><line class="cls-5" x1="195.44" y1="424.07" x2="239.17" y2="424.07"/><line class="cls-5" x1="195.44" y1="434.56" x2="239.17" y2="434.56"/><line class="cls-5" x1="195.44" y1="445.06" x2="239.17" y2="445.06"/><line class="cls-5" x1="249.66" y1="403.08" x2="293.39" y2="403.08"/><line class="cls-5" x1="249.66" y1="413.57" x2="293.39" y2="413.57"/><line class="cls-5" x1="249.66" y1="424.07" x2="293.39" y2="424.07"/><line class="cls-5" x1="249.66" y1="434.56" x2="293.39" y2="434.56"/><line class="cls-5" x1="249.66" y1="445.06" x2="293.39" y2="445.06"/><rect class="cls-4" x="182.32" y="478.29" width="124.2" height="78.72"/><line class="cls-5" x1="195.44" y1="497.53" x2="239.17" y2="497.53"/><line class="cls-5" x1="195.44" y1="508.03" x2="239.17" y2="508.03"/><line class="cls-5" x1="195.44" y1="516.78" x2="239.17" y2="516.78"/><line class="cls-5" x1="195.44" y1="527.27" x2="239.17" y2="527.27"/><line class="cls-5" x1="195.44" y1="537.77" x2="239.17" y2="537.77"/><line class="cls-5" x1="249.66" y1="497.53" x2="293.39" y2="497.53"/><line class="cls-5" x1="249.66" y1="508.03" x2="293.39" y2="508.03"/><line class="cls-5" x1="249.66" y1="516.78" x2="293.39" y2="516.78"/><line class="cls-5" x1="249.66" y1="527.27" x2="293.39" y2="527.27"/><line class="cls-5" x1="249.66" y1="537.77" x2="293.39" y2="537.77"/><rect class="cls-6" x="324" y="131.94" width="428.56" height="458.3"/><rect class="cls-4" x="336.25" y="219.4" width="388.33" height="264.14"/><line class="cls-5" x1="426.34" y1="324.36" x2="639.74" y2="324.36"/><line class="cls-5" x1="396.6" y1="347.1" x2="667.73" y2="347.1"/><rect class="cls-7" x="736.83" y="131.94" width="15.74" height="458.3"/><rect class="cls-8" x="737.7" y="274.51" width="15.74" height="124.2"/><rect class="cls-6" x="166.57" y="131.94" width="586" height="29.74"/><rect class="cls-9" x="204.18" y="136.32" width="377.84" height="17.49"/><line class="cls-5" x1="723.71" y1="172.18" x2="695.72" y2="172.18"/><line class="cls-5" x1="723.71" y1="180.92" x2="695.72" y2="180.92"/><line class="cls-5" x1="723.71" y1="191.42" x2="695.72" y2="191.42"/></g><g id="freepik--Plant--inject-2"><line class="cls-10" x1="759.5" y1="777.96" x2="766.58" y2="757.7"/><line class="cls-10" x1="759.57" y1="723.19" x2="759.57" y2="798.4"/><path class="cls-11" d="M748.39,762.41s-10.49-11.46-21-9.55-15.29,14.34-15.29,22,10.5,32.48,10.5,32.48,7.64-8.59,24.85-21S765.6,761.45,748.39,762.41Z"/><path class="cls-10" d="M748.39,762.41a52.54,52.54,0,0,0-21,22"/><path class="cls-11" d="M765.53,749s8.75-9.43,17.34-7.84,12.58,11.84,12.56,18.14S786.68,786,786.68,786a137.58,137.58,0,0,0-20.41-17.38C752.12,758.37,751.35,748.14,765.53,749Z"/><path class="cls-10" d="M765.53,749a43.12,43.12,0,0,1,17.27,18.15"/><line class="cls-10" x1="758.48" y1="736.43" x2="771.66" y2="717.17"/><path class="cls-11" d="M756.28,730.85s-.21-12.8-7.75-17.37-17.25.48-21.43,5.25-11.33,25.73-11.33,25.73,9.41-1.14,26.81.61S767.41,739.67,756.28,730.85Z"/><path class="cls-10" d="M756.28,730.85a43.26,43.26,0,0,0-25,2.07"/><path class="cls-11" d="M767.6,713.68s.16-9.43,5.7-12.79,12.72.35,15.74,3.81,8.31,19,8.31,19a100.87,100.87,0,0,0-19.73.46C764.85,725.41,759.5,720.16,767.6,713.68Z"/><path class="cls-10" d="M767.6,713.68A31.81,31.81,0,0,1,786,715.2"/><polygon class="cls-4" points="791.86 793.16 724.64 793.16 731.45 863.13 785.05 863.13 791.86 793.16"/><path class="cls-12" d="M773.56,823a3,3,0,1,0,3-3h0a3,3,0,0,0-3,3Z"/><path class="cls-12" d="M763.06,823a3,3,0,1,0,3.05-3h0a3,3,0,0,0-3.05,3Z"/><polygon class="cls-12" points="726.56 815.9 789.94 815.9 790.23 812.4 726.26 812.4 726.56 815.9"/><polygon class="cls-12" points="789.03 843.88 790.39 829.89 726.11 829.89 727.46 843.88 789.03 843.88"/><path class="cls-12" d="M785.34,823.37a3,3,0,0,0,3,3h.54l.56-5.81a3.29,3.29,0,0,0-1.08-.21A3,3,0,0,0,785.34,823.37Z"/><path class="cls-12" d="M752.57,823a3,3,0,1,0,3-3h0a3,3,0,0,0-3,3Z"/><path class="cls-12" d="M729.83,823a3,3,0,1,0,3-3h0a3,3,0,0,0-3,3Z"/><path class="cls-12" d="M740.32,823a3,3,0,1,0,3-3h0a3,3,0,0,0-3,3Z"/></g><g id="freepik--Character--inject-2"><path class="cls-13" d="M296.42,863.13c8.4-10.36,23.39-28.62,28.55-33.42a170.85,170.85,0,0,0,14-15.11s-8.86,17.2,6.25,30.75,60,3.13,69.86-4.16,10.95-26.06,2.1-53.7S395.78,708.77,396.3,691s-10.95-67.78-16.16-81.33-26.59-23.46-48.49-28.15-80.81,19.8-80.81,19.8l-12,4.69s-49,27.11-62.05,38.06-6.79,41.2-9.9,70.39-3.13,63.1-3.13,63.1-30.25,26.59-52.15,56.81C101.14,849,95,857.83,91.57,863.13Z"/><path class="cls-14" d="M404,806.61s-17.49-4.11-35.83,8.19-13.32,30.72,3.07,34.81,37.88,4.09,49.15-13.31S412.15,805.58,404,806.61Z"/><path class="cls-15" d="M408.3,806.45a38.47,38.47,0,0,0-28,6.41c-14.38,9.58-10.39,24,2.39,27.18s29.58,3.2,38.38-10.39S414.69,805.67,408.3,806.45Z"/><path class="cls-5" d="M367.83,689.85c.57-9.52.94-16,.94-16.58"/><path class="cls-5" d="M339.05,814.57s18.77-18.24,21.88-39.11c1.95-12.86,4.47-47.9,6.11-73.38"/><path class="cls-5" d="M390,725.19c-4.73,15.18-13.47,38-27,53.4"/><path class="cls-5" d="M394.31,709.25s-.73,3.5-2.29,9.1"/><path class="cls-5" d="M392.67,768.71a128.24,128.24,0,0,1-32.24,26.57"/><path class="cls-5" d="M401.6,757.21a91,91,0,0,1-6.21,8.3"/><path class="cls-5" d="M419.87,801.54a86.28,86.28,0,0,0-53.2,1c-29.19,9.92-26.06,32.33-23.46,36"/><path class="cls-16" d="M340.73,438.2s0-6.13-8.45-19.24-51.46-7.68-66,6.91,6.14,33-3.08,43.73-39.93,5.37-49.92,24.58S228.59,522.59,234,529.5s-9.21,9.22-7.67,16.13,25.32,7.67,25.32,7.67-15.35,4.62-7.67,10.76a57.14,57.14,0,0,0,36.87,11.53c15.36-.77,11.51-30.73,10-53s18.42-46.85,41.47-44.55S379.9,506.46,376,518s6.14-2.31,26.89-15.38,11.53-39.93,7-45.3-20-6.91-23-16.9-10-20-23-20S353.78,437.44,340.73,438.2Z"/><path class="cls-14" d="M275,576.29s-9.9,2.61-14,7.84-21,14.64-22,21.88,5.25,44.85,17.72,60,18.77,16.17,18.77,16.17,3.66-14.59,6.26-15.64,26.59,14,26.59,14S312.45,656,315.07,656,326,664.35,326,664.35s3.13-20.87,1.05-37-15.64-36-25.54-42.76S283.71,571.6,275,576.29Z"/><path class="cls-15" d="M280.05,556.49l-19.24,46.07s4.95,21.47,11.46,35.27c8.86,18.77,30.78,27.71,30.78,27.71A71.13,71.13,0,0,1,310,634.05a171.59,171.59,0,0,1,15.36-25.35S290.81,574.93,280.05,556.49Z"/><path class="cls-2" d="M285,574s8.83,50.5,21.46,66.28l12-22.74L287,568.26Z"/><path class="cls-15" d="M277.51,723.86s30.77-80.31,35-85,13.55-13,17.74-18.77,15.63-20.33,19.81-20.33,14,3.64,18.77,4.69,7.82,2.61,8.33,10.5-6.24,8.34-6.24,8.34l-2.61-3.13s-18.77,28.16-24.49,31.8a49,49,0,0,1-10.95,5.25l-25,93.34Z"/><path class="cls-15" d="M386,491s7.29,6.08,2.43,26.73-6.07,31-6.07,43.13S378.76,590,368.4,601s-23.07,26.73-38.25,26.12c-24-1-35.84-34-43.73-49.21s-9.71-35.84-9.71-44.34,1.21-28.55,12.14-43.73,40.7-21.25,53.46-19.43S370.85,474,386,491Z"/><path class="cls-17" d="M282.17,545.68s2.43-8.5,13.36-13.37,17.62-13.36,14-21.27-1.74-15.74,14-20,20,11.54,35.23,9.11,19.43-8.5,27.32-4.86,4.25,14,4.25,14,9.73-17.61-9.09-37.66-64.39-27.34-96-4.25-13.37,77.14-13.37,77.14S273.67,546.89,282.17,545.68Z"/><polyline class="cls-5" points="358.1 556 356.28 591.23 343.51 586.37"/><path class="cls-5" d="M348.43,604s-12.14,1.74-17.62-6.69"/><path class="cls-18" d="M335,555.63c-.56,3.5-2.51,6-4.32,5.76s-2.84-3.36-2.28-6.84,2.5-6.06,4.32-5.76S335.54,552.15,335,555.63Z"/><path class="cls-18" d="M373.9,556.61c-.56,3.5-2.5,6-4.32,5.76s-2.86-3.36-2.28-6.83,2.5-6.07,4.32-5.77S374.46,553.13,373.9,556.61Z"/><path class="cls-19" d="M319.46,539.77s13.07-11.39,23.6-2.54"/><path class="cls-19" d="M365.4,537.23s8.85-7.57,16.44-.42"/><path class="cls-20" d="M351.49,547.36s-18.54-3-47.23,1.75c0,0-2.52,19.38,11,27.81s26.55.42,29.91-4.22C351.93,563.47,351.49,547.36,351.49,547.36Z"/><path class="cls-20" d="M394.05,544.7s-13.26-2.82-33.76,1.61c0,0-1.75,18.54,7.83,26.59s19,.4,21.41-4C394.29,560.11,394.05,544.7,394.05,544.7Z"/><path class="cls-20" d="M351.49,547.36s2-5.46,8.75-1.05"/><line class="cls-20" x1="276.04" y1="537.65" x2="304.28" y2="549.04"/><path class="cls-15" d="M284.6,548.7s-4.25-24.89-15.75-12.75-1.2,24.3,4.26,29.74,12.24,0,12.24,0"/><path class="cls-13" d="M239.08,671.43a138.9,138.9,0,0,1,15,44.54c3.65,25,3.13,29.73,3.13,29.73l18.24-21.88s29.74,20.85,34.41,27.62,5.25,8.87,5.25,8.87,0,40.67-17.22,65.18S272.32,850,255.65,850s-38.07-15.66-49.54-41.72-20.87-64.08-23-67.8S174.29,716,174.29,716"/><path class="cls-5" d="M232.24,776.3c-1.9,2.24-3.5,4.11-4.77,5.42"/><path class="cls-5" d="M257.19,745.7S247.44,758,238.7,768.53"/><path class="cls-14" d="M259.79,743.13a136.69,136.69,0,0,1,32.33,14.08c17.72,10.5,19.24,21.9,24.49,17.74s9.37-17.21,4.16-24.49S299.4,726,287.94,720.72s-16.16-2.09-19.82,5.74S256.14,738.44,259.79,743.13Z"/><path class="cls-5" d="M259.22,785.81a59.77,59.77,0,0,0,2.24,14.68"/><path class="cls-5" d="M259.79,743.13s-1.24,17.49-1,33.78"/><path class="cls-5" d="M277.51,752s3.66,20.34,7.84,29.2"/><path class="cls-15" d="M401.1,802.57s-17.74,31.3-15.13,35,60.49,0,60.49,0l3.11-12.51s12,4.69,21.39,4.69,2.08-2.61-1-5.74-21.37-14.59-23-15.64S415.16,799.44,401.1,802.57Z"/><path class="cls-14" d="M438.86,799s8.38-2.52,10.62,2.8,1.12,28,.28,33.79-4.74,5.58-6.42,0-5.6-35.75-5.6-35.75Z"/><path class="cls-15" d="M421.27,801.49s12.57-8.66,16.21-4.2,7,39.67,8.1,42.19-4.76,4.46-7,1.94-8.66-15.36-10.6-20.1S421.27,801.49,421.27,801.49Z"/><path class="cls-15" d="M396.41,811s7-12.86,12.86-16.48,12.24,3.06,15.35,8.1,5.58,18.15,7,24.57,5.25,13.68,3.08,14.52-10.9-6.42-13.42-10.32-8.66-19-8.66-19"/><path class="cls-15" d="M407.9,835.28s-10.06-9.78-13.41-12.85-8.1-4.47-11.44-.83-5,8.1,0,12.84,17,11,24.85,11,6.42-3.92,4.46-6.14A25.26,25.26,0,0,0,407.9,835.28Z"/></g><g id="freepik--Device--inject-2"><rect class="cls-6" x="308.26" y="852.63" width="367.34" height="10.5"/><rect class="cls-12" x="308.26" y="852.63" width="129.44" height="10.5"/><path class="cls-12" d="M427,852.63H664.31L678,694.82a12.3,12.3,0,0,0-10.89-13.55c-.51,0-1-.07-1.54-.07H455.53a15.16,15.16,0,0,0-14.78,13.62Z"/><path class="cls-6" d="M431.6,852.63H668.88l13.71-157.81a12.3,12.3,0,0,0-10.9-13.55c-.51,0-1-.07-1.54-.07h-210a15.17,15.17,0,0,0-14.79,13.62Z"/><path class="cls-12" d="M551.81,761.45A16.6,16.6,0,0,1,568,746.53a13.46,13.46,0,0,1,13.7,13.23,13.66,13.66,0,0,1-.08,1.69,16.59,16.59,0,0,1-16.21,14.92,13.52,13.52,0,0,1-13.63-14.92Z"/></g><g id="freepik--Table--inject-2"><line class="cls-5" x1="854.9" y1="863.13" x2="36.25" y2="863.13"/></g><path class="cls-21" d="M347.76,456.61s-21.05-6.12-29.88,4.07-9.5,32.59-19.75,36-17.66-6.77-25.13,0-2,18.33-12.22,22.42-23.07-6.12-23.07-6.12"/><path class="cls-21" d="M286,475.69a23.71,23.71,0,0,0-19.75,4.76c-8.81,7.46-.67,18.33-12.9,20.36s-21-6.79-21-6.79"/></svg>