<svg id="Capa_1" data-name="Capa 1" xmlns="http://www.w3.org/2000/svg" viewBox="0 0 1000 1000"><defs><style>.cls-1{fill:#d3d3d3;}.cls-2{fill:#ba68c8;}.cls-3{fill:#9ec10c;}.cls-20,.cls-21,.cls-4,.cls-8,.cls-9{fill:#263238;}.cls-10,.cls-12,.cls-5,.cls-6{fill:#fff;}.cls-5{opacity:0.3;isolation:isolate;}.cls-10,.cls-12,.cls-13,.cls-14,.cls-15,.cls-16,.cls-17,.cls-18,.cls-19,.cls-20,.cls-21,.cls-6,.cls-7,.cls-8,.cls-9{stroke:#263238;}.cls-12,.cls-17,.cls-19,.cls-20,.cls-6,.cls-7,.cls-8,.cls-9{stroke-linecap:round;}.cls-14,.cls-15,.cls-16,.cls-17,.cls-18,.cls-19,.cls-20,.cls-21,.cls-22,.cls-6,.cls-7,.cls-8,.cls-9{stroke-linejoin:round;}.cls-10,.cls-11,.cls-12,.cls-13,.cls-14,.cls-15,.cls-16,.cls-17,.cls-18,.cls-19,.cls-20,.cls-21,.cls-22,.cls-6{stroke-width:1.93px;}.cls-11,.cls-13,.cls-14,.cls-15,.cls-17,.cls-22,.cls-7{fill:none;}.cls-7{stroke-width:1.58px;}.cls-8{stroke-width:1.4px;}.cls-9{stroke-width:1.7px;}.cls-10,.cls-11,.cls-12,.cls-13{stroke-miterlimit:10;}.cls-11{stroke:#fff;}.cls-15{stroke-dasharray:10.73 10.73;}.cls-16{fill:#eab05c;}.cls-18{fill:#6aa3c6;}.cls-19{fill:#6e6e6e;}.cls-22{stroke:gray;}</style></defs><g id="freepik--background-simple--inject-2"><path class="cls-1" d="M882.57,243.1C839,147.39,733.86,77.7,633.28,62.39c-173.92-26.47-296.81-3.86-389.5,107.75s-42.42,204.39-65.56,308.29S90.79,608.74,86.94,714.6c-2.24,62.59,39.3,125.2,84.2,165,71.6,63.64,168.7,81,261,62.32,49.54-10,93.12-26.1,128.42-64.76,33.82-37,69-73.08,109-103.59,146.35-111.84,250.67-263.94,233.1-456.14A228.92,228.92,0,0,0,882.57,243.1Z"/></g><g id="freepik--Plants--inject-2"><path class="cls-2" d="M712.13,737.21c6,2.61,20.59,2.28,20.61,2.28s-3.14-9.64-3.41-10.16c-3.22-6.71-13.36-17.8-21.64-16.68a9.86,9.86,0,0,0-7.9,12.36C701.16,730.73,707,735,712.13,737.21Z"/><path class="cls-3" d="M860.16,740.41c.13.1,2.66-9.64,2.76-10.35,1-7.37-1.33-22.21-8.83-25.84A9.85,9.85,0,0,0,841,709.06a8.64,8.64,0,0,0-.43,1.1c-2,5.53.54,12.32,3.55,17C847.68,732.62,860.16,740.41,860.16,740.41Z"/><path class="cls-3" d="M902.84,687.56c-8.25-.88-18.07,10.44-21.15,17.2-.27.59-3.29,10.22-3.13,10.22h.17c-1.56,1.77-3.21,3.69-5,5.76-3.23,4-6.86,8.48-10.46,13.66a171.84,171.84,0,0,0-10.82,17.29,129,129,0,0,0-9.27,20.81,1.22,1.22,0,0,1,0,.27c0-2.42,0-9.24-.14-9.76-.94-7.36-7.11-21-15.28-22.52a9.86,9.86,0,0,0-11.24,8.21,9.2,9.2,0,0,0-.1,1c-.48,5.86,3.84,11.7,7.9,15.37,4.65,4.17,17.59,8.19,18.63,8.52a172.72,172.72,0,0,0-5.48,22.55c-.79,4.44-1.44,8.93-2.06,13.45a34.67,34.67,0,0,0-.11-4.27c-1-7.34-7.12-21-15.38-22.49a9.83,9.83,0,0,0-11.24,8.21,8.77,8.77,0,0,0-.11,1c-.48,5.76,3.85,11.68,7.9,15.37s15.15,7.39,18.08,8.34c-.21,1.72-.46,3.45-.66,5.2-1,8.32-1.92,16.66-3.15,24.79-.42,2.86-.94,5.66-1.44,8.47v-3.06c-1-7.4-7.13-21.13-15.38-22.65a9.85,9.85,0,0,0-11.24,8.26c-.05.34-.09.69-.11,1-.48,5.8,3.85,11.78,7.91,15.47s14.09,7.08,17.55,8.2c-.62,2.88-1.21,5.8-1.92,8.52-.54,1.94-.93,3.73-1.56,5.59s-1.19,3.67-1.77,5.49c-1.25,3.44-2.52,7-3.84,10.34-.91,2.34-1.79,4.53-2.68,6.75.44-2.86,1.21-8.49,1.23-9a38.78,38.78,0,0,0-5.13-18.68,12.22,12.22,0,0,0-.13-2.18,9.85,9.85,0,0,0-11-8.58,9.65,9.65,0,0,0-1,.19c-8,2.15-13.13,16.32-13.46,23.78,0,.42.27,5.24.5,8.25-.4-1.76-.77-3.46-1.21-5.27-.85-3.56-1.79-7.1-2.79-10.93q-.84-2.72-1.67-5.51c-.5-1.93-1.29-3.75-1.92-5.64-1.58-4.37-3.41-8.72-5.33-13.07,3.1-.73,14.09-3.56,18.52-7s9-8.95,9-14.85a9.86,9.86,0,0,0-9.58-10.15c-.34,0-.69,0-1,0-8.27.91-15.38,14.14-16.94,21.44,0,.47-.58,5.8-.79,8.78-1.17-2.59-2.34-5.2-3.63-7.73-3.69-7.47-7.69-14.93-11.54-22.37-1.21-2.28-2.38-4.58-3.55-6.86,1.09-.25,14.24-3.33,19.22-7.14,4.41-3.4,9.08-8.95,9-14.84a9.85,9.85,0,0,0-9.54-10.16,9.49,9.49,0,0,0-1.07,0c-8.27.9-15.38,14.15-16.94,21.44-.1.56-.79,8.27-.89,10.24-2.59-5-5.13-10.07-7.46-15.16a173.41,173.41,0,0,1-8.09-21.05c.5-.11,14.25-3.25,19.23-7.17,4.4-3.38,9.07-8.93,9-14.83a9.86,9.86,0,0,0-9.54-10.16,9.63,9.63,0,0,0-1.07,0c-8.27.91-15.38,14.13-16.92,21.44-.11.48-.63,6.36-.83,9.17h-.48a129.31,129.31,0,0,1-4.23-22.31c-.46-4.16-.67-8.14-.78-12.05,2.61-.31,14.57-1.93,19.51-4.93s10-7.89,10.57-13.74a9.87,9.87,0,0,0-8.38-11.15c-.35,0-.7-.07-1.06-.08-8.3,0-16.88,12.33-19.22,19.42-.14.39-1,4.47-1.52,7.43,0-1.76-.1-3.56-.1-5.24,0-6.32.43-12.1.81-17.23.25-2.92.54-5.54.83-8,2.4-1.66,12-8.49,15-13.36s5.24-11.6,3.09-17.11a9.82,9.82,0,0,0-12.57-6c-.3.11-.6.24-.89.38-7.38,3.86-9.32,18.77-8.09,26.13.09.64,2.88,10.38,3,10.31h.13c-.33,2.36-.63,4.89-.94,7.73-.5,5.12-1,10.92-1.17,17.26a175,175,0,0,0,.48,20.48,130.31,130.31,0,0,0,3.84,22.61v.11c-1.3-2-5.15-7.69-5.5-8.05-4.86-5.61-17.53-13.6-25.18-10.36a9.86,9.86,0,0,0-4.83,13.08c.14.3.29.6.46.89,2.83,5.13,9.62,7.69,15.1,8.47,6.17.91,19.22-2.88,20.22-3.17a172.27,172.27,0,0,0,7.9,21.83c1.79,4.13,3.71,8.26,5.77,12.35-1.19-1.73-2.27-3.28-2.44-3.47-4.84-5.61-17.53-13.59-25.19-10.34a9.82,9.82,0,0,0-4.83,13c.15.31.31.63.49.93,2.82,5.15,9.61,7.68,15.07,8.47s16.73-2.17,19.67-3c.77,1.58,1.54,3.15,2.33,4.71,3.84,7.49,7.55,15,11.05,22.4,1.23,2.63,2.35,5.25,3.48,7.88-1.06-1.54-1.92-2.83-2.11-3-4.85-5.61-17.54-13.58-25.19-10.33a9.8,9.8,0,0,0-4.83,13,8.25,8.25,0,0,0,.49.93c2.82,5.15,9.61,7.69,15.07,8.48s15.63-1.92,19.13-2.87C774,860,775,862.74,776,865.41c.57,1.92,1.28,3.59,1.76,5.48s1,3.7,1.54,5.53c.85,3.55,1.75,7.2,2.5,10.68.54,2.42,1,4.73,1.48,7.07-1.21-2.63-3.65-7.68-3.84-8.11-4-6.28-15.38-16.1-23.32-14a9.84,9.84,0,0,0-6.79,12.15c.1.34.21.67.34,1,2,5.5,8.33,9,13.64,10.66,5.76,1.77,18.74.16,20.36,0,.77,3.85,1.48,7.69,2.11,11.19,2.15,12.21,3.48,22.47,4.33,29.72h5.63l.06-.07c-1-7.33-2.59-17.91-5.12-30.56-.77-3.84-1.67-8.09-2.63-12.37a105.86,105.86,0,0,0,11.36-5.34c4.25,4.61,15.15,10,16.58,10.68-1.5,3.65-3,7.17-4.43,10.49-4.94,11.37-9.49,20.65-12.78,27.17h6.19c3-6.46,7-15.05,11.13-25.27,1.52-3.69,3.08-7.68,4.63-11.77,1.56.32,14.37,2.93,20.33,1.59,5.4-1.23,11.94-4.28,14.36-9.61a9.83,9.83,0,0,0-4.31-13.22,8.85,8.85,0,0,0-1.31-.55c-7.88-2.65-19.89,6.3-24.3,12.26-.27.36-2.65,4.49-4.13,7.12.63-1.69,1.27-3.3,1.92-5,1.25-3.44,2.41-6.88,3.67-10.6l1.64-5.5c.59-1.81,1-3.84,1.48-5.76,1.08-4.5,1.92-9.11,2.71-13.76,3,1.1,13.73,4.82,19.23,4.42s12.45-2.42,15.65-7.32a9.83,9.83,0,0,0-2.41-13.7,10.07,10.07,0,0,0-.88-.56c-7.4-3.84-20.63,3.21-25.9,8.46-.33.32-3.67,4.49-5.48,6.82.44-2.81.9-5.59,1.25-8.45,1-8.23,1.81-16.6,2.62-25,.25-2.56.53-5.09.8-7.69,1.06.41,13.71,5.11,19.92,4.67,5.54-.38,12.48-2.42,15.67-7.32a9.83,9.83,0,0,0-2.41-13.7,10.3,10.3,0,0,0-.9-.55c-7.38-3.84-20.63,3.21-25.87,8.43-.41.41-5.21,6.42-6.37,8,.6-5.61,1.25-11.2,2.1-16.67a174.38,174.38,0,0,1,4.78-21.92c.5.19,13.67,5.14,20.06,4.7,5.52-.38,12.46-2.42,15.67-7.34a9.83,9.83,0,0,0-2.44-13.69,7.86,7.86,0,0,0-.87-.54c-7.4-3.84-20.63,3.21-25.9,8.43-.34.35-4,4.92-5.77,7.15l-.42-.21a125.85,125.85,0,0,1,8.73-20.83c1.92-3.71,3.85-7.13,5.92-10.41,2.37,1.17,13.21,6.43,19,6.67s12.65-1,16.36-5.58a9.84,9.84,0,0,0-1.71-14.52c-6.92-4.59-20.86.94-26.65,5.55-.33.25-3.25,3.17-5.34,5.32l2.8-4.4c3.48-5.22,7-9.81,10.12-13.83,1.8-2.29,3.48-4.3,5.07-6.19,2.92,0,14.67-.4,19.82-2.8s10.75-6.76,12-12.49a9.84,9.84,0,0,0-7.3-11.85Z"/><path class="cls-3" d="M98.82,759.1c7.21.62,22.46-4.92,22.48-4.92s-6.71-8.94-7.19-9.45c-5.79-5.92-20.37-14-28.64-9.87A10.91,10.91,0,0,0,81,749.63a9,9,0,0,0,.62,1C85,756.19,92.72,758.56,98.82,759.1Z"/><path class="cls-3" d="M255.43,710c.17,0-.64-11.17-.77-11.86-1.55-8.12-9.28-22.87-18.46-24a10.94,10.94,0,0,0-11.94,9.82,9.48,9.48,0,0,0,0,1.19c-.16,6.52,4.93,12.75,9.77,16.57C239.65,706.21,255.43,710,255.43,710Z"/><path class="cls-3" d="M205.91,863.94c2.08,2.48,4.2,5,6.13,7.48,1.27,1.75,2.62,3.33,3.86,5.15l3.58,5.28c2.16,3.43,4.42,7,6.44,10.37,1.43,2.38,2.74,4.65,4.07,6.93-2.19-2.34-6.59-6.83-7-7.16-6.4-5.22-21.8-11.57-29.58-6.51a10.93,10.93,0,0,0-2.8,15.2,11.45,11.45,0,0,0,.72.93c4.07,5.1,12,6.58,18.15,6.41,6.77-.2,19.82-6.5,21.44-7.31,2.18,3.86,4.28,7.5,6.19,11,5.78,10.68,10.47,20,13.86,27l6.15-1.42c-3.64-7.24-8.71-17-15.23-28.33-2.2-3.86-4.65-7.94-7.17-12.11a117.39,117.39,0,0,0,10.06-9.64c6.12,3.34,19.54,5.15,21.21,5.36-.27,4.38-.56,8.64-.9,12.63-1.06,12.59-2.41,23.14-3.51,31.06l6.38-1.48c.87-7.71,1.93-17.61,2.58-29.18.29-4.43.51-9.17.7-14,1.75-.21,16.16-2,22-5.56,5.26-3.22,11.07-8.77,11.72-15.27a10.92,10.92,0,0,0-9.38-12.28,11.35,11.35,0,0,0-1.16-.1c-9.26,0-18.75,13.71-21.21,21.58-.16.46-1.2,5.67-1.82,9,0-1.93.16-3.86-1.22-6V870.47c1.42-2.1,1.28-4.22,1.2-6.38s-.32-4.38-.48-6.59c-.48-5.11-1.19-10.28-2-15.43,3.55,0,16.18.19,21.88-2.2s12.27-7,13.91-13.28A11,11,0,0,0,296,812.72c-9.14-1.39-20.6,10.72-24.28,18.11-.23.46-2.28,6.07-3.34,9.16-.54-3.11-1-6.23-1.69-9.35-1.93-9-4-18.15-6.12-27.25-.65-2.78-1.27-5.55-1.92-8.33,1.27,0,16.27.5,22.67-2.18,5.69-2.37,12.27-7,13.88-13.3a10.93,10.93,0,0,0-7.4-13.58,10.52,10.52,0,0,0-1.14-.27c-9.14-1.39-20.59,10.72-24.27,18.11-.27.56-3.2,8.62-3.86,10.7-1.37-6.11-2.68-12.24-3.72-18.32a188.23,188.23,0,0,1-2.76-24.83c.58,0,16.24.57,22.79-2.16,5.69-2.38,12.29-7,13.91-13.31a10.94,10.94,0,0,0-7.41-13.57,11.48,11.48,0,0,0-1.16-.27c-9.14-1.39-20.59,10.72-24.25,18.1-.25.49-3.49,9.51-3.49,9.51H251a138.55,138.55,0,0,1,1.83-25.07c.7-4.57,1.63-8.89,2.63-13.09,3,.4,16.73,2.1,23.1.29s13.38-5.59,15.77-11.71a11,11,0,0,0-7.21-14.69c-9.21-2.39-22.35,8.39-26.95,15.33-.25.39-2.36,4.49-3.86,7.5.48-1.93.94-3.86,1.44-5.63,1.87-6.77,4-12.84,6-18.2,1.11-3,2.21-5.79,3.24-8.31,3.15-1.08,15.8-5.65,20.52-10s9.21-10.93,8.42-17.35a11.16,11.16,0,0,0-12.14-10,10.52,10.52,0,0,0-1.24.16c-9.31,1.93-15.92,17.36-16.63,25.65,0,.71.18,11.93.33,11.88h.2c-1.05,2.42-2.15,5-3.28,7.92-2,5.32-4.34,11.38-6.35,18.11a187.59,187.59,0,0,0-5.45,22,136.38,136.38,0,0,0-2.41,25.26v.3c-.84-2.58-3.46-9.64-3.72-10.23-3.74-7.43-15.47-19.63-24.92-18.32a11,11,0,0,0-9.2,12.66,10.16,10.16,0,0,0,.27,1.12c1.63,6.33,8.39,11,14.25,13.5,6.58,2.72,22.15,2.37,23.38,2.33a188.27,188.27,0,0,0,2.35,25.75c.75,4.95,1.69,9.95,2.68,14.92-.79-2.22-1.53-4.18-1.67-4.43-3.74-7.43-15.46-19.63-24.89-18.3a11,11,0,0,0-9.22,12.65,10.7,10.7,0,0,0,.26,1.12c1.63,6.34,8.4,11,14.25,13.49s19.2,2.41,22.71,2.36c.42,1.92.79,3.85,1.19,5.78,2,9.14,4,18.26,5.69,27.25.6,3.18,1.08,6.32,1.56,9.46-.72-1.92-1.34-3.6-1.48-3.85C258.69,829.9,247,817.7,237.52,819a11,11,0,0,0-9.21,12.63,11.29,11.29,0,0,0,.27,1.15c1.61,6.33,8.38,11,14.23,13.5s17.91,2.41,22.09,2.35c.38,3.24.8,6.48,1,9.65,0,2.16.35,4.22.35,6.4v6.52s.32,8.25.13,12.2c-.12,2.76-.27,5.38-.43,8-.54-3.16-1.71-9.33-1.92-9.83a42.43,42.43,0,0,0-12-17.76,12.61,12.61,0,0,0-.92-2.26,10.94,10.94,0,0,0-14.6-5.08,9.48,9.48,0,0,0-1,.57c-7.71,5.11-8,21.79-5.79,29.74.12.46,2.13,5.38,3.44,8.46-1-1.7-2.05-3.35-3.15-5.07-2.16-3.45-4.39-6.83-6.8-10.47q-1.83-2.58-3.7-5.19c-1.26-1.73-2.7-3.47-4.05-5.24-3.22-4-6.68-7.91-10.24-11.76,3-1.93,13.61-8.78,17.06-13.91s6.38-12.61,4.24-18.76a11,11,0,0,0-13.69-7.24c-.36.11-.72.25-1.08.4-8.38,3.85-11.26,20.3-10.25,28.5,0,.52,1.44,6.3,2.27,9.48-2.18-2.31-4.32-4.63-6.59-6.88-6.52-6.52-13.35-12.92-20.12-19.28-2.08-1.93-4.12-3.86-6.18-5.92,1.07-.66,13.84-8.55,17.72-14.31,3.43-5.11,6.38-12.59,4.24-18.76a11,11,0,0,0-13.67-7.24c-.37.12-.74.26-1.1.41-8.39,3.86-11.26,20.31-10.26,28.5,0,.62,2.08,9,2.7,11.05-4.53-4.36-9-8.74-13.23-13.23a196.62,196.62,0,0,1-16-19.28c.52-.31,13.88-8.48,17.83-14.37,3.44-5.13,6.39-12.61,4.25-18.76A11,11,0,0,0,150,750.09a10.68,10.68,0,0,0-1.35.45c-8.39,3.85-11.26,20.3-10.26,28.5,0,.54,1.6,6.9,2.39,9.89l-.48.23a142.39,142.39,0,0,1-12.36-21.89c-1.93-4.18-3.58-8.29-5.09-12.32,2.64-1.27,14.68-7.19,18.82-12.11S149.37,731,148,724.66a11,11,0,0,0-12.82-8.7,10.38,10.38,0,0,0-1.1.27c-8.78,2.95-13.5,19-13.33,27.21,0,.45.56,5,1,8.31-.65-1.83-1.37-3.7-1.93-5.47-2.21-6.62-3.85-12.83-5.24-18.34-.77-3.12-1.41-6-1.93-8.66,1.93-2.6,9.64-13.17,11-19.28s1.41-14.06-2.8-19a11,11,0,0,0-15.38-1.83c-.3.24-.59.5-.87.77-6.42,6.65-3.18,23,.71,30.27.35.64,6.73,9.87,6.83,9.74l.11-.16c.51,2.59,1.07,5.34,1.74,8.35,1.27,5.56,2.78,11.82,4.86,18.51a191.36,191.36,0,0,0,7.71,21.31,144.59,144.59,0,0,0,12,22.35,2.35,2.35,0,0,1,.19.25c-2.12-1.7-8.18-6.27-8.68-6.56-7.11-4.18-23.31-8.1-30.21-1.92a11,11,0,0,0,.36,16.27c4.82,4.42,12.85,4.69,18.92,3.57,6.83-1.26,19.28-9.86,20.19-10.55a190.73,190.73,0,0,0,16.1,20.21c3.35,3.74,6.84,7.4,10.41,11-1.93-1.41-3.55-2.66-3.86-2.8-7.11-4.2-23.33-8.1-30.23-1.93a10.94,10.94,0,0,0-.47,15.46,9.55,9.55,0,0,0,.86.82c4.8,4.41,12.84,4.68,18.89,3.58s16.85-8.25,19.67-10.18l4.11,4.13c6.65,6.57,13.3,13.09,19.65,19.71,2.21,2.31,4.33,4.68,6.46,7-1.66-1.25-3.07-2.29-3.3-2.43-7.12-4.18-23.31-8.1-30.24-1.92a10.93,10.93,0,0,0-.47,15.45,11.1,11.1,0,0,0,.86.82c4.8,4.42,12.84,4.69,18.9,3.57S202.63,866.21,205.91,863.94Z"/><path class="cls-3" d="M95.52,483c6.23-.65,18.26-7.82,18.28-7.82s-7.16-6.5-7.71-6.87c-5.79-4.07-19.54-8.52-25.9-3.7a9.45,9.45,0,0,0-1.43,13.28,8.19,8.19,0,0,0,.68.76C83.33,482.8,90.23,483.57,95.52,483Z"/><path class="cls-3" d="M220.37,415.89c.16,0-2.35-9.35-2.58-9.93-2.62-6.61-11.57-17.89-19.55-17.35a9.47,9.47,0,0,0-8.54,10.32,8.29,8.29,0,0,0,.15,1c.92,5.55,6.26,10,11,12.45C206.37,415.24,220.37,415.89,220.37,415.89Z"/><path class="cls-3" d="M231.36,351.37c-7.31,3.12-10.16,17.1-9.48,24,0,.59,2.09,9.94,2.21,9.86h.36c-.46,2.22-.95,4.61-1.41,7.23-.83,4.86-1.71,10.34-2.27,16.37a162.49,162.49,0,0,0-1,19.48,124.73,124.73,0,0,0,2.11,21.81v.25c-1.11-2.05-4.43-7.72-4.72-8.1-4.27-5.79-15.89-14.19-23.42-11.57a9.48,9.48,0,0,0-5.11,13.09c2.37,5.11,8.67,8,13.88,9.12,5.77,1.29,18.57-1.46,19.59-1.69a166.56,166.56,0,0,0,6.1,21.46c1.43,4.09,3,8.17,4.65,12.24-1-1.75-1.93-3.3-2.1-3.51-4.28-5.78-15.9-14.19-23.43-11.57a9.46,9.46,0,0,0-5.24,12.29c.11.26.22.52.35.77,2.37,5.11,8.67,8,13.87,9.14s16.16-1,19-1.58l1.93,4.64c3.12,7.45,6.26,14.87,9.11,22.24,1,2.6,1.93,5.18,2.81,7.71a27.67,27.67,0,0,0-1.92-3c-4.28-5.78-15.9-14.19-23.43-11.57a9.45,9.45,0,0,0-5.51,12.17,7.58,7.58,0,0,0,.41.92c2.36,5.11,8.66,8,13.87,9.14s15.1-.79,18.51-1.48c.85,2.68,1.71,5.36,2.41,8,.44,1.81,1,3.53,1.33,5.36s.73,3.63,1.09,5.42c.58,3.45,1.2,7,1.68,10.41.37,2.36.65,4.59.94,6.87-1-2.61-3-7.72-3.18-8a36.58,36.58,0,0,0-13.06-13.12,11.73,11.73,0,0,0-1.15-1.75A9.44,9.44,0,0,0,228,542.45a9.59,9.59,0,0,0-.78.65c-5.68,5.57-3.27,19.78,0,26.14.19.39,2.68,4.23,4.3,6.64-1.16-1.28-2.28-2.51-3.49-3.86-2.39-2.58-4.83-5.07-7.47-7.71l-4-3.86c-1.29-1.31-2.83-2.51-4.26-3.86-3.39-2.87-6.95-5.63-10.59-8.33,2.23-2.08,10.09-9.64,12.17-14.55s3.37-11.73.56-16.61a9.44,9.44,0,0,0-12.77-3.9,8.31,8.31,0,0,0-.85.51c-6.47,4.65-6.24,19-4.06,25.84.13.42,2.25,5.11,3.46,7.71-2.21-1.62-4.41-3.22-6.7-4.76-6.59-4.47-13.49-8.79-20.19-13.13l-6.2-4c.81-.75,10.34-9.51,12.67-15,2.08-4.92,3.37-11.73.56-16.62a9.39,9.39,0,0,0-12.7-3.93,8.6,8.6,0,0,0-.92.55c-6.47,4.65-6.24,19.05-4.06,25.84.17.5,3.21,7.25,4.08,8.93-4.54-3-9.05-5.94-13.37-9.07a166.68,166.68,0,0,1-16.66-13.69c.37-.32,10.36-9.44,12.75-15.09,2.08-4.9,3.37-11.71.56-16.61a9.42,9.42,0,0,0-12.73-3.93c-.31.17-.6.35-.89.54-6.47,4.67-6.24,19.05-4.06,25.84.13.44,2.46,5.59,3.62,8l-.37.27A122.34,122.34,0,0,1,121.56,485c-2.33-3.22-4.39-6.44-6.32-9.64,2-1.5,11.27-8.48,14-13.34s4.62-11.28,2.37-16.43a9.45,9.45,0,0,0-12.26-5.31c-.31.13-.62.27-.92.43-7,3.86-8.3,18.26-6.88,25.24,0,.37,1.29,4.15,2.22,6.88-.85-1.44-1.76-2.93-2.53-4.32-3-5.26-5.35-10.25-7.43-14.71-1.16-2.52-2.16-4.84-3.08-7,1.23-2.52,6-12.74,6.24-18.2s-1.1-12.15-5.47-15.68a9.42,9.42,0,0,0-13.29.94,8.57,8.57,0,0,0-.64.82c-4.37,6.67,1,20,5.51,25.57.38.46,7.3,7.27,7.38,7.13v-1.06c.82,2.07,1.75,4.3,2.8,6.71,1.93,4.43,4.25,9.5,7.12,14.69a158.45,158.45,0,0,0,10,16.56A119.37,119.37,0,0,0,134.14,501l.19.17c-2.06-1.08-7.92-3.91-8.38-4.08-6.7-2.36-21-3-25.89,3.21a9.22,9.22,0,0,0,2.07,13c.29.2.59.39.89.57,4.77,2.9,11.54,1.9,16.56,0,5.6-2.15,14.66-11.4,15.39-12.07a164.86,164.86,0,0,0,16.88,14.33c3.45,2.58,7,5.07,10.6,7.6-1.81-.88-3.42-1.66-3.67-1.73-6.7-2.38-21-3-25.89,3.21a9.24,9.24,0,0,0,2.13,13,9,9,0,0,0,.83.53c4.79,2.92,11.64,1.9,16.58,0s12.92-9.6,15-11.65l4.12,2.66c6.69,4.41,13.46,8.8,19.81,13.3,2.27,1.6,4.44,3.23,6.61,4.86-1.61-.77-3-1.4-3.19-1.48-6.69-2.37-21-3-25.89,3.21a9.25,9.25,0,0,0,2.13,13c.27.19.55.37.83.53,4.79,2.93,11.54,1.9,16.58,0s12.14-8.85,14.6-11.28c2.19,1.74,4.38,3.47,6.4,5.26,1.37,1.25,2.77,2.37,4.06,3.7l3.85,3.8c2.38,2.55,4.86,5.13,7.11,7.6,1.6,1.75,3.08,3.44,4.58,5.13-2.23-1.59-6.69-4.65-7.08-4.86-6.27-3.34-20.34-6.14-26.07-.7a9.22,9.22,0,0,0,.08,13.16,9.58,9.58,0,0,0,.76.67c4.27,3.59,11.19,3.57,16.39,2.43,5.77-1.25,15.71-8.61,16.94-9.5,2.48,2.81,4.85,5.59,7,8.23,7.58,9.06,13.46,16.89,17.65,22.48l4.7-2.63-.29-.38c-4.29-5.54-10.54-13.41-18.44-22.47-2.5-2.87-5.22-5.89-8-9a102,102,0,0,0,6.94-9.71c5.77,1.9,17.31,1.18,18.85,1.08.5,3.71.92,7.3,1.29,10.7,1.25,11.68,1.92,21.47,2.15,28.37l5.15-2.89c-.5-6.73-1.29-15.64-2.63-26-.46-3.8-1.06-7.76-1.69-11.86,1.46-.47,13.34-4.29,17.67-8.17,3.94-3.53,8-9.1,7.44-14.63a9.36,9.36,0,0,0-9.9-8.77,7.07,7.07,0,0,0-1,.11c-7.83,1.48-13.64,14.46-14.48,21.43v7.79c-.27-1.67-.52-3.31-.81-5-.58-3.4-1.23-6.78-1.92-10.43-.41-1.75-.81-3.51-1.23-5.3s-1-3.61-1.49-5.43c-1.23-4.2-2.67-8.4-4.25-12.6,3-.51,13.74-2.43,18.18-5.34s9.25-7.81,9.61-13.3A9.33,9.33,0,0,0,272,494.64a8.53,8.53,0,0,0-1,0c-8,.3-15.67,12.27-17.59,19-.12.42-.95,5.41-1.35,8.19-.94-2.53-1.92-5-2.94-7.6-3-7.26-6.33-14.52-9.62-21.78-1-2.22-1.92-4.44-2.94-6.67,1.08-.17,13.83-2.18,18.81-5.45,4.44-2.89,9.25-7.81,9.61-13.3a9.35,9.35,0,0,0-8.51-10.16,8.19,8.19,0,0,0-1,0c-7.94.3-15.67,12.25-17.59,19-.14.51-1.31,7.71-1.52,9.5-2.16-4.9-4.25-9.81-6.12-14.71a161.37,161.37,0,0,1-6.35-20.27c.5,0,13.83-2.13,18.93-5.47,4.44-2.89,9.25-7.81,9.61-13.3A9.33,9.33,0,0,0,244,421.38a8.54,8.54,0,0,0-1-.05c-8,.31-15.69,12.26-17.59,19-.14.44-1,5.93-1.41,8.55h-.44A119.23,119.23,0,0,1,221,427.66c-.17-3.93,0-7.69,0-11.4,2.52-.11,14-.84,19-3.34s10.06-6.75,11-12.22a9.31,9.31,0,0,0-7.27-11,8.48,8.48,0,0,0-1-.15c-7.95-.57-17,10.49-19.62,17.1-.14.34-1.21,4.1-1.92,6.86,0-1.66.15-3.37.26-4.94.43-5.93,1.2-11.4,1.93-16.11.42-2.72.86-5.17,1.31-7.47,2.4-1.39,12-7.17,15.19-11.55s5.77-10.59,4.08-15.87a9.4,9.4,0,0,0-11.53-6.5C232,351.13,231.69,351.24,231.36,351.37Z"/><path class="cls-3" d="M752.27,384.66c2.63,5.14,12.81,13.17,12.81,13.17s3.26-8.32,3.39-8.87c1.58-6.39.91-19.69-5.38-23.59a8.74,8.74,0,0,0-11.94,3.17c-.15.27-.29.54-.42.82C748.44,374.05,750.06,380.18,752.27,384.66Z"/><path class="cls-3" d="M851.6,470.27c0,.11,7.29-5.15,7.71-5.53,4.86-4.46,11.57-15.93,8.52-22.64a8.73,8.73,0,0,0-11.69-4,8.2,8.2,0,0,0-.82.46c-4.49,2.64-6.58,8.71-7.14,13.61C847.51,458,851.58,470.25,851.6,470.27Z"/><path class="cls-3" d="M911.48,459.19c-5.17-5.29-18.32-3.07-24.23-.11-.51.25-8,5.13-7.94,5.23h.13c-2.08.33-4.3.71-6.74,1.18-4.46.89-9.5,1.93-14.91,3.45a155.88,155.88,0,0,0-17.2,5.8,114,114,0,0,0-18.16,9.07l-.21.14c1.41-1.66,5.2-6.39,5.45-6.78,3.51-5.6,7-18.46,2.26-24.14a8.76,8.76,0,0,0-12.36-.66q-.35.31-.66.66c-3.65,3.73-4.06,10.16-3.3,15,.83,5.5,7.43,15.6,8,16.39A155.8,155.8,0,0,0,805,496.85c-3,2.61-6.06,5.33-9,8.09,1.18-1.47,2.21-2.78,2.34-3,3.52-5.6,7-18.46,2.26-24.14a8.79,8.79,0,0,0-12.41-.63,7.36,7.36,0,0,0-.62.63c-3.64,3.74-4,10.18-3.29,15s6.2,13.68,7.73,15.95c-1.14,1.09-2.28,2.13-3.4,3.21-5.41,5.16-10.78,10.33-16.2,15.26-1.94,1.72-3.87,3.36-5.8,5a17.33,17.33,0,0,0,1.93-2.59c3.52-5.58,7-18.46,2.26-24.12a8.76,8.76,0,0,0-12.38-.65,6.65,6.65,0,0,0-.65.65c-3.63,3.75-4,10.16-3.29,15s5.68,12.81,7.42,15.55c-1.93,1.62-4.08,3.25-6.12,4.73-1.43,1-2.73,1.93-4.21,2.92l-4.31,2.76c-2.8,1.64-5.68,3.36-8.44,4.91-1.93,1.08-3.76,2.08-5.64,3.09,1.93-1.7,5.62-5.12,5.8-5.43a34,34,0,0,0,7-15.66,11,11,0,0,0,1.14-1.57,8.75,8.75,0,0,0-2.71-12.07c-.27-.17-.55-.32-.83-.46-6.72-3.09-18.19,3.71-22.65,8.57-.27.29-2.78,3.73-4.33,5.93.72-1.43,1.43-2.8,2.15-4.29,1.42-2.91,2.78-5.79,4.22-9,.66-1.55,1.32-3.13,1.94-4.72s1.23-3.3,1.93-5c1.37-3.86,2.57-7.88,3.69-11.93,2.55,1.25,11.68,5.56,16.64,5.79s11.26-1,14.55-5a8.77,8.77,0,0,0-.86-12.37c-.23-.2-.48-.39-.73-.57-6.18-4.06-18.56.93-23.69,5.06-.33.25-3.69,3.65-5.49,5.54.64-2.45,1.31-4.88,1.93-7.38,1.68-7.18,3.15-14.52,4.66-21.84.44-2.24.92-4.46,1.41-6.7.9.46,11.58,5.79,17.2,6,4.93.17,11.26-1,14.55-5a8.77,8.77,0,0,0-.86-12.37,6.53,6.53,0,0,0-.73-.57c-6.18-4.06-18.56.92-23.69,5.06-.39.31-5.22,5.19-6.38,6.49,1.05-4.91,2.13-9.8,3.4-14.57a156.87,156.87,0,0,1,6.3-19c.42.21,11.59,5.79,17.38,6.06,4.92.18,11.26-1,14.54-5a8.72,8.72,0,0,0-.47-12.33,8.4,8.4,0,0,0-1.05-.84c-6.18-4.05-18.56.91-23.7,5.06-.35.27-4,4-5.79,5.8l-.35-.24A112.1,112.1,0,0,1,759,408.36a103.89,103.89,0,0,1,6.22-8.67c1.93,1.27,11.09,6.93,16.19,7.73s11.27.27,15-3.4a8.76,8.76,0,0,0,.49-12.39c-.2-.22-.42-.43-.64-.63-5.7-4.73-18.54-1.14-24.12,2.41-.29.2-3.17,2.5-5.22,4.21,1-1.21,1.93-2.49,2.9-3.63,3.57-4.3,7.09-8,10.25-11.31,1.8-1.94,3.48-3.48,5.06-5,2.59.22,13,1,17.81-.65s10.14-5,11.76-9.93a8.77,8.77,0,0,0-5.15-11.28c-.33-.12-.67-.22-1-.31-7.22-1.56-17,7.55-20.28,13.27-.29.48-3.86,8.73-3.73,8.75h.16c-1.55,1.43-3.19,3-5,4.71-3.23,3.21-6.86,6.86-10.53,11.11a149.18,149.18,0,0,0-11.26,14.29,113.19,113.19,0,0,0-10.14,17.57.74.74,0,0,1,0,.21c.27-2.14.81-8.17.79-8.65-.15-6.6-4.32-19.31-11.41-21.36a8.74,8.74,0,0,0-10.71,6.19,7.48,7.48,0,0,0-.2.94c-1,5.12,2.24,10.7,5.54,14.35,3.75,4.13,14.81,8.9,15.7,9.29a154.28,154.28,0,0,0-7,19.5c-1.12,3.86-2.12,7.73-3.09,11.72.17-1.93.31-3.53.31-3.86-.16-6.6-4.35-19.31-11.43-21.38a8.75,8.75,0,0,0-10.7,6.21c-.08.31-.15.61-.2.92-1,5.14,2.23,10.7,5.55,14.37s12.7,8,15.22,9.06c-.37,1.52-.74,3-1.09,4.55-1.66,7.28-3.28,14.57-5.09,21.65-.64,2.51-1.36,4.95-2.07,7.38.13-1.66.25-3.05.25-3.26-.15-6.61-4.35-19.32-11.43-21.38a8.75,8.75,0,0,0-10.7,6.21c-.08.3-.15.61-.2.91-1,5.14,2.23,10.72,5.55,14.37s11.8,7.55,14.75,8.87c-.79,2.47-1.6,5-2.49,7.32-.64,1.6-1.16,3.18-1.93,4.77l-2.07,4.67c-1.43,2.92-2.87,5.93-4.34,8.75-1,1.93-1.93,3.86-3,5.7.68-2.5,1.94-7.38,1.94-7.73.83-6.57-1.38-19.72-8.08-22.87a8.77,8.77,0,0,0-11.54,4.54,8.64,8.64,0,0,0-.31.85c-1.72,4.93.59,10.93,3.32,15.05,3,4.52,12.78,10.72,14,11.49-1.66,3.09-3.3,6.08-4.89,8.86-5.44,9.66-10.35,17.38-13.86,22.87l3.86,3.18.23-.36c3.44-5.58,8.27-13.64,13.52-23.56,1.7-3.13,3.44-6.51,5.19-10a96.7,96.7,0,0,0,10.84,2.76c.31,5.57,4.73,15.45,5.33,16.71-3.09,1.66-6.11,3.26-9,4.71-9.83,5-18.23,8.83-24.18,11.41l4.25,3.52c5.79-2.7,13.3-6.39,22-11,3.14-1.68,6.46-3.53,9.84-5.46.89,1.1,8.21,10.14,13.06,12.59,4.4,2.22,10.62,3.86,15.31,1.52a8.73,8.73,0,0,0,4.41-11.55,6.65,6.65,0,0,0-.43-.84c-3.86-6.28-17.22-7-23.64-5.35-.38.09-4.36,1.58-6.85,2.57l4.13-2.4c2.8-1.64,5.56-3.36,8.52-5.21l4.25-2.84c1.43-.93,2.84-2.07,4.26-3.11,3.29-2.49,6.49-5.16,9.66-7.92,1.45,2.45,6.7,11.09,10.74,14s9.93,5.39,14.91,3.87a8.76,8.76,0,0,0,6.06-10.79c-.08-.27-.17-.54-.27-.8-2.91-6.8-16-9.47-22.56-8.85-.4,0-5.07,1-7.62,1.59,1.93-1.68,3.86-3.34,5.65-5.1,5.37-5.08,10.65-10.39,15.94-15.66,1.6-1.61,3.24-3.21,4.86-4.79.51.87,6.53,11.26,11.05,14.48,4,2.88,9.93,5.41,14.91,3.86a8.74,8.74,0,0,0,6.06-10.78,7.52,7.52,0,0,0-.27-.8c-2.91-6.8-16-9.47-22.55-8.87-.49,0-7.21,1.47-8.91,1.93,3.6-3.53,7.21-7,10.9-10.27a153.67,153.67,0,0,1,15.72-12.36c.23.4,6.47,11.3,11.08,14.6,4,2.86,9.93,5.39,14.91,3.86a8.76,8.76,0,0,0,6.05-10.82,7,7,0,0,0-.26-.77c-2.91-6.79-16-9.46-22.55-8.84-.43,0-5.54,1.1-8,1.66l-.15-.39A113.76,113.76,0,0,1,841,476.19c3.38-1.47,6.71-2.69,10-3.87,1,2.15,5.41,11.9,9.25,15.32s9.27,6.47,14.41,5.46A8.76,8.76,0,0,0,881.82,483c-.05-.3-.12-.59-.19-.89-2.17-7.08-14.86-11.18-21.46-11.29-.35,0-4,.34-6.66.63,1.46-.48,3-1,4.42-1.43,5.35-1.62,10.35-2.78,14.77-3.86,2.53-.54,4.83-1,7-1.37,2,1.62,10.31,8,15.21,9.29s11.2,1.45,15.28-1.8a8.76,8.76,0,0,0,2.05-12.22A8,8,0,0,0,911.48,459.19Z"/></g><g id="freepik--Device--inject-2"><path class="cls-4" d="M744.48,936.73V115.17a25,25,0,0,0-25-24.94H272a25,25,0,0,0-25,25h0V936.73Z"/><path class="cls-5" d="M559.69,90.23H272.39A25.38,25.38,0,0,0,247,115.59v772.1Z"/><rect class="cls-6" x="269.17" y="156.76" width="453.13" height="780.93"/><rect class="cls-7" x="670.24" y="164.47" width="36.64" height="21.21"/><rect class="cls-8" x="670.24" y="164.47" width="28.92" height="21.21"/><rect class="cls-8" x="706.88" y="170.25" width="5.78" height="9.64"/><rect class="cls-9" x="278.81" y="172.18" width="7.71" height="11.57"/><rect class="cls-9" x="290.38" y="168.33" width="7.71" height="15.43"/><rect class="cls-9" x="301.95" y="162.54" width="7.71" height="21.21"/></g><g id="freepik--Window--inject-2"><rect class="cls-10" x="277.81" y="197.25" width="433.85" height="694.16"/><rect class="cls-4" x="277.84" y="198.21" width="433.85" height="44.35"/><polyline class="cls-11" points="315.38 211.17 305.31 221.24 315.68 231.28"/><line class="cls-11" x1="304.84" y1="220.39" x2="324.12" y2="220.39"/><rect class="cls-1" x="305.8" y="445.99" width="188.97" height="82.91"/><polyline class="cls-12" points="550.69 445.99 683.74 445.99 683.74 528.9 656.74 528.9"/><polyline class="cls-12" points="649.03 528.9 494.77 528.9 494.77 445.99 542.98 445.99"/><circle class="cls-1" cx="539.9" cy="484.92" r="18.68"/><line class="cls-13" x1="567.08" y1="474.91" x2="626.85" y2="474.91"/><line class="cls-13" x1="567.08" y1="486.48" x2="680.84" y2="486.48"/><line class="cls-13" x1="567.08" y1="496.13" x2="680.84" y2="496.13"/><line class="cls-14" x1="495.73" y1="486.48" x2="499.59" y2="486.48"/><polygon class="cls-4" points="497.66 495.68 514.32 486.08 497.66 476.46 497.66 495.68"/><rect class="cls-1" x="467.77" y="307.16" width="215.96" height="82.91"/><polyline class="cls-12" points="334.73 307.16 469.7 307.16 469.7 390.07 436.92 390.07"/><polyline class="cls-12" points="427.28 390.07 305.8 390.07 305.8 307.16 323.16 307.16"/><polyline class="cls-12" points="334.73 307.16 469.7 307.16 469.7 390.07 436.92 390.07"/><polyline class="cls-12" points="427.28 390.07 305.8 390.07 305.8 307.16 323.16 307.16"/><path class="cls-1" d="M305.8,327.08v37.21a18.64,18.64,0,0,0,0-37.21Z"/><line class="cls-13" x1="329.91" y1="336.08" x2="391.61" y2="336.08"/><line class="cls-13" x1="329.91" y1="345.72" x2="443.67" y2="345.72"/><line class="cls-13" x1="329.91" y1="357.29" x2="443.67" y2="357.29"/><line class="cls-14" x1="547.8" y1="349.58" x2="543.94" y2="349.58"/><line class="cls-15" x1="532.37" y1="349.58" x2="472.59" y2="349.58"/><line class="cls-14" x1="468.74" y1="349.58" x2="462.95" y2="349.58"/><polygon class="cls-4" points="466.81 340.65 450.15 350.27 466.81 359.88 466.81 340.65"/></g><g id="freepik--Character--inject-2"><path class="cls-16" d="M457,642a124.51,124.51,0,0,1-8.9,16.62c-6.1,9.74-27.19,45.85-33.29,50.73s-12.16-.42-15.81-.83-8.52,8.53-8.52,10.55a4.88,4.88,0,0,0,1.21,3.26,3.86,3.86,0,0,0,1.78,5.15l.25.11a11.67,11.67,0,0,0,6.09,1.22s6.48,2,8.93.83,12.57-11.79,15.43-16.24S451.37,693.1,457,682.53s12.18-26,13.4-26.78S457,642,457,642Z"/><path class="cls-16" d="M611.56,479.29s.81-3.26-1.62-4.47-4.88,3.24-4.88,3.24c-2.43.4-3.23,3.66-4.45,4.88s-3.45,7-5.46,9.27a16.49,16.49,0,0,0,.64-6.8c-.66-2.67-1.83-3-3.16-2.16s-.33,3.66-1.33,6a33.76,33.76,0,0,0-2.51,7.5,13.74,13.74,0,0,0,.46,4.73v.19c0,4,4,10.55,4,12.17a184.69,184.69,0,0,1-9.64,31.24A160.9,160.9,0,0,0,576,568.2l-9.33,12.52,2.85,21.9s19.07-13,20.69-15.42a55.48,55.48,0,0,0,6-21.91c.83-10.55,6.9-47.88,6.9-47.88s4.47-4,6.9-6.07,4.86-4.47,4.46-8.52a13.25,13.25,0,0,0-1.22-5.29s1.22-8.09,1.62-12.16A6.58,6.58,0,0,0,611.56,479.29Z"/><path class="cls-17" d="M605.52,478.06s2.06,1.93-2.61,14"/><path class="cls-17" d="M611.42,479.56a34.2,34.2,0,0,1-2.66,13.17"/><path class="cls-16" d="M484.66,676.07A102.72,102.72,0,0,0,469,706.19c-6,18.22-5.21,61.7-6.69,68.78s-6,32.78-6,32.78A125.14,125.14,0,0,0,440,832.29c-7.06,14.12-20.46,59.49-22.68,66.55s-4.09,11.9-9.64,18.22-15.62,17.86-16,19.71,19.71,0,19.71,0a8.31,8.31,0,0,0,4.84-2.61c1.93-2.23,1.12-4.45,3.72-6.32s8.18-1.93,8.91-5.57a56.19,56.19,0,0,0,.39-11.15c0-3.35,15.23-34.59,22.31-42s22.3-31.6,27.88-40.49,10-20.46,10.78-25.66,20.07-59.49,20.07-59.49,4.09,33.48,1.48,50.58-1.1,42,.39,56.13,5.57,49.09,1.12,58c-2.66,5.32-8.2,18.22,3,20.09,2.66.45,9.29,4.09,13.75,6.31s23.13,2.24,24.54,1.93,3-1.49,1.93-2.61-5.57-3.35-7.81-5.2-15.23-15.26-16.35-17.11.37-21.55,1.48-26.39,10.78-39.05,11.57-53.18-1.48-23-1.48-28.25,8.17-27.15,11.14-47.59,0-36.81-.73-49.09-9.64-31.61-9.64-31.61l-58-1.48Z"/><path class="cls-18" d="M423.74,905.43c-3.35-.29-8.33,2.68-10.82,4.32a41.54,41.54,0,0,1-5.24,7.25c-5.57,6.33-15.62,17.86-16,19.71s19.71,0,19.71,0a8.29,8.29,0,0,0,4.84-2.6c1.93-2.24,1.12-4.46,3.72-6.33s8.18-1.93,8.91-5.57a56.16,56.16,0,0,0,.39-11.15,9.47,9.47,0,0,1,.71-2.6A8.75,8.75,0,0,0,423.74,905.43Z"/><path class="cls-6" d="M416.24,934.11c1.93-2.24,1.12-4.46,3.72-6.33s8.18-1.93,8.91-5.57a28.13,28.13,0,0,0,.48-5.79c-9.93-4.55-16.75,4.11-24.23,10.88a53.94,53.94,0,0,1-13.25,9,1.78,1.78,0,0,0-.18.43c-.36,1.93,19.71,0,19.71,0A8.29,8.29,0,0,0,416.24,934.11Z"/><path class="cls-19" d="M411.4,936.71a8.29,8.29,0,0,0,4.84-2.6c1.93-2.24,1.12-4.46,3.72-6.33,2.22-1.58,6.62-1.81,8.31-4.18.39-1.93,0-4.26-4.53-4.26-7.71,0-13.5,7.34-17.78,11.2a59.79,59.79,0,0,1-11.39,7C400,937.77,411.4,936.71,411.4,936.71Z"/><path class="cls-18" d="M548.6,928.53c-2.22-1.93-15.24-15.25-16.36-17.1,0,0-9.06-7.13-18.37-4.86a10.83,10.83,0,0,1-.58,1.5c-2.66,5.33-8.2,18.23,3,20.1,2.66.44,9.29,4.08,13.75,6.3s23.14,2.24,24.54,1.93,3-1.48,1.93-2.6S550.83,930.38,548.6,928.53Z"/><path class="cls-6" d="M554.55,936.34l.35-.11c-5.55-1-13.5-6.14-22.68-12.5-7-4.88-17-4-22.67-3a7.1,7.1,0,0,0,6.71,7.45c2.66.44,9.29,4.08,13.75,6.3S553.07,936.71,554.55,936.34Z"/><path class="cls-19" d="M552,936.5a33.06,33.06,0,0,0-5.36-1.33c-8-1.16-17.78-11.57-28.21-11.57-5.13,0-7.08.65-7.71,1.33a7.73,7.73,0,0,0,5.59,3.26c2.66.44,9.29,4.08,13.75,6.3C533.61,936.28,546.36,936.63,552,936.5Z"/><path class="cls-20" d="M532.61,893.59a82.14,82.14,0,0,1,1.12-8.56c1.12-4.84,10.78-39,11.57-53.18s-1.49-23-1.49-28.25S552,776.45,555,756s0-36.81-.73-49.09-9.65-31.6-9.65-31.6l-58-1.49-1.92,2.24A102.72,102.72,0,0,0,469,706.19c-6,18.22-5.21,61.7-6.69,68.78s-6,32.78-6,32.78A125.14,125.14,0,0,0,440,832.29c-5.21,10.4-13.81,37.68-18.9,54.21,4.41-1.8,11-2.34,16,6.42,4.83-9.53,10.76-19.94,14.47-23.82,7.05-7.44,22.31-31.6,27.88-40.49s10-20.46,10.78-25.66,20.07-59.49,20.07-59.49,4.09,33.48,1.49,50.58-1.1,42,.38,56.13c.93,8.91,2.89,26.07,3.12,39.78A21.2,21.2,0,0,1,532.61,893.59Z"/><path class="cls-18" d="M536.54,596.93s-14.59,3.26-21.9,3.26-22.31-4.47-36.91,1.93-19.88,35.29-19.88,36.5,17.36,13,17.36,13l6.49-9.74s4.46,14.6,3.65,20.29-7.71,9.64-6.07,13.38,4.85,3.66,9.73,1.93,29.22,1.64,39.36,1.64,17.35.81,19.88-3.67,1.62-8.93,1.62-16.64,7.29-32.78,13.38-40.49a46.77,46.77,0,0,1,11.76-11L564.46,581s-12.57,9.74-19.07,11.76A28.82,28.82,0,0,0,536.54,596.93Z"/><path class="cls-18" d="M558.06,582.34s10.55,34.07,12.57,33.26,7.31-6.07,8.12-10.55-6.5-20.69-8.52-24.33-2-5.69-4.47-4.48A55.18,55.18,0,0,0,558.06,582.34Z"/><path class="cls-18" d="M455.81,636.64s-3.24,6.09-3.24,8.92,11.76,12.17,18.26,13,7.31-6.07,7.31-6.07-14.21-11-15.83-12.57S460.69,636.29,455.81,636.64Z"/><line class="cls-14" x1="491.11" y1="676.05" x2="511.8" y2="666.72"/><path class="cls-14" d="M532.24,635.63c1.49-1.5,2.93-3,4.3-4.6"/><path class="cls-14" d="M498.42,662.26a222.52,222.52,0,0,0,29.91-22.85"/><path class="cls-14" d="M539.92,651.5c-1.1,1.6-2.08,3-3,4.27"/><path class="cls-14" d="M563.73,614.39S552,633.36,543,646.84"/><path class="cls-21" d="M526.34,514s-10.14-9.33-21.9-2.43c-7.44,4.36-13.5,11.69-18.22,18.78-1.93,2.93-5,6.87-5.54,10.41-.83,5,1.31,5.65,2.3,10.38,1.93,9.39-13.75,9.77-19.11,8.71-12.17-2.44-23.53,3.65-20.69,12.58s5.28,13,2.83,15.42-13.78-.4-21.5,6.5-16.75,43.5,9.22,53.24,68.68,4.13,84.84-9.64c13-11,35.35-38.28,28.93-56.94-1.2-3.51-8.2-12.21-4.57-15.83,7.3-7.31,11.35-12.58,11-25.07s-2.43-27.19-11.76-28.81A22.89,22.89,0,0,0,526.34,514Z"/><path class="cls-22" d="M473.84,639.14c-6.19.27-10.34-5.28-9.93-6.9"/><path class="cls-22" d="M530.43,578c-5,5-10.91,12-13.17,19.73-4.32,14.55,3.76,27.49-7,39.37s-30.75,10.78-52.87,8.08S447.13,615,467,615s23.14,14.56,13.5,21.58c-.53.37-1.08.72-1.64,1"/><path class="cls-22" d="M538.9,570.75s-1.93,1.39-4.71,3.86"/><path class="cls-22" d="M433.13,613.77a18.61,18.61,0,0,0-9.14,5c-12.41,11.32.54,23.72,11.32,24.8"/><path class="cls-22" d="M541.71,555.11a70.81,70.81,0,0,1-14.15,8.08c-24.28,10.8-43.7,9.18-47.47,21.58s-4.84,22.11-20.5,28.05c-8.6,3.26-14.75,1.31-20.61.77"/><path class="cls-22" d="M551.29,541.61s.2,3.69-4.49,8.89"/><path class="cls-22" d="M461.75,578.79s-3.86-9.64,12.42-14.56,30.73,5.4,41-15.64"/></g><g id="freepik--Floor--inject-2"><line class="cls-13" x1="889.09" y1="937.69" x2="912.23" y2="937.69"/><line class="cls-13" x1="202.64" y1="937.69" x2="869.81" y2="937.69"/><line class="cls-13" x1="96.59" y1="937.69" x2="185.29" y2="937.69"/></g></svg>