<svg id="Capa_1" data-name="Capa 1" xmlns="http://www.w3.org/2000/svg" xmlns:xlink="http://www.w3.org/1999/xlink" viewBox="0 0 1000 1000"><defs><style>.cls-1,.cls-15,.cls-8{fill:none;}.cls-17,.cls-19,.cls-2,.cls-22{fill:#fff;}.cls-2{opacity:0.7;}.cls-10,.cls-2,.cls-7{isolation:isolate;}.cls-3{fill:#d3d3d3;}.cls-4{fill:#fbb03b;}.cls-13,.cls-5{fill:#d69c67;}.cls-11,.cls-16,.cls-19,.cls-20,.cls-21,.cls-22,.cls-5,.cls-8{stroke:#263238;}.cls-11,.cls-15,.cls-16,.cls-19,.cls-20,.cls-21,.cls-22,.cls-5,.cls-8{stroke-linecap:round;stroke-linejoin:round;}.cls-11,.cls-15,.cls-16,.cls-20,.cls-5,.cls-8{stroke-width:2.07px;}.cls-6{clip-path:url(#clip-path);}.cls-20,.cls-21,.cls-7{fill:#ba68c8;}.cls-7{opacity:0.4;}.cls-11,.cls-9{fill:#f9994b;}.cls-10,.cls-14{opacity:0.2;}.cls-12,.cls-16{fill:#263238;}.cls-15{stroke:#fff;}.cls-18{clip-path:url(#clip-path-2);}.cls-19{stroke-width:2.07px;}.cls-21{stroke-width:2.07px;}.cls-22{stroke-width:2.07px;}</style><clipPath id="clip-path"><path class="cls-1" d="M349,867.44s-24.56,16.71-34.45,15.6a4.68,4.68,0,0,1-2.92-1.24c-6.44-6.65-11.63-18.35-11.63-18.35s3.08-4.25,12.56,7l6-5.52L306.2,852.46s7-5.55,18.9,1.53c-.41-.87-8.08-17.56-2.29-40.28L293.89,785.8l25.65-22.35,2.07-1.74s1.61,1.59,4.13,4.13,6,5.6,9.79,8.93c9.05,8,20,16.52,24.79,16.52C369,791,349,867.44,349,867.44Z"/></clipPath><clipPath id="clip-path-2"><path class="cls-1" d="M775.44,587s-6.2,46.11-37.78,64.14c-31.24,4.47-66.28-21.44-78.09-52.53-9.34-24.56-1.18-52.43,3.28-64.35h0C699.77,513.15,775.44,587,775.44,587Z"/></clipPath></defs><g id="freepik--background-simple--inject-2"><path class="cls-2" d="M105.75,316.54s-57.6,148.74,23.34,298.51S376.75,844,510.18,911.61s272,34.71,337.83-76.11-24.46-189.91-24.58-347.93,23.65-199.85-62-333.35S465.91-8.84,307.17,90.18,105.75,316.54,105.75,316.54Z"/><path class="cls-3" d="M92,475.64c78.13-61.41,144.3-9.89,172.19-92.35,63-186.29,324.13-184.51,358.47-52C684.5,570.09,954,418.47,952,589.46c-2.07,182.58-172.91,324.85-479.28,339C198.22,941.2-37.5,577.4,92,475.64Z"/><path class="cls-2" d="M92,523.46c78.13-54.93,144.3-8.85,172.19-82.61,63-166.62,324.13-165,358.47-46.48C684.5,607.94,954,472.32,952,625.27c-2.07,163.31-172.91,290.56-479.28,303.22C198.22,939.89-37.5,614.48,92,523.46Z"/><g id="freepik--Graphics--inject-9"><path class="cls-4" d="M583,231.73H545.4V196H583Zm-36.29-1.37h35v-33h-35Z"/><path class="cls-4" d="M646.2,303.19H608.57V267.46H646.2Zm-36.29-1.37h35v-33h-35Z"/><path class="cls-4" d="M646.2,260.59H608.57V224.86H646.2Zm-36.29-1.38h35v-33h-35Z"/><polygon class="cls-4" points="609.91 288.07 562.87 288.07 562.87 231.73 564.22 231.73 564.22 286.7 609.91 286.7 609.91 288.07"/><rect class="cls-4" x="562.87" y="244.1" width="45.7" height="1.37"/><path class="cls-4" d="M350.51,336.17H312.87V300.44h37.64Zm-36.3-1.37h35v-33h-35Z"/><path class="cls-4" d="M413.68,409H376V373.28h37.64Zm-36.29-1.38h34.94v-33H377.39Z"/><path class="cls-4" d="M413.68,365H376V329.3h37.64Zm-36.29-1.37h34.94v-33H377.39Z"/><polygon class="cls-4" points="377.39 392.52 330.34 392.52 330.34 336.17 331.69 336.17 331.69 391.14 377.39 391.14 377.39 392.52"/><rect class="cls-4" x="331.69" y="348.54" width="45.7" height="1.37"/><ellipse class="cls-4" cx="434.59" cy="224.99" rx="2.9" ry="2.97"/><ellipse class="cls-4" cx="464.34" cy="224.99" rx="2.9" ry="2.97"/><ellipse class="cls-4" cx="494.07" cy="224.99" rx="2.9" ry="2.97"/><ellipse class="cls-4" cx="523.81" cy="224.99" rx="2.9" ry="2.97"/><ellipse class="cls-4" cx="434.59" cy="243.53" rx="2.9" ry="2.97"/><ellipse class="cls-4" cx="464.34" cy="243.53" rx="2.9" ry="2.97"/><ellipse class="cls-4" cx="494.07" cy="243.53" rx="2.9" ry="2.97"/><ellipse class="cls-4" cx="523.81" cy="243.53" rx="2.9" ry="2.97"/><ellipse class="cls-4" cx="434.59" cy="262.08" rx="2.9" ry="2.97"/><ellipse class="cls-4" cx="464.34" cy="262.08" rx="2.9" ry="2.97"/><ellipse class="cls-4" cx="494.07" cy="262.08" rx="2.9" ry="2.97"/><ellipse class="cls-4" cx="523.81" cy="262.08" rx="2.9" ry="2.97"/><ellipse class="cls-4" cx="434.59" cy="280.62" rx="2.9" ry="2.97"/><ellipse class="cls-4" cx="464.34" cy="280.62" rx="2.9" ry="2.97"/><ellipse class="cls-4" cx="494.07" cy="280.62" rx="2.9" ry="2.97"/><ellipse class="cls-4" cx="523.81" cy="280.62" rx="2.9" ry="2.97"/><ellipse class="cls-4" cx="434.59" cy="297.67" rx="2.9" ry="2.97"/><ellipse class="cls-4" cx="464.34" cy="297.67" rx="2.9" ry="2.97"/><ellipse class="cls-4" cx="494.07" cy="297.67" rx="2.9" ry="2.97"/><ellipse class="cls-4" cx="523.81" cy="297.67" rx="2.9" ry="2.97"/><path class="cls-4" d="M434.59,312.81a3,3,0,0,0-2.63,4.28,2.7,2.7,0,0,0,1.4,1.4A3,3,0,0,0,437,314a2.56,2.56,0,0,0-2.23-1.23Z"/><path class="cls-4" d="M464.55,312.81a3,3,0,0,0-2.82,3.75,2.89,2.89,0,0,0,2,2.08,2.92,2.92,0,0,0,3.69-2.85h0a2.93,2.93,0,0,0-2.88-3Z"/><path class="cls-4" d="M494.07,313.31a3,3,0,1,0,2.9,3,2.94,2.94,0,0,0-2.9-3Z"/><path class="cls-4" d="M523.81,313.31a3,3,0,1,0,2.9,3,2.94,2.94,0,0,0-2.9-3Z"/><ellipse class="cls-4" cx="434.59" cy="334.76" rx="2.9" ry="2.97"/><ellipse class="cls-4" cx="464.34" cy="334.76" rx="2.9" ry="2.97"/><ellipse class="cls-4" cx="494.07" cy="334.76" rx="2.9" ry="2.97"/><ellipse class="cls-4" cx="523.81" cy="334.76" rx="2.9" ry="2.97"/><path class="cls-4" d="M434.59,350.33a3,3,0,1,0,2.9,3,2.94,2.94,0,0,0-2.9-3Z"/><path class="cls-4" d="M465.82,350.62a3,3,0,1,0,1.62,2.7v0A2.9,2.9,0,0,0,465.82,350.62Z"/><path class="cls-4" d="M494.07,350.33a3,3,0,1,0,2.9,3,2.94,2.94,0,0,0-2.9-3Z"/><path class="cls-4" d="M523.81,350.33a3,3,0,1,0,2.9,3,2.94,2.94,0,0,0-2.9-3Z"/><ellipse class="cls-4" cx="611.49" cy="391.33" rx="2.9" ry="2.97"/><ellipse class="cls-4" cx="641.23" cy="391.33" rx="2.9" ry="2.97"/><ellipse class="cls-4" cx="670.97" cy="391.36" rx="2.9" ry="2.97"/><path class="cls-4" d="M700.72,394.3a3,3,0,1,0-2.9-3,2.94,2.94,0,0,0,2.9,3Z"/><ellipse class="cls-4" cx="611.49" cy="409.87" rx="2.9" ry="2.97"/><ellipse class="cls-4" cx="641.23" cy="409.87" rx="2.9" ry="2.97"/><ellipse class="cls-4" cx="670.97" cy="409.9" rx="2.9" ry="2.97"/><path class="cls-4" d="M702.36,407.19a3,3,0,1,0,1.64,2.69h0A2.89,2.89,0,0,0,702.36,407.19Z"/><ellipse class="cls-4" cx="611.49" cy="428.42" rx="2.9" ry="2.97"/><ellipse class="cls-4" cx="641.23" cy="428.42" rx="2.9" ry="2.97"/><ellipse class="cls-4" cx="670.97" cy="428.45" rx="2.9" ry="2.97"/><path class="cls-4" d="M700.72,425.45a3,3,0,1,0,2.9,3,2.94,2.94,0,0,0-2.9-3Z"/><ellipse class="cls-4" cx="611.49" cy="446.96" rx="2.9" ry="2.97"/><ellipse class="cls-4" cx="641.23" cy="446.96" rx="2.9" ry="2.97"/><ellipse class="cls-4" cx="670.96" cy="446.98" rx="2.9" ry="2.97"/><path class="cls-4" d="M700.72,444a3,3,0,1,0,2.9,3,2.94,2.94,0,0,0-2.9-3Z"/><ellipse class="cls-4" cx="611.49" cy="464.01" rx="2.9" ry="2.97"/><ellipse class="cls-4" cx="641.23" cy="464.01" rx="2.9" ry="2.97"/><ellipse class="cls-4" cx="670.97" cy="464.04" rx="2.9" ry="2.97"/><path class="cls-4" d="M700.72,467a3,3,0,1,0-2.9-3,2.94,2.94,0,0,0,2.9,3Z"/><ellipse class="cls-4" cx="611.49" cy="482.56" rx="2.9" ry="2.97"/><ellipse class="cls-4" cx="641.23" cy="482.56" rx="2.9" ry="2.97"/><ellipse class="cls-4" cx="670.97" cy="482.59" rx="2.9" ry="2.97"/><path class="cls-4" d="M700.72,479.6a3,3,0,1,0,2.9,3,2.93,2.93,0,0,0-2.9-3Z"/><ellipse class="cls-4" cx="611.49" cy="501.1" rx="2.9" ry="2.97"/><ellipse class="cls-4" cx="641.23" cy="501.1" rx="2.9" ry="2.97"/><ellipse class="cls-4" cx="670.97" cy="501.13" rx="2.9" ry="2.97"/><path class="cls-4" d="M700.72,498.13a3,3,0,1,0,2.9,3,2.94,2.94,0,0,0-2.9-3Z"/><path class="cls-4" d="M611.49,516.7a3,3,0,1,0,2.9,3,2.94,2.94,0,0,0-2.9-3Z"/><path class="cls-4" d="M641.23,516.7a3,3,0,1,0,2.9,3,2.94,2.94,0,0,0-2.9-3Z"/><path class="cls-4" d="M671,516.7a3,3,0,1,0,2.9,3,2.94,2.94,0,0,0-2.9-3Z"/><path class="cls-4" d="M700.72,516.7a3,3,0,1,0,2.9,3,2.94,2.94,0,0,0-2.9-3Z"/><ellipse class="cls-4" cx="254.12" cy="261.72" rx="2.9" ry="2.97"/><ellipse class="cls-4" cx="283.87" cy="261.72" rx="2.9" ry="2.97"/><ellipse class="cls-4" cx="313.6" cy="261.72" rx="2.9" ry="2.97"/><ellipse class="cls-4" cx="343.34" cy="261.72" rx="2.9" ry="2.97"/><path class="cls-4" d="M254.12,277.08a3,3,0,0,0-2.72,3.82,2.92,2.92,0,1,0,2.86-3.82Z"/><path class="cls-4" d="M285.71,277.58a3,3,0,1,0,1.62,2.7v0A2.87,2.87,0,0,0,285.71,277.58Z"/><path class="cls-4" d="M313.54,277.08a3,3,0,0,0-2.73,3.81,2.89,2.89,0,0,0,2,2,3,3,0,1,0,.84-5.84Z"/><path class="cls-4" d="M343.34,277.29a3,3,0,1,0,2.9,3,2.94,2.94,0,0,0-2.9-3Z"/><ellipse class="cls-4" cx="254.12" cy="298.8" rx="2.9" ry="2.97"/><ellipse class="cls-4" cx="283.87" cy="298.8" rx="2.9" ry="2.97"/><ellipse class="cls-4" cx="313.6" cy="298.8" rx="2.9" ry="2.97"/><ellipse class="cls-4" cx="343.34" cy="298.8" rx="2.9" ry="2.97"/><path class="cls-4" d="M254.12,314.38a3,3,0,1,0,2.9,3,2.94,2.94,0,0,0-2.9-3Z"/><path class="cls-4" d="M284.44,314.18a3,3,0,0,0-2.82,3.75,2.9,2.9,0,0,0,5.71-.76v0a2.93,2.93,0,0,0-2.88-3Z"/><path class="cls-4" d="M313.54,314.18a3,3,0,0,0-2.62,4.28,2.64,2.64,0,0,0,1.39,1.4,3,3,0,0,0,3.65-4.44,2.57,2.57,0,0,0-2.23-1.24Z"/><path class="cls-4" d="M343.34,314.38a3,3,0,1,0,2.9,3,2.94,2.94,0,0,0-2.9-3Z"/><path class="cls-4" d="M112.62,619.56a2.9,2.9,0,1,0,2.9-3,2.94,2.94,0,0,0-2.9,3Z"/><path class="cls-4" d="M112.62,589.16a2.9,2.9,0,1,0,2.9-3,2.94,2.94,0,0,0-2.9,3Z"/><path class="cls-4" d="M112.62,558.75a2.9,2.9,0,1,0,2.9-3,2.94,2.94,0,0,0-2.9,3Z"/><path class="cls-4" d="M118.42,528.34a2.9,2.9,0,1,0-2.9,3,2.94,2.94,0,0,0,2.9-3Z"/><path class="cls-4" d="M130.75,619.56a2.9,2.9,0,1,0,2.9-3,2.94,2.94,0,0,0-2.9,3Z"/><ellipse class="cls-4" cx="133.65" cy="589.16" rx="2.9" ry="2.97"/><ellipse class="cls-4" cx="133.65" cy="558.75" rx="2.9" ry="2.97"/><ellipse class="cls-4" cx="133.65" cy="528.34" rx="2.9" ry="2.97"/><path class="cls-4" d="M148.89,619.56a2.91,2.91,0,1,0,2.91-3,2.94,2.94,0,0,0-2.91,3Z"/><ellipse class="cls-4" cx="151.8" cy="589.16" rx="2.9" ry="2.97"/><ellipse class="cls-4" cx="151.8" cy="558.75" rx="2.9" ry="2.97"/><ellipse class="cls-4" cx="151.8" cy="528.34" rx="2.9" ry="2.97"/><path class="cls-4" d="M167,619.56a2.9,2.9,0,1,0,2.9-3,2.94,2.94,0,0,0-2.9,3Z"/><ellipse class="cls-4" cx="169.93" cy="589.16" rx="2.9" ry="2.97"/><ellipse class="cls-4" cx="169.93" cy="558.75" rx="2.9" ry="2.97"/><ellipse class="cls-4" cx="169.93" cy="528.34" rx="2.9" ry="2.97"/><path class="cls-4" d="M183.7,619.56a2.91,2.91,0,1,0,2.91-3,2.94,2.94,0,0,0-2.91,3Z"/><ellipse class="cls-4" cx="186.61" cy="589.16" rx="2.9" ry="2.97"/><ellipse class="cls-4" cx="186.61" cy="558.75" rx="2.9" ry="2.97"/><ellipse class="cls-4" cx="186.61" cy="528.34" rx="2.9" ry="2.97"/><path class="cls-4" d="M201.31,619.56a2.94,2.94,0,0,0,4.19,2.69,2.65,2.65,0,0,0,1.36-1.43,3,3,0,0,0-4.34-3.73,2.64,2.64,0,0,0-1.21,2.28Z"/><ellipse class="cls-4" cx="204.75" cy="589.16" rx="2.9" ry="2.97"/><ellipse class="cls-4" cx="204.75" cy="558.75" rx="2.9" ry="2.97"/><ellipse class="cls-4" cx="204.75" cy="528.34" rx="2.9" ry="2.97"/><path class="cls-4" d="M220,619.56a2.91,2.91,0,1,0,2.9-3,2.94,2.94,0,0,0-2.9,3Z"/><path class="cls-4" d="M220,589.16a2.91,2.91,0,1,0,2.9-3,2.94,2.94,0,0,0-2.9,3Z"/><path class="cls-4" d="M220,558.75a2.91,2.91,0,1,0,2.9-3,2.94,2.94,0,0,0-2.9,3Z"/><path class="cls-4" d="M220,528.34a2.91,2.91,0,1,0,2.9-3,2.94,2.94,0,0,0-2.9,3Z"/><path class="cls-4" d="M238.11,619.56a2.91,2.91,0,1,0,2.91-3h0A2.94,2.94,0,0,0,238.11,619.56Z"/><ellipse class="cls-4" cx="241.02" cy="589.16" rx="2.9" ry="2.97"/><ellipse class="cls-4" cx="241.02" cy="558.75" rx="2.9" ry="2.97"/><ellipse class="cls-4" cx="241.02" cy="528.34" rx="2.9" ry="2.97"/><path class="cls-4" d="M112.62,493.87a2.9,2.9,0,1,0,2.9-3,2.94,2.94,0,0,0-2.9,3Z"/><path class="cls-4" d="M112.62,463.46a2.9,2.9,0,1,0,2.9-3,2.94,2.94,0,0,0-2.9,3Z"/><path class="cls-4" d="M112.91,431.25a3,3,0,0,0,3.23,4.24,2.91,2.91,0,0,0,2.17-2.07,3,3,0,0,0-2.75-3.8h0A2.8,2.8,0,0,0,112.91,431.25Z"/><path class="cls-4" d="M118.42,402.64a2.9,2.9,0,1,0-2.9,3,2.94,2.94,0,0,0,2.9-3Z"/><ellipse class="cls-4" cx="133.65" cy="493.87" rx="2.9" ry="2.97"/><ellipse class="cls-4" cx="133.65" cy="463.46" rx="2.9" ry="2.97"/><ellipse class="cls-4" cx="133.65" cy="433.05" rx="2.9" ry="2.97"/><ellipse class="cls-4" cx="133.65" cy="402.64" rx="2.9" ry="2.97"/><ellipse class="cls-4" cx="151.8" cy="493.87" rx="2.9" ry="2.97"/><ellipse class="cls-4" cx="151.8" cy="463.46" rx="2.9" ry="2.97"/><ellipse class="cls-4" cx="151.8" cy="433.05" rx="2.9" ry="2.97"/><ellipse class="cls-4" cx="151.8" cy="402.64" rx="2.9" ry="2.97"/><ellipse class="cls-4" cx="169.93" cy="493.87" rx="2.9" ry="2.97"/><ellipse class="cls-4" cx="169.93" cy="463.46" rx="2.9" ry="2.97"/><ellipse class="cls-4" cx="169.93" cy="433.05" rx="2.9" ry="2.97"/><ellipse class="cls-4" cx="169.93" cy="402.64" rx="2.9" ry="2.97"/><ellipse class="cls-4" cx="186.61" cy="493.87" rx="2.9" ry="2.97"/><ellipse class="cls-4" cx="186.61" cy="463.46" rx="2.9" ry="2.97"/><ellipse class="cls-4" cx="186.61" cy="433.05" rx="2.9" ry="2.97"/><ellipse class="cls-4" cx="186.61" cy="402.64" rx="2.9" ry="2.97"/><ellipse class="cls-4" cx="204.75" cy="493.87" rx="2.9" ry="2.97"/><ellipse class="cls-4" cx="204.75" cy="463.46" rx="2.9" ry="2.97"/><ellipse class="cls-4" cx="204.75" cy="433.05" rx="2.9" ry="2.97"/><ellipse class="cls-4" cx="204.75" cy="402.64" rx="2.9" ry="2.97"/><path class="cls-4" d="M220,493.87a2.91,2.91,0,1,0,2.9-3,2.94,2.94,0,0,0-2.9,3Z"/><path class="cls-4" d="M220,463.46a2.91,2.91,0,1,0,2.9-3,2.94,2.94,0,0,0-2.9,3Z"/><path class="cls-4" d="M220,433.05a2.91,2.91,0,1,0,2.9-3,2.94,2.94,0,0,0-2.9,3Z"/><path class="cls-4" d="M220,402.64a2.91,2.91,0,1,0,2.9-3,2.94,2.94,0,0,0-2.9,3Z"/><ellipse class="cls-4" cx="241.02" cy="493.87" rx="2.9" ry="2.97"/><ellipse class="cls-4" cx="241.02" cy="463.46" rx="2.9" ry="2.97"/><ellipse class="cls-4" cx="241.02" cy="433.05" rx="2.9" ry="2.97"/><ellipse class="cls-4" cx="241.02" cy="402.64" rx="2.9" ry="2.97"/></g></g><g id="freepik--Character--inject-2"><path class="cls-5" d="M349,867.44s-24.56,16.71-34.45,15.6a4.68,4.68,0,0,1-2.92-1.24c-6.44-6.65-11.63-18.35-11.63-18.35s3.08-4.25,12.56,7l6-5.52L306.2,852.46s7-5.55,18.9,1.53c-.41-.87-8.08-17.56-2.29-40.28L293.89,785.8l25.65-22.35,2.07-1.74s1.61,1.59,4.13,4.13,6,5.6,9.79,8.93c9.05,8,20,16.52,24.79,16.52C369,791,349,867.44,349,867.44Z"/><g class="cls-6"><path class="cls-7" d="M330,856.49S316,871,314.57,883a4.68,4.68,0,0,1-2.92-1.24c-6.44-6.65-11.63-18.35-11.63-18.35s3.08-4.25,12.56,7l6-5.52L306.2,852.46s7-5.55,18.9,1.53c-.41-.87-8.08-17.56-2.29-40.28L293.89,785.8l25.65-22.35,6.2,2.33c2.54,2.4,6,5.6,9.79,8.92-5.43,8-17.06,24.42-17.06,24.42l10.06,13.64S322.33,847.13,330,856.49Z"/></g><path class="cls-8" d="M349,867.44s-24.56,16.71-34.45,15.6a4.68,4.68,0,0,1-2.92-1.24c-6.44-6.65-11.63-18.35-11.63-18.35s3.08-4.25,12.56,7l6-5.52L306.2,852.46s7-5.55,18.9,1.53c-.41-.87-8.08-17.56-2.29-40.28L293.89,785.8l25.65-22.35,2.07-1.74s1.61,1.59,4.13,4.13,6,5.6,9.79,8.93c9.05,8,20,16.52,24.79,16.52C369,791,349,867.44,349,867.44Z"/><path class="cls-8" d="M318.68,865a30.62,30.62,0,0,1,6.46-11"/><path class="cls-9" d="M776.44,672.88a70.22,70.22,0,0,1-13.9,15h0c-45.16,37.39-149.28,55.77-149.28,55.77s-3.49,5.23-8.86,12.67c-9.63,13.36-25.39,33.9-38.24,44.19h0c-5.44,4.36-10.33,6.88-14.07,6.19l19.54,72.17,8.74,31.31S490.59,949.44,337,904.57c0,0-1.76-20-.45-24.32a2.14,2.14,0,0,1,.2-.64,28.68,28.68,0,0,1,6-7.56s-.86-12.89-1.3-26a176.72,176.72,0,0,1,.31-25.1c1.1-6.61,5.93-22.6,8.37-30.45l1.43-4.57L344,714.36l-2.19-20.66-.12-1.07v-.52l-1.2-11.05L301,693.12s2.07,4.63,4.92,11.12c5.18,11.88,12.81,30,14.46,37.18a13.23,13.23,0,0,0,.49,1.74c3.66,10.43,17.58,19.91,17.58,19.91L301,806.79,290,799.06a35.15,35.15,0,0,1-4.46,2.81c-7.27,4-22.52,9.75-39.25.89a58.43,58.43,0,0,1-18.47-16.36c-29.34-38.1-42.11-69.27-38-105.77s168.43-149.16,201-148l48.48,10.7c1.06-.87,3.89-3.1,6.08-3,8.82.46,9,10.7,9,10.7L563.12,568.7s11.26-5.64,13.22-5.56a8.52,8.52,0,0,1,6.88,4.36s28.14-16.86,37.19-12.93C650.2,567.42,798.44,639.45,776.44,672.88Z"/><path class="cls-10" d="M399.35,851.41a81.22,81.22,0,0,1-47,25.51c-5.72.91-10.74,1.82-15.14,2.73a28.28,28.28,0,0,1,6-7.56s-.87-12.89-1.3-26C354.64,854.49,376.87,864.2,399.35,851.41Z"/><path class="cls-10" d="M350.57,790.59,352,786l-7.64-71.57c11.42,16.39,52.16,72.19,80.23,78.22C454,799,375.47,810.09,350.57,790.59Z"/><path class="cls-10" d="M572,879c-30.67-3.49-74-11.22-78.38-27.27-6.75-25.08,26.12-40.12,73-51.09-5.43,4.36-10.33,6.88-14.07,6.2Z"/><path class="cls-10" d="M762.94,687.9c-45.16,37.39-149.28,55.78-149.28,55.78s-3.49,5.22-8.86,12.66A173.63,173.63,0,0,1,598.17,641s8,43.38,41.32,53.71c0,0-25.5-19-16.53-64.68,0,0,8.7,53.71,65.28,68.63C715.69,706,742.57,698,762.94,687.9Z"/><path class="cls-10" d="M342,692.77,340.8,681.2l-39.5,12.07s2.07,4.63,4.92,11.11c-15.1-1.55-43.76,12.4-48.76-2.81-6-18.42,31-12.08,31-12.08l35-20.35c-6.61-28.3,10.22-49.58,10.22-49.58l3.21,19.75c1.53-37.54,16.21-58.07,16.21-58.07C341,610.92,341.28,684.08,342,692.77Z"/><path class="cls-10" d="M338.82,763.14l-37.41,43.71-11.06-7.73a33.79,33.79,0,0,1-4.46,2.81c-7.27,4-22.52,9.75-39.25.89,12.13-16.77,37.19-41.46,66.95-51a298.11,298.11,0,0,0-19.7,34l7.68,7.56S320.74,771.5,338.82,763.14Z"/><path class="cls-10" d="M429.65,570.6c0,3.86-2.43,47.51,29.38,59.14s60-8,60-8-48.78,47.06-78.51,21.89S429.65,570.6,429.65,570.6Z"/><path class="cls-8" d="M337.39,904.65s-1.71-20-.43-24.3c1.07-3.59,6.2-8.26,6.2-8.26s-2.71-40.62-1-51.09c1.48-9,9.79-35.12,9.79-35.12l-11.2-104.82-39.5,12.08s16.82,37.19,19.42,48.22S338.8,763,338.8,763l-37.41,43.69L290.33,799s-32.64,25.53-62.12-12.64-42.14-69.27-38-105.88,168.47-149.14,201.07-148l48.49,10.72c1-.86,3.88-3.1,6.05-3,8.82.45,9.05,10.7,9.05,10.7l108.66,17.64s11.28-5.64,13.25-5.56a8.56,8.56,0,0,1,6.85,4.36s28.14-16.83,37.19-12.93c29.75,12.85,178,84.89,156,118.31-31.21,47.52-163.2,70.88-163.2,70.88s-43.9,66.11-61.19,63l28.28,103.48"/><path class="cls-11" d="M662,680.13c49.87,32.93,90.08,26.86,121.54-15.54,0,0,26.19-33.77,24.33-70.24S797.34,439.1,683.82,469.47c-18.7,5-62.31,63.4-66,79.46-1.7,7.33-19.2,44.66-36.2,83.31"/><path class="cls-12" d="M527.1,331.14s31.78-4.81,53.84,14.94c27.91,25,59.25,92.32,14.62,203.92,0,0-65.92-43.75-178.42-14.46,0,0,9.68-26.18-7.32-108.58C402.14,389.67,421.47,303.77,527.1,331.14Z"/><path class="cls-5" d="M479,611.19c47,7.62,97-44.44,97-44.44s-25.56-3.14-27.85-15.14c-7.33-37.87,22.17-84.7,22.17-84.7S456.08,470.07,476,495.83a64.2,64.2,0,0,1,9,15.48c6.92,17,2.07,29.83-1.55,33.05a5.34,5.34,0,0,1-.84.56c-6.9,3.14-35.27-1.55-35.27-1.55S436,604.23,479,611.19Z"/><path class="cls-8" d="M559.74,581.17s-21.69,8.68-53.44,6.1l-14.3,7"/><path class="cls-8" d="M477.75,593.18l-1-9.38s-23.43-7.34-30.68-21.26"/><path class="cls-12" d="M483.51,544.42c35,9.13,51.38-35.7,51.38-35.7s-28-8.26-49.83,2.73C492,528.45,487.19,541.28,483.51,544.42Z"/><path class="cls-13" d="M572.26,443.38c8.49-47.74-1-105-73.63-100.28-51.91,3.39-51.48,60.31-48.05,77.31,5.79,28.57-2.5,39.81,6.41,63.81,6.4,17.25,21.25,36.55,38.75,43.78,10.77,4.44,54.33-26.13,57.56-40.12"/><path class="cls-8" d="M481,429.31c-.43,5.37-1.07,18.6-12.39,28.43-7.36,6.34,9.5,12.83,9.5,12.83"/><path class="cls-8" d="M468.89,410.37s-16-7.81-26.86,5.08"/><path class="cls-8" d="M495.78,409.31a54.23,54.23,0,0,1,34.28,1.37"/><path class="cls-12" d="M512.43,431.89c.5,4.61,3.6,8.06,6.92,7.69s5.62-4.38,5.13-9-3.6-8-6.92-7.68S511.94,427.29,512.43,431.89Z"/><path class="cls-8" d="M478.84,485.75a90.11,90.11,0,0,0,35.85-13.1s1.5,20-15.27,24.2c-12.87,3.2-17.85-11.49-17.85-11.49"/><path class="cls-12" d="M526,361.28s-4.59,56.59,45.34,77.14L594.74,384l-35.41-39.25L506,329.37c-79.68,5-114,54.47-69.74,186.38C436.27,515.81,423.89,358.72,526,361.28Z"/><path class="cls-5" d="M560.38,440.82c-.7-6.36,15.39-22.56,20.83-12.17,9.27,17.73,2.52,33.06-7.07,39.25-4.3,2.71-9.75,7.79-13.57,3"/><path class="cls-12" d="M463.8,434.11c.52,4.6,3.62,8.05,6.95,7.68s5.61-4.38,5.12-9-3.62-8.05-6.94-7.68S463.29,429.4,463.8,434.11Z"/><g class="cls-14"><path class="cls-15" d="M429.2,424.73c-.6,3.82-1,7.7-1.24,11.57"/><path class="cls-15" d="M517.72,351c-40.36-1.06-77.88,24.66-86.76,65.05"/><path class="cls-15" d="M510.51,339.47s-58.21-13.7-80,24.91"/><path class="cls-15" d="M557.74,406.73A62.18,62.18,0,0,0,570.28,420"/><path class="cls-15" d="M534.64,347a157.45,157.45,0,0,0,18.47,52.6"/><path class="cls-15" d="M593.13,522.11q-1.56,6.95-3.62,13.76"/><path class="cls-15" d="M589.76,445.18c9.44,21,8.8,47.06,4.92,69.12"/><path class="cls-15" d="M582.84,481.62a56.43,56.43,0,0,1-16.42,43.14"/><path class="cls-15" d="M556,353.76c9.9,13.39,17.25,27.75,28.72,40,12.08,12.87,24.17,27.62,26.44,45.76"/><path class="cls-15" d="M542,339.84a43.58,43.58,0,0,1,7.77,6.51"/></g><path class="cls-16" d="M741.17,650.5c-1.16.25-2.32.46-3.51.62-31.24,4.47-66.28-21.44-78.09-52.53-9.34-24.56-1.18-52.43,3.28-64.35,1.4-3.74,2.42-5.91,2.42-5.91,18.84-26.86,128.37,25.72,129.65,54.72S773.17,643.48,741.17,650.5Z"/><path class="cls-17" d="M775.44,587s-6.2,46.11-37.78,64.14c-31.24,4.47-66.28-21.44-78.09-52.53-9.34-24.56-1.18-52.43,3.28-64.35h0C699.77,513.15,775.44,587,775.44,587Z"/><g class="cls-18"><path class="cls-5" d="M775.44,587s-6.2,46.11-37.78,64.14c-31.24,4.47-66.28-21.44-78.09-52.53-9.34-24.56-1.18-52.43,3.28-64.35h0C699.77,513.15,775.44,587,775.44,587Z"/></g><path class="cls-8" d="M775.44,587s-6.2,46.11-37.78,64.14c-31.24,4.47-66.28-21.44-78.09-52.53-9.34-24.56-1.18-52.43,3.28-64.35h0C699.77,513.15,775.44,587,775.44,587Z"/><path class="cls-8" d="M646.26,611.25s35.58,51.07,77.12,55.33,68.17-30.74,69.81-57.12"/><path class="cls-5" d="M626.26,380.81c3.12-8.74,25.56-5.81,32.69,21.46s35.12,93.56,35.12,93.56,111.55-164,131.47-170.37,12.08,22.11-14.63,61.54c0,0,25-4.4,31.59,0s3.37,31,6.86,40.21c5.86,15.55-7.17,18.84-7.17,18.84a27.78,27.78,0,0,1,17.41,6.63c7.17,6.71,3.58,34.46,5.62,42.31s-11.63,14.46-11.63,14.46,32.87,17.91,25.45,22.41c-12.52,7.56-19.64-.18-19.64-.18s-50.51,63.42-88.61,77.55-112.24-42-120.21-72.6,1.55-28.69-4.5-79.57S626.26,380.81,626.26,380.81Z"/><rect class="cls-19" x="666.99" y="294.39" width="171.3" height="294.78" rx="9.75" transform="translate(-87.1 204.13) rotate(-14.61)"/><path class="cls-20" d="M704.75,310.63a2.38,2.38,0,0,1-4.61,1.2,2.36,2.36,0,0,1,1.64-2.9l.05,0A2.41,2.41,0,0,1,704.75,310.63Z"/><path class="cls-20" d="M735,302.74a1.49,1.49,0,0,1-1.06,1.81h0a1.49,1.49,0,1,1,1.07-1.81Z"/><rect class="cls-21" x="709.3" y="308.72" width="19.64" height="1.7" rx="0.66" transform="translate(-54.5 189.27) rotate(-14.45)"/><path class="cls-3" d="M796.39,289.74l68.85,264.19a5.78,5.78,0,0,1-4.13,7l-145,37.78a5.78,5.78,0,0,1-7.05-4.13L640.21,330.44a5.77,5.77,0,0,1,4.13-7l29.77-7.77a4.81,4.81,0,0,1,5.18,1.9l2.17,3.08a4.85,4.85,0,0,0,5.19,1.9l65.34-17a4.85,4.85,0,0,0,3.6-4.13l.39-3.74a4.81,4.81,0,0,1,3.59-4.13l29.77-7.77A5.8,5.8,0,0,1,796.39,289.74Z"/><circle class="cls-22" cx="745.25" cy="413.59" r="61.25"/><path class="cls-9" d="M720,448.77a5.42,5.42,0,0,0,6.57,3.06l20.14-5.8a8,8,0,0,0,.25,1.28,8.35,8.35,0,0,0,16-4.65h0a9.93,9.93,0,0,0-.47-1.22l20.12-5.81a5.42,5.42,0,0,0,3.94-6.19,5.24,5.24,0,0,0-6.07-4.27c-.19,0-.39.08-.58.13l-1.69-1a16.85,16.85,0,0,1-7.56-9.81l-3.83-13.24a23.48,23.48,0,0,0-25.94-16.74,6.38,6.38,0,1,0-6.2,1.8,23.49,23.49,0,0,0-13.14,28.14l3.86,13.38a16.85,16.85,0,0,1-2.06,14h0a5.27,5.27,0,0,0-3.52,6.57A3.66,3.66,0,0,0,720,448.77Zm19.85-69.53a3.43,3.43,0,1,1,0-.05v.05Z"/><line class="cls-8" x1="758.81" y1="441.77" x2="749.93" y2="444.35"/><line class="cls-8" x1="771.95" y1="427.56" x2="731.23" y2="439.33"/><path class="cls-12" d="M814.48,509.84l-82.63,21.53a18.6,18.6,0,0,1-22.72-13.24v0h0a18.58,18.58,0,0,1,13.24-22.71h0L805,473.85a18.59,18.59,0,0,1,22.62,13.27h0A18.58,18.58,0,0,1,814.48,509.84Z"/><path class="cls-8" d="M613.66,743.76s-25.08-58.36-12.39-129.14"/><path class="cls-8" d="M552.47,806.81S501.77,822.3,496.69,834s22.73,1.84,22.73,1.84"/><path class="cls-8" d="M583.64,567.5S537,613.77,505.72,626.11"/><path class="cls-8" d="M430.67,555.06s-8.51,62.47,23.24,74.27"/><path class="cls-8" d="M340.8,681.2s-.25-81.89,16-107.21"/><path class="cls-8" d="M334.73,597.76s-4.57,50.86,5.7,67.45"/><path class="cls-8" d="M301.3,693.29s-35.51-12.23-42.86,2.93,21.17,1.72,21.17,1.72"/><path class="cls-8" d="M322.66,746.38S287.79,766,286,777.27"/><path class="cls-8" d="M379.62,692.05s66.75,100.88,103.58,91.62"/><path class="cls-8" d="M425.21,833.54s-52.33,38.36-59.91,35.12"/><path class="cls-10" d="M791.76,669.84c3.53-2.89,5.87-4.81,6.63-5.41C797.61,665.11,795.33,667.09,791.76,669.84Z"/></g></svg>