<svg id="Capa_1" data-name="Capa 1" xmlns="http://www.w3.org/2000/svg" xmlns:xlink="http://www.w3.org/1999/xlink" viewBox="0 0 1000 1000"><defs><style>.cls-1,.cls-16,.cls-21,.cls-4,.cls-5{fill:none;}.cls-19,.cls-2,.cls-29,.cls-35{fill:#fff;}.cls-2{opacity:0.7;}.cls-10,.cls-15,.cls-2,.cls-23,.cls-29,.cls-30{isolation:isolate;}.cls-3{fill:#d3d3d3;}.cls-21,.cls-24,.cls-25,.cls-26,.cls-35,.cls-4,.cls-5,.cls-6,.cls-7{stroke:#263238;}.cls-16,.cls-25,.cls-35,.cls-4,.cls-5,.cls-6,.cls-7{stroke-linecap:round;stroke-linejoin:round;}.cls-26,.cls-4{stroke-width:2.02px;}.cls-16,.cls-21,.cls-24,.cls-25,.cls-35,.cls-5,.cls-6,.cls-7{stroke-width:2.02px;}.cls-6,.cls-8{fill:#8eb515;}.cls-12,.cls-7{fill:#bc8558;}.cls-9{clip-path:url(#clip-path);}.cls-10{opacity:0.2;}.cls-11,.cls-23,.cls-30{fill:#263238;}.cls-13{fill:#e5354e;}.cls-14{clip-path:url(#clip-path-2);}.cls-15,.cls-30{opacity:0.4;}.cls-16{stroke:#fff;}.cls-17{clip-path:url(#clip-path-3);}.cls-18{clip-path:url(#clip-path-4);}.cls-20{clip-path:url(#clip-path-5);}.cls-21,.cls-24{stroke-miterlimit:10;}.cls-22,.cls-25{fill:#ba68c8;}.cls-23{opacity:0.6;}.cls-24,.cls-26{fill:#bfbfbf;}.cls-26{stroke-miterlimit:10;}.cls-27,.cls-29{opacity:0.3;}.cls-28{clip-path:url(#clip-path-6);}.cls-31{clip-path:url(#clip-path-7);}.cls-32{clip-path:url(#clip-path-8);}.cls-33{clip-path:url(#clip-path-9);}.cls-34{clip-path:url(#clip-path-10);}</style><clipPath id="clip-path"><path class="cls-1" d="M653.25,399.76s-24.88-18.16-46.17-14.89c0,0-113.36,12.77-116,12.77,0,0-30.27-115.17-36.2-124.92,0,0-1.05-8.07-4.26-9.2,0,0-13.38,36.71-35.38,44.1,0,0,2,7,6.87,7,0,0-.75,125.12,16.81,140s165.93,27.14,165.93,27.14Z"/></clipPath><clipPath id="clip-path-2"><path class="cls-1" d="M656.32,326.3a36.56,36.56,0,0,1-2.28,4.34c-2.61,4.24-7.23,9.83-12.86,8.08-1.71-.53-2.5-3-2.82-5.59a37.83,37.83,0,0,1-.12-7.37,49.2,49.2,0,0,0,9,1A30.54,30.54,0,0,0,656.32,326.3Z"/></clipPath><clipPath id="clip-path-3"><path class="cls-1" d="M625.22,392.54s-18.45,20.34,2.38,36.06,96.51-37.29,96.51-37.29,27.28-6.94,41.61,2.2.91,119.37-28.25,167c-8.66,14.12-19,35.27-19,35.27s2.92,18.45-13.85,24C672.73,630.48,591,630,567.18,616.69c-28-15.58.1-10.76,1.75-95.6,0,0-12.25-31.32-7.58-53.74,1.73-8.33,6.8-20.44,13.94-32.63"/></clipPath><clipPath id="clip-path-4"><path class="cls-1" d="M728.89,480.11s-46.82,2.11-65.27.22c-11.84-1.23-15.62,4.66-31.8,7.75-6.06,1.17-18.81,20-18.81,20l2,24.64S629.15,542.89,631,540s-4.94-9.48-4.94-9.48l12.47,2a9.51,9.51,0,0,0-3.84-8.56l7.25-8.07s9.3,2.8,19.49-6.2l70,2.69Z"/></clipPath><clipPath id="clip-path-5"><path class="cls-1" d="M887.67,514.52V948.05a5.2,5.2,0,0,1-5.22,5.21H229a5.22,5.22,0,0,1-5.25-5.21V514.5a5.21,5.21,0,0,1,5.23-5.22H882.47A5.22,5.22,0,0,1,887.67,514.52Z"/></clipPath><clipPath id="clip-path-6"><rect class="cls-1" x="544.59" y="555.7" width="322.9" height="96.87"/></clipPath><clipPath id="clip-path-7"><rect class="cls-1" x="544.59" y="809.98" width="322.9" height="96.87"/></clipPath><clipPath id="clip-path-8"><rect class="cls-1" x="544.59" y="660.64" width="322.9" height="96.87"/></clipPath><clipPath id="clip-path-9"><path class="cls-1" d="M759.91,390.86c28.72,9.45,98.52,46.7,110.45,62.67s3.41,49.18-23.19,57.59-151.15,0-151.15,0-10.1,6.5-13,3.74-4-48.44,6.42-48.16c8.49.29,11.86,4.38,11.86,4.38l54.33-10.29s-18.16-21.37-18.16-43.23"/></clipPath><clipPath id="clip-path-10"><path class="cls-1" d="M420.46,617.76A54.28,54.28,0,0,1,366.15,672h0a51.89,51.89,0,0,1-6.47-.38,54.29,54.29,0,1,1,60.78-53.89Z"/></clipPath></defs><g id="freepik--background-simple--inject-2"><path class="cls-2" d="M191,362.45s-56.26,145.3,22.81,291.62,241.93,223.6,372.28,289.7,265.7,33.9,330-74.35-23.89-185.53-24-339.89,23.1-195.23-60.55-325.64S542.8,44.59,387.73,141.32,191,362.45,191,362.45Z"/><path class="cls-3" d="M136.77,617.62a219.41,219.41,0,0,1,11.69-130.23c23.31-57.64,73.4-98.58,129.5-122.48,81.55-34.73,161.59-35.38,227.89-103.43,20.44-21,37.6-45,58.52-65.57,61.6-60.54,151.75-53.27,219.07-5.2C923.86,291,974.37,489.61,966.56,653.8c-3.55,73.75-38.72,142.36-94.4,190.68-125.93,109.34-339.75,90.93-484.35,33.86C279.9,835.78,162.1,736.49,136.77,617.62Z"/></g><g id="freepik--Doodles--inject-2"><circle class="cls-4" cx="243.77" cy="387.27" r="36.31" transform="translate(-202.44 285.8) rotate(-45)"/><path class="cls-5" d="M867.88,283.88c15.68-2.28,35,5,36.85,22.69,1.71,16-9.22,32.29-18.91,44-9.16,11-21.76,23.41-35.68,28.26-15.88,5.42-21-11-11.22-21.64,19.47-21.17,65.53-31.68,89.76-13.74,27.29,20.18,8.86,63-16.65,75.78-8.29,4.18-15.6-1.11-9.62-9.87,4.52-6.64,13.14-9.69,20.68-11.06,15.08-2.74,38.53.61,44.22,17.5"/><path class="cls-5" d="M834.88,297.79a96.91,96.91,0,0,1,24.22-11.91"/><path class="cls-5" d="M819.56,309.65c2.55-2.34,5.21-4.52,8-6.59"/><polyline class="cls-5" points="568.47 151.74 574.95 145 495.96 152.6 541.04 171.92"/><polyline class="cls-5" points="544.66 173.47 574.95 186.43 557.67 162.96 565.93 154.38"/><path class="cls-5" d="M715.12,155.1V128.86"/><path class="cls-5" d="M715.12,175.28V163.17"/><line class="cls-5" x1="743.93" y1="178.36" x2="762.92" y2="138.48"/><path class="cls-5" d="M797.41,179.39l8.73-6.83"/><path class="cls-5" d="M767.4,202.49,790.12,185"/><polyline class="cls-5" points="156.35 576.73 115.93 566.18 122.3 621.33 186.18 584.5 159.92 577.66"/><line class="cls-5" x1="948.36" y1="556.49" x2="993.06" y2="571.95"/><path class="cls-5" d="M924.12,778.2A19.52,19.52,0,1,0,950.9,750"/><path class="cls-5" d="M947.51,747.73a19.51,19.51,0,0,0-25.63,27.65"/><path class="cls-5" d="M186.9,704.1l-17.37,44.82"/><path class="cls-5" d="M192.58,689.44,190,696"/><line class="cls-5" x1="327.63" y1="433.35" x2="375.58" y2="461.09"/><path class="cls-5" d="M274.53,267.42l-38.91,25.14"/><path class="cls-5" d="M288.38,258.41l-6.06,3.84"/><polygon class="cls-5" points="957.3 283.42 957.3 300.35 970.07 297.02 957.3 283.42"/></g><g id="freepik--Character--inject-2"><path class="cls-6" d="M415.25,307.62c-2.15-6.42,22.06-34.9,22.06-34.9l13.12,13.95S419.63,320.19,415.25,307.62Z"/><path class="cls-7" d="M382.1,266.35c7,6.25,11.82,1.43,11.82,1.43a4.85,4.85,0,0,0,3.51,5.89l.11,0c3.26,1,16-5.12,24.58-5.12a197.83,197.83,0,0,1,3.71,42.48s29.46,3,33.46-18.17c0,0-5.59-13.32-9.45-25.55-5.2-16.52-5.91-21.06-8.63-24.56-4.32-5.49-40.1-15-49.69-15.35s-14.77,36.12-26.74,53a8.35,8.35,0,0,0,8.58-1C376.65,277.36,382.1,266.35,382.1,266.35Z"/><path class="cls-5" d="M382.1,266.35c5.83-14.68,13.22-20.71,13.22-20.71s2-5.21,0-6.8"/><path class="cls-5" d="M393.92,267.78c.39-4.38,15.76-9,17.56-11.57s0-13.58,0-13.58"/><path class="cls-5" d="M422.12,268.57A15.5,15.5,0,0,0,435,259.36"/><path class="cls-5" d="M395.32,245.64s5,3.59,9.18,3.59a9.47,9.47,0,0,1,5,8.48"/><path class="cls-5" d="M397.31,253.43a13.67,13.67,0,0,0-3.39,9.95"/><path class="cls-5" d="M389.14,256.46s3.63-2.4,5.21,0"/><path class="cls-8" d="M653.25,399.76s-24.88-18.16-46.17-14.89c0,0-113.36,12.77-116,12.77,0,0-30.27-115.17-36.2-124.92,0,0-1.05-8.07-4.26-9.2,0,0-13.38,36.71-35.38,44.1,0,0,2,7,6.87,7,0,0-.75,125.12,16.81,140s165.93,27.14,165.93,27.14Z"/><g class="cls-9"><path class="cls-10" d="M572.06,469.89l-7.4,8.08c-45.27-4.75-114.11-13.44-125.73-23.29-17.56-14.92-16.81-140-16.81-140-3.11,0-5.07-2.93-6.06-5,16.35-.66,36.33-17,36.33-17,3.11,17.5-19.64,37.58-19.64,37.58s-1.19,71.8,8.4,108S572.06,469.89,572.06,469.89Z"/></g><path class="cls-5" d="M653.25,399.76s-24.88-18.16-46.17-14.89c0,0-113.36,12.77-116,12.77,0,0-30.27-115.17-36.2-124.92,0,0-1.05-8.07-4.26-9.2,0,0-13.38,36.71-35.38,44.1,0,0,2,7,6.87,7,0,0-.75,125.12,16.81,140s165.93,27.14,165.93,27.14Z"/><path class="cls-7" d="M615.88,406.16s4.58-15.44,24.94-11.89,71,5,96.57-3c0,0-65.41,84.64-104,69.46S615.88,406.16,615.88,406.16Z"/><path class="cls-11" d="M725.12,220.82S719.2,200.64,704.51,205s-12.69,3.74-20.81-.6-13.11-.63-15.88,5.57-8.37,4.66-17,1.71-16.15.85-15.84,9.17-10.76-.35-17,8.94-2.48,8.66-3.71,16.14S600,257.67,602.52,264.49s12.37,18.57,3.08,23.53-12.39,20.44-3.41,25.09-7.46,18.56-1.53,31.26c5.41,11.54,20.42,14.22,13.62,26a10.75,10.75,0,0,0,0,12.11,3,3,0,0,0,4.2.81,3,3,0,0,0,1.33-2.3,9.42,9.42,0,0,1,1.35-4.51c3.09-4.94,7.35,0,12.33-9.28,0,0-3.2,10.54,7.39,14.25,5.53,2,6.52,5.21,6.18,7.91a2.28,2.28,0,0,0,3.81,2,9.68,9.68,0,0,0,2.48-8.66s17.34,14.25,29.73,11.14,28.47-7.43,29.1-16.71a19.63,19.63,0,0,1,3.63,9.1,2.91,2.91,0,0,0,5.17,1.64,17.84,17.84,0,0,0,4.2-10.09,13.9,13.9,0,0,0,6.05,7.32,3.62,3.62,0,0,0,5.09-4.13,5.87,5.87,0,0,1,2.5-6.93c6.2-3.71,10.51-10.51,6.8-19.19,0,0,9.32,6.2,6.22,15.48a8.78,8.78,0,0,0,.94,8.76,2,2,0,0,0,2.85-.18,2,2,0,0,0,.44-1.84,7,7,0,0,1,.71-6.8c4.32-6.8,15.5-15.08,6.82-24.66S761,330,761,330s-1.23,6.19,9.3,10.21,4,9.83,5.09,14.13a8.87,8.87,0,0,0,2.3,4,2.26,2.26,0,0,0,3.61-2.64,6.59,6.59,0,0,1-.48-6.52c5.3-9.57-8.66-13.95-10.09-22.3s.6-17.78,1.43-25.95c.75-7.09,1.31-12.5-3.17-18.59-2.91-4-6.6-7.63-8.07-12.37a29.93,29.93,0,0,1-.32-11.2A26.22,26.22,0,0,0,760,247.6c-2.56-7.21-11.12-6.06-14.89-12.11-3.56-5.65-.51-13.22-7.33-17.07A10.87,10.87,0,0,0,725.12,220.82Z"/><path class="cls-12" d="M655.69,407.65c9.73-6.18,5.13-26.46,1.17-38.81-1.85-5.83-3.57-9.91-3.57-9.91h.16l51.06-26.24c-6.46,27.17,0,64.28,0,64.28"/><path class="cls-11" d="M674.82,359.76a24,24,0,0,1-18,10.09c-1.85-5.84-3.57-9.91-3.57-9.91h.16Z"/><path class="cls-12" d="M698.26,348.26c15.78-9.93,29-25,32.29-46.68,6.05-39.63,5.71-75.84-62.38-71.46-29.83,2-41.4,31.3-41.15,40.54.54,21.42-16.53,59.1,4.62,90.38,3.15,4.64,23.71,4.82,45.36-2.71"/><path class="cls-5" d="M662,276.66s10.74-4,16.91,11.84"/><path class="cls-5" d="M639.77,274.86a18.91,18.91,0,0,0-12.67-4.2"/><path class="cls-5" d="M641.14,297.85c-5.57,9.14-12.35,4.6-12.11,9.14.27,3.77,9,10.39,9,10.39"/><path class="cls-11" d="M670.28,298c-.58,2.48-2.46,4.18-4.15,3.75s-2.61-2.74-2-5.24,2.46-4.16,4.18-3.76S670.89,295.51,670.28,298Z"/><path class="cls-11" d="M637.47,291.88c-.4,2.52-2.14,4.33-3.88,4s-2.8-2.54-2.4-5.08,2.14-4.34,3.86-4S637.87,289.35,637.47,291.88Z"/><path class="cls-13" d="M656.32,326.3a36.56,36.56,0,0,1-2.28,4.34c-2.61,4.24-7.23,9.83-12.86,8.08-1.71-.53-2.5-3-2.82-5.59a37.83,37.83,0,0,1-.12-7.37,49.2,49.2,0,0,0,9,1A30.54,30.54,0,0,0,656.32,326.3Z"/><g class="cls-14"><path class="cls-15" d="M656.32,326.3a36.56,36.56,0,0,1-2.28,4.34c-5.43-1-11.57.85-15.68,2.51a37.83,37.83,0,0,1-.12-7.37Z"/></g><path class="cls-5" d="M656.32,326.3a36.56,36.56,0,0,1-2.28,4.34c-2.61,4.24-7.23,9.83-12.86,8.08-1.71-.53-2.5-3-2.82-5.59a37.83,37.83,0,0,1-.12-7.37,49.2,49.2,0,0,0,9,1A30.54,30.54,0,0,0,656.32,326.3Z"/><path class="cls-11" d="M667.82,246.47s1.68-3.72,5,3.71-10.78,14.81,0,20.4,11.22,18.83,6,24,8.44,7.63,10.29,12.59-3.71,9-2.46,15,9,12,8.82,15.19-6.94,8.36-2.32,13.85,17.64,2,18.89,13.1c0,0,39-43.37,39.62-83.72s-28.48-57-58.13-59.59-75.53,11.85-79.25,63.51c0,0,1.39-3.27,6.82-4s8.08-8.07,7.41-16.14,4.82-3.11,12.31-5,5-12.37,10-14.12S659.45,253.29,667.82,246.47Z"/><path class="cls-5" d="M640.82,229.07c-.3,5-15.48.61-23.21,5s-5.89,11.76-5.27,16.14-6.39,9.91-12.1,13.3-5.8,10.35,1.63,17,1.11,8.44-5.79,14.33-6.66,13.08,0,17.34"/><path class="cls-5" d="M662,243.06s12.65,2.48,8.94,9.6-8.94,16,1.92,24-4.71,16.91,2.12,24,13.76,6.8,8.73,18.57,4,14.73,4,14.73"/><path class="cls-5" d="M635.61,325s12.41,3.21,22,1.05"/><path class="cls-16" d="M722.35,344.37a4,4,0,0,0,1.07,5.57"/><path class="cls-16" d="M723.48,326.08c5.45,2.91,7,7.51,3.53,12.88"/><path class="cls-16" d="M689.27,249.7a30.31,30.31,0,0,0,14.43,25.79c4,4,2,8.07,0,14.12,0,8.08,12.11,8.08,14.13,14.13,0,6.06-10.09,12.11-.22,19.29"/><path class="cls-16" d="M684.31,232.87a19.24,19.24,0,0,1,4.5,10.47"/><path class="cls-16" d="M749.46,330.14a11.18,11.18,0,0,0,.6,6.19"/><path class="cls-16" d="M737.06,306.87c-2.16,5.85,3.21,5.33,7,5.77,6.29.73,8.19,4.52,6.78,10.86"/><path class="cls-16" d="M712.85,252.12c1.09,11.68,19.57,10.09,16.34,23.65-1.51,6.28-1.25,10.09,3.68,15.38,2.54,2.78,7.91,4.64,5.93,9.2"/><path class="cls-16" d="M760.21,304.06a15.07,15.07,0,0,0-.42,6.44"/><path class="cls-16" d="M728.55,236.94c4,.28,2.84,5.45,4,8.07,1.64,3.68,4.83,4.61,8.08,6.56,6.47,4,5.83,7.71,5.08,14.57-.87,8,1.7,11.24,8.36,15.14s10.53,7.35,8.07,15.72"/><path class="cls-16" d="M631.05,246.47c-5.91,2.84-16,3.49-14.31,12.11s9.06,12.57.41,20.06c-7.31,6.33-6.5,9.66-1.74,17.13,4,6.26,5.15,11.91.16,18.16"/><path class="cls-16" d="M653.25,233.79c-10.09-8.76-12.11,3.35-16.41,8.9"/><path class="cls-8" d="M625.22,392.54s-18.45,20.34,2.38,36.06,96.51-37.29,96.51-37.29,27.28-6.94,41.61,2.2.91,119.37-28.25,167c-8.66,14.12-19,35.27-19,35.27s2.92,18.45-13.85,24C672.73,630.48,591,630,567.18,616.69c-28-15.58.1-10.76,1.75-95.6,0,0-12.25-31.32-7.58-53.74,1.73-8.33,6.8-20.44,13.94-32.63"/><g class="cls-17"><path class="cls-10" d="M737.39,560.59c-8.66,14.12-19,35.27-19,35.27s2.92,18.45-13.85,24C672.65,630.52,590.93,630,567.1,616.73c-28-15.58.1-10.75,1.75-95.6A150.78,150.78,0,0,1,562,496.25c18.45,10.64,39.9,9.61,39.9,9.61,18.39-38.11,44.72-31,44.72-31s7.15-6.38,15.38-12.33,34.09-1.44,34.09-1.44l30.11-6c-.57-11.18,10.37-10.09,10.37-10.09l4.18,3.91c-2.45-9.24,0-14.87,0-14.87l26.43,33.22C761.73,500.71,751.37,537.84,737.39,560.59Z"/></g><path class="cls-5" d="M625.22,392.54s-18.45,20.34,2.38,36.06,96.51-37.29,96.51-37.29,27.28-6.94,41.61,2.2.91,119.37-28.25,167c-8.66,14.12-19,35.27-19,35.27s2.92,18.45-13.85,24C672.73,630.48,591,630,567.18,616.69c-28-15.58.1-10.76,1.75-95.6,0,0-12.25-31.32-7.58-53.74,1.73-8.33,6.8-20.44,13.94-32.63"/><path class="cls-5" d="M558.86,450.1a31.61,31.61,0,0,0,4,11"/><path class="cls-5" d="M557.75,434a70.33,70.33,0,0,0,.25,9.95"/><path class="cls-5" d="M491.1,397.64s-14.78,14.78-12,25.94"/><path class="cls-5" d="M481.37,400.61a49.79,49.79,0,0,0,8.84-6.36"/><path class="cls-5" d="M469.6,406q3.09-1,6.06-2.4"/><path class="cls-5" d="M422.12,314.6s21.47-4.38,30.27-22"/><path class="cls-5" d="M655.27,436.29a64.23,64.23,0,0,0,7.81-2.32"/><path class="cls-5" d="M618,390.86c-5.47,8.66-9.09,20.37-5.55,30.38,5.32,15.17,22.56,18.28,36.62,16.24"/><path class="cls-5" d="M617.93,407.88s15.66,12.11,24.85,15.7"/><path class="cls-7" d="M728.89,480.11s-46.82,2.11-65.27.22c-11.84-1.23-15.62,4.66-31.8,7.75-6.06,1.17-18.81,20-18.81,20l2,24.64S629.15,542.89,631,540s-4.94-9.48-4.94-9.48l12.47,2a9.51,9.51,0,0,0-3.84-8.56l7.25-8.07s9.3,2.8,19.49-6.2l70,2.69Z"/><g class="cls-18"><path class="cls-10" d="M731.39,512.31l-69.95-2.72c-10.19,9-19.49,6.2-19.49,6.2l-7.25,8.07a9.51,9.51,0,0,1,3.84,8.55l-12.47-2s6.76,6.62,4.94,9.48-15.94-7.32-15.94-7.32l-2-24.65a142,142,0,0,1,9.51-12.37c13.23,8.08,47.6,2,47.6,2,.23-5.95,3.76-12.27,6.72-16.61,21.46.49,52-.91,52-.91Z"/></g><path class="cls-5" d="M728.89,480.11s-46.82,2.11-65.27.22c-11.84-1.23-15.62,4.66-31.8,7.75-6.06,1.17-18.81,20-18.81,20l2,24.64S629.15,542.89,631,540s-4.94-9.48-4.94-9.48l12.47,2a9.51,9.51,0,0,0-3.84-8.56l7.25-8.07s9.3,2.8,19.49-6.2l70,2.69Z"/><path class="cls-5" d="M642,515.83s-7.57-.61-10.94-10"/><path class="cls-5" d="M639.37,515.14s-12.41,10.09-19.26,3.15"/><path class="cls-5" d="M625.28,520.67s2,6.74.79,9.87"/><path class="cls-5" d="M634.7,524a16.62,16.62,0,0,1-6.05,1"/><path class="cls-19" d="M887.67,514.52V948.05a5.2,5.2,0,0,1-5.22,5.21H229a5.22,5.22,0,0,1-5.25-5.21V514.5a5.21,5.21,0,0,1,5.23-5.22H882.47A5.22,5.22,0,0,1,887.67,514.52Z"/><g class="cls-20"><path class="cls-10" d="M887.67,514.4v19.54c-18.28,6.38-45.12,11.28-66.84,10.23-29.16-1.41-138.18-26-176.9-34.89H882.47A5.21,5.21,0,0,1,887.67,514.4Z"/></g><path class="cls-21" d="M888.68,513.51V947a5.22,5.22,0,0,1-5.22,5.22H230a5.24,5.24,0,0,1-5.25-5.22V513.49a5.21,5.21,0,0,1,5.23-5.22H883.48A5.22,5.22,0,0,1,888.68,513.51Z"/><path class="cls-11" d="M276.18,509.28v444H229a5.25,5.25,0,0,1-5.3-5.21V514.5a5.21,5.21,0,0,1,5.23-5.22h47.24Z"/><polygon class="cls-22" points="250.19 529.57 235.62 537.74 250.19 545.94 264.74 537.74 250.19 529.57"/><polygon class="cls-22" points="250.19 549.23 239.98 543.49 235.62 545.94 250.19 554.11 264.74 545.94 260.38 543.49 250.19 549.23"/><polygon class="cls-22" points="250.19 557.42 239.98 551.67 235.62 554.11 250.19 562.3 264.74 554.11 260.38 551.67 250.19 557.42"/><path class="cls-11" d="M503.53,611h-66.9a7.07,7.07,0,0,0,0,14.13h66.9a7.07,7.07,0,0,0,0-14.13Z"/><path class="cls-23" d="M598.16,533.5H550.4a5,5,0,0,0,0,10.09h47.76a5.08,5.08,0,0,0,4.64-7.13,5,5,0,0,0-4.64-3Z"/><line class="cls-21" x1="525.42" y1="521.39" x2="525.42" y2="941.16"/><circle class="cls-24" cx="332.49" cy="716.18" r="24.88"/><path class="cls-25" d="M366.15,732.29a8.78,8.78,0,1,1-8.78-8.78,8.78,8.78,0,0,1,8.78,8.78Z"/><circle class="cls-24" cx="332.49" cy="797.9" r="24.88"/><path class="cls-25" d="M366.15,814a8.78,8.78,0,1,1-8.78-8.78A8.78,8.78,0,0,1,366.15,814Z"/><circle class="cls-26" cx="332.49" cy="879.58" r="24.88" transform="translate(-524.57 492.73) rotate(-45)"/><path class="cls-25" d="M366,895.7a8.82,8.82,0,0,1-12.17,8.12,8.2,8.2,0,0,1-4.67-4.55,8.87,8.87,0,0,1,12.29-11.38,8.19,8.19,0,0,1,4.55,7.46Z"/><g class="cls-27"><rect class="cls-15" x="550.65" y="559.73" width="322.9" height="96.87"/><rect class="cls-15" x="550.65" y="814.01" width="322.9" height="96.87"/><rect class="cls-15" x="550.65" y="664.67" width="322.9" height="96.87"/></g><rect class="cls-22" x="544.59" y="555.7" width="322.9" height="96.87"/><g class="cls-28"><rect class="cls-3" x="544.59" y="555.7" width="322.9" height="96.87"/></g><rect class="cls-21" x="543.58" y="556.7" width="322.9" height="96.87"/><rect class="cls-11" x="554.68" y="565.79" width="84.76" height="64.58"/><polygon class="cls-29" points="639.45 614.71 639.45 630.37 554.68 630.37 554.68 615.79 581.47 595.96 609.02 615.79 624.59 605.87 639.45 614.71"/><path class="cls-29" d="M618.94,584.39a8.54,8.54,0,1,1-8.55-8.51h0a8.51,8.51,0,0,1,8.51,8.51Z"/><path class="cls-30" d="M591.64,636.42h-33.4a4.43,4.43,0,0,0-3.79,3.77A3.54,3.54,0,0,0,557.7,644c.18,0,.36,0,.54-1.51h33.4c1.94,1.65,3.64.2,3.79-1.75a3.54,3.54,0,0,0-3.26-3.79C592,636.92,591.82,636.92,591.64,636.42Z"/><path class="cls-30" d="M851.61,567.8H656.78a4.65,4.65,0,0,0-3.53,4.15,4.21,4.21,0,0,0,3.53,3.93H851.61a4.21,4.21,0,0,0,3.53-3.93A4.65,4.65,0,0,0,851.61,567.8Z"/><path class="cls-30" d="M851.61,588H656.78a4.65,4.65,0,0,0-3.53,4.15,4.21,4.21,0,0,0,3.53,3.93H851.61a4.21,4.21,0,0,0,3.53-3.93A4.65,4.65,0,0,0,851.61,588Z"/><path class="cls-30" d="M811.25,608.17H656.78a4.63,4.63,0,0,0-3.53,4.14,4.21,4.21,0,0,0,3.53,3.93H811.25a4.21,4.21,0,0,0,3.53-3.93A4.63,4.63,0,0,0,811.25,608.17Z"/><path class="cls-23" d="M598.16,787.78H550.4a5,5,0,0,0,0,10.09h47.76a5.08,5.08,0,0,0,4.64-7.13,5,5,0,0,0-4.64-3Z"/><rect class="cls-22" x="544.59" y="809.98" width="322.9" height="96.87"/><g class="cls-31"><rect class="cls-3" x="544.59" y="809.98" width="322.9" height="96.87"/></g><rect class="cls-21" x="543.58" y="810.99" width="322.9" height="96.87"/><rect class="cls-11" x="554.68" y="820.07" width="84.76" height="64.58"/><polygon class="cls-29" points="639.45 868.99 639.45 884.65 554.68 884.65 554.68 870.08 581.47 850.24 609.02 870.08 624.59 860.15 639.45 868.99"/><path class="cls-29" d="M618.94,838.68a8.54,8.54,0,1,1-8.55-8.52h0a8.51,8.51,0,0,1,8.51,8.52Z"/><path class="cls-30" d="M591.64,890.7h-33.4a4.44,4.44,0,0,0-3.79,3.77,3.53,3.53,0,0,0,3.25,3.79c.18,0,.36,0,.54-1.5h33.4c1.94,1.65,3.64.19,3.79-1.76a3.53,3.53,0,0,0-3.26-3.78C592,891.2,591.82,891.2,591.64,890.7Z"/><path class="cls-30" d="M851.61,822.09H656.78a4.63,4.63,0,0,0-3.53,4.14,4.21,4.21,0,0,0,3.53,3.93H851.61a4.21,4.21,0,0,0,3.53-3.93A4.63,4.63,0,0,0,851.61,822.09Z"/><path class="cls-30" d="M851.61,842.27H656.78a4.63,4.63,0,0,0-3.53,4.14,4.2,4.2,0,0,0,3.53,3.93H851.61a4.2,4.2,0,0,0,3.53-3.93A4.63,4.63,0,0,0,851.61,842.27Z"/><path class="cls-30" d="M811.25,862.45H656.78a4.63,4.63,0,0,0-3.53,4.15,4.19,4.19,0,0,0,3.53,3.92H811.25a4.19,4.19,0,0,0,3.53-3.92A4.63,4.63,0,0,0,811.25,862.45Z"/><rect class="cls-22" x="544.59" y="660.64" width="322.9" height="96.87"/><g class="cls-32"><rect class="cls-3" x="544.59" y="660.64" width="322.9" height="96.87"/></g><rect class="cls-21" x="543.58" y="661.65" width="322.9" height="96.87"/><rect class="cls-11" x="554.68" y="670.73" width="84.76" height="64.58"/><polygon class="cls-29" points="639.45 719.65 639.45 735.31 554.68 735.31 554.68 720.74 581.47 700.9 609.02 720.74 624.59 710.81 639.45 719.65"/><path class="cls-29" d="M618.94,689.33a8.54,8.54,0,1,1-8.55-8.51h0a8.51,8.51,0,0,1,8.51,8.51Z"/><path class="cls-30" d="M591.64,741.36h-33.4a4.44,4.44,0,0,0-3.79,3.77,3.54,3.54,0,0,0,3.25,3.79c.18,0,.36,0,.54-1.5h33.4c1.94,1.65,3.64.19,3.79-1.76a3.53,3.53,0,0,0-3.26-3.78C592,741.86,591.82,741.86,591.64,741.36Z"/><path class="cls-30" d="M851.61,672.75H656.78a4.63,4.63,0,0,0-3.53,4.14,4.21,4.21,0,0,0,3.53,3.93H851.61a4.21,4.21,0,0,0,3.53-3.93A4.63,4.63,0,0,0,851.61,672.75Z"/><path class="cls-30" d="M851.61,692.93H656.78a4.63,4.63,0,0,0-3.53,4.14,4.21,4.21,0,0,0,3.53,3.93H851.61a4.21,4.21,0,0,0,3.53-3.93A4.63,4.63,0,0,0,851.61,692.93Z"/><path class="cls-30" d="M811.25,713.11H656.78a4.63,4.63,0,0,0-3.53,4.14,4.2,4.2,0,0,0,3.53,3.93H811.25a4.2,4.2,0,0,0,3.53-3.93A4.63,4.63,0,0,0,811.25,713.11Z"/><path class="cls-30" d="M477.84,713.11h-96a2.94,2.94,0,0,0-3.53,3.07c0,2,1.58,3.54,3.53,5h96c2-1.46,3.53-3,3.53-5a3.53,3.53,0,0,0-3.53-3.53Z"/><path class="cls-30" d="M477.84,874.56h-96c-1.95,1.5-3.53,3.08-3.53,5a2.9,2.9,0,0,0,3.53,3h96a2.9,2.9,0,0,0,3.53-3C481.37,877.64,479.79,876.06,477.84,874.56Z"/><path class="cls-30" d="M477.84,795.85h-96c-1.94-1.63-3.64-.17-3.78,1.77a3.53,3.53,0,0,0,3.25,3.79c.18,0,.36,0,.53.5h96a4.39,4.39,0,0,0,3.78-3.75,3.52,3.52,0,0,0-3.25-3.79C478.19,794.35,478,794.35,477.84,795.85Z"/><path class="cls-8" d="M759.91,390.86c28.72,9.45,98.52,46.7,110.45,62.67s3.41,49.18-23.19,57.59-151.15,0-151.15,0-10.1,6.5-13,3.74-4-48.44,6.42-48.16c8.49.29,11.86,4.38,11.86,4.38l54.33-10.29s-18.16-21.37-18.16-43.23"/><g class="cls-33"><path class="cls-10" d="M847.17,511.12c-26.62,8.4-151.15,0-151.15,0s-10.1,6.5-13,3.74c-1.7-1.58-2.79-16.91-1.49-29.87,1.57,6.72,3.57,14.27,5,16.49,2.66,4.26,12.75,0,12.75,0a74.83,74.83,0,0,1,2-26.7l10.52,22.44s99.85,5.85,136.58-9.59c15.28-6.41,21.82-18.58,24.22-30.59C881,473.93,872,503.29,847.17,511.12Z"/><path class="cls-10" d="M785.38,454.68l-29.81,6.05a92.46,92.46,0,0,1-6.2-8.64h0c.35-7.93,1.46-18.4,4.83-22.46,5.75-6.9,4.68,11.16,10.09,21.29,0,0,20.48-16.55,28.6-12.79S790.48,442.65,785.38,454.68Z"/></g><path class="cls-5" d="M759.91,390.86c28.72,9.45,98.52,46.7,110.45,62.67s3.41,49.18-23.19,57.59-151.15,0-151.15,0-10.1,6.5-13,3.74-4-48.44,6.42-48.16c8.49.29,11.86,4.38,11.86,4.38l54.33-10.29s-18.16-21.37-18.16-43.23"/><path class="cls-5" d="M823.78,461.62a17.91,17.91,0,0,1,6.22,8.27"/><path class="cls-5" d="M755.63,460.79c21.11-3.43,41.53-13.54,62.06-3.05"/><path class="cls-5" d="M822.87,448.26a13.89,13.89,0,0,1,5.53,2.64"/><path class="cls-5" d="M784.43,454.47c7.08-8.87,21.49-8.43,31.62-7.42"/><path class="cls-5" d="M703.34,470.7a27.33,27.33,0,0,0-3.53,19.56"/><path class="cls-5" d="M741.42,449.39a19.1,19.1,0,0,0,8.64,3.81"/><path class="cls-5" d="M731.41,438.11a44.46,44.46,0,0,0,5.09,6.74"/></g><path class="cls-22" d="M420.46,617.76A54.28,54.28,0,0,1,366.15,672h0a51.89,51.89,0,0,1-6.47-.38,54.29,54.29,0,1,1,60.78-53.89Z"/><g class="cls-34"><path class="cls-3" d="M420.46,617.76A54.28,54.28,0,0,1,366.15,672h0a51.89,51.89,0,0,1-6.47-.38,54.29,54.29,0,1,1,60.78-53.89Z"/></g><path class="cls-5" d="M420.46,617.76A54.28,54.28,0,0,1,366.15,672h0a51.89,51.89,0,0,1-6.47-.38,54.29,54.29,0,1,1,60.78-53.89Z"/><path class="cls-7" d="M388.68,667.15A54.18,54.18,0,0,1,366.15,672a51.89,51.89,0,0,1-6.47-.38c-11.95-8.6-22.81-22.64-22.81-22.64a47,47,0,0,0,7.69,1.57c1.84.24,3.79.4,5.79.54a144.19,144.19,0,0,0,17.64,0c3.33-.22,6.28-.52,8.38-.88a9.09,9.09,0,0,1,8.07,1.71,7.23,7.23,0,0,1,2.18,3.13A21.15,21.15,0,0,1,388.68,667.15Z"/><path class="cls-11" d="M341.9,579.28s2.42-8.25,8.41-6.48,5.19,1.54,8.52-.24a4.18,4.18,0,0,1,5.84.9,4.29,4.29,0,0,1,.66,1.36c1.13,2.54,3.43,2,7,.71s6.64.34,6.48,3.75,4.4-.14,6.94,3.65,1,3.55,1.51,6.58,5.84,4.82,4.83,7.61-5.07,7.59-1.27,9.63,5.06,8.35,1.39,10.25,3.07,7.61.62,12.79c-2.2,4.73-8.35,5.84-5.57,10.64a4.33,4.33,0,0,1,0,5,1.23,1.23,0,0,1-1.7.36,1.24,1.24,0,0,1-.56-1,3.86,3.86,0,0,0-.54-1.84c-1.27-2-3,0-5.05-3.81a4.65,4.65,0,0,1-3,5.83c-2.26.79-2.67,2.14-2.53,3.25a.93.93,0,0,1-1.55.81,4,4,0,0,1-1-3.56s-7.1,5.84-12.11,4.56-11.64-3-11.9-6.84a8.11,8.11,0,0,0-1.5,3.74,1.19,1.19,0,0,1-1.35,1,1.23,1.23,0,0,1-.67-.34,7.42,7.42,0,0,1-1.71-4.13,5.72,5.72,0,0,1-2.69,2.92,1.46,1.46,0,0,1-1.93-.76,1.42,1.42,0,0,1-.08-.93,2.39,2.39,0,0,0-1-2.83,6.06,6.06,0,0,1-2.79-7.85s-3.81,2.54-2.54,6.34a3.6,3.6,0,0,1-.38,3.57.79.79,0,0,1-1.36-.79,2.85,2.85,0,0,0-.28-2.78c-1.78-2.79-6.36-6.18-2.8-10.09s1-6.38,1-6.38.51,2.54-3.79,4.18-1.63,4-2,5.75a3.51,3.51,0,0,1-.93,1.67.92.92,0,0,1-1.31.09.94.94,0,0,1-.18-1.18,2.67,2.67,0,0,0,.2-2.66c-2.16-3.89,3.55-5.71,4.14-9.12a41.56,41.56,0,0,0-.61-10.62c-.3-2.88-.52-5.1,1.3-7.58a17.63,17.63,0,0,0,3.27-5.07,12.38,12.38,0,0,0,.14-4.58,10.58,10.58,0,0,1,.26-4.58c1.05-3,4.56-2.44,6.05-4.93s.21-5.43,3-7A4.45,4.45,0,0,1,341.9,579.28Z"/><path class="cls-7" d="M370.29,655.81c-4-2.55-2-10.84-.48-15.89.76-2.38,1.45-4,1.45-4h0l-20.89-10.76c2.65,11.1,0,26.24,0,26.24"/><path class="cls-11" d="M362.46,636a9.78,9.78,0,0,0,7.35,4c.76-2.39,1.45-4,1.45-4h-8.8Z"/><path class="cls-7" d="M352.88,631.41a27.21,27.21,0,0,1-13.24-19.09c-2.51-16.15-2.34-31,25.51-29.23,12.21.77,16.93,12.8,16.83,16.57-.23,8.76,6.78,24.22-1.88,37-1.29,1.9-9.71,2-18.57-1.11"/><path class="cls-5" d="M367.71,602.12s-4.38-1.61-6.92,4.85"/><path class="cls-5" d="M376.81,601.38a7.75,7.75,0,0,1,5.17-1.72"/><path class="cls-5" d="M376.23,610.8c2.28,3.74,5,1.88,4.92,3.74-.1,1.53-3.67,4.23-3.67,4.23"/><path class="cls-11" d="M364.32,610.84c.24,1,1,1.72,1.69,1.56s1.07-1.13.83-2.16-1-1.7-1.69-1.54S364.08,609.83,364.32,610.84Z"/><path class="cls-11" d="M377.68,608.34c.16,1,.89,1.78,1.59,1.68s1.15-1,1-2-.87-1.78-1.57-1.68S377.68,607.31,377.68,608.34Z"/><path class="cls-35" d="M370,622.43s2.6,6.19,6.2,5.08c1.63-.5,1.21-5.31,1.21-5.31"/><path class="cls-11" d="M365.33,589.77s-.69-1.51-2,1.52,4.4,6.05,0,8.35-4.6,7.69-2.48,9.81-3.45,3.11-4.2,5.15,1.51,3.67,1,6-3.69,4.9-3.61,6.22,2.84,3.43.94,5.67-7.22.87-7.72,5.35c0,0-15.95-17.74-16.15-34.31s11.64-23.33,23.81-24.36,30.9,4.86,32.41,26a3.29,3.29,0,0,0-2.78-1.63c-2.22-.31-3.29-3.33-3-6.62s-2-1.27-5-2-2-5.07-4-5.83S368.76,592.56,365.33,589.77Z"/><path class="cls-5" d="M376.37,582.67c.12,2,6.33.26,9.5,2s2.4,4.82,2.14,6.6,2.62,4,5,5.45,2.36,4.21-.67,6.92-.46,3.45,2.36,5.85,2.73,5.35,0,7.1"/><path class="cls-5" d="M367.71,588.38s-5.17,1-3.65,3.92,3.65,6.53-.79,9.8,1.92,6.93-.87,9.83-5.63,2.79-3.57,7.61-1.62,6.06-1.62,6.06"/><path class="cls-5" d="M378.51,621.88a22.8,22.8,0,0,1-9,.45"/><path class="cls-8" d="M403.73,656.92A54.16,54.16,0,0,1,366.15,672a51.89,51.89,0,0,1-6.47-.38A54.28,54.28,0,0,1,324,651.91a3.71,3.71,0,0,1,1.31-2c5.87-3.73,17-.88,17-.88l2.26,1.53c7.29,4.8,30.09,19.09,37.22,13.7a8.82,8.82,0,0,0,2.7-12.17c0-.06-.07-.11-.1-.16a13.3,13.3,0,0,0-1.62-2.4S392.41,645.64,403.73,656.92Z"/></svg>