<svg id="Capa_1" data-name="Capa 1" xmlns="http://www.w3.org/2000/svg" viewBox="0 0 1000 1000"><defs><style>.cls-1,.cls-13,.cls-17,.cls-18,.cls-3{fill:#fff;}.cls-1{opacity:0.7;}.cls-1,.cls-7{isolation:isolate;}.cls-2{fill:#d3d3d3;}.cls-15,.cls-19,.cls-4,.cls-5{fill:none;}.cls-10,.cls-12,.cls-13,.cls-17,.cls-18,.cls-19,.cls-4,.cls-5,.cls-6{stroke:#263238;}.cls-10,.cls-12,.cls-13,.cls-15,.cls-17,.cls-18,.cls-19,.cls-4,.cls-5,.cls-6{stroke-linecap:round;stroke-linejoin:round;}.cls-10,.cls-12,.cls-13,.cls-15,.cls-4,.cls-6{stroke-width:2px;}.cls-5{stroke-width:2px;}.cls-6{fill:#208def;}.cls-7{opacity:0.2;}.cls-8{fill:#263238;}.cls-10,.cls-9{fill:#dba37d;}.cls-11{fill:#dd4050;}.cls-12{fill:#f7a500;}.cls-14{fill:#c1102a;}.cls-15{stroke:#757575;}.cls-16{fill:#bfbfbf;}.cls-17{stroke-width:2.55px;}.cls-18{stroke-width:2.55px;}.cls-19{stroke-width:2.55px;}</style></defs><g id="freepik--background-simple--inject-3"><path class="cls-1" d="M163.74,324S108,468,186.34,613s239.76,221.6,368.95,287.1,263.33,33.61,327.07-73.68-23.68-183.86-23.8-336.85,22.9-193.48-60-322.73S512.43,9,358.74,104.81,163.74,324,163.74,324Z"/><path class="cls-2" d="M884,172.37C770.69,47,558.37,66.37,459.69,92.67c-67.89,18.16-107,78-154.49,85.28C162.2,200,68.13,272.9,90.45,397.3S231,560.82,289,741,490.33,950.82,642.39,889.79s179.51-108.38,215.51-278S1013.9,315.94,884,172.37Z"/></g><g id="freepik--Elements--inject-3"><path class="cls-3" d="M379.06,324.46c25.74-4,25.2-58.84-20.22-74.83s-22-51.56.52-43.7,22.9,60.39,56.82,65.07,41.07-63.17,22.42-85,19.41-12.82,24-19.38c7.34-10.6-17.06-61.48,9.56-57,13.18,2.22-.64,35,9.22,83.62s21.68,72.89,44,47-2.26-46.18,14.1-58.48,29.56-1.1,28,14.36-2.24,30.66,8.6,25.12,28.68-31.42,37.54-51.76,18.94-19,19.76-3.88-39.5,48.16-40.54,70.74,14.68,63.49,50.4,36.29,44-37.11,56.36-22.57,3.18,38.35,23.4,38,45.42-54.15,58.15-50,36.74,15.84-7,40-58.55,23.12-56.61,49.48,104.35,29.5,94,47S686.65,389.92,674.69,433s50,36.48,39.16,60.58-36-10.32-58.74-30.66-23.22-5.12-43.22,1.3-24.38-5-37.22-8.22-5,23.1-24.32,20.3-6-6.76-19.08-11.78-24.38,44.86-52.5,37.08-45.23-30.5-62.83-14.46-4.74,50.1-29.84,47.74-16.2-25.76-5.58-28.48,39.3-41.2,34.34-56-52.78,24.62-63,4.36-19-37.64-43.52-31.54-28.22-28-9.06-27.48,63.62,3.86,67.1-12.18-7.88-34-38.12-49.14-.56-45.76,20.7-28.84S358.7,327.54,379.06,324.46Z"/><polygon class="cls-4" points="169.26 573.46 152.16 537.01 215.2 537.01 169.26 573.46"/><polygon class="cls-4" points="441.55 321.58 449.44 342.82 414.06 339.88 441.55 321.58"/><polyline class="cls-4" points="450.7 103.51 469.65 112.67 450.7 121.93 469.65 133.65 450.7 146.33 471.95 156.15 455.2 171.75"/><polygon class="cls-4" points="826.17 664.05 819.78 703.02 860.57 703.02 863.75 691.02 836.59 690.78 841.78 662.39 826.17 664.05"/><circle class="cls-5" cx="740.29" cy="777.52" r="17.16"/><circle class="cls-4" cx="333.14" cy="213.15" r="17.16"/><line class="cls-4" x1="859.42" y1="504.18" x2="897.22" y2="525.8"/><line class="cls-4" x1="885.6" y1="503.22" x2="871.04" y2="531.88"/><line class="cls-4" x1="677.53" y1="373.26" x2="636.59" y2="388.12"/><line class="cls-4" x1="661.33" y1="393.84" x2="648.87" y2="364.2"/><path class="cls-4" d="M289.44,525.38c-.28.76,29.76-13,29.76-13L333.88,546,304.1,559Z"/><path class="cls-4" d="M701.61,480.34c-.32,0,8,10,8,10l-11.22,9-8-10Z"/><path class="cls-4" d="M151.82,387a7.66,7.66,0,1,1-7.66-7.66,7.67,7.67,0,0,1,7.66,7.66Z"/><path class="cls-4" d="M615.3,107.61a7.7,7.7,0,0,1-8.84,10.51A7.66,7.66,0,0,1,608.21,103h0A7.53,7.53,0,0,1,615.3,107.61Z"/><polyline class="cls-4" points="712.39 572.66 720.53 586.26 703.89 587.57 708.31 600.28 689.87 601.68 698.83 626.11"/><polyline class="cls-4" points="280.9 683.49 295.26 692.13 276.04 707.81 288.08 715.41 272.6 732.57"/><polyline class="cls-4" points="695.89 245.78 684.05 233.89 706.51 223.35 696.69 213.05 715.87 200.17"/></g><g id="freepik--Character--inject-3"><path class="cls-6" d="M632.05,906.79c10.22-12.66,16.32-49,16.32-49a102.81,102.81,0,0,1,22.52,23,178,178,0,0,0,33.42-8.34,135.38,135.38,0,0,0,31.58-15.66c-21.74-32-58.54-86.52-81.2-103.66-8.76-6.62-35.9-13.08-35.9-13.08-6.14-5.56-19.54,0-19.54,0-72.5,18.44-138.8-5.44-138.8-5.44s-9.4-4.34-17.1,0a102.6,102.6,0,0,0-22.57,0c-16.6,2.28-34.74,21.24-42.22,29.86l-63.7,73.78s-2.14,29,2.36,32.88c36,30.86,89.08-39.26,89.08-39.26.34.14,1.16,61.06,29.58,92.93,0,0,20.15,9.2,98.47,2C612.07,919.65,632.05,906.79,632.05,906.79Z"/><path class="cls-7" d="M360.38,816.45c-12,1.06-18.3-1.82-20.7-6.94h0c17.36-20,37.62-43.56,38.88-45l2-2.28C389.56,782.35,397,813.25,360.38,816.45Z"/><path class="cls-7" d="M413.72,880a244.63,244.63,0,0,1-7.42-48.2s8.72-11.42,11.14-23.42C417.44,808.45,428.76,853.59,413.72,880Z"/><path class="cls-7" d="M664.27,872.45a95.68,95.68,0,0,0-15.9-14.66s.86-28.66,8.86-37.34C663.67,813.47,670.53,849.79,664.27,872.45Z"/><path class="cls-4" d="M632.05,906.79c10.22-12.66,16.32-49,16.32-49a102.81,102.81,0,0,1,22.52,23"/><path class="cls-4" d="M735.89,856.79c-21.74-32-58.54-86.52-81.2-103.66-8.76-6.62-35.9-13.08-35.9-13.08-6.14-5.56-19.54,0-19.54,0-72.5,18.44-138.8-5.44-138.8-5.44s-9.4-4.34-17.1,0a102.6,102.6,0,0,0-22.57,0c-16.6,2.28-34.74,21.24-42.22,29.86l-63.7,73.78s-2.14,29,2.36,32.88c36,30.86,89.08-39.26,89.08-39.26.34.14,1.16,61.06,29.58,92.93"/><path class="cls-8" d="M601.89,722.45l-1,.4A3.37,3.37,0,0,0,601.89,722.45Z"/><path class="cls-8" d="M623.47,668.49c7.6,1.12,9.46-4.46,9.46-4.46s-9.46,4.46-17.84-12.7c-4.76-9.78-2.4-27.74.5-41.38,5.86-9.66,14.36-23,15.48-38.87,2-27.2-10.78-41-25.52-36.94,0,0-1.08-23-21.82-31.22s-24-1.48-44-6.48-39.56-.64-46.72,12.3-9.6,36.44-21.82,45.54-33.61,31-26.84,55.51,2.92,32.88-6,44.46-3.48,34.38,13.55,41.54c0,0-7.22-3.86-2.12-10.32,0,0,4,15.36,17.34,12.56s30.28-3.74,38.92,5.72,40.22,12,47.34,4.8,12.64-.52,25.54,6,27.22.8,27.22.8-1.2,5.58-4.28,7.24c2.62-1.1,9.88-4.56,12-9.76s3.32-10.22.78-22.36c8.94-3.5,4.82-9.42,4.82-9.42,8.44,4.74,12.44-9.26,12.44-9.26C624,671.67,623.47,668.49,623.47,668.49Z"/><path class="cls-9" d="M606.51,742.55s-56.46,25.12-74.6,26.14-79.84-31.8-79.84-31.8l47-12.84c6.4-12.2,6.56-26.56,5-43.38-.48-5.22-1.1-10.14-1.78-14.56C500.75,655.45,499,648,499,648l66.48,2.76A114.12,114.12,0,0,0,562,663.65a158.86,158.86,0,0,0-3.14,27.42c-.76,23,2.8,36,2.8,36Z"/><path class="cls-10" d="M469.07,745.53s35.6,6.24,44.44,5.22,15.78,7.68,15.78,7.68"/><path class="cls-10" d="M594.17,747.79s-36.28,4-45.06,4.2-11.38,6.44-11.38,6.44"/><path class="cls-8" d="M562,663.65a158.86,158.86,0,0,0-3.14,27.42,57.72,57.72,0,0,1-18.62,11c-11.18,3.7-26-10-36.14-21.4-.48-5.22-1.1-10.14-1.78-14.56Z"/><path class="cls-9" d="M483.53,592.05s-5.48-8.43-10.36-6.73-4.88,24.47-4.5,30.47S481,635,486,631.35"/><path class="cls-9" d="M603.89,609.79s7.66-6.48,11.86-3.44-2.4,24.88-4.48,30.46-17.34,14.82-21.08,9.9"/><path class="cls-9" d="M529.53,697.13c-20.14-3-40.14-37.14-42.56-46.76-2.68-10.7-8.58-63.49,2.92-92.41,12.94-32.5,40-46.22,66.38-42.34s48.34,24.82,51.36,59.68c2.68,31-18.2,79.85-23.86,89.33C578.69,673.15,550.79,700.25,529.53,697.13Z"/><path class="cls-8" d="M575.19,612.45c-.54,3.74-2.66,6.52-4.72,6.2s-3.26-3.56-2.72-7.3,2.66-6.5,4.72-6.2S575.75,608.71,575.19,612.45Z"/><path class="cls-8" d="M509.43,602.77c-.54,3.72.68,7,2.74,7.3s4.16-2.48,4.7-6.22-.66-7-2.72-7.3S510,599,509.43,602.77Z"/><path class="cls-11" d="M554.47,653.27S544,673.75,530.71,670.39s-13.22-22-13.22-22.54l1.88.72a79.51,79.51,0,0,0,16.28,4.2,90,90,0,0,0,16.24.64C553.51,653.35,554.47,653.27,554.47,653.27Z"/><path class="cls-10" d="M537.09,610.65c.52,12.86-10.52,15-8.4,19.5a12.25,12.25,0,0,0,7.08,5.88"/><path class="cls-4" d="M517.49,647.79s-.12,19.22,13.22,22.58,23.76-17.14,23.76-17.14"/><path class="cls-4" d="M497.53,585.78s12-15.16,30.62-10.36"/><path class="cls-4" d="M589.71,599.39s-7.14-18-26.32-18.75"/><polygon class="cls-12" points="645.97 587.28 642.25 591.4 639.37 594.59 606.03 613.95 607.39 604.61 634.69 588.75 640.59 587.99 645.97 587.28"/><path class="cls-13" d="M637.89,595.41c-4.94-.94-3.28-6.69-3.28-6.69l11.28-1.44Z"/><path class="cls-8" d="M645.89,587.28l-3.72,4.11a2.48,2.48,0,0,1-1.79-3,3,3,0,0,1,.13-.39Z"/><path class="cls-8" d="M576,543.44s-12.66,16.6-40.14,21.4c-34.42,6-53.42,35.77-52.94,48.19a105.79,105.79,0,0,1-5.9-54.79c6.84-45.68,49.46-58.74,80.44-55.56s46,34.24,46,34.24,23.26,18.12,20,41c-3.24,21.87-8.54,22.49-11.36,27.43-3.88,6.84,1.22,9.7-12.38,21,0,0,5.38-30.52-1.3-53.29S576,543.44,576,543.44Z"/><path class="cls-8" d="M584.55,535.78s-12.14,46.36-81.14,53.6c0,0,46.48-8.4,68-50.86Z"/><path class="cls-14" d="M532.19,660.33s9.48-3.38,13.14,0c0,0-6.24,10-14.26,7.56s-9.72-12-9.72-12S525.69,653.79,532.19,660.33Z"/><path class="cls-3" d="M553.21,653.43l-2.7,3.06a56.06,56.06,0,0,1-31.14-5l-.94-3.32a87.67,87.67,0,0,0,17.22,4.58A107.31,107.31,0,0,0,553.21,653.43Z"/><path class="cls-4" d="M514.51,646.59s21.68,10.1,42.64,6.28"/><path class="cls-15" d="M582.71,524.26s-14.7,19.26-50.52,22.2S486,564.24,486,564.24"/><path class="cls-15" d="M502.05,525.78c-3.32.64-8,1.82-9.48,5.2"/><path class="cls-15" d="M587.13,509.3c-21.6,16.14-49.5,18-77.84,15.72"/><path class="cls-15" d="M450.29,657a22.35,22.35,0,0,0-6.28,16.1"/><path class="cls-15" d="M476.11,566.92c-10,5.7-18.1,16.18-18.64,28-.9,20,13.4,38-1.44,55.42"/><path class="cls-15" d="M471.89,632s11.08,11.72,3.88,23.64-10.92,24,3.84,32.8"/><path class="cls-15" d="M552.79,570.46a68.29,68.29,0,0,1-7.32,4"/><path class="cls-15" d="M578.67,540.94A63.42,63.42,0,0,1,559.05,566"/><path class="cls-15" d="M587.13,542.6s15,8.14,20.74,21.64-2.36,32.51,1.4,39.07"/><path class="cls-15" d="M610.43,674.29a22.06,22.06,0,0,0,6.7,2.8"/><path class="cls-15" d="M598.57,655.61a31.42,31.42,0,0,0,6,13.4"/><path class="cls-15" d="M592.65,666.35s-1.4,15.24,8.32,25.32S607.85,708,607.85,708"/><path class="cls-15" d="M576.55,683.79s5.8,15.44-3.4,20.58"/><path class="cls-15" d="M598.57,538.36s21.88,4.42,25.08,14,0,20.6,0,20.6"/><path class="cls-6" d="M317.22,871.13c-18.56-10.3-15-47.34-2.68-93.6,6-22.72,26.84-80,26.42-82a54.21,54.21,0,0,0-4.6-11.08s6-6.12,8.52-7.22c10.82-4.62,32.18-10.44,42-6.38,3.06,1.26,7.5,8.4,6.88,11.32s-9.38,12.52-8.54,21.72-7.14,39.56-6.92,51.66c0,2.48.14,5.6.28,9,0,2.16,0,40-14.56,59.32"/><path class="cls-10" d="M377.56,583.78c.4,3.68,8.34,30,10.8,56.75a54,54,0,0,0,14-7.6c5-4.36,15.4-.88,15,2s-10,2.4-18.1,13.28-9.76,22.94-20.52,28.74-27.48,7.86-34,.12S331,628.27,333.5,624a31.68,31.68,0,0,1,8-8s2.74-8,6.9-8.62,14-.82,14-.82a11.47,11.47,0,0,1,8-2.2s-3.24-30.81-6-41.15S374.3,552.92,377.56,583.78Z"/><path class="cls-4" d="M370.54,604.35c8.5,3.84,12.26,20,12.26,21.16a149.16,149.16,0,0,1-6.12,16.88c-2.12,4.6-6.7,0-6.7,0s-1.4,6-4.62,3.38c-4.1-3.38-4.1-14.32-4.1-14.32s-.5,9.1-2.88,13.54-7.18,1.48-6.48-11.66c0,0-9.8-2.4-10.14-4.8"/><path class="cls-4" d="M361.26,631.45c-2.4-6.16-11.62-11.82-11.62-11.82"/><path class="cls-4" d="M370,642.39s4.82-14,3.52-16.88-9.5-10.82-9.5-10.82"/><path class="cls-4" d="M388.36,640.59s-9,2-13.06,13.52"/><path class="cls-4" d="M341,695.45s14.6,12,30.3,2"/><path class="cls-4" d="M353.24,731.07a37.79,37.79,0,0,1-9,3.78"/><path class="cls-4" d="M388.36,691.67a117.21,117.21,0,0,1-28,34.5"/><path class="cls-4" d="M443.35,734.61s28.5,26.76,45.18,34"/><path class="cls-4" d="M414.92,763.57a45.89,45.89,0,0,1,2.52,11"/><path class="cls-4" d="M405,740.89c2.56,4.82,4.88,9.8,7,14.86"/><path class="cls-4" d="M521.35,777.53s46.64.64,76.58-19.8"/><path class="cls-4" d="M618.79,740.05a60.39,60.39,0,0,0-10.92,9.52"/><path class="cls-4" d="M642.21,774.23A74.57,74.57,0,0,1,626,787"/><path class="cls-4" d="M652.37,761.79a75.35,75.35,0,0,1-4.92,6.6"/><path class="cls-4" d="M406.3,831.79s11.38-14.74,11.14-32.42"/><path class="cls-4" d="M648.37,857.79s-2.44-29.66,18.36-51.34"/><path class="cls-4" d="M670.89,822.79c1,1-17.76,17.36-22.22,24.68"/><path class="cls-4" d="M465.89,896.13s68.26,27.13,103.62,26.57"/><rect class="cls-16" x="530.83" y="830.02" width="12" height="18" rx="2.38"/><path class="cls-8" d="M541,850h-8.38a3.77,3.77,0,0,1-3.81-3.72V833.74a3.78,3.78,0,0,1,3.81-3.72h8.56a3.63,3.63,0,0,1,3.63,3.64V846.3A3.75,3.75,0,0,1,541,850Zm-9.11-18a1.09,1.09,0,0,0-1.08,1.08v11.82a1.1,1.1,0,0,0,1.1,1.1h7.82a1,1,0,0,0,1.08-1V833.1a1.07,1.07,0,0,0-1.06-1.08h-7.86Z"/><path class="cls-4" d="M561.69,727.15s36.24,7.46-25.7,101.58c0,0-72.16-91.4-36.88-104.68"/><path class="cls-8" d="M537.27,827.79c0,1.38-.62,2.5-1.38,2.5s-1.38-1.12-1.38-2.5.62-2.5,1.38-2.5S537.27,826.41,537.27,827.79Z"/></g><rect class="cls-17" x="419.37" y="121.44" width="211.71" height="364.32" rx="12.05" transform="translate(-59.6 142.3) rotate(-14.61)"/><path class="cls-2" d="M579.3,115.7l85.1,326.51a7.15,7.15,0,0,1-5.11,8.71l-179.21,46.7a7.16,7.16,0,0,1-8.71-5.11L386.27,166a7.16,7.16,0,0,1,5.11-8.71l36.79-9.6a6,6,0,0,1,6.41,2.35l2.68,3.81a6,6,0,0,0,6.41,2.35l80.76-21a6,6,0,0,0,4.44-5.11l.49-4.62a5.94,5.94,0,0,1,4.44-5.11l36.79-9.6A7.16,7.16,0,0,1,579.3,115.7Z"/><circle class="cls-18" cx="516.1" cy="268.77" r="75.7"/><path class="cls-6" d="M484.83,312.25A6.7,6.7,0,0,0,493,316l24.89-7.18a9.51,9.51,0,0,0,.31,1.59A10.31,10.31,0,1,0,538,304.69h0a11.34,11.34,0,0,0-.58-1.5L562.24,296a6.71,6.71,0,0,0,4.88-7.66,6.47,6.47,0,0,0-7.5-5.27,6.25,6.25,0,0,0-.72.17L556.81,282a20.92,20.92,0,0,1-9.35-12.13l-4.72-16.37a29,29,0,0,0-32.07-20.68A7.89,7.89,0,1,0,503,235a29,29,0,0,0-16.24,34.78l4.77,16.54A20.8,20.8,0,0,1,489,303.59h0a6.52,6.52,0,0,0-4.35,8.12C484.7,311.89,484.76,312.07,484.83,312.25Zm24.54-85.94a4.76,4.76,0,1,1,0-.06l0,.06Z"/><line class="cls-19" x1="532.86" y1="303.59" x2="521.88" y2="306.79"/><line class="cls-19" x1="549.09" y1="286.03" x2="498.77" y2="300.58"/><path class="cls-8" d="M601.67,387.72,499.54,414.33A23,23,0,0,1,471.46,398v0h0a23,23,0,0,1,16.37-28.08h.05L590,343.25a23,23,0,0,1,28,16.39h0A23,23,0,0,1,601.67,387.72Z"/></svg>