<svg id="Capa_1" data-name="Capa 1" xmlns="http://www.w3.org/2000/svg" xmlns:xlink="http://www.w3.org/1999/xlink" viewBox="0 0 1000 1000"><defs><style>.cls-1,.cls-19,.cls-4,.cls-6{fill:none;}.cls-2{fill:#d3d3d3;}.cls-3{fill:#9ec10c;}.cls-11,.cls-12,.cls-19,.cls-4,.cls-5{stroke:#263238;stroke-linecap:round;stroke-linejoin:round;}.cls-11,.cls-4,.cls-5,.cls-6{stroke-width:1.74px;}.cls-18,.cls-5{fill:#263238;}.cls-6{stroke:#616161;stroke-miterlimit:10;}.cls-7{fill:#e2b647;}.cls-8{clip-path:url(#clip-path);}.cls-14,.cls-9{opacity:0.2;}.cls-10{fill:#c19948;}.cls-11{fill:#fff;}.cls-12,.cls-16{fill:#cc9369;}.cls-12{stroke-width:2px;}.cls-13{clip-path:url(#clip-path-2);}.cls-14{isolation:isolate;}.cls-15{fill:#c4550a;}.cls-17{clip-path:url(#clip-path-3);}.cls-19{stroke-width:3.48px;}.cls-20{clip-path:url(#clip-path-4);}.cls-21{clip-path:url(#clip-path-5);}.cls-22{fill:#d8ae3a;}</style><clipPath id="clip-path"><path class="cls-1" d="M599.36,828.5s3.12-42.75-15.68-85.53-23-45.86-23-58.38,12.57-27.13,14.66-55.3,1-41.8,1-41.8,44.85,70.92,76.14,75.1,50.08-25,38.6-64.66-61.55-72-81.35-98.06-64.69-26.12-87.63-26.12-34.41-8.35-38.59-24-4.16-47-4.16-47-27.14,16.68-73-2.09c0,0,4.18,57.37-1.05,65.71s-12.47,16.84-43.77,16.84-57.37,6.27-72,20.9-75.1,73-90.74,96-7.32,48,11.46,57.37,37.55,1,51.12-11.48,56.32-52.16,56.32-52.16,0,24,11.48,58.41,20.9,30.26,12.5,55.28-25,32.35-30.23,64.67a307.16,307.16,0,0,0-4.18,56.33"/></clipPath><clipPath id="clip-path-2"><path class="cls-1" d="M434.55,553.15c52,10,72.12-39.85,79.1-79.72-17.33-1.91-26.45-10-30.08-23.55-4.16-15.67-4.16-47-4.16-47s-27.13,16.68-73-2.09c0,0,4.18,57.37-1,65.71-3.63,5.82-8.29,11.64-21.36,14.61C383.51,499,387.12,544,434.55,553.15Z"/></clipPath><clipPath id="clip-path-3"><path class="cls-1" d="M378.46,346.06s1.75,46.66,36.09,69.55,59.86,9.68,73.95-9.69,22.9-38.73,22.9-66.89,3.49-40.51-6.16-58.12-43.14-26.4-43.14-26.4a529.3,529.3,0,0,1-44.9,49.3C390.78,329.33,378.46,346.06,378.46,346.06Z"/></clipPath><clipPath id="clip-path-4"><path class="cls-1" d="M198.83,600.08s-18.78,20.9-18.78,42.76,12.51,41.8,47,73,66.74,54.24,80.31,61.55,27.11-2.09,27.11-2.09,22.44,22.42,25,17.21-7.82-13-9.91-16.16a42.73,42.73,0,0,0-6.25-6.78s10.95,1.55,15.13,5.23,10.94,9.91,14.08,9.39,3.13-3.14-1.57-9.39a55.66,55.66,0,0,0-13.55-12.52c-3.14-2.08-13.57-7.82-13.57-7.82s15.12-1.05,20.34,2.09,19.3,12.52,20.35,8.34,1-6.78-4.18-11.48S364.72,743,358.5,741.94A64.33,64.33,0,0,1,346,738.3s12-4.18,16.16-4.18,20.9,8.35,25.55,7.32,2.09-5.23-1.55-7.84-19.82-8.86-26.61-9.39S314.68,736.74,310,736.74s-16.69-16.69-29.21-39.12-17.21-57.37-43.8-69.36"/></clipPath><clipPath id="clip-path-5"><path class="cls-1" d="M612.49,619.66c-4.35-9.94-.63-31.71,3.73-62.8s8.71-62.81,8.71-79.6,2.76-40.05-2.7-47.56-25.38-27.87-26.86-37.31,11.93-23.88,11.93-23.88,4-7.47,7.47-3.48,2,9,0,15.92-4,12.43-4,12.43,17.42,5.47,21.9,2.5,4.07-20,3.76-28.36c-.65-16.27-7.16-9.32-11.67-1.62-2.18,3.69-14.93,1.5-7.47-8s14.38-17.8,21.35-10.33,11.93,21.9,11.93,21.9,5-23.71,9.51-37.64,12.64-19.45,15.57-18.48,2.6,5.84-.33,12.65-9.41,25.6-11,31.76-1.93,13.29,1.31,12.65,14.58-20.43,17.84-28.86,8.09-16.2,13.6-19.77,10.05,1,7.78,6.81a294.85,294.85,0,0,1-15.29,30.79,133.37,133.37,0,0,0-9.07,20.1,226.32,226.32,0,0,1,16.86-16.21c7.78-6.48,16.21-7.77,18.79-5.51s.33,2.6-6.15,7.79-16.16,11.37-23.91,24a119.48,119.48,0,0,0-13.94,29.82,100.69,100.69,0,0,1-9.4,19.78s6.08,49.36,16.62,76.51,29.17,66.87,23.49,95.24-16.62,43-32,47.41a29.79,29.79,0,0,1-26.34-4.86"/></clipPath></defs><g id="freepik--background-simple--inject-2"><path class="cls-2" d="M851.52,257.33S800.92,156,689.18,141s-189.85,58.16-272,95.69c-43.05,19.64-92.3,12-138,21.52-146.22,30.41-201.29,221-140.4,329.3,52.72,93.81,145.48,142.57,286.77,153.84s240.34,24.38,366.88-67.54S910.52,390.53,851.52,257.33Z"/></g><g id="freepik--Plants--inject-2"><path class="cls-3" d="M828.49,704c6-34.64,63.26-100.91,46.69-141.58s-57.24,88.83-72.31,90.38-1.5-58.75,19.59-116,37.66-117.49,0-140.08-36.15,156.64-45.19,150.62,6-81.34-4.51-128-34.64-9-34.64,45.28,16.56,84.35,4.51,88.82-49-12.36-48.19,46.7,46.69,129.54,30.11,120.5-46.7-43.68-40.67,12.06c4.27,39.39,34.83,77.26,52.42,96.08h80.54c12.28-12.62,36.14-39.24,52.25-70.48C891.75,714.5,822.46,738.61,828.49,704Z"/><path class="cls-4" d="M730.57,825c-14.9-21.37-21.87-47.5-28.84-71.88-3.48-15.68-3.48-33.09,8.71-43.54,12.19-8.71,19.16,7,26.13,13.93,5.22-3.48,1.74-8.71,1.74-12.19a673.3,673.3,0,0,1-5.23-83.6c0-17.42,7-31.35,13.94-47,3.48-5.23,7-10.45,12.19-12.2s10.45,0,12.19,5.23c3.48,12.19,3.48,24.38,5.22,36.57,3.49-3.48,1.75-8.7,1.75-12.19,7-50.51,1.74-99.27,17.41-148,1.74-3.48,7-7,10.45-5.22,12.19,1.74,12.19,17.41,12.19,27.86,7,50.51-8.7,99.28-13.93,149.78,0,3.49-1.74,7,1.74,10.45,1.74-12.19,8.71-24.38,12.19-36.57,1.75-5.22,5.23-12.19,10.45-15.67,3.49-1.75,7,0,10.45,3.48,7,10.45,8.71,20.9,7,33.09-5.22,29.61-15.67,54-27.87,80.12L813.2,713.1c-1.74,10.45-8.71,22.64-1.74,31.35,12.19-1.74,15.67-15.67,26.12-22.64s13.94,1.74,15.68,8.71c7,34.83-5.23,66.18-22.78,94.45"/><path class="cls-4" d="M779.36,818.38S775.3,737,785.47,662.75"/><polyline class="cls-4" points="745.8 766.5 779.36 803.13 808.86 777.68"/><polyline class="cls-4" points="770.2 674.96 779.36 721.74 805.81 674.96"/><line class="cls-4" x1="786.48" y1="650.54" x2="792.58" y2="606.81"/></g><g id="freepik--Window--inject-2"><rect class="cls-4" x="194.72" y="293.16" width="109.72" height="137.59"/><rect class="cls-4" x="332.31" y="293.16" width="109.72" height="137.59"/><rect class="cls-4" x="194.72" y="453.39" width="109.72" height="137.59"/><rect class="cls-4" x="332.31" y="453.39" width="109.72" height="137.59"/><rect class="cls-4" x="194.72" y="613.63" width="109.72" height="137.59"/><rect class="cls-4" x="332.31" y="613.63" width="109.72" height="137.59"/><path class="cls-4" d="M319.33,151.84h0A122.17,122.17,0,0,0,197.17,274H441.49A122.16,122.16,0,0,0,319.33,151.84Z"/></g><g id="freepik--Character--inject-2"><path class="cls-5" d="M477.32,217.29s0-26.13-44.85-20.9-63.64,44.84-77.19,53.19-38.59,15.67-39.64,28.16,10.45,17.73-1,27.12-29.12,17.78-25,30.3,15.67,25,10.45,33.39-19.82,16.68-6.27,26.12,19.82,11.48,19.82,24-5.23,20.9,7.31,25,19.81-4.18,27.12,11.46,14.6,19.82,27.12,16.69,30.23-8.35,36.57-4.17,26.13,15.68,34.42,9.39,15.67-15.67,28.16-10.45,23,12.52,28.16,3.14,0-11.48,19.82-15.68,27.12-3.12,27.12-19.8-1-20.9,8.35-28.16,17.73-4.18,14.61-21.91-9.39-21.91-6.27-39.64-5.23-24-11.48-29.21-13.55-14.6-11.46-24,17.73-10.45,2.07-27.12-22.94-11.48-26.12-24S505.48,200.6,477.32,217.29Z"/><path class="cls-6" d="M437.28,248.69c-6.43,10.17-11.39,21.65-21.74,31.35-14.94,13.93-53.22,26.12-55.09,39.22s4.67,20.53-8.39,31.73-33.61,13.94-33.61,25.22,5.59,15,2.8,23.34"/><path class="cls-6" d="M465,236.15s-4.67-12.19-17.75,0c-1,.94-2,1.91-2.87,2.91"/><path class="cls-6" d="M359.57,289.51c-11.5,2.79-20.57,4.79-21.51,12.94-1.88,15.87.92,26.13-10.28,30.81s-26.12,12.19-21.47,21.48,5.59,12.19,4.66,15.86"/><path class="cls-6" d="M463.13,221.2s-26.13-16.78-40.06-1.86S415.6,253,394.12,273.51A54.4,54.4,0,0,1,375.21,285"/><path class="cls-6" d="M554,353.62a16.9,16.9,0,0,0,6.29,5.79"/><path class="cls-6" d="M481.85,244.6s23.34-7.48,28.93,5.59,8.41,36.41,18.69,40.16,14.92,9.33,14.92,29.87a65.87,65.87,0,0,0,2.93,19.52"/><path class="cls-6" d="M330.59,410.75c7.47-12.19,17.73-7.46,18.67-20.53s-6.54-16.81.92-25.21,19.61-12.19,19.61-12.19"/><path class="cls-6" d="M340.84,436.91a44.22,44.22,0,0,1-8.88-10"/><path class="cls-7" d="M599.36,828.5s3.12-42.75-15.68-85.53-23-45.86-23-58.38,12.57-27.13,14.66-55.3,1-41.8,1-41.8,44.85,70.92,76.14,75.1,50.08-25,38.6-64.66-61.55-72-81.35-98.06-64.69-26.12-87.63-26.12-34.41-8.35-38.59-24-4.16-47-4.16-47-27.14,16.68-73-2.09c0,0,4.18,57.37-1.05,65.71s-12.47,16.84-43.77,16.84-57.37,6.27-72,20.9-75.1,73-90.74,96-7.32,48,11.46,57.37,37.55,1,51.12-11.48,56.32-52.16,56.32-52.16,0,24,11.48,58.41,20.9,30.26,12.5,55.28-25,32.35-30.23,64.67a307.16,307.16,0,0,0-4.18,56.33"/><g class="cls-8"><g class="cls-9"><path d="M530.91,506.45c-.71,0-3.33,1.75,0,6.81C534.24,508.23,531.63,506.45,530.91,506.45Z"/><path d="M614.51,506.45c-.71,0-3.33,1.75,0,6.81C617.84,508.23,615.22,506.45,614.51,506.45Z"/><path d="M614.51,548.25c-.71,0-3.33,1.74,0,6.81C617.84,550,615.22,548.25,614.51,548.25Z"/><path d="M530.91,548.25c-.71,0-3.33,1.74,0,6.81C534.24,550,531.63,548.25,530.91,548.25Z"/><path d="M572.71,527.35c-.71,0-3.33,1.74,0,6.81C576,529.13,573.42,527.35,572.71,527.35Z"/><path d="M572.71,485.55c-.71,0-3.33,1.75,0,6.81C576,487.33,573.42,485.55,572.71,485.55Z"/><path d="M532.79,514.31c6,.33,6.24-2.82,5.89-3.49S535.39,508.89,532.79,514.31Z"/><path d="M621.49,513.11l-2.31-2.39a8.32,8.32,0,0,0-2.86,3.59A7,7,0,0,0,621.49,513.11Z"/><path d="M574.59,535.21c6,.33,6.24-2.82,5.89-3.49S577.19,529.79,574.59,535.21Z"/><path d="M574.59,493.41c6,.33,6.24-2.82,5.89-3.48S577.19,488,574.59,493.41Z"/><path d="M606.81,510.88c-.35.61-.12,3.76,5.89,3.48C610,508.89,607.18,510.25,606.81,510.88Z"/><path d="M606.81,552.68a2.16,2.16,0,0,0,.91,2.38h0a7.27,7.27,0,0,0,5,1.05,10.57,10.57,0,0,0-.56-1.05C609.65,550.88,607.16,552.08,606.81,552.68Z"/><path d="M565,531.78c-.35.61-.12,3.76,5.89,3.48C568.23,529.79,565.38,531.15,565,531.78Z"/><path d="M565,490c-.35.61-.12,3.76,5.89,3.48C568.23,488,565.38,489.35,565,490Z"/><path d="M530.91,631.85c-.71,0-3.33,1.74,0,6.81C534.24,633.63,531.63,631.85,530.91,631.85Z"/><path d="M614.51,631.85c-.52,0-2,.94-1.55,3.36.73.79,1.46,1.57,2.21,2.34C617.44,633.37,615.17,631.85,614.51,631.85Z"/><path d="M530.91,673.65c-.71,0-3.33,1.74,0,6.81C534.24,675.43,531.63,673.65,530.91,673.65Z"/><path d="M656.31,652.75c-.71,0-3.33,1.74,0,6.81C659.64,654.53,657,652.75,656.31,652.75Z"/><path d="M530.91,590.05c-.71,0-3.33,1.74,0,6.81C534.24,591.83,531.63,590.05,530.91,590.05Z"/><path d="M614.51,590.05c-.71,0-3.33,1.74,0,6.81C617.84,591.83,615.22,590.05,614.51,590.05Z"/><path d="M572.71,611c-.71,0-3.33,1.74,0,6.81C576,612.73,573.42,611,572.71,611Z"/><path d="M656.31,611c-.71,0-3.33,1.74,0,6.81C659.64,612.73,657,611,656.31,611Z"/><path d="M572.71,569.15c-.71,0-3.33,1.74,0,6.81C576,570.93,573.42,569.15,572.71,569.15Z"/><path d="M656.31,569.15c-.71,0-3.33,1.74,0,6.81C659.64,570.93,657,569.15,656.31,569.15Z"/><path d="M532.79,639.71c6,.33,6.24-2.82,5.89-3.49S535.39,634.29,532.79,639.71Z"/><path d="M616.65,639.08l.63.65c5.07,0,5.22-2.88,4.93-3.49S619.21,634.41,616.65,639.08Z"/><path d="M537.29,677.2a3.1,3.1,0,0,0-2.09.73,6.72,6.72,0,0,0-1,.94,10.4,10.4,0,0,0-.94,1.34v.11a10.11,10.11,0,0,0-.49.94,7.27,7.27,0,0,0,5-1h0a2.59,2.59,0,0,0,.35-.31,2.74,2.74,0,0,0,.44-.63,1.27,1.27,0,0,0-.15-1.79,1.26,1.26,0,0,0-1-.28Z"/><path d="M658.19,660.61c6,.33,6.24-2.82,5.89-3.49S660.79,655.19,658.19,660.61Z"/><path d="M532.79,597.91c6,.33,6.24-2.82,5.89-3.49S535.39,592.49,532.79,597.91Z"/><path d="M622.21,594.48c-.37-.63-3.22-2-5.89,3.48C622.33,598.24,622.56,595.09,622.21,594.48Z"/><path d="M574.59,618.81c.51,0,1,0,1.52,0,0-.87.08-1.74.12-2.55A11.21,11.21,0,0,0,574.59,618.81Z"/><path d="M658.19,618.81c6,.33,6.24-2.82,5.89-3.49S660.79,613.39,658.19,618.81Z"/><path d="M574.59,577c6,.33,6.24-2.82,5.89-3.49S577.19,571.59,574.59,577Z"/><path d="M658.19,577c6,.33,6.24-2.82,5.89-3.49S660.79,571.59,658.19,577Z"/><path d="M568.13,660.47l1-2.6c-2-2.09-3.8-1.18-4.08-.69S564.82,659.86,568.13,660.47Z"/><path d="M690.41,636.28a2.24,2.24,0,0,0,1.17,2.57c.36-1,.68-2.05,1-3.11A2,2,0,0,0,690.41,636.28Z"/><path d="M648.61,657.18c-.36.61-.12,3.76,5.89,3.48C651.83,655.19,649,656.55,648.61,657.18Z"/><path d="M606.81,594.48c-.35.61-.12,3.76,5.89,3.48C610,592.49,607.18,593.85,606.81,594.48Z"/><path d="M565,615.38c-.35.61-.12,3.76,5.89,3.48C568.23,613.39,565.38,614.75,565,615.38Z"/><path d="M648.61,615.38c-.36.61-.12,3.76,5.89,3.48C651.83,613.39,649,614.75,648.61,615.38Z"/><path d="M565,573.58c-.35.61-.12,3.76,5.89,3.48C568.23,571.59,565.38,573,565,573.58Z"/><path d="M648.61,573.58c-.36.61-.12,3.76,5.89,3.48C651.83,571.59,649,573,648.61,573.58Z"/><path d="M621.3,555.06h0a2.16,2.16,0,0,0,.91-2.38c-.35-.6-2.84-1.74-5.33,2.38h0a10.57,10.57,0,0,0-.56,1.05A7.27,7.27,0,0,0,621.3,555.06Z"/><path d="M537.7,555.06h0a2.16,2.16,0,0,0,.91-2.38c-.35-.6-2.84-1.74-5.33,2.38h0a10.57,10.57,0,0,0-.56,1.05A7.27,7.27,0,0,0,537.7,555.06Z"/><path d="M530.91,757.25c-.71,0-3.33,1.74,0,6.81C534.24,759,531.63,757.25,530.91,757.25Z"/><path d="M530.91,799.05c-.71,0-3.33,1.74,0,6.81C534.24,800.83,531.63,799.05,530.91,799.05Z"/><path d="M572.71,778.15c-.71,0-3.33,1.74,0,6.81C576,779.93,573.42,778.15,572.71,778.15Z"/><path d="M530.91,715.45c-.71,0-3.33,1.74,0,6.81C534.24,717.23,531.63,715.45,530.91,715.45Z"/><path d="M572.71,736.35c-.71,0-3.33,1.74,0,6.81C576,738.13,573.42,736.35,572.71,736.35Z"/><path d="M532.79,765.11c6,.33,6.24-2.82,5.89-3.49S535.39,759.69,532.79,765.11Z"/><path d="M537.29,802.6h-.37a2.87,2.87,0,0,0-1.27.4l-.45.31a8.07,8.07,0,0,0-1.92,2.28h0a10.57,10.57,0,0,0-.56,1,7.27,7.27,0,0,0,5-1h0a2.16,2.16,0,0,0,.91-2.38A1.74,1.74,0,0,0,537.29,802.6Z"/><path d="M574.59,786c6,.33,6.24-2.82,5.89-3.49S577.19,780.59,574.59,786Z"/><path d="M532.79,723.31c6,.33,6.24-2.82,5.89-3.49S535.39,717.89,532.79,723.31Z"/><path d="M574.59,744.21c6,.33,6.24-2.82,5.89-3.49S577.19,738.79,574.59,744.21Z"/><path d="M565,782.58c-.35.61-.12,3.76,5.89,3.48C568.23,780.59,565.38,782,565,782.58Z"/><path d="M565,740.78c-.35.61-.12,3.76,5.89,3.48C568.23,738.79,565.38,740.15,565,740.78Z"/><path d="M572.71,820c-.71,0-3.33,1.74,0,6.81C576,821.73,573.42,820,572.71,820Z"/><path d="M574.59,827.81c6,.33,6.24-2.82,5.89-3.49S577.19,822.39,574.59,827.81Z"/><path d="M565,824.38c-.35.61-.12,3.76,5.89,3.48C568.23,822.39,565.38,823.75,565,824.38Z"/><path d="M447.31,422.85c-.71,0-3.33,1.75,0,6.81C450.64,424.63,448,422.85,447.31,422.85Z"/><path d="M406.5,402.53c0,.94.14,2.25.25,3.88A3.64,3.64,0,0,0,406.5,402.53Z"/><path d="M453.88,426.65a3.16,3.16,0,0,0-2.09.73,6.72,6.72,0,0,0-1,.94,10.4,10.4,0,0,0-.94,1.34v.11c-.16.28-.33.59-.49.94a7.27,7.27,0,0,0,5-1h0a2.59,2.59,0,0,0,.35-.31,2.74,2.74,0,0,0,.44-.63,1.29,1.29,0,0,0-1.27-2.07Z"/><path d="M407.39,409.81c6,.33,6.24-2.82,5.89-3.48S410,404.39,407.39,409.81Z"/><path d="M365.31,508.39a2.27,2.27,0,0,0-.22-.77h0a1.92,1.92,0,0,0-.18-.31h0a2,2,0,0,0-.4-.46h0a1.75,1.75,0,0,0-.42-.26h0a.76.76,0,0,0-.69,0c-.8.35-2.11,1.74-.65,5a14.38,14.38,0,0,0,1,1.75,14.32,14.32,0,0,0,1-1.75,6.13,6.13,0,0,0,.66-2.63,3.84,3.84,0,0,0,0-.48Z"/><path d="M447.31,506.45c-.71,0-3.33,1.75,0,6.81C450.64,508.23,448,506.45,447.31,506.45Z"/><path d="M447.31,548.25c-.71,0-3.33,1.74,0,6.81C450.64,550,448,548.25,447.31,548.25Z"/><path d="M365.31,550.19a2.27,2.27,0,0,0-.22-.77h0a1.92,1.92,0,0,0-.18-.31h0a2,2,0,0,0-.4-.46h0a1.75,1.75,0,0,0-.42-.26h0a.76.76,0,0,0-.69,0c-.8.35-2.11,1.74-.65,5a14.38,14.38,0,0,0,1,1.75,14.32,14.32,0,0,0,1-1.75,6.13,6.13,0,0,0,.66-2.63,3.84,3.84,0,0,0,0-.48Z"/><path d="M405.51,527.35c-.71,0-3.33,1.74,0,6.81C408.84,529.13,406.23,527.35,405.51,527.35Z"/><path d="M489.11,527.35c-.71,0-3.33,1.74,0,6.81C492.44,529.13,489.83,527.35,489.11,527.35Z"/><path d="M447.31,464.65c-.71,0-3.33,1.75,0,6.81C450.64,466.43,448,464.65,447.31,464.65Z"/><path d="M405.51,485.55c-.71,0-3.33,1.75,0,6.81C408.84,487.33,406.23,485.55,405.51,485.55Z"/><path d="M489.11,485.55c-.71,0-3.33,1.75,0,6.81C492.44,487.33,489.83,485.55,489.11,485.55Z"/><path d="M365.59,514.31c6,.33,6.24-2.82,5.89-3.49S368.19,508.89,365.59,514.31Z"/><path d="M449.19,514.31c6,.33,6.24-2.82,5.89-3.49S451.79,508.89,449.19,514.31Z"/><path d="M407.39,535.21c6,.33,6.24-2.82,5.89-3.49S410,529.79,407.39,535.21Z"/><path d="M491,535.21c6,.33,6.24-2.82,5.89-3.49S493.59,529.79,491,535.21Z"/><path d="M449.19,472.51c6,.33,6.24-2.82,5.89-3.48S451.79,467.09,449.19,472.51Z"/><path d="M407.39,493.41c6,.33,6.24-2.82,5.89-3.48S410,488,407.39,493.41Z"/><path d="M491,493.41c6,.33,6.24-2.82,5.89-3.48S493.59,488,491,493.41Z"/><path d="M413.49,448.18c-.35-.59-2.89-1.74-5.42,2.52v.91C413.61,451.85,413.84,448.77,413.49,448.18Z"/><path d="M439.61,510.88c-.35.61-.12,3.76,5.89,3.48C442.84,508.89,440,510.25,439.61,510.88Z"/><path d="M439.61,552.68a2.16,2.16,0,0,0,.91,2.38h0a7.27,7.27,0,0,0,5,1.05,8.83,8.83,0,0,0-.56-1.05C442.45,550.88,440,552.08,439.61,552.68Z"/><path d="M397.81,531.78c-.34.61-.12,3.76,5.89,3.48C401,529.79,398.18,531.15,397.81,531.78Z"/><path d="M523.21,510.88c-.36.61-.12,3.76,5.89,3.48C526.43,508.89,523.58,510.25,523.21,510.88Z"/><path d="M528.54,555.06c-2.49-4.18-5-3-5.33-2.38a2.16,2.16,0,0,0,.91,2.38h0a7.27,7.27,0,0,0,5,1.05,8.83,8.83,0,0,0-.56-1.05Z"/><path d="M481.41,531.78c-.36.61-.12,3.76,5.89,3.48C484.64,529.79,481.78,531.15,481.41,531.78Z"/><path d="M439.61,469.08c-.35.61-.12,3.76,5.89,3.48C442.84,467.09,440,468.45,439.61,469.08Z"/><path d="M397.81,490c-.34.61-.12,3.76,5.89,3.48C401,488,398.18,489.35,397.81,490Z"/><path d="M481.41,490c-.36.61-.12,3.76,5.89,3.48C484.64,488,481.78,489.35,481.41,490Z"/><path d="M484,451.35c-.16-.49-.32-1-.46-1.47s-.38-1.51-.55-2.33a1.85,1.85,0,0,0-1.61.63C481.13,448.65,481.22,450.63,484,451.35Z"/><path d="M444.94,429.66a9.5,9.5,0,0,0-.94-1.34,6.16,6.16,0,0,0-1-.94,3.19,3.19,0,0,0-2.09-.73,1.71,1.71,0,0,0-1.33.63,1.73,1.73,0,0,0,.13,1.44,2.7,2.7,0,0,0,.43.63l.35.31h0a7.27,7.27,0,0,0,5,1c-.16-.35-.33-.66-.49-.94Z"/><path d="M365.31,633.79a2.27,2.27,0,0,0-.22-.77h0a1.92,1.92,0,0,0-.18-.31h0a2,2,0,0,0-.4-.46h0a1.75,1.75,0,0,0-.42-.26h0a.76.76,0,0,0-.69,0c-.8.35-2.11,1.74-.65,5a13.54,13.54,0,0,0,1,1.74,13.48,13.48,0,0,0,1-1.74,6.13,6.13,0,0,0,.66-2.63,3.84,3.84,0,0,0,0-.48Z"/><path d="M447.31,631.85c-.71,0-3.33,1.74,0,6.81C450.64,633.63,448,631.85,447.31,631.85Z"/><path d="M447.31,673.65c-.71,0-3.33,1.74,0,6.81C450.64,675.43,448,673.65,447.31,673.65Z"/><path d="M365.31,675.59a2.27,2.27,0,0,0-.22-.77h0a1.92,1.92,0,0,0-.18-.31h0a2,2,0,0,0-.4-.46h0a1.75,1.75,0,0,0-.42-.26h0a.71.71,0,0,0-.69,0c-.8.35-2.11,1.74-.65,5a13.54,13.54,0,0,0,1,1.74,13.48,13.48,0,0,0,1-1.74,6.13,6.13,0,0,0,.66-2.63,3.84,3.84,0,0,0,0-.48Z"/><path d="M405.51,652.75c-.71,0-3.33,1.74,0,6.81C408.84,654.53,406.23,652.75,405.51,652.75Z"/><path d="M489.11,652.75c-.71,0-3.33,1.74,0,6.81C492.44,654.53,489.83,652.75,489.11,652.75Z"/><path d="M365.31,592a2.27,2.27,0,0,0-.22-.77h0a1.92,1.92,0,0,0-.18-.31h0a2,2,0,0,0-.4-.46h0a1.75,1.75,0,0,0-.42-.26h0a.76.76,0,0,0-.69,0c-.8.35-2.11,1.74-.65,5a14.38,14.38,0,0,0,1,1.75,14.32,14.32,0,0,0,1-1.75,6.13,6.13,0,0,0,.66-2.63,3.84,3.84,0,0,0,0-.48Z"/><path d="M447.31,590.05c-.71,0-3.33,1.74,0,6.81C450.64,591.83,448,590.05,447.31,590.05Z"/><path d="M405.51,611c-.71,0-3.33,1.74,0,6.81C408.84,612.73,406.23,611,405.51,611Z"/><path d="M489.11,611c-.71,0-3.33,1.74,0,6.81C492.44,612.73,489.83,611,489.11,611Z"/><path d="M405.51,569.15c-.71,0-3.33,1.74,0,6.81C408.84,570.93,406.23,569.15,405.51,569.15Z"/><path d="M489.11,569.15c-.71,0-3.33,1.74,0,6.81C492.44,570.93,489.83,569.15,489.11,569.15Z"/><path d="M365.59,639.71c6,.33,6.24-2.82,5.89-3.49S368.19,634.29,365.59,639.71Z"/><path d="M449.19,639.71c6,.33,6.24-2.82,5.89-3.49S451.79,634.29,449.19,639.71Z"/><path d="M453.88,677.45a3.1,3.1,0,0,0-2.09.73,6.72,6.72,0,0,0-1,.94,10.4,10.4,0,0,0-.94,1.34v.11c-.16.28-.33.59-.49.94a7.27,7.27,0,0,0,5-1h0a2.59,2.59,0,0,0,.35-.31,2.74,2.74,0,0,0,.44-.63,1.73,1.73,0,0,0,.12-1.44A1.71,1.71,0,0,0,453.88,677.45Z"/><path d="M370.28,677.2a3.1,3.1,0,0,0-2.09.73,7.26,7.26,0,0,0-1,.94,10.4,10.4,0,0,0-.94,1.34v.11a10.11,10.11,0,0,0-.49.94,7.26,7.26,0,0,0,5-1h0a2.59,2.59,0,0,0,.35-.31,2.74,2.74,0,0,0,.44-.63,1.27,1.27,0,0,0-.15-1.79,1.26,1.26,0,0,0-1-.28Z"/><path d="M407.39,660.61c6,.33,6.24-2.82,5.89-3.49S410,655.19,407.39,660.61Z"/><path d="M491,660.61c6,.33,6.24-2.82,5.89-3.49S493.59,655.19,491,660.61Z"/><path d="M365.59,597.91c6,.33,6.24-2.82,5.89-3.49S368.19,592.49,365.59,597.91Z"/><path d="M449.19,597.91c6,.33,6.24-2.82,5.89-3.49S451.79,592.49,449.19,597.91Z"/><path d="M407.39,618.81c6,.33,6.24-2.82,5.89-3.49S410,613.39,407.39,618.81Z"/><path d="M491,618.81c6,.33,6.24-2.82,5.89-3.49S493.59,613.39,491,618.81Z"/><path d="M407.39,577c6,.33,6.24-2.82,5.89-3.49S410,571.59,407.39,577Z"/><path d="M491,577c6,.33,6.24-2.82,5.89-3.49S493.59,571.59,491,577Z"/><path d="M439.61,636.28c-.35.61-.12,3.76,5.89,3.48C442.84,634.29,440,635.65,439.61,636.28Z"/><path d="M397.81,657.18c-.34.61-.12,3.76,5.89,3.48C401,655.19,398.18,656.55,397.81,657.18Z"/><path d="M523.21,636.28c-.36.61-.12,3.76,5.89,3.48C526.43,634.29,523.58,635.65,523.21,636.28Z"/><path d="M481.41,657.18c-.36.61-.12,3.76,5.89,3.48C484.64,655.19,481.78,656.55,481.41,657.18Z"/><path class="cls-10" d="M373.59,685.69s45.28,11.61,102.16-32.5,79-26.72,76.64,4.63-51.09,60.38-72,63.87C446,727.42,415.39,736.79,373.59,685.69Z"/><path d="M439.61,594.48c-.35.61-.12,3.76,5.89,3.48C442.84,592.49,440,593.85,439.61,594.48Z"/><path d="M397.81,615.38c-.34.61-.12,3.76,5.89,3.48C401,613.39,398.18,614.75,397.81,615.38Z"/><path d="M523.21,594.48c-.36.61-.12,3.76,5.89,3.48C526.43,592.49,523.58,593.85,523.21,594.48Z"/><path d="M481.41,615.38c-.36.61-.12,3.76,5.89,3.48C484.64,613.39,481.78,614.75,481.41,615.38Z"/><path d="M397.81,573.58c-.34.61-.12,3.76,5.89,3.48C401,571.59,398.18,573,397.81,573.58Z"/><path d="M481.41,573.58c-.36.61-.12,3.76,5.89,3.48C484.64,571.59,481.78,573,481.41,573.58Z"/><path d="M454.1,555.06h0a2.16,2.16,0,0,0,.91-2.38c-.35-.6-2.84-1.74-5.33,2.38h0a10.57,10.57,0,0,0-.56,1.05A7.27,7.27,0,0,0,454.1,555.06Z"/><path d="M370.5,555.06h0a2.16,2.16,0,0,0,.91-2.38c-.35-.6-2.84-1.74-5.33,2.38h0a10.57,10.57,0,0,0-.56,1.05A7.26,7.26,0,0,0,370.5,555.06Z"/><path d="M365.31,759.19a2.27,2.27,0,0,0-.22-.77h0a1.92,1.92,0,0,0-.18-.31h0a2,2,0,0,0-.4-.46h0a1.49,1.49,0,0,0-.42-.26h0a.71.71,0,0,0-.69,0c-.8.35-2.11,1.74-.65,5a13.54,13.54,0,0,0,1,1.74,13.48,13.48,0,0,0,1-1.74,6.13,6.13,0,0,0,.66-2.63,3.84,3.84,0,0,0,0-.48Z"/><path d="M447.31,757.25c-.71,0-3.33,1.74,0,6.81C450.64,759,448,757.25,447.31,757.25Z"/><path d="M447.31,799.05c-.71,0-3.33,1.74,0,6.81C450.64,800.83,448,799.05,447.31,799.05Z"/><path d="M365.31,801a2.27,2.27,0,0,0-.22-.77h0a1.92,1.92,0,0,0-.18-.31h0a2,2,0,0,0-.4-.46h0a1.49,1.49,0,0,0-.42-.26h0a.71.71,0,0,0-.69,0c-.8.35-2.11,1.74-.65,5a13.54,13.54,0,0,0,1,1.74,13.48,13.48,0,0,0,1-1.74,6.13,6.13,0,0,0,.66-2.63,4,4,0,0,0,0-.49Z"/><path d="M405.51,778.15c-.71,0-3.33,1.74,0,6.81C408.84,779.93,406.23,778.15,405.51,778.15Z"/><path d="M489.11,778.15c-.71,0-3.33,1.74,0,6.81C492.44,779.93,489.83,778.15,489.11,778.15Z"/><path d="M365.31,717.39a2.27,2.27,0,0,0-.22-.77h0a1.92,1.92,0,0,0-.18-.31h0a2,2,0,0,0-.4-.46h0a1.75,1.75,0,0,0-.42-.26h0a.71.71,0,0,0-.69,0c-.8.35-2.11,1.74-.65,5a13.54,13.54,0,0,0,1,1.74,13.48,13.48,0,0,0,1-1.74,6.13,6.13,0,0,0,.66-2.63,3.84,3.84,0,0,0,0-.48Z"/><path d="M447.31,715.45c-.71,0-3.33,1.74,0,6.81C450.64,717.23,448,715.45,447.31,715.45Z"/><path d="M405.51,736.35c-.71,0-3.33,1.74,0,6.81C408.84,738.13,406.23,736.35,405.51,736.35Z"/><path d="M489.11,736.35c-.71,0-3.33,1.74,0,6.81C492.44,738.13,489.83,736.35,489.11,736.35Z"/><path d="M405.51,694.55c-.71,0-3.33,1.74,0,6.81C408.84,696.33,406.23,694.55,405.51,694.55Z"/><path d="M489.11,694.55c-.71,0-3.33,1.74,0,6.81C492.44,696.33,489.83,694.55,489.11,694.55Z"/><path d="M365.59,765.11c6,.33,6.24-2.82,5.89-3.49S368.19,759.69,365.59,765.11Z"/><path d="M449.19,765.11c6,.33,6.24-2.82,5.89-3.49S451.79,759.69,449.19,765.11Z"/><path d="M453.69,802.6h-.37a2.87,2.87,0,0,0-1.27.4l-.45.31a8.07,8.07,0,0,0-1.92,2.28h0a10.57,10.57,0,0,0-.56,1,7.27,7.27,0,0,0,5-1h0a2.16,2.16,0,0,0,.91-2.38A1.74,1.74,0,0,0,453.69,802.6Z"/><path d="M370.09,802.6h-.37a2.87,2.87,0,0,0-1.27.4l-.45.31a8.07,8.07,0,0,0-1.92,2.28h0a10.57,10.57,0,0,0-.56,1,7.26,7.26,0,0,0,5-1h0a2.16,2.16,0,0,0,.91-2.38A1.72,1.72,0,0,0,370.09,802.6Z"/><path d="M407.39,786c6,.33,6.24-2.82,5.89-3.49S410,780.59,407.39,786Z"/><path d="M491,786c6,.33,6.24-2.82,5.89-3.49S493.59,780.59,491,786Z"/><path d="M365.59,723.31c6,.33,6.24-2.82,5.89-3.49S368.19,717.89,365.59,723.31Z"/><path d="M449.19,723.31c6,.33,6.24-2.82,5.89-3.49S451.79,717.89,449.19,723.31Z"/><path d="M407.39,744.21c6,.33,6.24-2.82,5.89-3.49S410,738.79,407.39,744.21Z"/><path d="M491,744.21c6,.33,6.24-2.82,5.89-3.49S493.59,738.79,491,744.21Z"/><path d="M407.39,702.41c6,.33,6.24-2.82,5.89-3.49S410,697,407.39,702.41Z"/><path d="M491,702.41c6,.33,6.24-2.82,5.89-3.49S493.59,697,491,702.41Z"/><path d="M439.61,761.68c-.35.61-.12,3.76,5.89,3.48C442.84,759.69,440,761.05,439.61,761.68Z"/><path d="M443,803.31l-.46-.31a2.71,2.71,0,0,0-1.27-.4h-.36a1.74,1.74,0,0,0-1.33.62,2.17,2.17,0,0,0,.91,2.39h0a7.38,7.38,0,0,0,5,1,8.83,8.83,0,0,0-.56-1A7.83,7.83,0,0,0,443,803.31Z"/><path d="M397.81,782.58c-.34.61-.12,3.76,5.89,3.48C401,780.59,398.18,782,397.81,782.58Z"/><path d="M523.21,761.68c-.36.61-.12,3.76,5.89,3.48C526.43,759.69,523.58,761.05,523.21,761.68Z"/><path d="M528.25,805.59a8.42,8.42,0,0,0-1.92-2.28l-.45-.31a2.91,2.91,0,0,0-1.27-.4h-.37a1.72,1.72,0,0,0-1.32.62,2.15,2.15,0,0,0,.9,2.39h0a7.27,7.27,0,0,0,5,1,10.48,10.48,0,0,0-.55-1Z"/><path d="M481.41,782.58c-.36.61-.12,3.76,5.89,3.48C484.64,780.59,481.78,782,481.41,782.58Z"/><path d="M439.61,719.88c-.35.61-.12,3.76,5.89,3.48C442.84,717.89,440,719.25,439.61,719.88Z"/><path d="M397.81,740.78c-.34.61-.12,3.76,5.89,3.48C401,738.79,398.18,740.15,397.81,740.78Z"/><path d="M523.21,719.88c-.36.61-.12,3.76,5.89,3.48C526.43,717.89,523.58,719.25,523.21,719.88Z"/><path d="M481.41,740.78c-.36.61-.12,3.76,5.89,3.48C484.64,738.79,481.78,740.15,481.41,740.78Z"/><path d="M397.81,699c-.34.61-.12,3.76,5.89,3.48C401,697,398.18,698.35,397.81,699Z"/><path d="M481.41,699c-.36.61-.12,3.76,5.89,3.48C484.64,697,481.78,698.35,481.41,699Z"/><path d="M444.94,680.46a9.5,9.5,0,0,0-.94-1.34,6.16,6.16,0,0,0-1-.94,3.14,3.14,0,0,0-2.09-.73,1.71,1.71,0,0,0-1.33.63,1.73,1.73,0,0,0,.13,1.44,2.7,2.7,0,0,0,.43.63l.35.31h0a7.27,7.27,0,0,0,5,1c-.16-.35-.33-.66-.49-.94Z"/><path d="M528.54,680.46a9.5,9.5,0,0,0-.94-1.34,7.18,7.18,0,0,0-1-.94,3.14,3.14,0,0,0-2.09-.73,1.71,1.71,0,0,0-1.33.63,1.77,1.77,0,0,0,.12,1.44,3.09,3.09,0,0,0,.44.63,2.59,2.59,0,0,0,.35.31h0a7.27,7.27,0,0,0,5,1c-.16-.35-.33-.66-.49-.94A.41.41,0,0,1,528.54,680.46Z"/><path d="M405.51,820c-.71,0-3.33,1.74,0,6.81C408.84,821.73,406.23,820,405.51,820Z"/><path d="M489.11,820c-.71,0-3.33,1.74,0,6.81C492.44,821.73,489.83,820,489.11,820Z"/><path d="M407.39,827.81c6,.33,6.24-2.82,5.89-3.49S410,822.39,407.39,827.81Z"/><path d="M491,827.81c6,.33,6.24-2.82,5.89-3.49S493.59,822.39,491,827.81Z"/><path d="M397.81,824.38c-.34.61-.12,3.76,5.89,3.48C401,822.39,398.18,823.75,397.81,824.38Z"/><path d="M481.41,824.38c-.36.61-.12,3.76,5.89,3.48C484.64,822.39,481.78,823.75,481.41,824.38Z"/><path d="M280.11,548.25c-.71,0-3.32,1.74,0,6.81C283.44,550,280.83,548.25,280.11,548.25Z"/><path d="M321.91,527.35c-.71,0-3.32,1.74,0,6.81C325.24,529.13,322.63,527.35,321.91,527.35Z"/><path d="M323.44,487.16l-3.18.81a8,8,0,0,0,1.65,4.39C323.53,489.93,323.79,488.24,323.44,487.16Z"/><path d="M282,514.31c6,.33,6.24-2.82,5.89-3.49S284.59,508.89,282,514.31Z"/><path d="M323.79,535.21c6,.33,6.24-2.82,5.89-3.49S326.39,529.79,323.79,535.21Z"/><path d="M323.79,493.41c6,.33,6.24-2.82,5.89-3.48S326.39,488,323.79,493.41Z"/><path d="M272.41,552.68a2.16,2.16,0,0,0,.91,2.38h0a7.27,7.27,0,0,0,5,1.05,8.83,8.83,0,0,0-.56-1.05C275.25,550.88,272.76,552.08,272.41,552.68Z"/><path d="M356,510.88c-.36.61-.12,3.76,5.89,3.48C359.24,508.89,356.38,510.25,356,510.88Z"/><path d="M361.34,555.06c-2.49-4.18-5-3-5.33-2.38a2.16,2.16,0,0,0,.91,2.38h0a7.27,7.27,0,0,0,5,1.05A8.83,8.83,0,0,0,361.34,555.06Z"/><path d="M314.21,531.78c-.36.61-.12,3.76,5.89,3.48C317.44,529.79,314.58,531.15,314.21,531.78Z"/><path d="M315.49,489.37l-.91.28a1.16,1.16,0,0,0-.37.33c-.36.61-.12,3.76,5.89,3.48C318.41,490,316.65,489.26,315.49,489.37Z"/><path d="M196.51,631.85c-.71,0-3.32,1.74,0,6.81C199.84,633.63,197.23,631.85,196.51,631.85Z"/><path d="M238.31,652.75c-.71,0-3.32,1.74,0,6.81C241.64,654.53,239,652.75,238.31,652.75Z"/><path d="M280.11,590.05c-.71,0-3.32,1.74,0,6.81C283.44,591.83,280.83,590.05,280.11,590.05Z"/><path d="M238.31,611c-.71,0-3.32,1.74,0,6.81C241.64,612.73,239,611,238.31,611Z"/><path d="M321.91,611c-.71,0-3.32,1.74,0,6.81C325.24,612.73,322.63,611,321.91,611Z"/><path d="M238.31,569.15c-.71,0-3.32,1.74,0,6.81C241.64,570.93,239,569.15,238.31,569.15Z"/><path d="M321.91,569.15c-.71,0-3.32,1.74,0,6.81C325.24,570.93,322.63,569.15,321.91,569.15Z"/><path d="M198.39,639.71c6,.33,6.26-2.82,5.89-3.49S201,634.29,198.39,639.71Z"/><path d="M241.15,658.83a48.06,48.06,0,0,0,4.56-2C245,656.39,243.1,656.06,241.15,658.83Z"/><path d="M204.21,594.48a1.42,1.42,0,0,0-.82-.53c-1.08,1.38-2.11,2.69-3,3.92C204.38,597.46,204.52,595,204.21,594.48Z"/><path d="M282,597.91c6,.33,6.24-2.82,5.89-3.49S284.59,592.49,282,597.91Z"/><path d="M240.19,618.81c6,.33,6.24-2.82,5.89-3.49S242.79,613.39,240.19,618.81Z"/><path d="M323.79,618.81c6,.33,6.24-2.82,5.89-3.49S326.39,613.39,323.79,618.81Z"/><path d="M240.19,577c6,.33,6.24-2.82,5.89-3.49S242.79,571.59,240.19,577Z"/><path d="M323.79,577c6,.33,6.24-2.82,5.89-3.49S326.39,571.59,323.79,577Z"/><path d="M230.61,657.18c-.33.55-.15,3.2,4.43,3.48l1.3-.3C233.73,655.26,231,656.57,230.61,657.18Z"/><path d="M356,636.28c-.36.61-.12,3.76,5.89,3.48C359.24,634.29,356.38,635.65,356,636.28Z"/><path d="M272.41,594.48c-.34.61-.12,3.76,5.89,3.48C275.64,592.49,272.78,593.85,272.41,594.48Z"/><path d="M230.61,615.38c-.34.61-.12,3.76,5.89,3.48C233.84,613.39,231,614.75,230.61,615.38Z"/><path d="M356,594.48c-.36.61-.12,3.76,5.89,3.48C359.24,592.49,356.38,593.85,356,594.48Z"/><path d="M230.61,573.58c-.34.61-.12,3.76,5.89,3.48C233.84,571.59,231,573,230.61,573.58Z"/><path d="M314.21,573.58c-.36.61-.12,3.76,5.89,3.48C317.44,571.59,314.58,573,314.21,573.58Z"/><path d="M286.9,555.06h0a2.16,2.16,0,0,0,.91-2.38c-.35-.6-2.84-1.74-5.33,2.38h0a10.57,10.57,0,0,0-.56,1.05A7.26,7.26,0,0,0,286.9,555.06Z"/><path d="M321.91,778.15c-.71,0-3.32,1.74,0,6.81C325.24,779.93,322.63,778.15,321.91,778.15Z"/><path d="M323.25,740.51,321.79,743l.12.19A10.65,10.65,0,0,0,323.25,740.51Z"/><path d="M323.79,786c6,.33,6.24-2.82,5.89-3.49S326.39,780.59,323.79,786Z"/><path d="M323.79,744.21c6,.33,6.24-2.82,5.89-3.49S326.39,738.79,323.79,744.21Z"/><path d="M356,761.68c-.36.61-.12,3.76,5.89,3.48C359.24,759.69,356.38,761.05,356,761.68Z"/><path d="M361.05,805.59a8.24,8.24,0,0,0-1.92-2.28l-.45-.31a2.91,2.91,0,0,0-1.27-.4H357a1.72,1.72,0,0,0-1.32.62,2.16,2.16,0,0,0,.9,2.39h0a7.27,7.27,0,0,0,5,1,10.48,10.48,0,0,0-.55-1Z"/><path d="M314.21,782.58c-.36.61-.12,3.76,5.89,3.48C317.44,780.59,314.58,782,314.21,782.58Z"/><path d="M356,719.88c-.36.61-.12,3.76,5.89,3.48C359.24,717.89,356.38,719.25,356,719.88Z"/><path d="M361.34,680.46a9.5,9.5,0,0,0-.94-1.34,7.18,7.18,0,0,0-1-.94,3.14,3.14,0,0,0-2.09-.73,1.27,1.27,0,0,0-1.2,2.07,2.7,2.7,0,0,0,.43.63,3.38,3.38,0,0,0,.35.31h0a7.27,7.27,0,0,0,5,1c-.16-.35-.33-.66-.49-.94Z"/><path d="M321.91,820c-.71,0-3.32,1.74,0,6.81C325.24,821.73,322.63,820,321.91,820Z"/><path d="M323.79,827.81c6,.33,6.24-2.82,5.89-3.49S326.39,822.39,323.79,827.81Z"/><path d="M314.21,824.38c-.36.61-.12,3.76,5.89,3.48C317.44,822.39,314.58,823.75,314.21,824.38Z"/><path d="M192.42,635.71c.35,1.08.75,2.14,1.2,3.17h1.08A9.54,9.54,0,0,0,192.42,635.71Z"/></g></g><path class="cls-4" d="M599.36,828.5s3.12-42.75-15.68-85.53-23-45.86-23-58.38,12.57-27.13,14.66-55.3,1-41.8,1-41.8,44.85,70.92,76.14,75.1,50.08-25,38.6-64.66-61.55-72-81.35-98.06-64.69-26.12-87.63-26.12-34.41-8.35-38.59-24-4.16-47-4.16-47-27.14,16.68-73-2.09c0,0,4.18,57.37-1.05,65.71s-12.47,16.84-43.77,16.84-57.37,6.27-72,20.9-75.1,73-90.74,96-7.32,48,11.46,57.37,37.55,1,51.12-11.48,56.32-52.16,56.32-52.16,0,24,11.48,58.41,20.9,30.26,12.5,55.28-25,32.35-30.23,64.67a307.16,307.16,0,0,0-4.18,56.33"/><path class="cls-11" d="M317.73,593.82a131.36,131.36,0,0,1,6.88-33.1"/><path class="cls-4" d="M576.33,587.56a128.89,128.89,0,0,0-9.52-25"/><line class="cls-4" x1="423.12" y1="703.17" x2="488.82" y2="682.12"/><path class="cls-4" d="M452.87,685.83a212.14,212.14,0,0,1,47.72-13"/><path class="cls-12" d="M434.55,553.15c52,10,72.12-39.85,79.1-79.72-17.33-1.91-26.45-10-30.08-23.55-4.16-15.67-4.16-47-4.16-47s-27.13,16.68-73-2.09c0,0,4.18,57.37-1,65.71-3.63,5.82-8.29,11.64-21.36,14.61C383.51,499,387.12,544,434.55,553.15Z"/><g class="cls-13"><path class="cls-14" d="M482.44,444.73c-3-16.48-3-41.8-3-41.8s-27.13,16.68-73-2.09c0,0,1.74,24,1.57,43.19C447.45,457.76,470.3,451.94,482.44,444.73Z"/></g><path class="cls-4" d="M434.55,553.15c52,10,72.12-39.85,79.1-79.72-17.33-1.91-26.45-10-30.08-23.55-4.16-15.67-4.16-47-4.16-47s-27.13,16.68-73-2.09c0,0,4.18,57.37-1,65.71-3.63,5.82-8.29,11.64-21.36,14.61C383.51,499,387.12,544,434.55,553.15Z"/><circle class="cls-15" cx="513.23" cy="370.01" r="12.92"/><circle class="cls-15" cx="375.19" cy="370.01" r="12.92"/><path class="cls-12" d="M512.05,326s6.46-20,14.11-12.93-2.35,34.07-7.65,40.53-10.57,6.46-10-2.35S512.05,326,512.05,326Z"/><path class="cls-16" d="M378.46,346.06s1.75,46.66,36.09,69.55,59.86,9.68,73.95-9.69,22.9-38.73,22.9-66.89,3.49-40.51-6.16-58.12-43.14-26.4-43.14-26.4a529.3,529.3,0,0,1-44.9,49.3C390.78,329.33,378.46,346.06,378.46,346.06Z"/><g class="cls-17"><path class="cls-14" d="M462.1,254.51a529.3,529.3,0,0,1-44.9,49.3c-26.42,25.52-38.74,42.25-38.74,42.25a107.06,107.06,0,0,0,5.35,26.7c46.4-35.49,71.74-99.27,78.48-118.2Z"/></g><path class="cls-4" d="M378.46,346.06s1.75,46.66,36.09,69.55,59.86,9.68,73.95-9.69,22.9-38.73,22.9-66.89,3.49-40.51-6.16-58.12-43.14-26.4-43.14-26.4a529.3,529.3,0,0,1-44.9,49.3C390.78,329.33,378.46,346.06,378.46,346.06Z"/><line class="cls-4" x1="410.95" y1="340.58" x2="430.71" y2="342.42"/><path class="cls-4" d="M470.86,340s13-2.47,19.16,0"/><path class="cls-18" d="M428.05,331.54c0,4.7-2.11,8.52-4.7,8.52s-4.69-3.82-4.69-8.52,2.09-8.52,4.69-8.52S428.05,326.84,428.05,331.54Z"/><path class="cls-4" d="M438.62,361.29a17.18,17.18,0,0,0,20.57-1.75"/><path class="cls-4" d="M444,381.18s18.2,7.64,28.77-17"/><path class="cls-19" d="M467.41,331.83s11.16-7.64,22.33-2.94"/><path class="cls-19" d="M463.89,312.52s12.33-12.33,29.37-2.35"/><path class="cls-19" d="M437.45,304.8s-10.57-10.57-25.27-.57"/><path class="cls-7" d="M198.83,600.08s-18.78,20.9-18.78,42.76,12.51,41.8,47,73,66.74,54.24,80.31,61.55,27.11-2.09,27.11-2.09,22.44,22.42,25,17.21-7.82-13-9.91-16.16a42.73,42.73,0,0,0-6.25-6.78s10.95,1.55,15.13,5.23,10.94,9.91,14.08,9.39,3.13-3.14-1.57-9.39a55.66,55.66,0,0,0-13.55-12.52c-3.14-2.08-13.57-7.82-13.57-7.82s15.12-1.05,20.34,2.09,19.3,12.52,20.35,8.34,1-6.78-4.18-11.48S364.72,743,358.5,741.94A64.33,64.33,0,0,1,346,738.3s12-4.18,16.16-4.18,20.9,8.35,25.55,7.32,2.09-5.23-1.55-7.84-19.82-8.86-26.61-9.39S314.68,736.74,310,736.74s-16.69-16.69-29.21-39.12-17.21-57.37-43.8-69.36"/><g class="cls-20"><g class="cls-9"><path d="M196.51,638.66c3.33-5,.72-6.81,0-6.81C197.23,631.85,199.84,633.63,196.51,638.66Z"/><path d="M196.51,673.65c.72,0,3.33,1.74,0,6.81C199.84,675.43,197.23,673.65,196.51,673.65Z"/><path d="M238.31,652.75c-.71,0-3.32,1.74,0,6.81C241.64,654.53,239,652.75,238.31,652.75Z"/><path d="M204.21,636.28c-.37-.63-3.22-2-5.89,3.48C204.35,640,204.58,636.89,204.21,636.28Z"/><path d="M203.62,680.37a2.7,2.7,0,0,0,.43-.63,1.27,1.27,0,0,0-1.2-2.07,3.14,3.14,0,0,0-2.09.73,7.18,7.18,0,0,0-1,.94,9.5,9.5,0,0,0-.94,1.34h4.42A3.38,3.38,0,0,0,203.62,680.37Z"/><path d="M246,657.18c-.37-.63-3.22-2-5.89,3.48C246.15,660.94,246.36,657.79,246,657.18Z"/><path d="M236.5,660.61c-2.66-5.42-5.52-4.06-5.89-3.49S230.49,660.94,236.5,660.61Z"/><path d="M197.33,631.85v6.81C200.66,633.63,198,631.85,197.33,631.85Z"/><path d="M197.33,673.65v6.81C200.66,675.43,198,673.65,197.33,673.65Z"/><path d="M280.11,757.25a1.87,1.87,0,0,0-1.37,1.17l2.94,2.16C282.12,758.18,280.63,757.25,280.11,757.25Z"/><path d="M321.91,778.15a2.11,2.11,0,0,0-1.6,1.94q1.57-.14,3.12-.42A2,2,0,0,0,321.91,778.15Z"/><path d="M280.11,715.45c-.71,0-3.32,1.74,0,6.81C283.44,717.23,280.83,715.45,280.11,715.45Z"/><path d="M321.91,743.16c3.33-5,.72-6.81,0-6.81S318.57,738.13,321.91,743.16Z"/><path d="M238.31,701.36c3.33-5,.72-6.81,0-6.81S235,696.33,238.31,701.36Z"/><path d="M287.81,761.68c-.28-.47-1.95-1.36-3.88.5.94.7,1.88,1.36,2.8,2A2.18,2.18,0,0,0,287.81,761.68Z"/><path d="M282,723.31c6,.33,6.24-2.82,5.89-3.49S284.59,717.89,282,723.31Z"/><path d="M323.79,744.21c6,.33,6.24-2.82,5.89-3.49S326.39,738.79,323.79,744.21Z"/><path d="M240.19,702.41c6,.33,6.24-2.82,5.89-3.49S242.79,697,240.19,702.41Z"/><path d="M361.29,765.12c-1.5-1.18-2.87-2.14-3.92-2.85l-1.22-.77-.14.18C355.67,762.27,355.89,765.21,361.29,765.12Z"/><path d="M278.3,723.31c-2.66-5.42-5.52-4.06-5.89-3.49S272.29,723.64,278.3,723.31Z"/><path d="M314.21,740.78c-.36.61-.12,3.76,5.89,3.48C317.44,738.79,314.58,740.15,314.21,740.78Z"/><path d="M230.61,699c-.34.61-.12,3.76,5.89,3.48C233.84,697,231,698.35,230.61,699Z"/><path d="M203.31,680.68h-4.43a.21.21,0,0,1,0,.11,10.11,10.11,0,0,0-.49.94A7.34,7.34,0,0,0,203.31,680.68Z"/><path d="M197.33,631.85c-.71,0-3.33,1.74,0,6.81Z"/><path d="M197.33,680.46v-6.81C196.62,673.65,194,675.43,197.33,680.46Z"/><path d="M194.7,639.71c-2.66-5.42-5.52-4.06-5.89-3.49S188.69,640,194.7,639.71Z"/><path d="M193.17,679.34a7.26,7.26,0,0,0-1-.94l-.12-.09a28.08,28.08,0,0,0,1.74,2.37h.39A11.09,11.09,0,0,0,193.17,679.34Z"/><path d="M194.21,680.57v.11h-.38l.77,1.74h.17A5,5,0,0,0,194.21,680.57Z"/></g></g><path class="cls-4" d="M198.83,600.08s-18.78,20.9-18.78,42.76,12.51,41.8,47,73,66.74,54.24,80.31,61.55,27.11-2.09,27.11-2.09,22.44,22.42,25,17.21-7.82-13-9.91-16.16a42.73,42.73,0,0,0-6.25-6.78s10.95,1.55,15.13,5.23,10.94,9.91,14.08,9.39,3.13-3.14-1.57-9.39a55.66,55.66,0,0,0-13.55-12.52c-3.14-2.08-13.57-7.82-13.57-7.82s15.12-1.05,20.34,2.09,19.3,12.52,20.35,8.34,1-6.78-4.18-11.48S364.72,743,358.5,741.94A64.33,64.33,0,0,1,346,738.3s12-4.18,16.16-4.18,20.9,8.35,25.55,7.32,2.09-5.23-1.55-7.84-19.82-8.86-26.61-9.39S314.68,736.74,310,736.74s-16.69-16.69-29.21-39.12-17.21-57.37-43.8-69.36"/><path class="cls-12" d="M386.06,733.58c-3.66-2.59-19.82-8.86-26.62-9.38s-44.84,12.52-49.53,12.52S293.23,720,280.7,697.6c-7-12.45-11.49-28.77-18.72-42.86-38.32-5.23-54.74,17.17-62.33,33.28A278.83,278.83,0,0,0,227,715.89c34.42,31.35,66.74,54.23,80.31,61.55s27.12-2.09,27.12-2.09,22.43,22.41,25,17.21-7.82-13-9.91-16.17a42.66,42.66,0,0,0-6.25-6.77s11,1.55,15.14,5.22,10.93,9.91,14.07,9.39,3.13-3.13-1.57-9.39a55.86,55.86,0,0,0-13.55-12.52c-3.13-2.07-13.57-7.82-13.57-7.82s15.12-1,20.35,2.09,19.29,12.52,20.34,8.34,1-6.77-4.18-11.47S364.63,743,358.42,742a65.12,65.12,0,0,1-12.53-3.64s12-4.18,16.17-4.18,20.9,8.34,25.55,7.31S389.7,736.2,386.06,733.58Z"/><path class="cls-7" d="M612.49,619.66c-4.35-9.94-.63-31.71,3.73-62.8s8.71-62.81,8.71-79.6,2.76-40.05-2.7-47.56-25.38-27.87-26.86-37.31,11.93-23.88,11.93-23.88,4-7.47,7.47-3.48,2,9,0,15.92-4,12.43-4,12.43,17.42,5.47,21.9,2.5,4.07-20,3.76-28.36c-.65-16.27-7.16-9.32-11.67-1.62-2.18,3.69-14.93,1.5-7.47-8s14.38-17.8,21.35-10.33,11.93,21.9,11.93,21.9,5-23.71,9.51-37.64,12.64-19.45,15.57-18.48,2.6,5.84-.33,12.65-9.41,25.6-11,31.76-1.93,13.29,1.31,12.65,14.58-20.43,17.84-28.86,8.09-16.2,13.6-19.77,10.05,1,7.78,6.81a294.85,294.85,0,0,1-15.29,30.79,133.37,133.37,0,0,0-9.07,20.1,226.32,226.32,0,0,1,16.86-16.21c7.78-6.48,16.21-7.77,18.79-5.51s.33,2.6-6.15,7.79-16.16,11.37-23.91,24a119.48,119.48,0,0,0-13.94,29.82,100.69,100.69,0,0,1-9.4,19.78s6.08,49.36,16.62,76.51,29.17,66.87,23.49,95.24-16.62,43-32,47.41a29.79,29.79,0,0,1-26.34-4.86"/><g class="cls-21"><g class="cls-9"><path d="M698.11,339.25a1.93,1.93,0,0,1,1.39,1.21h0A1.88,1.88,0,0,0,698.11,339.25Z"/><path d="M698.93,339.25v4.08l1.39-2.87A1.93,1.93,0,0,0,698.93,339.25Z"/><path d="M698.11,596.86c3.33-5,.71-6.81,0-6.81C698.82,590.05,701.44,591.83,698.11,596.86Z"/><path d="M703.81,597.46c0-1.17-.06-2.33-.16-3.49-1.08.28-2.44,1.31-3.73,4A9.69,9.69,0,0,0,703.81,597.46Z"/><path d="M698.93,590.05v6.81C702.25,591.83,699.64,590.05,698.93,590.05Z"/><path d="M614.51,381.05c-.61,0-2.52,1.28-1.17,4.64.44-1.41.91-3,1.38-4.6Z"/><path d="M656.31,408.76c3.33-5,.71-6.81,0-6.81S653,403.73,656.31,408.76Z"/><path d="M698.2,344.81l.73-1.48v-4.08C698.27,339.25,696.05,340.75,698.2,344.81Z"/><path d="M656.31,360.15c-.71,0-3.33,1.75,0,6.81C659.64,361.93,657,360.15,656.31,360.15Z"/><path d="M622.09,428.72a1.73,1.73,0,0,0,.12-1.44,1.71,1.71,0,0,0-1.32-.63,2.83,2.83,0,0,0-1,.14c.71.87,1.36,1.65,1.88,2.35A2.36,2.36,0,0,0,622.09,428.72Z"/><path d="M664,406.38c-.37-.63-3.22-2-5.89,3.48C664.13,410.14,664.36,407,664,406.38Z"/><path d="M663.16,366.93a19.64,19.64,0,0,1,0-2.87c-1.12-.35-3.16,0-5.09,3.95A7.2,7.2,0,0,0,663.16,366.93Z"/><path d="M664.06,323c-.47.78-.9,1.64-1.36,2.53A2.39,2.39,0,0,0,664.06,323Z"/><path d="M606.81,385.48c-.35.59-.12,3.62,5.51,3.48l.15-.45C609.88,383.6,607.18,384.87,606.81,385.48Z"/><path d="M648.61,406.38c-.36.61-.12,3.76,5.89,3.48C651.83,404.39,649,405.75,648.61,406.38Z"/><path d="M690.41,343.68c-.35.61-.12,3.74,5.82,3.48h0C693.62,341.71,690.78,343.05,690.41,343.68Z"/><path d="M654.5,368a8.2,8.2,0,0,0-2.82-3.48l-.7,3.24A10.42,10.42,0,0,0,654.5,368Z"/><path d="M649.67,367.09c-.27-.74-.62-1.59-1-2.55h0A2.21,2.21,0,0,0,649.67,367.09Z"/><path d="M656.31,534.16c3.33-5,.71-6.81,0-6.81S653,529.13,656.31,534.16Z"/><path d="M656.31,485.55c-.71,0-3.33,1.75,0,6.81C659.64,487.33,657,485.55,656.31,485.55Z"/><path d="M656.31,443.75c-.71,0-3.33,1.75,0,6.81C659.64,445.53,657,443.75,656.31,443.75Z"/><path d="M622.28,511.07a8.42,8.42,0,0,1-.14,1.11A1.92,1.92,0,0,0,622.28,511.07Z"/><path d="M622.21,552.9c-.35-.6-2.84-1.75-5.33,2.38h4.42A2.16,2.16,0,0,0,622.21,552.9Z"/><path d="M658.19,535.21c6,.33,6.24-2.82,5.89-3.49S660.79,529.79,658.19,535.21Z"/><path d="M664,490c-.37-.63-3.22-2-5.89,3.48C664.13,493.74,664.36,490.59,664,490Z"/><path d="M658.19,451.61c4.43.24,5.71-1.39,5.94-2.53l-.16-1C663.31,447.41,660.63,446.51,658.19,451.61Z"/><path d="M693.74,552.9c-1.74-1.21-3.08-.47-3.33,0a2.16,2.16,0,0,0,.91,2.38h3.24Z"/><path d="M648.61,531.78c-.36.61-.12,3.76,5.89,3.48C651.83,529.79,649,531.15,648.61,531.78Z"/><path d="M648.61,490c-.36.61-.12,3.76,5.89,3.48C651.83,488,649,489.35,648.61,490Z"/><path d="M648.61,448.18c-.36.61-.12,3.76,5.89,3.48C651.83,446.19,649,447.55,648.61,448.18Z"/><path d="M656.31,652.75c-.68,0-3,1.61-.49,6l.87.17C659.41,654.39,657,652.75,656.31,652.75Z"/><path d="M614.51,596.86c3.33-5,.71-6.81,0-6.81S611.17,591.83,614.51,596.86Z"/><path d="M698.93,590.05c-.72,0-3.33,1.74,0,6.81Z"/><path d="M656.31,617.76c3.33-5,.71-6.81,0-6.81S653,612.73,656.31,617.76Z"/><path d="M656.31,569.15c-.71,0-3.33,1.74,0,6.81C659.64,570.93,657,569.15,656.31,569.15Z"/><path d="M664,657.18c-.33-.58-2.72-1.75-5.23,2.1a28.44,28.44,0,0,0,4.32.23A2.13,2.13,0,0,0,664,657.18Z"/><path d="M616.39,597.91c6,.33,6.24-2.82,5.89-3.49S619,592.49,616.39,597.91Z"/><path d="M658.19,618.81c6,.33,6.24-2.82,5.89-3.49S660.79,613.39,658.19,618.81Z"/><path d="M664,573.58c-.37-.63-3.22-2-5.89,3.48C664.13,577.34,664.36,574.19,664,573.58Z"/><path d="M690.41,636.28c-.28.47-.19,2.43,2.6,3.17.47-.84.94-1.75,1.37-2.56C692.41,634.9,690.69,635.79,690.41,636.28Z"/><path d="M649.61,656.6c1,.47,2,.89,3,1.26A3.31,3.31,0,0,0,649.61,656.6Z"/><path d="M612.7,597.91a10.4,10.4,0,0,0-1.55-2.44c0,.82-.14,1.62-.19,2.42A14.43,14.43,0,0,0,612.7,597.91Z"/><path d="M696.3,597.91c-2.67-5.42-5.52-4.06-5.89-3.49S690.29,598.24,696.3,597.91Z"/><path class="cls-22" d="M648.61,615.38c-.36.61-.12,3.76,5.89,3.48C651.83,613.39,649,614.75,648.61,615.38Z"/><path d="M648.61,573.58c-.36.61-.12,3.76,5.89,3.48C651.83,571.59,649,573,648.61,573.58Z"/><path d="M617.07,555.3c-.19.31-.37.66-.56,1h0a7.27,7.27,0,0,0,5-1.05h-4.42Z"/><path d="M694.56,555.28h-3.28a6.2,6.2,0,0,0,3.61,1.05Z"/></g></g><path class="cls-4" d="M612.49,619.66c-4.35-9.94-.63-31.71,3.73-62.8s8.71-62.81,8.71-79.6,2.76-40.05-2.7-47.56-25.38-27.87-26.86-37.31,11.93-23.88,11.93-23.88,4-7.47,7.47-3.48,2,9,0,15.92-4,12.43-4,12.43,17.42,5.47,21.9,2.5,4.07-20,3.76-28.36c-.65-16.27-7.16-9.32-11.67-1.62-2.18,3.69-14.93,1.5-7.47-8s14.38-17.8,21.35-10.33,11.93,21.9,11.93,21.9,5-23.71,9.51-37.64,12.64-19.45,15.57-18.48,2.6,5.84-.33,12.65-9.41,25.6-11,31.76-1.93,13.29,1.31,12.65,14.58-20.43,17.84-28.86,8.09-16.2,13.6-19.77,10.05,1,7.78,6.81a294.85,294.85,0,0,1-15.29,30.79,133.37,133.37,0,0,0-9.07,20.1,226.32,226.32,0,0,1,16.86-16.21c7.78-6.48,16.21-7.77,18.79-5.51s.33,2.6-6.15,7.79-16.16,11.37-23.91,24a119.48,119.48,0,0,0-13.94,29.82,100.69,100.69,0,0,1-9.4,19.78s6.08,49.36,16.62,76.51,29.17,66.87,23.49,95.24-16.62,43-32,47.41a29.79,29.79,0,0,1-26.34-4.86"/><path class="cls-12" d="M686.06,389.57c7.78-12.64,17.52-18.81,24-24s8.71-5.52,6.15-7.79-11-1-18.8,5.51a228.28,228.28,0,0,0-16.86,16.21,134.43,134.43,0,0,1,9-20.1,296.45,296.45,0,0,0,15.24-30.79c2.26-5.83-2.26-10.45-7.78-6.81s-10.37,11.34-13.61,19.77-14.59,28.21-17.83,28.86-2.93-6.5-1.31-12.65,8.12-25,11-31.76,3.24-11.67.33-12.65-11,4.53-15.57,18.48-9.51,37.64-9.51,37.64-5-14.44-11.93-21.9-13.94.88-21.36,10.33,5.23,11.65,7.48,8c4.51-7.7,11-14.65,11.67,1.62.31,8.34.71,25.36-3.77,28.36s-21.89-2.5-21.89-2.5,2-5.46,4-12.43,3.48-11.95,0-15.92-7.47,3.48-7.47,3.48-13.43,14.43-11.93,23.88,21.39,29.84,26.85,37.31,2.7,30.77,2.7,47.56-4.35,48.51-8.7,79.6a9.37,9.37,0,0,1-.18,1.2c6.88,7.23,20.9,17.59,44.6,16.79,15.89-.54,27.14-8.54,34.75-17.33-5.05-15-11.39-29.61-16.09-41.8-10.54-27.15-16.62-76.51-16.62-76.51A101.38,101.38,0,0,0,672,419.42,118.7,118.7,0,0,1,686.06,389.57Z"/><path class="cls-4" d="M638.37,437.22s-2.91-12.31,1.31-20.1A21.87,21.87,0,0,1,650,407.07"/></g></svg>