<svg id="Capa_1" data-name="Capa 1" xmlns="http://www.w3.org/2000/svg" viewBox="0 0 1000 1000"><defs><style>.cls-1{fill:#d3d3d3;}.cls-15,.cls-16,.cls-2,.cls-20,.cls-21,.cls-4,.cls-5{fill:none;}.cls-10,.cls-11,.cls-12,.cls-13,.cls-14,.cls-16,.cls-17,.cls-18,.cls-19,.cls-2,.cls-21,.cls-5,.cls-8{stroke:#263238;}.cls-10,.cls-11,.cls-12,.cls-13,.cls-14,.cls-15,.cls-17,.cls-18,.cls-19,.cls-2,.cls-20,.cls-21,.cls-4,.cls-5,.cls-8{stroke-linecap:round;}.cls-10,.cls-11,.cls-12,.cls-13,.cls-14,.cls-15,.cls-17,.cls-18,.cls-19,.cls-2,.cls-20,.cls-21,.cls-4{stroke-linejoin:round;}.cls-10,.cls-11,.cls-12,.cls-13,.cls-14,.cls-15,.cls-16,.cls-2,.cls-20,.cls-4,.cls-5{stroke-width:1.9px;}.cls-3{opacity:0.3;}.cls-4{stroke:#000;}.cls-16,.cls-5,.cls-8{stroke-miterlimit:10;}.cls-6{fill:#ba68c8;}.cls-7{fill:#9ec10c;}.cls-14,.cls-22,.cls-8{fill:#263238;}.cls-21,.cls-8{stroke-width:3.79px;}.cls-9{opacity:0.2;isolation:isolate;}.cls-10{fill:#e3e3e3;}.cls-11{fill:#fff;}.cls-12{fill:#b2b2b2;}.cls-13{fill:gray;}.cls-15{stroke:#fff;}.cls-17{fill:#c69b3c;}.cls-17,.cls-18,.cls-19{stroke-width:2.28px;}.cls-18{fill:#c97339;}.cls-19{fill:#c69067;}.cls-20{stroke:#6b6b6b;}</style></defs><g id="freepik--background-simple--inject-2"><path class="cls-1" d="M905,258.48q-4.51-7.59-9.48-15c-44-65.14-119.63-109.7-194.06-129.85a440,440,0,0,0-100-14.6C380.23,91.52,292.11,266,219,310.87S33.32,432.66,40.91,593.91s123.72,313,348.69,322.49,240-91.86,365.57-129.36C838.3,762.23,897.44,678.42,926.28,601,965.7,495.41,963.84,358.32,905,258.48Z"/></g><g id="freepik--Table--inject-2"><line class="cls-2" x1="947.23" y1="934.04" x2="112.55" y2="934.04"/></g><g id="freepik--Window--inject-2"><g class="cls-3"><path class="cls-4" d="M478.67,125.92v694.3H704.41V125.92Zm212.46,15.17V243.53h-93V141.09Zm-106.23,0V243.53H490.05V141.09ZM490.05,260.61H584.9V363H490.05ZM693,805h-203V380.12H693ZM598.18,363V260.61h93V363Z"/><path class="cls-4" d="M702.51,125.92v694.3H928.26V125.92Zm214.36,15.17V243.53h-93V141.09Zm-108.13,0V243.53H713.89V141.09ZM713.89,260.61h94.85V363H713.89ZM916.87,805h-203V380.12h203Zm-93-442V260.61h93V363Z"/><line class="cls-4" x1="641.77" y1="494.48" x2="585.22" y2="564.86"/><line class="cls-4" x1="655.8" y1="477.01" x2="646.81" y2="488.21"/><line class="cls-4" x1="523.73" y1="616.18" x2="512.14" y2="629.8"/><line class="cls-4" x1="598.84" y1="527.95" x2="532.4" y2="605.99"/><line class="cls-4" x1="869.62" y1="515.98" x2="813.07" y2="586.36"/><line class="cls-4" x1="883.65" y1="498.51" x2="874.66" y2="509.68"/><line class="cls-4" x1="751.58" y1="637.67" x2="740.01" y2="651.29"/><line class="cls-4" x1="826.69" y1="549.42" x2="760.25" y2="627.48"/><line class="cls-4" x1="895.74" y1="157.73" x2="868.67" y2="191.42"/><line class="cls-4" x1="902.45" y1="149.36" x2="898.15" y2="154.73"/><line class="cls-4" x1="839.24" y1="215.99" x2="833.69" y2="222.49"/><line class="cls-4" x1="875.19" y1="173.74" x2="843.38" y2="211.11"/><line class="cls-4" x1="790.11" y1="157.73" x2="763.04" y2="191.42"/><line class="cls-4" x1="796.83" y1="149.36" x2="792.52" y2="154.73"/><line class="cls-4" x1="733.62" y1="215.99" x2="728.08" y2="222.49"/><line class="cls-4" x1="769.57" y1="173.74" x2="737.77" y2="211.11"/><line class="cls-4" x1="790.11" y1="283.94" x2="763.04" y2="317.63"/><line class="cls-4" x1="796.83" y1="275.57" x2="792.52" y2="280.94"/><line class="cls-4" x1="733.62" y1="342.19" x2="728.08" y2="348.7"/><line class="cls-4" x1="769.57" y1="299.95" x2="737.77" y2="337.32"/><line class="cls-4" x1="884.32" y1="283.94" x2="857.25" y2="317.63"/><line class="cls-4" x1="891.03" y1="275.57" x2="886.73" y2="280.94"/><line class="cls-4" x1="827.82" y1="342.19" x2="822.29" y2="348.7"/><line class="cls-4" x1="863.77" y1="299.95" x2="831.98" y2="337.32"/><line class="cls-4" x1="673.07" y1="157.73" x2="646" y2="191.42"/><line class="cls-4" x1="679.78" y1="149.36" x2="675.48" y2="154.73"/><line class="cls-4" x1="616.57" y1="215.99" x2="611.03" y2="222.49"/><line class="cls-4" x1="652.52" y1="173.74" x2="620.73" y2="211.11"/><line class="cls-4" x1="673.07" y1="281" x2="646" y2="314.69"/><line class="cls-4" x1="679.78" y1="272.65" x2="675.48" y2="278"/><line class="cls-4" x1="616.57" y1="339.25" x2="611.03" y2="345.78"/><line class="cls-4" x1="652.52" y1="297.03" x2="620.73" y2="334.38"/><line class="cls-4" x1="570.31" y1="281" x2="543.24" y2="314.69"/><line class="cls-4" x1="577.02" y1="272.65" x2="572.72" y2="278"/><line class="cls-4" x1="513.79" y1="339.25" x2="508.26" y2="345.78"/><line class="cls-4" x1="549.74" y1="297.03" x2="517.95" y2="334.38"/><line class="cls-4" x1="563.15" y1="157.73" x2="536.08" y2="191.42"/><line class="cls-4" x1="569.89" y1="149.36" x2="565.58" y2="154.73"/><line class="cls-4" x1="506.66" y1="215.99" x2="501.12" y2="222.49"/><line class="cls-4" x1="542.61" y1="173.74" x2="510.82" y2="211.11"/></g></g><g id="freepik--Plant--inject-2"><path class="cls-5" d="M216.67,701.5S195.8,690,194.3,716.17s-5.42,196.6-5.42,196.6"/><path class="cls-5" d="M183.49,718.46s17.07,37.79,9.28,192"/><path class="cls-6" d="M200.26,706.78s-8,5.1-12.5-.72,3-16.54-3.7-21.1-18.25,2.41-18.25,2.41,8.9,2.6,8.61,7.48-4.59,6.69-5.16,4.57-4.82-12.83-12-8.39a17.9,17.9,0,0,0-8.33,11.39s16.82-1.81,17.85,4.53-6.91-1.12-13.85-1.52-13.28.61-12.82,4.82a55,55,0,0,1-.65,11.1,20.68,20.68,0,0,1,13.51-4.78c7.59.45,7.36,5.31.42,4.91s-12.9,6.2-12.9,6.2,6.31,10.78,14.28,16.09,11,3.43,11.88-.68-1.22-14.7,3.64-14.42-8.05,18.32-1.9,19.39,11.19-.72,12.82-4.8l1.64-4.1s-2.17-10.57-1.22-14.7,2.07.13,3.17,5.06,1.8,16.83,3.93,16.26,8.89-9.22,10.49-12.61-8.94-13.76-8.82-15.84,8.25,1.89,9.48,4a52,52,0,0,1,2.49,5s5.06-3.18,4.95-12.95S200.26,706.78,200.26,706.78Z"/><path class="cls-7" d="M200.26,706.78s-8,5.1-12.5-.72,3-16.54-3.7-21.1-18.25,2.41-18.25,2.41,8.9,2.6,8.61,7.48-4.59,6.69-5.16,4.57-4.82-12.83-12-8.39a17.9,17.9,0,0,0-8.33,11.39s16.82-1.81,17.85,4.53-6.91-1.12-13.85-1.52-13.28.61-12.82,4.82a55,55,0,0,1-.65,11.1,20.68,20.68,0,0,1,13.51-4.78c7.59.45,7.36,5.31.42,4.91s-12.9,6.2-12.9,6.2,6.31,10.78,14.28,16.09,11,3.43,11.88-.68-1.22-14.7,3.64-14.42-8.05,18.32-1.9,19.39,11.19-.72,12.82-4.8l1.64-4.1s-2.17-10.57-1.22-14.7,2.07.13,3.17,5.06,1.8,16.83,3.93,16.26,8.89-9.22,10.49-12.61-8.94-13.76-8.82-15.84,8.25,1.89,9.48,4a52,52,0,0,1,2.49,5s5.06-3.18,4.95-12.95S200.26,706.78,200.26,706.78Z"/><path class="cls-5" d="M159.81,729.68c5.18-6.44,12.85-15.18,19.26-19.26"/><path class="cls-5" d="M153.78,737.49s1.35-1.9,3.49-4.65"/><path class="cls-5" d="M182.45,712s7.72,10.91,9.14,22.12"/><path class="cls-5" d="M173.7,718.46s2.16-1.27,1.35,12.62"/><path class="cls-5" d="M179.39,705.56s4.4-3.92,2.09-11.72"/><line class="cls-5" x1="173.4" y1="712.17" x2="170.25" y2="706.42"/><path class="cls-5" d="M166.78,718.05s-10-7.59-16.26-7.93"/><path class="cls-6" d="M228.56,686.21s-.32,11.39-9.26,12-14.47-14.34-23.61-10.75-10,19.92-10,19.92,8.67-7.14,13.28-3.53,3.6,9.14,1.08,8.25-16.12-3.91-16.6,6.35a21.67,21.67,0,0,0,5.69,16.09s9.68-18.06,16.7-14.78-5.81,6.17-10.95,12.83-8.42,13.71-3.91,16.12a65.52,65.52,0,0,1,10.72,8.33,25.07,25.07,0,0,1,4.44-16.79c5.69-7.34,10.32-3.79,5.18,2.92s-2.58,17.07-2.58,17.07,15.17,1,26-3.35,10.89-8.62,7.4-12.37-15.56-8.8-12-13.47S243,751.6,248.33,746.12s6.88-11.7,3.91-16.12l-3-4.42s-12-5-15.54-8.79,1.54-2,7.23.27,18.08,9.66,19,7.15-3.17-15.17-5.48-19.1-19.87-.44-21.88-1.9,7.59-7,10.53-6.77a63.85,63.85,0,0,1,6.74.93s.26-7.25-9.6-13.77S228.56,686.21,228.56,686.21Z"/><path class="cls-7" d="M228.56,686.21s-.32,11.39-9.26,12-14.47-14.34-23.61-10.75-10,19.92-10,19.92,8.67-7.14,13.28-3.53,3.6,9.14,1.08,8.25-16.12-3.91-16.6,6.35a21.67,21.67,0,0,0,5.69,16.09s9.68-18.06,16.7-14.78-5.81,6.17-10.95,12.83-8.42,13.71-3.91,16.12a65.52,65.52,0,0,1,10.72,8.33,25.07,25.07,0,0,1,4.44-16.79c5.69-7.34,10.32-3.79,5.18,2.92s-2.58,17.07-2.58,17.07,15.17,1,26-3.35,10.89-8.62,7.4-12.37-15.56-8.8-12-13.47S243,751.6,248.33,746.12s6.88-11.7,3.91-16.12l-3-4.42s-12-5-15.54-8.79,1.54-2,7.23.27,18.08,9.66,19,7.15-3.17-15.17-5.48-19.1-19.87-.44-21.88-1.9,7.59-7,10.53-6.77a63.85,63.85,0,0,1,6.74.93s.26-7.25-9.6-13.77S228.56,686.21,228.56,686.21Z"/><path class="cls-5" d="M224,742.23c-2.88-9.58-6.37-23.16-6.14-32.4"/><path class="cls-5" d="M227.67,753.58s-.95-2.6-2.26-6.66"/><path class="cls-5" d="M221.71,707.52s16.17-.29,28.46,5.94"/><path class="cls-5" d="M222.21,720.66s.21-3,13.54,7.25"/><path class="cls-5" d="M213.14,706.23s-.93-7.1-10.32-10.08"/><line class="cls-5" x1="215.7" y1="716.7" x2="207.79" y2="715.92"/><path class="cls-5" d="M217.07,727.34s-14.38,4.86-19,10.85"/><path class="cls-5" d="M132.63,762.42s45.53,30.06,44.71,146.48"/><path class="cls-6" d="M188.71,754.47s-1.45,13.18-11.8,13-15.35-18-26.24-14.64-13.45,22-13.45,22S147.9,767.44,153,772s3.26,10.89.45,9.64-18.25-6-19.75,5.69a25.17,25.17,0,0,0,5,19.11s12.88-19.94,20.68-15.48-7.29,6.56-13.85,13.77-11,15.08-6,18.3a77.6,77.6,0,0,1,11.54,10.49s-.53-11,6.69-19,12.28-3.33,5.7,3.8-4.61,19.56-4.61,19.56,17.37,2.61,30.35-1.44,13.28-8.92,9.71-13.57-17.07-11.63-12.52-16.67,12.9,24.92,19.54,19.1,9.05-12.86,6-18.23l-3-5.39s-13.44-7-17.08-11.61,1.9-2.16,8.33,1,19.94,12.86,21.19,10-2.24-17.83-4.52-22.55-22.89-2.37-25-4.35,9.31-7.34,12.78-6.81a77.39,77.39,0,0,1,7.68,1.71s1-8.33-9.77-16.79S188.71,754.47,188.71,754.47Z"/><path class="cls-7" d="M188.71,754.47s-1.45,13.18-11.8,13-15.35-18-26.24-14.64-13.45,22-13.45,22S147.9,767.44,153,772s3.26,10.89.45,9.64-18.25-6-19.75,5.69a25.17,25.17,0,0,0,5,19.11s12.88-19.94,20.68-15.48-7.29,6.56-13.85,13.77-11,15.08-6,18.3a77.6,77.6,0,0,1,11.54,10.49s-.53-11,6.69-19,12.28-3.33,5.7,3.8-4.61,19.56-4.61,19.56,17.37,2.61,30.35-1.44,13.28-8.92,9.71-13.57-17.07-11.63-12.52-16.67,12.9,24.92,19.54,19.1,9.05-12.86,6-18.23l-3-5.39s-13.44-7-17.08-11.61,1.9-2.16,8.33,1,19.94,12.86,21.19,10-2.24-17.83-4.52-22.55-22.89-2.37-25-4.35,9.31-7.34,12.78-6.81a77.39,77.39,0,0,1,7.68,1.71s1-8.33-9.77-16.79S188.71,754.47,188.71,754.47Z"/><path class="cls-5" d="M178.1,818.68c-2.43-11.38-5.16-27.33-4-37.94"/><path class="cls-5" d="M181.29,832.13s-.84-3.09-1.9-7.89"/><path class="cls-5" d="M178.8,778.41s18.69,1.19,32.25,9.48"/><path class="cls-5" d="M178.14,793.62s.51-3.47,15,9.66"/><path class="cls-5" d="M169,776.11s-.39-8.27-11-12.59"/><line class="cls-7" x1="170.99" y1="788.44" x2="161.94" y2="786.79"/><path class="cls-5" d="M171.58,800.83s-17.08,4.27-23,10.76"/><path class="cls-5" d="M150.37,854.18s29.29,22.38,32.38,55.5l-6.19-111"/><path class="cls-5" d="M221.3,838c-38.55-6.94-38.55,71.71-38.55,71.71"/><path class="cls-5" d="M187.36,908.9S165,746.24,229.78,746.24"/><path class="cls-7" d="M206.59,833.31c-5.25-5.94-16.44-5.94-23,9.22s-.66,12.5-.66,12.5,12.52-3.95,20.41-6.58,18.42-9.22,19.09-5.28-5.26,7.91-12.51,9.22-26.33,6.58-24.35,10.53,6.58,15.8,6.58,15.8a168.89,168.89,0,0,1,17.77-13.16c8.56-5.28,13.83-3.3,9.22,2.63s-17.77,12.51-15.17,20.4,18.42,17.77,18.42,17.77,1.9-16.45,6.58-21.72,4.61.66,3.3,9.88a106.94,106.94,0,0,0-1.33,11.84l18.44,6.58a134.35,134.35,0,0,1,9.87-13.16l3.3-3.28S248,884,247.34,876.09s9.87,0,13.17,1.32,8.55,10.53,8.55,10.53,3.28-15.17,3.95-20.41l.66-5.27S259.84,857,254.57,857s-7.89,4-7.89-1.33,5.27-8.55,11.19-7.89a103.43,103.43,0,0,1,15.8,4s3.95-3.28,2.62-13.17-4.59-9.86-12.5-7.22-13.17,8.55-19.09,8.55-2.63-7.25,1.31-9.22,13.83-5.92,15.81-6.58-10.53-9.88-17.08-11.19-15.17,3.32-14.47,9.88C231.62,836.59,211.87,839.23,206.59,833.31Z"/><path class="cls-5" d="M249,901.07c.19,2,.34,4,.42,6"/><path class="cls-5" d="M235.75,853.8a174.67,174.67,0,0,1,12.39,40.8"/><path class="cls-5" d="M233.38,848.54c-3.26-7-5.69-11.38-5.69-11.38a19.48,19.48,0,0,0,8.55-7.89,22,22,0,0,1,6.59-7.91"/><path class="cls-5" d="M204.62,859.64s23.69-9.88,23.69-7.91"/><path class="cls-5" d="M241.48,847.12s10.55-5.26,19.75-5.26"/><path class="cls-5" d="M237.53,862.92a91.71,91.71,0,0,0-12.5,12.5,57,57,0,0,0-9.22,15.18"/><path class="cls-5" d="M244.78,865.56s13.83-3.95,21.06,2.63"/><path class="cls-7" d="M269.82,776.61c-7.17-4.23-15.17-4.33-19-8.81s3.8-6.73,7.82-5,13.52,6.56,15.32,7.59.55-14.44-2.77-20.26-12.4-9.24-17-4.48c-9.49,10.07-24.51-3.13-23.49-11s-6.32-16.32-22.06-11.39-9.87,7.71-9.87,7.71S210,737.81,217.2,742s19,7.88,16.48,11-9.48,1.19-15.17-3.4-22.22-15.51-23.94-11.44S187,753.5,187,753.5a167.77,167.77,0,0,1,21.59,4.8c9.48,3,11.55,8.27,4.06,8.69s-21.1-5.24-25.35,1.9S186,794.46,186,794.46s13.72-9.3,20.72-9.28,2.52,3.91-5.29,9a106.64,106.64,0,0,0-9.83,6.79l7.11,18.23A127.34,127.34,0,0,1,215.09,818l4.63.32s0-19.14,5.48-24.81,6.49,7.46,7.59,10.81-2.35,13.28-2.35,13.28,13.6-7.43,18-10.39l4.42-2.94s-5.1-13.91-8.55-17.87-8.16-3.38-4.18-6.83,9.92-1.63,13.28,3.26A102.31,102.31,0,0,1,261,797.45s5.07.82,11.67-6.63S277,780.86,269.82,776.61Zm-62.3,21.07c-5.27-2.63,7.25-7.89,7.25-7.89C219.38,789.13,212.8,800.32,207.52,797.68Zm8.86-24.56c-2.24-1.12,4.5-3.38,4.5-3.38C230.61,771.62,218.64,774.24,216.38,773.12Z"/><path class="cls-5" d="M207.39,811.09c-1.36,1.45-2.79,2.85-4.23,4.22"/><path class="cls-5" d="M234.4,770.14a173.9,173.9,0,0,1-22.76,36"/><path class="cls-5" d="M236.83,764.88a122.84,122.84,0,0,0,4.78-11.63,19.33,19.33,0,0,0,11.57,1.29,22,22,0,0,1,10.29-.2"/><path class="cls-5" d="M209.61,750.43s23,11.38,21.49,12.73"/><path class="cls-5" d="M243.23,770.08s10.87,4.5,16.92,11.38"/><path class="cls-5" d="M228.71,777.44a91.36,91.36,0,0,0-17.64-1.23,57,57,0,0,0-17.47,3"/><path class="cls-5" d="M231.46,784.63s12,7.85,11.82,17.64"/><path class="cls-7" d="M167.53,867.81c-5.69-3.39-12.14-3.47-15.17-7.07s3-5.43,6.3-4.06S169.55,862,171,862.81s.43-11.61-2.22-16.32-10-7.41-13.64-3.58c-7.72,8.1-19.73-2.53-19-8.84s-5.09-13.13-17.76-9.15-8,6.21-8,6.21,9,5.52,14.78,8.91,15.31,6.36,13.28,8.84-7.59,1-12.2-2.75-17.89-12.52-19.25-9.24-6.13,12.33-6.13,12.33a137.72,137.72,0,0,1,17.38,3.8c7.72,2.43,9.29,6.68,3.26,7s-17.07-4.21-20.37,1.55-1.14,20.68-1.14,20.68,11-7.59,16.73-7.49,2,3.15-4.27,7.21a85,85,0,0,0-7.89,5.44l5.69,14.66a109.2,109.2,0,0,1,13.28-.93l3.79.27s0-15.4,4.42-20,5.2,6,6.13,8.68-1.9,10.76-1.9,10.76,11-6,14.5-8.37l3.55-2.37S150,879,147.2,875.76s-6.56-2.71-3.36-5.5,8-1.31,10.7,2.64a81.31,81.31,0,0,1,5.88,11.68s4.08.67,9.49-5.35S173.3,871.23,167.53,867.81Zm-50.13,17c-4.23-2.1,5.84-6.31,5.84-6.31,3.7-.57-1.59,8.44-5.84,6.31ZM124.55,865c-1.9-.91,3.6-2.72,3.6-2.72C136,863.79,126.28,865.9,124.55,865Z"/><path class="cls-5" d="M117.28,895.53c-1.1,1.16-2.22,2.3-3.39,3.4"/><path class="cls-5" d="M139,862.6a138.94,138.94,0,0,1-18.25,29.14"/><path class="cls-5" d="M141,858.37c2.54-5.69,3.79-9.49,3.79-9.49a15.67,15.67,0,0,0,9.31,1,17.74,17.74,0,0,1,8.29-.17"/><path class="cls-5" d="M119.09,846.76s18.49,9.18,17.3,10.22"/><path class="cls-5" d="M146.14,862.56s8.74,3.62,13.6,9.22"/><path class="cls-5" d="M134.45,868.5a72.71,72.71,0,0,0-14.21-1,45.69,45.69,0,0,0-14,2.39"/><path class="cls-5" d="M136.67,874.28s9.69,6.32,9.49,14.19"/><path class="cls-7" d="M144,759.14s-7.23,5.25-11.84,0,1.9-15.81-4.6-19.75-17.08,3.28-17.08,3.28,8.56,1.9,8.56,6.58-4,6.58-4.61,4.61-5.28-11.85-11.86-7.24a16.89,16.89,0,0,0-7.23,11.19s15.79-2.64,17.08,3.3-6.59-.67-13.17-.67-12.5,1.31-11.85,5.28a51.47,51.47,0,0,1,0,10.53A19.58,19.58,0,0,1,99.93,771c7.22,0,7.22,4.61.64,4.61s-11.84,6.58-11.84,6.58,6.59,9.87,14.48,14.48,10.53,2.64,11.19-1.31S112.5,781.5,117,781.5s-6.59,17.78-.67,18.44,10.53-1.31,11.86-5.27l1.31-3.95s-2.64-9.86-1.9-13.83,1.9,0,3.28,4.61,2.64,15.8,4.61,15.18,7.82-9.28,9.15-12.54-9.22-12.5-9.22-14.48,7.91,1.31,9.22,3.29,2.63,4.61,2.63,4.61,4.61-3.29,3.95-12.51S144,759.14,144,759.14Z"/><path class="cls-5" d="M107.15,783c4.54-6.36,11.29-15,17.08-19.27"/><path class="cls-5" d="M101.9,790.72s1.16-1.9,3-4.57"/><path class="cls-5" d="M127.57,765.05s7.89,9.87,9.86,20.42"/><path class="cls-5" d="M119.67,771.64s1.9-1.33,1.9,11.83"/><path class="cls-5" d="M124.26,759.14s4-4,1.33-11.2"/><line class="cls-5" x1="119.01" y1="765.72" x2="115.71" y2="760.44"/><path class="cls-5" d="M113.09,771.64s-9.88-6.59-15.8-6.59"/><rect class="cls-8" x="159.02" y="906.53" width="51.22" height="26.56"/></g><g id="freepik--Screen--inject-2"><rect class="cls-9" x="130.57" y="106" width="519.78" height="622.22" rx="19.92"/><rect class="cls-10" x="116.34" y="93.67" width="519.78" height="622.22" rx="19.92"/><rect class="cls-11" x="173.25" y="93.67" width="386.99" height="622.22"/><path class="cls-12" d="M619,95.32V717.08a19.34,19.34,0,0,0,17.08-19.31V114.63A19.36,19.36,0,0,0,619,95.32Z"/><rect class="cls-13" x="619.04" y="336.49" width="17.07" height="96.75"/><path class="cls-12" d="M636.12,175.24V115a19.41,19.41,0,0,0-19.43-19.41H135.77a19.34,19.34,0,0,0-19.43,19.25v60.42Z"/><rect class="cls-11" x="144.79" y="125.92" width="221.95" height="15.18"/><rect class="cls-14" x="116.34" y="148.68" width="519.78" height="26.56"/><line class="cls-15" x1="127.72" y1="156.27" x2="141" y2="156.27"/><line class="cls-15" x1="127.72" y1="161.96" x2="141" y2="161.96"/><line class="cls-15" x1="127.72" y1="167.65" x2="141" y2="167.65"/><line class="cls-15" x1="197.91" y1="156.27" x2="197.91" y2="171.45"/><line class="cls-15" x1="277.58" y1="156.27" x2="277.58" y2="171.45"/><line class="cls-15" x1="357.26" y1="156.27" x2="357.26" y2="171.45"/><line class="cls-15" x1="436.93" y1="156.27" x2="436.93" y2="171.45"/><line class="cls-15" x1="516.61" y1="156.27" x2="516.61" y2="171.45"/><path class="cls-14" d="M636.12,118.33V115a19.41,19.41,0,0,0-19.43-19.41H135.77a19.47,19.47,0,0,0-19.43,19.5v3.26Z"/><circle class="cls-11" cx="561.69" cy="106.59" r="5.8"/><circle class="cls-11" cx="580" cy="106.59" r="5.8"/><path class="cls-11" d="M604.11,106.59a5.81,5.81,0,1,0-5.8,5.8h0A5.8,5.8,0,0,0,604.11,106.59Z"/><path class="cls-12" d="M116.34,679.84v18.5a19.44,19.44,0,0,0,19.44,19.44H616.67a19.44,19.44,0,0,0,19.45-19.44v-18.5Z"/><rect class="cls-1" x="209.29" y="264.4" width="288.34" height="161.25"/><polygon class="cls-11" points="497.64 354.66 433.21 313.15 367.67 378.67 321.8 325.16 212.37 423.8 209.33 425.64 497.64 425.64 497.64 354.66"/><circle class="cls-11" cx="254.72" cy="301.12" r="22.93"/><line class="cls-16" x1="210.24" y1="437.03" x2="496.69" y2="437.03"/><line class="cls-16" x1="210.24" y1="450.31" x2="382.87" y2="450.31"/><line class="cls-16" x1="460.65" y1="474.97" x2="498.59" y2="474.97"/><line class="cls-16" x1="417.01" y1="474.97" x2="456.85" y2="474.97"/><line class="cls-16" x1="401.84" y1="474.97" x2="413.22" y2="474.97"/><line class="cls-16" x1="348.72" y1="474.97" x2="399.94" y2="474.97"/><line class="cls-16" x1="282.33" y1="474.97" x2="343.03" y2="474.97"/><line class="cls-16" x1="233" y1="474.97" x2="274.74" y2="474.97"/><line class="cls-16" x1="210.24" y1="474.97" x2="227.31" y2="474.97"/><line class="cls-16" x1="246.28" y1="490.14" x2="210.24" y2="490.14"/><line class="cls-16" x1="291.81" y1="490.14" x2="251.97" y2="490.14"/><line class="cls-16" x1="306.99" y1="490.14" x2="295.61" y2="490.14"/><line class="cls-16" x1="360.1" y1="490.14" x2="308.88" y2="490.14"/><line class="cls-16" x1="426.5" y1="490.14" x2="365.8" y2="490.14"/><line class="cls-16" x1="475.82" y1="490.14" x2="434.09" y2="490.14"/><line class="cls-16" x1="498.59" y1="490.14" x2="481.51" y2="490.14"/><line class="cls-16" x1="460.65" y1="503.42" x2="498.59" y2="503.42"/><line class="cls-16" x1="417.01" y1="503.42" x2="456.85" y2="503.42"/><line class="cls-16" x1="401.84" y1="503.42" x2="413.22" y2="503.42"/><line class="cls-16" x1="348.72" y1="503.42" x2="399.94" y2="503.42"/><line class="cls-16" x1="282.33" y1="503.42" x2="343.03" y2="503.42"/><line class="cls-16" x1="233" y1="503.42" x2="274.74" y2="503.42"/><line class="cls-16" x1="210.24" y1="503.42" x2="227.31" y2="503.42"/><line class="cls-16" x1="246.28" y1="518.6" x2="210.24" y2="518.6"/><line class="cls-16" x1="291.81" y1="518.6" x2="251.97" y2="518.6"/><line class="cls-16" x1="306.99" y1="518.6" x2="295.61" y2="518.6"/><line class="cls-16" x1="360.1" y1="518.6" x2="308.88" y2="518.6"/><line class="cls-16" x1="426.5" y1="518.6" x2="365.8" y2="518.6"/><line class="cls-16" x1="475.82" y1="518.6" x2="434.09" y2="518.6"/><line class="cls-16" x1="498.59" y1="518.6" x2="481.51" y2="518.6"/><line class="cls-16" x1="460.65" y1="533.77" x2="498.59" y2="533.77"/><line class="cls-16" x1="417.01" y1="533.77" x2="456.85" y2="533.77"/><line class="cls-16" x1="401.84" y1="533.77" x2="413.22" y2="533.77"/><line class="cls-16" x1="348.72" y1="533.77" x2="399.94" y2="533.77"/><line class="cls-16" x1="282.33" y1="533.77" x2="343.03" y2="533.77"/><line class="cls-16" x1="233" y1="533.77" x2="274.74" y2="533.77"/><line class="cls-16" x1="210.24" y1="533.77" x2="227.31" y2="533.77"/><line class="cls-16" x1="246.28" y1="548.95" x2="210.24" y2="548.95"/><line class="cls-16" x1="291.81" y1="548.95" x2="251.97" y2="548.95"/><line class="cls-16" x1="306.99" y1="548.95" x2="295.61" y2="548.95"/><line class="cls-16" x1="360.1" y1="548.95" x2="308.88" y2="548.95"/><line class="cls-16" x1="426.5" y1="548.95" x2="365.8" y2="548.95"/><line class="cls-16" x1="475.82" y1="548.95" x2="434.09" y2="548.95"/><line class="cls-16" x1="498.59" y1="548.95" x2="481.51" y2="548.95"/><line class="cls-16" x1="460.65" y1="564.13" x2="498.59" y2="564.13"/><line class="cls-16" x1="417.01" y1="564.13" x2="456.85" y2="564.13"/><line class="cls-16" x1="401.84" y1="564.13" x2="413.22" y2="564.13"/><line class="cls-16" x1="348.72" y1="564.13" x2="399.94" y2="564.13"/><line class="cls-16" x1="282.33" y1="564.13" x2="343.03" y2="564.13"/><line class="cls-16" x1="233" y1="564.13" x2="274.74" y2="564.13"/><line class="cls-16" x1="210.24" y1="564.13" x2="227.31" y2="564.13"/><line class="cls-16" x1="246.28" y1="579.3" x2="210.24" y2="579.3"/><line class="cls-16" x1="291.81" y1="579.3" x2="251.97" y2="579.3"/><line class="cls-16" x1="306.99" y1="579.3" x2="295.61" y2="579.3"/><line class="cls-16" x1="360.1" y1="579.3" x2="308.88" y2="579.3"/><line class="cls-16" x1="426.5" y1="579.3" x2="365.8" y2="579.3"/><line class="cls-16" x1="475.82" y1="579.3" x2="434.09" y2="579.3"/><line class="cls-16" x1="498.59" y1="579.3" x2="481.51" y2="579.3"/><line class="cls-16" x1="460.65" y1="592.58" x2="498.59" y2="592.58"/><line class="cls-16" x1="417.01" y1="592.58" x2="456.85" y2="592.58"/><line class="cls-16" x1="401.84" y1="592.58" x2="413.22" y2="592.58"/><line class="cls-16" x1="348.72" y1="592.58" x2="399.94" y2="592.58"/><line class="cls-16" x1="282.33" y1="592.58" x2="343.03" y2="592.58"/><line class="cls-16" x1="233" y1="592.58" x2="274.74" y2="592.58"/><line class="cls-16" x1="210.24" y1="592.58" x2="227.31" y2="592.58"/><line class="cls-16" x1="246.28" y1="607.76" x2="210.24" y2="607.76"/><line class="cls-16" x1="291.81" y1="607.76" x2="251.97" y2="607.76"/><line class="cls-16" x1="306.99" y1="607.76" x2="295.61" y2="607.76"/><line class="cls-16" x1="360.1" y1="607.76" x2="308.88" y2="607.76"/><line class="cls-16" x1="426.5" y1="607.76" x2="365.8" y2="607.76"/><line class="cls-16" x1="475.82" y1="607.76" x2="434.09" y2="607.76"/><line class="cls-16" x1="498.59" y1="607.76" x2="481.51" y2="607.76"/><line class="cls-16" x1="460.65" y1="622.93" x2="498.59" y2="622.93"/><line class="cls-16" x1="417.01" y1="622.93" x2="456.85" y2="622.93"/><line class="cls-16" x1="401.84" y1="622.93" x2="413.22" y2="622.93"/><line class="cls-16" x1="348.72" y1="622.93" x2="399.94" y2="622.93"/><line class="cls-16" x1="282.33" y1="622.93" x2="343.03" y2="622.93"/><line class="cls-16" x1="233" y1="622.93" x2="274.74" y2="622.93"/><line class="cls-16" x1="210.24" y1="622.93" x2="227.31" y2="622.93"/><line class="cls-16" x1="246.28" y1="638.11" x2="210.24" y2="638.11"/><line class="cls-16" x1="291.81" y1="638.11" x2="251.97" y2="638.11"/><line class="cls-16" x1="306.99" y1="638.11" x2="295.61" y2="638.11"/><line class="cls-16" x1="360.1" y1="638.11" x2="308.88" y2="638.11"/><line class="cls-16" x1="426.5" y1="638.11" x2="365.8" y2="638.11"/><line class="cls-16" x1="475.82" y1="638.11" x2="434.09" y2="638.11"/><line class="cls-16" x1="498.59" y1="638.11" x2="481.51" y2="638.11"/><line class="cls-16" x1="460.65" y1="653.28" x2="498.59" y2="653.28"/><line class="cls-16" x1="417.01" y1="653.28" x2="456.85" y2="653.28"/><line class="cls-16" x1="401.84" y1="653.28" x2="413.22" y2="653.28"/><line class="cls-16" x1="348.72" y1="653.28" x2="399.94" y2="653.28"/><line class="cls-16" x1="282.33" y1="653.28" x2="343.03" y2="653.28"/><line class="cls-16" x1="233" y1="653.28" x2="274.74" y2="653.28"/><line class="cls-16" x1="210.24" y1="653.28" x2="227.31" y2="653.28"/><line class="cls-16" x1="246.28" y1="668.46" x2="210.24" y2="668.46"/><line class="cls-16" x1="291.81" y1="668.46" x2="251.97" y2="668.46"/><line class="cls-16" x1="306.99" y1="668.46" x2="295.61" y2="668.46"/><line class="cls-16" x1="360.1" y1="668.46" x2="308.88" y2="668.46"/><line class="cls-16" x1="426.5" y1="668.46" x2="365.8" y2="668.46"/><line class="cls-16" x1="475.82" y1="668.46" x2="434.09" y2="668.46"/><line class="cls-16" x1="498.59" y1="668.46" x2="481.51" y2="668.46"/></g><g id="freepik--Character--inject-2"><path class="cls-17" d="M617,667.51s-43.63,10.44-58.8,32.25S507,789.87,497.46,803.15,455.73,835.4,450,862.9s.94,46.48,30.35,61.66,68.29-16.13,91.05-24.67l.95,34.15H809.52l8.53-40.78s52.17,4.74,66.4,0,33.2,6.63,35.09-4.75-6.64-35.09-18-55-11.38-14.23-22.76-41.73-19.92-53.12-29.4-76.83-29.28-43.88-47.64-50-60.49-2.2-76.62-4.1S617,667.51,617,667.51Z"/><path class="cls-2" d="M813,867.32s16.43-25.93,46.15-34.14"/><path class="cls-2" d="M858.35,810.16a78.11,78.11,0,0,1,7.77-3.45"/><path class="cls-2" d="M808.57,857.21s16.9-26.69,42.13-42.76"/><path class="cls-2" d="M820,762.09c-9.48,23.85-23.41,64.62-20.87,92.58"/><path class="cls-2" d="M828.17,742.75s-1.75,3.79-4.37,9.88"/><path class="cls-2" d="M498.77,838.75a69.3,69.3,0,0,1,33.46,21"/><path class="cls-2" d="M477.22,837a49,49,0,0,1,12.92.09"/><path class="cls-2" d="M512.52,821.32c11.14,7.93,25.4,21.09,31.1,39"/><path class="cls-2" d="M497.46,812.31a88.28,88.28,0,0,1,9.49,5.33"/><path class="cls-11" d="M657.61,715.9s12.23,20.4,42.83,19.71,43.5-34,43.5-51-10.87-28.55-39.42-21.76S644,670.36,657.61,715.9Z"/><path class="cls-18" d="M662.37,675.78s-8.16,27.89-4.76,40.12A100.2,100.2,0,0,0,667.81,739s23.11-21.76,26.56-24.47,24.47,21.07,27.2,23.79,18.35-6.8,23.11-29.24,1.36-48.94-3.4-55.73-10.2-7.48-10.2-7.48S680.05,640.44,662.37,675.78Z"/><path class="cls-19" d="M667.13,678.51s19.71,33.31,25.84,34,33.29-21.74,40.78-40.1,1.35-38.08,1.35-38.08S712,663.55,696.36,673.07,667.13,678.51,667.13,678.51Z"/><path class="cls-14" d="M696.36,673.07a39.58,39.58,0,0,1-28.23,5.69l-.66.34c1.29,2.14,6.18,10.24,11.5,17.95A17.7,17.7,0,0,0,691.81,695c19.61-10.36,34.85-45.21,34.85-45.21L718,654.08C711,661.44,703,669,696.36,673.07Z"/><path class="cls-14" d="M599.14,497.67s-43.74,69.79-35.59,109.9,45.8,87.94,34.24,100.84-17.68,8.16-12.25,15.65,38.75,15.63,63.23,7.47,27.2-42.77,14.36-61.17S626.42,582,636.57,565.66s51-6.79,65.26,0,32.64,46.91,30.59,65.26,6.13,60.51,34,61.18,35.34-26.56,35.34-26.56-18.34,4.08-18.34-6.13,14.94-23.11,8.15-51.66-22.44-34-24.47-63.91-13.6-59.14-36.72-76.12S646.05,426.31,599.14,497.67Z"/><path class="cls-20" d="M603.05,592.52a59.68,59.68,0,0,0-.46,27.87c6.72,34.77,38.46,69.56,32.35,90.92s-25,19.52-36.05,10.38"/><path class="cls-20" d="M615.42,574a27.74,27.74,0,0,0-8.63,9.61"/><path class="cls-20" d="M623.88,684.51a32.83,32.83,0,0,1,6.18,18.25"/><path class="cls-20" d="M634.84,507.69c-13.9,11.38-30.62,27.28-42.6,46.17-24.42,38.45-22,48.22-8.56,78.73,8.59,19.54,25.19,32.81,36,46.25"/><path class="cls-20" d="M660.57,489.17s-6.93,4.16-16.81,11.56"/><path class="cls-20" d="M669.12,467.21s-11.59,36.61-9.77,43.93"/><path class="cls-20" d="M766.42,677.58a35.15,35.15,0,0,0,9.48,5"/><path class="cls-20" d="M742.67,553.05a98.49,98.49,0,0,1,26.56,28.89c23.2,36.61,5.5,45.15-5.49,65.29-6.07,11.14-5.8,19.29-2.06,25.19"/><path class="cls-20" d="M720.38,543.48a41.06,41.06,0,0,1,13.43,4.33"/><path class="cls-20" d="M754.58,537a72.48,72.48,0,0,1,7.29,10.2"/><path class="cls-20" d="M668.51,498.94s3.67,13.43,36.62,14a64.48,64.48,0,0,1,44.63,18.8"/><path class="cls-19" d="M661.68,514.67S624.29,548,616.82,569.06s17.07,70.7,19.71,78.17c2.9,8,10.85,15.39,16.31,21.61,8.88,10.09,22.18,23.46,36.92,21.47,18.38-2.48,37.24-30.94,45.34-45.79s9.6-37.33,9.6-37.33,9.48.68,9.48-12.24,1.35-32.63-5.44-32.63a20.88,20.88,0,0,0-12.24,4.76A178.79,178.79,0,0,1,691,541.25C668.48,523.51,661.68,514.67,661.68,514.67Z"/><path class="cls-2" d="M663.73,635a9.24,9.24,0,0,0,10.93,7.16,10.23,10.23,0,0,0,1.31-.37c10.19-2.72,11.55-6.11,11.55-6.11"/><path class="cls-2" d="M663.13,649.28s22.42,8.16,35.34-5.44"/><path class="cls-21" d="M682.1,579.93s8.84-10.19,29.23-4.08"/><path class="cls-21" d="M652.16,587.42s-13.58-4.76-25.15-4.76"/><path class="cls-2" d="M665.76,595.58a90.35,90.35,0,0,0-31.94-7.5c-17.68-.66-20.39,2-19.71,4.76s1.34,31.29,17,34,30.59,0,33.31-7.48S665.76,595.58,665.76,595.58Z"/><path class="cls-2" d="M675.27,594.29a90.84,90.84,0,0,1,30.35-12.37c17.34-3.42,20.45-1.16,20.2,1.63s3.55,31.09-11.47,36.23-30.22,4.76-34.15-2.2S675.27,594.29,675.27,594.29Z"/><path class="cls-2" d="M665.76,595.58a8.58,8.58,0,0,1,9.49-1.29"/><path class="cls-22" d="M652.14,607.32c.53,3.79-.55,6.94-2.41,7.21s-3.79-2.53-4.32-6.24.53-6.95,2.39-7.21S651.59,603.6,652.14,607.32Z"/><path class="cls-22" d="M700.4,603.92c.53,3.8-.53,7-2.39,7.21s-3.79-2.52-4.34-6.24.53-6.94,2.39-7.21S699.87,600.2,700.4,603.92Z"/><line class="cls-2" x1="725.59" y1="580.61" x2="736.46" y2="567.03"/><path class="cls-19" d="M740.28,842.66s-1.9-7.59-11.38-15.18-32.25-13.27-32.25-6.64,22.76,26.56,29.4,36,13.28,30.35,27.51,40.78,85.36,33.2,115.71,35.1,50.27-18,49.33-38.89S902.47,854,877.81,850.25s-36,8.53-50.27,12.33-25.61,7.59-25.61,7.59,7.59-25.61,5.69-33.2-14.8-12.39-14.8-12.39L783,815.1S763,799,760.2,799,746,785.69,731.74,785.69s-32.25,10.44-26.56,16.13,18,1.9,24.66,1.9,13.28,14.22,13.28,14.22-8.53,5.69-5.69,9.49,4.74,6.64,4.74,6.64Z"/><path class="cls-2" d="M741.68,832.93s1.39,7.59,7.27,7.59,3.45-8.63,5.52-11.39,7.59-12.78,7.59-12.78"/><path class="cls-2" d="M789.71,826s-13.47,12.78-14.51,13.48-4.13,7.95-6.56,11.75-8.29,4.83-10,0,.68-12.45,2.75-15.9S770,821.47,770,821.47s4.5-6.56,10.72-6.56"/><path class="cls-2" d="M782.47,833.57s-7.27,10-7.27,13.83-2.41,13.47.7,14.86,7.25,1.38,9.34-3.11l4.47-9.68s4.86-.34,6.93-3.79"/><path class="cls-2" d="M789.71,849.47a10.19,10.19,0,0,0,5.2,5.18"/><path class="cls-2" d="M758,798.67a5.14,5.14,0,0,0-5.52,3.79c-1.73,4.5-9.28,15.54-9.28,15.54"/><path class="cls-2" d="M751.7,822.86a62.73,62.73,0,0,1,1.38,7.58"/><path class="cls-2" d="M759.65,821.13a11,11,0,0,0,4.83,6.56"/><path class="cls-2" d="M801.93,870.17s-7.27,24.34-13,30.67"/><path class="cls-14" d="M541,786.4l53.84,147.07a9.49,9.49,0,0,0,8.94,6.26h141a9.48,9.48,0,0,0,9-12.83l-52.61-142a18.5,18.5,0,0,0-17.48-12.1l-133.84.79A9.49,9.49,0,0,0,541,786.4Z"/><path class="cls-19" d="M525.92,870.17l2.84-22.77s9.49-2.84,4.74-19-7.58-18-1.89-18,17.07,2.85,19.92,12.33,3.79,26.56,3.79,26.56,67.34-9.49,72.09-9.49,9.48,4.75,1.89,8.54-45.52,20.87-45.52,20.87,48.37-10.44,51.21-10.44,12.33,0,7.59,4.75S625.51,874,625.51,874s21.81-3.79,20.87,2.85-23.72,13.28-23.72,13.28,10.44,0,7.59,4.74-44.58,19.92-53.11,23.71S543,922.33,543,922.33a113.13,113.13,0,0,1-36,13.28c-20.87,3.8-42.69,2.85-52.17-19s-1.9-52.16,17.07-61.65,32.25-6.64,39.84-1S525.92,870.17,525.92,870.17Z"/><line class="cls-2" x1="583.78" y1="869.22" x2="564.81" y2="874.91"/><line class="cls-2" x1="625.51" y1="873.96" x2="570.5" y2="891.03"/><line class="cls-2" x1="622.66" y1="890.09" x2="576.19" y2="906.21"/><path class="cls-2" d="M525.92,870.17s-3.8,7.58-15.18,0"/><line class="cls-2" x1="542.99" y1="922.33" x2="521.17" y2="917.59"/><line class="cls-2" x1="555.32" y1="849.3" x2="535.4" y2="853.09"/></g><g id="freepik--Mug--inject-2"><path class="cls-5" d="M341.6,809.75a22.9,22.9,0,0,0,1.54,9.48c4.67,11.69,6,16.51,4.14,26"/><path class="cls-5" d="M346.12,794.82a34.06,34.06,0,0,0-3.34,8"/><path class="cls-5" d="M362.83,794.82s-7.76,12.52-3,24.45,6.06,16.5,4.16,26"/><path class="cls-5" d="M381.5,838.37a37.15,37.15,0,0,1-.82,6.89"/><path class="cls-5" d="M379.52,794.82s-7.75,12.52-3,24.45a108.15,108.15,0,0,1,3.79,10.62"/><path class="cls-11" d="M393.78,870.55s7.74-7.74,13.37-1.41,3.51,37.94-1.42,47.84-16.22.52-16.22.52v-6.85s5,4.67,10.68-.95,4.1-27.9,1.89-31.41-10.54,1.4-10.54,1.4Z"/><polygon class="cls-11" points="389.25 947.32 336.28 947.32 329.67 854.37 395.86 854.37 389.25 947.32"/></g></svg>