<svg id="Capa_1" data-name="Capa 1" xmlns="http://www.w3.org/2000/svg" xmlns:xlink="http://www.w3.org/1999/xlink" viewBox="0 0 1000 1000"><defs><style>.cls-1,.cls-2,.cls-21,.cls-3,.cls-4{fill:none;}.cls-2{clip-path:url(#clip-path);}.cls-3{clip-path:url(#clip-path-2);}.cls-4{clip-path:url(#clip-path-3);}.cls-11,.cls-19,.cls-5{fill:#1169c1;}.cls-11,.cls-14,.cls-21,.cls-5{stroke:#263238;stroke-miterlimit:10;stroke-width:1.14px;}.cls-5{clip-path:url(#clip-path-4);}.cls-6{fill:#d3d3d3;}.cls-23,.cls-7{fill:#263238;}.cls-8,.cls-9{fill:#fff;}.cls-9{opacity:0.46;}.cls-13,.cls-23,.cls-9{isolation:isolate;}.cls-10{clip-path:url(#clip-path-5);}.cls-12{clip-path:url(#clip-path-6);}.cls-13{opacity:0.3;}.cls-14{fill:#85b2d6;}.cls-15{fill:#d69c67;}.cls-16{clip-path:url(#clip-path-7);}.cls-17{fill:#ba68c8;}.cls-18{fill:#bc8558;}.cls-20{clip-path:url(#clip-path-8);}.cls-22{clip-path:url(#clip-path-9);}.cls-23{opacity:0.9;}</style><clipPath id="clip-path"><path class="cls-1" d="M446.56,479.41l34.38,13S457,642.66,451.24,654.46,432,680,414.67,681.62s-29.92-17.07-30.43-36.74S446.56,479.41,446.56,479.41Z"/></clipPath><clipPath id="clip-path-2"><polygon class="cls-1" points="552.76 458.96 444.9 480.53 462.16 693.03 672.52 693.03 700.56 471.9 572.17 457.88 552.76 458.96"/></clipPath><clipPath id="clip-path-3"><path class="cls-1" d="M529,415.77s7.53,42.08,8.63,52.86S566.61,556,575,543.53C584,529.9,594.84,487,596.89,477.26s2.17-51.76,2.17-51.76S571.09,444.91,529,415.77Z"/></clipPath><clipPath id="clip-path-4"><polygon class="cls-1" points="700.56 472.94 728.67 695.17 672.52 694.08 700.56 472.94"/></clipPath><clipPath id="clip-path-5"><rect class="cls-1" x="305.36" y="246.87" width="429.1" height="443.73"/></clipPath><clipPath id="clip-path-6"><path class="cls-3" d="M672.52,695.47H462.16a1.19,1.19,0,0,1-1.19-1.12l-17.29-212.5a1.21,1.21,0,0,1,1-1.29l108-21.58h0l19.5-1.1L700.7,471.93a1.24,1.24,0,0,1,.83.44,1.26,1.26,0,0,1,.25.92l-28,221.16A1.23,1.23,0,0,1,672.52,695.47ZM463.31,693H671.45l27.74-218.81L572.14,460.39,553,461.47,446.29,482.82Z"/></clipPath><clipPath id="clip-path-7"><path class="cls-4" d="M572.75,546.14a4.08,4.08,0,0,1-.92-.13c-11.46-2.85-34.33-66.85-35.38-77.26s-8.53-52.32-8.63-52.76a1.22,1.22,0,0,1,1.9-1.22c40.91,28.33,68.46,9.9,68.73,9.75a1.26,1.26,0,0,1,1.27,0,1.28,1.28,0,0,1,.66,1.1c0,1.71,0,42.3-2.2,52-2.44,10.58-13,52.86-22.21,66.68A3.86,3.86,0,0,1,572.75,546.14Zm-42-127.74c1.7,9.76,7.31,40.92,8.11,50.11,1.05,10.51,24.17,72.8,33.55,75.14a1.64,1.64,0,0,0,1.54-.78c8.9-13.39,19.67-56.08,21.94-65.83,1.83-8.22,2.1-40.76,2.12-49.39C590.94,431.23,565.58,441.3,530.7,418.4Z"/></clipPath><clipPath id="clip-path-8"><path class="cls-5" d="M728.67,696.39h0l-56.08-1.09a1.26,1.26,0,0,1-.9-.42,1.21,1.21,0,0,1-.27-1l28-221.13a1.21,1.21,0,0,1,1.22-1.07h0a1.21,1.21,0,0,1,1.2,1.07L730,695a1.16,1.16,0,0,1-.29,1A1.19,1.19,0,0,1,728.67,696.39Zm-54.76-3.51,53.37,1L700.46,482.65Z"/></clipPath><clipPath id="clip-path-9"><path class="cls-2" d="M412.45,682.94a24.15,24.15,0,0,1-16.16-6.42c-7.9-7-13-19.11-13.34-31.69-.54-19.63,59.93-160,62.49-166a1.22,1.22,0,0,1,1.56-.63l34.37,12.94a1.19,1.19,0,0,1,.78,1.32c-1,6.14-24,150.62-29.84,162.42-6.19,12.68-20.23,26.21-37.62,27.87A9.83,9.83,0,0,1,412.45,682.94Zm34.77-202c-5.71,13.31-62.32,145.67-61.83,163.88.29,11.83,5.09,23.26,12.53,29.84a21.36,21.36,0,0,0,16.55,5.71c16.44-1.56,29.75-14.43,35.67-26.48,5.39-11,27.36-147.74,29.45-160.76Z"/></clipPath></defs><g id="freepik--background-simple--inject-2"><path class="cls-6" d="M694.19,724.36s95.09-5.93,160.53-122.86S908.35,306.21,827,207.12,618.88,74.32,498,106c-58.9,15.46-98.18,55.51-132.12,103.81-29.57,42.08-62.83,82.65-107.59,109.28-44.3,26.38-89.87,47.39-112.15,97.52C91.67,538.55,131.51,680.5,260.27,728.33,399,779.85,630.78,752.1,694.19,724.36Z"/></g><g id="freepik--Device--inject-2"><path class="cls-7" d="M228.39,312.7H799.26a15.65,15.65,0,0,1,15.66,15.65h0V724.73H212.71V328.37a15.66,15.66,0,0,1,15.65-15.67Z"/><path class="cls-7" d="M817.35,724.73H212.71V327.15a16.9,16.9,0,0,1,16.9-16.89H800.44a16.92,16.92,0,0,1,16.91,16.89Zm-602.2-2.44H814.92V327.15a14.49,14.49,0,0,0-14.48-14.45H229.6a14.46,14.46,0,0,0-14.45,14.45Z"/><path class="cls-7" d="M889.49,912.46H140.55c-8.28,0-15.25-11.87-11.58-19.29l84.19-163.56H816.9l84.63,163C905.23,900,897.89,912.46,889.49,912.46Z"/><path class="cls-7" d="M889.47,914.9H140.57a13.69,13.69,0,0,1-11.19-7.17,14.69,14.69,0,0,1-1.54-13.88l84.53-164.24H817.62l.34.63,84.63,163a15,15,0,0,1-1.71,14.13A14.41,14.41,0,0,1,889.47,914.9ZM214,732,130.13,895a12.25,12.25,0,0,0,1.44,11.48,11.43,11.43,0,0,0,9.06,6H889.41a11.9,11.9,0,0,0,9.32-6.36,12.62,12.62,0,0,0,1.62-11.72L816.07,732Z"/><path class="cls-8" d="M889.49,905.15H140.54a11.13,11.13,0,0,1-10-16.08l82.6-166.78H816.89l82.58,166.78a11.14,11.14,0,0,1-10,16.08Z"/><path class="cls-7" d="M889.47,907.58H140.56a12.36,12.36,0,0,1-11.18-17.84L212,723a1.18,1.18,0,0,1,1.1-.69h603.8A1.16,1.16,0,0,1,818,723l82.6,166.76A12.37,12.37,0,0,1,895,906.3,12.19,12.19,0,0,1,889.47,907.58ZM214,724.73l-82.31,166.1a9.92,9.92,0,0,0,8.88,14.32h749a9.92,9.92,0,0,0,8.89-14.32l-82.24-166.1Z"/><rect class="cls-8" x="249.28" y="344.39" width="529.06" height="346.21"/><path class="cls-7" d="M780.78,693H249.28V344.39h531.5ZM251.72,690.6H778.34V346.83H251.72Z"/><rect class="cls-6" x="263.91" y="502.87" width="502.24" height="175.54"/><path class="cls-9" d="M329.74,607.68v-2.42a2.43,2.43,0,0,0-2.44-2.43h-3.55a21.25,21.25,0,0,0-2.69-6.51l2.52-2.52a2.51,2.51,0,0,0,0-3.44l-3.25-3.24a2.51,2.51,0,0,0-3.47,0l-2.52,2.51a21,21,0,0,0-6.54-2.69v-3.62a2.44,2.44,0,0,0-2.44-2.44h-4.88a2.44,2.44,0,0,0-2.43,2.44V587a21.41,21.41,0,0,0-6.58,2.7l-2.54-2.52a2.54,2.54,0,0,0-3.48,0l-3.15,3.15a2.51,2.51,0,0,0,0,3.46l2.54,2.53a21,21,0,0,0-2.72,6.54h-3.58a2.43,2.43,0,0,0-2.44,2.43v2.44a2.44,2.44,0,0,0,2.44,2.44h3.62a21,21,0,0,0,2.69,6.53l-2.51,2.51a2.51,2.51,0,0,0,0,3.44l3.24,3.24a2.51,2.51,0,0,0,3.44,0l2.52-2.51a21,21,0,0,0,6.51,2.68v3.61a2.43,2.43,0,0,0,2.43,2.44h4.88a2.44,2.44,0,0,0,2.44-2.44V626a21.63,21.63,0,0,0,6.61-2.68l2.54,2.51a2.58,2.58,0,0,0,3.51,0l3.28-3.24a2.49,2.49,0,0,0,0-3.44l-2.54-2.51a21,21,0,0,0,2.72-6.53h3.58A2.52,2.52,0,0,0,329.74,607.68ZM304,616.25A10.14,10.14,0,1,1,313,605.14a11.58,11.58,0,0,1,0,2A10.14,10.14,0,0,1,304,616.25Z"/><path class="cls-9" d="M371.19,639.27v-4.75a2.44,2.44,0,0,0-2.44-2.44h-3.49a21,21,0,0,0-2.72-6.53l2.52-2.52a2.49,2.49,0,0,0,0-3.46l-3.26-3.25a2.54,2.54,0,0,0-3.48,0l-2.52,2.52a21,21,0,0,0-6.56-2.69v-3.57a2.43,2.43,0,0,0-2.43-2.44h-4.88a2.44,2.44,0,0,0-2.44,2.44v3.6a21.51,21.51,0,0,0-6.52,2.69l-2.51-2.51a2.51,2.51,0,0,0-3.46,0l-3.23,3.23a2.53,2.53,0,0,0,0,3.47l2.51,2.5a20.4,20.4,0,0,0-2.71,6.52H320a2.44,2.44,0,0,0-2.44,2.44v4.88a2.44,2.44,0,0,0,2.44,2.44h3.58a20.35,20.35,0,0,0,2.71,6.51l-2.51,2.51a2.53,2.53,0,0,0,0,3.47l3.23,3.21a2.49,2.49,0,0,0,3.46,0L333,655a21.51,21.51,0,0,0,6.52,2.69v3.62a2.44,2.44,0,0,0,2.44,2.44h4.88a2.43,2.43,0,0,0,2.43-2.44v-3.62A21.53,21.53,0,0,0,355.8,655l2.52,2.51a2.52,2.52,0,0,0,3.48,0l3.26-3.21a2.51,2.51,0,0,0,0-3.47l-2.52-2.51a21,21,0,0,0,2.72-6.51h3.53A2.53,2.53,0,0,0,371.19,639.27Zm-25.37,8.17a10.17,10.17,0,1,1,9.07-11.16,10.43,10.43,0,0,1,0,2.09,10.18,10.18,0,0,1-9.07,9.07Z"/><path class="cls-7" d="M375.39,519.93H284.21c-.58-.52-1-1-1-1.56a.83.83,0,0,1,1-.88h91.18a.83.83,0,0,1,1.07.88h0C376.45,519,376,519.41,375.39,519.93Z"/><path class="cls-7" d="M375.39,532.12H284.21c-.59.45-1,0-1-.61s.47-1,1-1.83h91.18c.58.78,1.06,1.24,1.07,1.83S376,532.58,375.39,532.12Z"/><path class="cls-7" d="M375.39,546.75H284.21c-.58-1-1-1.5-1-2.08s.46-1.06,1-.36h91.18c.59-.71,1.07-.23,1.07.36h0C376.45,545.26,376,545.72,375.39,546.75Z"/><path class="cls-7" d="M375.39,558.94H284.21a1.16,1.16,0,0,1-1-1.13,1.57,1.57,0,0,1,1-1.31h91.18a1.61,1.61,0,0,1,1.07,1.31A1.15,1.15,0,0,1,375.39,558.94Z"/><rect class="cls-6" x="263.91" y="361.46" width="502.24" height="19.5" rx="9.65"/><rect class="cls-6" x="263.91" y="427.29" width="502.24" height="19.5" rx="9.65"/><polygon class="cls-7" points="489.74 780.8 490.78 758.86 459.39 758.86 457.3 780.8 489.74 780.8"/><path class="cls-8" d="M490.92,783.24H456l2.41-24.38h33.76Zm-32.28-2.44h29.92l.94-19.5h-29Z"/><polygon class="cls-7" points="554.82 780.8 553.76 758.86 522.35 758.86 522.37 780.8 554.82 780.8"/><path class="cls-8" d="M557.31,783.24h-35V758.86h33.76Zm-32.5-2.44h29.92l-.94-19.5h-29Z"/><polygon class="cls-7" points="726.27 805.19 761.2 805.19 753 780.8 719.25 780.8 726.27 805.19"/><path class="cls-8" d="M762.87,807.62H725.38l-7.75-26.82h36.24Zm-35.69-2.43H759.5l-7.36-22H720.85Z"/><polygon class="cls-7" points="456.91 780.8 459 758.86 427.59 758.86 424.46 780.8 456.91 780.8"/><path class="cls-8" d="M458,783.24h-35l3.47-24.38H460.3Zm-32.15-2.44H455.8l1.85-19.5H428.79Z"/><polygon class="cls-7" points="391.24 780.8 395.43 758.86 364.02 758.86 358.79 780.8 391.24 780.8"/><path class="cls-8" d="M392.27,783.24h-35l5.81-24.38h33.76Zm-31.91-2.44h29.87l3.7-19.5H365.07Z"/><polygon class="cls-7" points="686.75 780.8 681.48 758.86 650.09 758.86 654.31 780.8 686.75 780.8"/><path class="cls-8" d="M688.29,783.24h-35l-4.68-24.38h33.76Zm-33-2.44h29.87l-4.67-19.5H651.66Z"/><polygon class="cls-7" points="719.59 780.8 713.25 758.86 681.87 758.86 687.14 780.8 719.59 780.8"/><path class="cls-8" d="M721.2,783.24h-35l-5.83-24.38h33.76Zm-33.1-2.44H718l-5.61-19.5H683.48Z"/><polygon class="cls-7" points="358.4 780.8 363.63 758.86 332.25 758.86 325.96 780.8 358.4 780.8"/><path class="cls-8" d="M359.38,783.24h-35l7-24.38H365.2ZM327.6,780.8h29.82l4.64-19.5H333.2Z"/><polygon class="cls-7" points="588.25 780.8 586.13 758.86 554.75 758.86 555.8 780.8 588.25 780.8"/><path class="cls-8" d="M589.6,783.24h-35l-1.18-24.38h33.76ZM557,780.8H586.9L585,761.3H556Z"/><polygon class="cls-7" points="752.42 780.8 745.05 758.86 713.64 758.86 719.98 780.8 752.42 780.8"/><path class="cls-8" d="M754.11,783.24H719l-7-24.38h33.9Zm-33.22-2.44h29.82l-6.54-19.5H715.31Z"/><polygon class="cls-7" points="653.92 780.8 649.7 758.86 618.29 758.86 621.47 780.8 653.92 780.8"/><path class="cls-8" d="M655.39,783.24h-35l-3.52-24.38h33.76Zm-32.86-2.44h29.85l-3.76-19.5H619.76Z"/><polygon class="cls-7" points="621.08 780.8 617.9 758.86 586.52 758.86 588.64 780.8 621.08 780.8"/><path class="cls-8" d="M622.5,783.24h-35l-2.42-24.38h33.77Zm-32.76-2.44h29.92l-2.81-19.5h-29Z"/><polygon class="cls-7" points="522.35 780.8 522.32 758.86 490.94 758.86 489.9 780.8 522.35 780.8"/><path class="cls-8" d="M524.83,783.24H489.89L491,758.86h33.77Zm-32.4-2.44h29.92V761.3h-29Z"/><polygon class="cls-7" points="293.49 780.8 259.74 780.8 250.42 805.19 285.32 805.19 293.49 780.8"/><path class="cls-8" d="M286.19,807.62H248.7L259,780.8h36.26Zm-34-2.43h32.3l7.34-22H260.56Z"/><polygon class="cls-7" points="300.08 758.86 268.67 758.86 260.31 780.8 292.76 780.8 300.08 758.86"/><path class="cls-8" d="M293.62,783.24H258.53l9.31-24.38h33.93Zm-31.54-2.44h29.77l6.52-19.5H269.51Z"/><polygon class="cls-7" points="325.57 780.8 331.86 758.86 300.47 758.86 293.15 780.8 325.57 780.8"/><path class="cls-8" d="M326.5,783.24H291.44l8.15-24.38h33.76Zm-31.66-2.44h29.82l5.58-19.5H301.38Z"/><polygon class="cls-7" points="241.5 832 231.27 858.82 267.08 858.82 276.05 832 241.5 832"/><path class="cls-8" d="M268,858.82H229.48l11.31-29.25h37.07ZM233,856.39H266.2L274.27,832H242.36Z"/><polygon class="cls-7" points="284.06 805.19 251.5 805.19 242.17 829.57 275.93 829.57 284.06 805.19"/><path class="cls-8" d="M276.81,832H240.4l10.25-26.81h35.16ZM244,829.57H275l7.33-22h-30Z"/><polygon class="cls-7" points="276.72 832 267.75 858.82 303.57 858.82 311.25 832 276.72 832"/><path class="cls-8" d="M304.5,858.82H266.16l9.78-29.25h37Zm-35.06-2.43h33.19l7-24.39h-32Z"/><polygon class="cls-7" points="424.07 780.8 427.2 758.86 395.82 758.86 391.63 780.8 424.07 780.8"/><path class="cls-8" d="M425.15,783.24h-35l4.63-24.38h33.76Zm-32-2.44H423l2.76-19.5h-29Z"/><polygon class="cls-7" points="421.29 805.19 424.77 780.8 391.02 780.8 386.38 805.19 421.29 805.19"/><path class="cls-8" d="M422.35,807.62H384.86L390,780.8h36.14Zm-34.52-2.43h32.42l3.14-22H392Z"/><polygon class="cls-7" points="387.31 805.19 391.94 780.8 358.19 780.8 352.38 805.19 387.31 805.19"/><path class="cls-8" d="M388.31,807.62H350.79l6.42-26.82h36.2Zm-34.39-2.43H386.3l4.2-22H359.15Z"/><polygon class="cls-7" points="455.29 805.19 457.59 780.8 423.84 780.8 420.36 805.19 455.29 805.19"/><path class="cls-8" d="M456.38,807.62h-37.5l3.83-26.82h36.11Zm-34.62-2.43h32.42l2.09-22H424.9Z"/><polygon class="cls-7" points="326.29 780.8 292.57 780.8 284.4 805.19 319.33 805.19 326.29 780.8"/><path class="cls-8" d="M320.22,807.62H282.73l8.94-26.82h36.25Zm-34.13-2.43h32.32l6.29-22H293.41Z"/><polygon class="cls-7" points="734.56 829.57 768.29 829.57 760.11 805.19 727.52 805.19 734.56 829.57"/><path class="cls-8" d="M770,832H733.63l-7.71-26.81h35.16Zm-34.5-2.43h31.08l-7.26-22H729.1Z"/><polygon class="cls-7" points="353.31 805.19 359.12 780.8 325.37 780.8 318.4 805.19 353.31 805.19"/><path class="cls-8" d="M354.27,807.62H316.78l7.7-26.82h36.09ZM320,805.19h32.37l5.23-22H326.28Z"/><polygon class="cls-7" points="285.49 805.19 277.35 829.57 311.08 829.57 318.07 805.19 285.49 805.19"/><path class="cls-8" d="M312,832H275.58l9-26.81h35.16Zm-33-2.43h31.09l6.28-22h-30Z"/><polygon class="cls-7" points="659.21 805.19 654.53 780.8 620.78 780.8 624.31 805.19 659.21 805.19"/><path class="cls-8" d="M660.69,807.62H623.2l-3.88-26.82h36.1Zm-35.35-2.43h32.43l-4.25-22H622.17Z"/><polygon class="cls-7" points="625.24 805.19 621.7 780.8 587.95 780.8 590.31 805.19 625.24 805.19"/><path class="cls-8" d="M626.61,807.62H589.12l-2.5-26.82h36.12Zm-35.22-2.43h32.47l-3.17-22H589.28Z"/><polygon class="cls-7" points="727.19 805.19 720.18 780.8 686.43 780.8 692.29 805.19 727.19 805.19"/><path class="cls-8" d="M728.72,807.62H691.23l-6.45-26.82H721Zm-35.59-2.43H725.5l-6.33-22H688Z"/><polygon class="cls-7" points="522.35 805.19 522.32 780.8 488.57 780.8 487.42 805.19 522.35 805.19"/><path class="cls-8" d="M524.91,807.62H487.42l1.25-26.82h36.12Zm-35-2.43h32.45v-22H490.93Z"/><polygon class="cls-7" points="591.23 805.19 588.88 780.8 555.13 780.8 556.3 805.19 591.23 805.19"/><path class="cls-8" d="M592.56,807.62H555.07l-1.32-26.82h36.11Zm-35.08-2.43h32.45l-2.11-22H556.4Z"/><polygon class="cls-7" points="557.28 805.19 556.1 780.8 522.35 780.8 522.37 805.19 557.28 805.19"/><path class="cls-8" d="M559.87,807.62H522.35V780.8h36.22Zm-35.16-2.43h32.45l-1.08-22H524.79Z"/><polygon class="cls-7" points="489.27 805.19 490.42 780.8 456.67 780.8 454.36 805.19 489.27 805.19"/><path class="cls-8" d="M490.43,807.62H452.94l2.49-26.82h36.12Zm-34.74-2.43h32.45l1-22h-31.4Z"/><polygon class="cls-7" points="591.52 805.19 593.88 829.57 627.61 829.57 624.11 805.19 591.52 805.19"/><path class="cls-8" d="M629,832H592.76l-2.58-26.81h35Zm-34-2.43h31.17l-3.19-22H592.9Z"/><polygon class="cls-7" points="625.53 805.19 629.04 829.57 662.79 829.57 658.1 805.19 625.53 805.19"/><path class="cls-8" d="M664.26,832H628l-3.85-26.81h35Zm-34.11-2.43h31.12l-4.21-22H627Z"/><polygon class="cls-7" points="319.5 805.19 312.51 829.57 346.24 829.57 352.06 805.19 319.5 805.19"/><path class="cls-8" d="M347.24,832H310.91l7.66-26.81h35.05Zm-33.08-2.43h31.11l5.24-22H320.42Z"/><polygon class="cls-7" points="659.52 805.19 664.22 829.57 697.95 829.57 692.11 805.19 659.52 805.19"/><path class="cls-8" d="M699.51,832H663.22l-5.16-26.81h35Zm-34.26-2.43h31.13l-5.37-22h-30Z"/><polygon class="cls-7" points="522.35 805.19 522.37 829.57 556.1 829.57 554.91 805.19 522.35 805.19"/><path class="cls-8" d="M558.59,832H522.35V805.19H557.3Zm-33.69-2.43h31.21l-1.07-22H524.79Z"/><polygon class="cls-7" points="693.53 805.19 699.38 829.57 733.13 829.57 726.1 805.19 693.53 805.19"/><path class="cls-8" d="M734.64,832H698.42L692,805.19h35Zm-34.35-2.43h31.07l-6.2-22H695.1Z"/><polygon class="cls-7" points="557.51 805.19 558.7 829.57 592.46 829.57 590.1 805.19 557.51 805.19"/><path class="cls-8" d="M593.8,832H557.56l-1.32-26.81h35Zm-33.91-2.43h31.2l-2.11-22H558.73Z"/><polygon class="cls-7" points="387.5 805.19 382.85 829.57 416.6 829.57 420.06 805.19 387.5 805.19"/><path class="cls-8" d="M417.65,832H381.39l5.08-26.81h35Zm-33.32-2.43h31.11l3.14-22H388.52Z"/><polygon class="cls-7" points="353.49 805.19 347.67 829.57 381.42 829.57 386.07 805.19 353.49 805.19"/><path class="cls-8" d="M382.43,832h-36.2l6.31-26.81h35Zm-33.18-2.43H380.4l4.17-22H354.48Z"/><polygon class="cls-7" points="489.74 805.19 488.62 829.57 522.35 829.57 522.32 805.19 489.74 805.19"/><path class="cls-8" d="M524.81,832H488.53l1.27-26.81h35Zm-33.63-2.43h31.17v-22H492.13Z"/><polygon class="cls-7" points="455.5 805.19 453.18 829.57 486.94 829.57 488.06 805.19 455.5 805.19"/><path class="cls-8" d="M488.09,832H451.84l2.54-26.81h35Zm-33.54-2.43h31.2l1-22H456.52Z"/><polygon class="cls-7" points="421.49 805.19 418.03 829.57 451.76 829.57 454.07 805.19 421.49 805.19"/><path class="cls-8" d="M452.86,832H416.61l3.83-26.81h35Zm-33.42-2.43h31.18l2.09-22H422.46Z"/><polygon class="cls-7" points="693.22 805.19 687.35 780.8 653.6 780.8 658.29 805.19 693.22 805.19"/><path class="cls-8" d="M694.76,807.62H657.23l-5.17-26.82h36.2Zm-35.49-2.43h32.4l-5.28-22H655.05Z"/><polygon class="cls-7" points="299.91 758.86 307.23 736.92 277.59 736.92 269.21 758.86 299.91 758.86"/><path class="cls-8" d="M300.8,761.3H267.44l9.31-24.38H309ZM271,758.86h28.14l6.51-19.5H278.46Z"/><polygon class="cls-7" points="268.3 758.86 239.32 758.86 229.97 780.8 259.94 780.8 268.3 758.86"/><path class="cls-8" d="M260.77,783.24H228.14l10.37-24.38h31.57Zm-28.89-2.44h27.25l7.46-19.5H240.13Z"/><polygon class="cls-7" points="276.56 736.92 249.2 736.92 239.85 758.86 268.18 758.86 276.56 736.92"/><path class="cls-8" d="M269,761.3H238l10.37-24.38h29.95Zm-27.32-2.44h25.62l7.45-19.5H250Z"/><polygon class="cls-7" points="260.63 780.8 229.46 780.8 219.06 805.19 251.31 805.19 260.63 780.8"/><path class="cls-8" d="M252.14,807.62h-35l11.43-26.82h33.71Zm-31.23-2.43h29.56l8.39-22h-28.6Z"/><polygon class="cls-7" points="250.13 805.19 220.05 805.19 209.67 829.57 240.8 829.57 250.13 805.19"/><path class="cls-8" d="M241.65,832H207.83l11.41-26.81h32.64Zm-30.14-2.43h28.57l8.38-22h-27.6Z"/><polygon class="cls-7" points="240.86 832 208.99 832 197.56 858.82 230.62 858.82 240.86 832"/><path class="cls-8" d="M231.45,858.82H195.7l12.49-29.25h34.4Zm-32-2.43h30.35L239.08,832H209.8Z"/><polygon class="cls-7" points="784.96 780.8 794.3 805.19 825.2 805.19 814.8 780.8 784.96 780.8"/><path class="cls-8" d="M827.05,807.62H793.48l-10.3-26.82h32.49Zm-31.9-2.43h28.2l-9.35-22H786.7Z"/><polygon class="cls-7" points="804.81 829.57 834.66 829.57 824.26 805.19 795.44 805.19 804.81 829.57"/><path class="cls-8" d="M836.48,832H804l-10.27-26.81h31.37Zm-30.83-2.43H832.8l-9.31-22h-26.2Z"/><polygon class="cls-7" points="815.06 858.82 846.73 858.82 835.32 832 804.77 832 815.06 858.82"/><path class="cls-8" d="M848.59,858.82H814.23L803,829.57h33.14Zm-32.7-2.43h28.92L834.42,832H806.6Z"/><polygon class="cls-7" points="553.07 758.86 551.99 736.92 522.35 736.92 522.37 758.86 553.07 758.86"/><path class="cls-8" d="M555.56,761.3H522.35V736.92h32Zm-30.75-2.44h28.13l-1-19.5H524.79Z"/><polygon class="cls-7" points="785.62 780.8 814.31 780.8 804.96 758.86 777.19 758.86 785.62 780.8"/><path class="cls-8" d="M816.16,783.24H784.81l-9.35-24.38h30.36Zm-29.71-2.44h26l-8.29-19.5H779Z"/><polygon class="cls-7" points="769.71 829.57 803.47 829.57 794.09 805.19 761.53 805.19 769.71 829.57"/><path class="cls-8" d="M805.29,832H768.83l-9-26.81H795Zm-34.62-2.43h31l-8.46-22h-30Z"/><polygon class="cls-7" points="331.66 758.86 337.94 736.92 308.3 736.92 300.98 758.86 331.66 758.86"/><path class="cls-8" d="M332.6,761.3H299.26l8.15-24.38h32.16Zm-29.92-2.44h28.13l5.6-19.5H309.24Z"/><polygon class="cls-7" points="745.44 758.86 752.81 780.8 785.25 780.8 776.83 758.86 745.44 758.86"/><path class="cls-8" d="M787,783.24H751.93l-8.2-24.38h33.93ZM753.7,780.8h29.77L776,761.3H747.13Z"/><polygon class="cls-7" points="804.44 758.86 795.1 736.92 768.87 736.92 777.3 758.86 804.44 758.86"/><path class="cls-8" d="M806.3,761.3H776.46L767,736.92h28.9Zm-28.17-2.44h24.45l-8.29-19.5H770.66Z"/><polygon class="cls-7" points="776.29 758.86 767.86 736.92 738.24 736.92 745.61 758.86 776.29 758.86"/><path class="cls-8" d="M778.08,761.3H744.72l-8.2-24.38h32.2Zm-31.58-2.44h28L767,739.36H739.94Z"/><polygon class="cls-7" points="663.99 832 669.15 858.82 704.97 858.82 698.51 832 663.99 832"/><path class="cls-8" d="M706.51,858.82H668.17l-5.63-29.25h37Zm-36.35-2.43H703.4L697.55,832H665.46Z"/><polygon class="cls-7" points="778.61 858.82 814.42 858.82 804.14 832 769.59 832 778.61 858.82"/><path class="cls-8" d="M816.21,858.82H777.73l-9.83-29.25H805Zm-36.72-2.43h33.15L803.28,832h-32Z"/><polygon class="cls-7" points="744.54 758.86 737.17 736.92 707.53 736.92 713.84 758.86 744.54 758.86"/><path class="cls-8" d="M746.23,761.3H712.92l-7.09-24.38H738Zm-31.45-2.44h28.13l-6.54-19.5H709.16Z"/><polygon class="cls-7" points="734.4 832 742.13 858.82 777.94 858.82 768.92 832 734.4 832"/><path class="cls-8" d="M779.63,858.82H741.29l-8.43-29.25h37ZM743,856.39h33.2L768,832H735.92Z"/><polygon class="cls-7" points="699.18 832 705.64 858.82 741.45 858.82 733.73 832 699.18 832"/><path class="cls-8" d="M743.07,858.82H704.73l-7-29.25h37Zm-36.47-2.43h33.21l-7-24.39h-32Z"/><polygon class="cls-7" points="760.27 805.19 795.17 805.19 785.83 780.8 752.08 780.8 760.27 805.19"/><path class="cls-8" d="M797,807.62H759.53l-9-26.82h36.27Zm-35.81-2.43h32.3l-8.45-22H753.74Z"/><polygon class="cls-7" points="458.7 758.86 460.77 736.92 431.13 736.92 428 758.86 458.7 758.86"/><path class="cls-8" d="M459.81,761.3H426.57l3.5-24.38h32.06Zm-30.38-2.44h28.13l1.86-19.5h-27.2Z"/><polygon class="cls-7" points="712.77 758.86 706.46 736.92 676.82 736.92 682.09 758.86 712.77 758.86"/><path class="cls-8" d="M714.41,761.3H681.12l-6-24.38h32.11Zm-31.35-2.44h28.13l-5.63-19.5H678.39Z"/><polygon class="cls-7" points="426.93 758.86 430.06 736.92 400.42 736.92 396.25 758.86 426.93 758.86"/><path class="cls-8" d="M428,761.3H394.75l4.73-24.38h32.08Zm-30.29-2.44h28.13l2.79-19.5H401.46Z"/><polygon class="cls-7" points="522.35 758.86 522.32 736.92 492.71 736.92 491.67 758.86 522.35 758.86"/><path class="cls-8" d="M524.81,761.3H491.62l1.13-24.38h32Zm-30.59-2.44h28.13v-19.5H495.11Z"/><polygon class="cls-7" points="395.18 758.86 399.35 736.92 369.73 736.92 364.48 758.86 395.18 758.86"/><path class="cls-8" d="M396.15,761.3H362.93l5.81-24.38h32.13ZM366,758.86h28.13l3.73-19.5H370.7Z"/><polygon class="cls-7" points="363.41 758.86 368.66 736.92 339.02 736.92 332.73 758.86 363.41 758.86"/><path class="cls-8" d="M364.47,761.3H331.11l7.09-24.38h32.13Zm-30-2.44h28.13l4.69-19.5H340Z"/><polygon class="cls-7" points="490.45 758.86 491.49 736.92 461.85 736.92 459.78 758.86 490.45 758.86"/><path class="cls-8" d="M491.64,761.3H458.42l2.36-24.38h32.06ZM461,758.86h28.13l.91-19.5H462.94Z"/><polygon class="cls-7" points="681.02 758.86 675.74 736.92 646.1 736.92 650.34 758.86 681.02 758.86"/><path class="cls-8" d="M682.57,761.3H649.3l-4.72-24.38h32.1Zm-31.21-2.44h28.13l-4.69-19.5H647.61Z"/><polygon class="cls-7" points="649.27 758.86 645.03 736.92 615.41 736.92 618.57 758.86 649.27 758.86"/><path class="cls-8" d="M650.74,761.3H617.5L614,736.92h32.09Zm-31.08-2.44h28.13L644,739.36h-27.2Z"/><polygon class="cls-7" points="585.74 758.86 583.63 736.92 553.98 736.92 555.07 758.86 585.74 758.86"/><path class="cls-8" d="M587.1,761.3H553.88l-1.18-24.38h32Zm-30.87-2.44h28.13l-1.9-19.5H555.27Z"/><polygon class="cls-7" points="660.27 832 625.73 832 591.21 832 556.66 832 522.14 832 487.62 832 453.07 832 418.55 832 384 832 349.45 832 314.93 832 307.25 858.82 343.07 858.82 378.88 858.82 414.72 858.82 450.53 858.82 486.35 858.82 522.16 858.82 557.98 858.82 593.79 858.82 629.6 858.82 665.44 858.82 660.27 832"/><path class="cls-8" d="M667.16,858.82H305.34l8.36-29.25H661.53Zm-361.72-2.43H667.37L662.5,832H312.59Z"/><polygon class="cls-7" points="617.49 758.86 614.34 736.92 584.7 736.92 586.82 758.86 617.49 758.86"/><path class="cls-8" d="M618.92,761.3H585.7l-2.36-24.38H615.4Zm-31-2.44h28.13l-2.83-19.5H586Z"/></g><g id="freepik--Character--inject-2"><g class="cls-10"><ellipse class="cls-7" cx="562.68" cy="460.78" rx="65.02" ry="82.77"/><path class="cls-7" d="M562.68,544.75c-36.57,0-66.26-37.67-66.26-84s29.72-84,66.26-84,66.25,37.67,66.25,84S599.21,544.75,562.68,544.75Zm0-165.52c-35.2,0-63.82,36.57-63.82,81.55s28.62,81.53,63.82,81.53,63.81-36.57,63.81-81.53-28.63-81.55-63.81-81.55Z"/><path class="cls-7" d="M416.11,671.57c-6,0-12.75-5.29-16.36-8.55-5.07-4.61-10.32-11.07-10.32-13.95,0-4.12,48.77-151.16,54.4-167.86a1.23,1.23,0,0,1,.85-.81,1.28,1.28,0,0,1,1.12.27l18.46,16.85a1.23,1.23,0,0,1,.39,1.05L446.46,658.31a1.19,1.19,0,0,1-.58.9c-.76.47-18.56,11.29-28.82,12.31Zm29.45-187.73c-15.36,46.33-53.27,160.91-53.64,165.38,0,1.39,3.71,6.82,9.51,12.07s11.58,8.26,15.43,7.89c8.8-.87,24.38-9.87,27.28-11.65l18.07-158.47Z"/><polygon class="cls-11" points="552.76 458.96 444.9 480.53 462.16 693.03 672.52 693.03 700.56 471.9 572.17 457.88 552.76 458.96"/><path class="cls-7" d="M672.52,695.47H462.16a1.19,1.19,0,0,1-1.19-1.12l-17.29-212.5a1.21,1.21,0,0,1,1-1.29l108-21.58h0l19.5-1.1L700.7,471.93a1.24,1.24,0,0,1,.83.44,1.26,1.26,0,0,1,.25.92l-28,221.16A1.23,1.23,0,0,1,672.52,695.47ZM463.31,693H671.45l27.74-218.81L572.14,460.39,553,461.47,446.29,482.82Z"/><g class="cls-12"><polygon class="cls-13" points="459.22 695.47 675.34 695.47 680.77 652.72 680.37 650.64 628.22 662.01 650.96 566.27 525.82 621.25 495.49 651.59 514.45 651.59 458.64 688.31 459.22 695.47"/></g><path class="cls-11" d="M541.3,448s-17.5,9.58-21.94,18.19-22.8,72.53-22.8,72.53l30.21,6.48-29.11,14,44.06,126.2,70.12-4.32,45.64-132.68L629.41,536.6l24.82-10.8s-23.72-45.3-36.57-64.7S541.3,448,541.3,448Z"/><path class="cls-7" d="M541.81,686.67a1.22,1.22,0,0,1-1.14-.81L496.56,559.64a1.23,1.23,0,0,1,.64-1.49l25.91-12.48-26.81-5.73a1.24,1.24,0,0,1-.81-.56,1.22,1.22,0,0,1-.12-1c.75-2.61,18.58-64.1,22.89-72.73s21.6-18.31,22.33-18.73a1.31,1.31,0,0,1,.47-.12c2.61-.27,64.12-6.21,77.31,13.58,12.85,19.24,36.57,64.39,36.74,64.83a1.12,1.12,0,0,1,0,1,1.09,1.09,0,0,1-.66.7l-22.21,9.76,25.43,10.75a1.23,1.23,0,0,1,.68,1.53L612.88,681.64a1.21,1.21,0,0,1-1.07.81l-70.12,4.31ZM499.25,559.89l43.42,124.34,68.26-4.2,44.84-130.85-27-11.41a1.22,1.22,0,0,1-.76-1.12,1.25,1.25,0,0,1,.74-1.12l23.62-10.26c-3.8-7.32-24.38-46-36-63.39-12-18-70.48-12.93-74.8-12.54-2,1.13-17.26,9.76-21.11,17.56S500.73,529,498.1,538L527,544.16a1.21,1.21,0,0,1,1,1.05,1.25,1.25,0,0,1-.68,1.24Z"/><polygon class="cls-14" points="539.41 696.25 538.51 474.04 596.76 468.63 613.85 694.08 539.41 696.25"/><path class="cls-7" d="M538.19,697.47a1.3,1.3,0,0,1-.85-.35,1.23,1.23,0,0,1-.36-.87L536.07,474a1.2,1.2,0,0,1,1.1-1.22l58.25-5.29a1.11,1.11,0,0,1,.9.27,1.29,1.29,0,0,1,.44.85L613.82,694.1a1.23,1.23,0,0,1-.31.9,1.16,1.16,0,0,1-.88.39l-74.41,2.17Zm1.22-222.33L540.32,695l71.89-2.07L595.32,470Z"/><path class="cls-15" d="M529,415.77s7.53,42.08,8.63,52.86S566.61,556,575,543.53C584,529.9,594.84,487,596.89,477.26s2.17-51.76,2.17-51.76S571.09,444.91,529,415.77Z"/><path class="cls-7" d="M572.75,546.14a4.08,4.08,0,0,1-.92-.13c-11.46-2.85-34.33-66.85-35.38-77.26s-8.53-52.32-8.63-52.76a1.22,1.22,0,0,1,1.9-1.22c40.91,28.33,68.46,9.9,68.73,9.75a1.26,1.26,0,0,1,1.27,0,1.28,1.28,0,0,1,.66,1.1c0,1.71,0,42.3-2.2,52-2.44,10.58-13,52.86-22.21,66.68A3.86,3.86,0,0,1,572.75,546.14Zm-42-127.74c1.7,9.76,7.31,40.92,8.11,50.11,1.05,10.51,24.17,72.8,33.55,75.14a1.64,1.64,0,0,0,1.54-.78c8.9-13.39,19.67-56.08,21.94-65.83,1.83-8.22,2.1-40.76,2.12-49.39C590.94,431.23,565.58,441.3,530.7,418.4Z"/><g class="cls-16"><path class="cls-17" d="M598.72,453.46c.44-13.8.44-28,.44-28S571.09,445,529,415.75c0,0,3.09,17.33,5.61,32.59,5.75,7.32,16.7,19,30.2,21.12C578.73,471.7,589.94,464.34,598.72,453.46Z"/><path class="cls-18" d="M598.72,453.46c.44-13.8.44-28,.44-28S571.09,445,529,415.75c0,0,3.09,17.33,5.61,32.59,5.75,7.32,16.7,19,30.2,21.12C578.73,471.7,589.94,464.34,598.72,453.46Z"/></g><path class="cls-15" d="M622.31,373.72s11.85-15.12,11.85,2.14-11.85,19.51-11.85,19.51Z"/><path class="cls-7" d="M621.09,396.51a1.16,1.16,0,0,1-.78-.29,1.13,1.13,0,0,1-.44-.93V373.72a1.21,1.21,0,0,1,.24-.76c1-1.32,6.42-7.8,10.51-6.39,2.44.83,3.54,3.88,3.54,9.29,0,18.07-12.73,20.6-12.85,20.63Zm1.22-22.38v19.5c3-1.17,9.41-5.19,9.41-17.77,0-5.7-1.32-6.78-1.88-7C628,368.28,624.4,371.57,622.31,374.13Z"/><path class="cls-15" d="M504.22,338.12s14,63.56,14,72.26c0,18.31,34.52,38.84,49.61,43.16s51.79-29.14,54-37.77,3.21-84.14-1.1-99.23-29.06-24.82-45.3-24.82S511.78,300.35,504.22,338.12Z"/><path class="cls-7" d="M570.83,455.15a11.76,11.76,0,0,1-3.29-.44c-14.63-4.2-50.52-24.92-50.52-44.33,0-8.46-13.85-71.36-14-72a2.18,2.18,0,0,1,0-.51c7.73-38.67,56.08-47.38,72.39-47.38s41.94,9.76,46.47,25.7,3.22,91.4,1.1,100c-1.59,6.37-19.36,23.94-35.36,33.18C580.85,453.17,575.22,455.15,570.83,455.15Zm-65.55-117c1.1,5,14,63.75,14,72.29,0,17.45,33.86,37.71,48.76,42,4,1.15,10.31-.66,18.21-5.22,15.85-9.14,32.89-26.42,34.13-31.69,2-8.12,3.24-83.53-1.07-98.6-4.17-14.62-28.92-23.94-44.13-23.94-15.73,0-62.32,8.32-69.9,45.15Z"/><path class="cls-7" d="M560.07,377.15c0,3-1.34,5.46-3,5.46s-3-2.43-3-5.46,1.37-5.46,3-5.46S560.07,374.13,560.07,377.15Z"/><path class="cls-7" d="M595.6,377.15c0,3-1.37,5.46-3.05,5.46s-3-2.43-3-5.46,1.37-5.46,3-5.46S595.6,374.13,595.6,377.15Z"/><path class="cls-7" d="M579.09,400.24a1.18,1.18,0,0,1-1.12-.78,1.21,1.21,0,0,1,.66-1.58c4.87-1.91,11.75-5.66,12.19-8,.19-.9-.17-1.22-3.27-1.9a12.27,12.27,0,0,1-6.12-2.68c-3.63-3.64-.66-13.83-.29-15a1.27,1.27,0,1,1,2.44.7c-1.17,3.81-2.29,10.58-.32,12.56a10.5,10.5,0,0,0,4.88,2c2.44.56,5.82,1.32,5.12,4.87-.88,4.49-11.56,9-13.68,9.76A1.16,1.16,0,0,1,579.09,400.24Z"/><path class="cls-7" d="M568.29,416.48a14.61,14.61,0,0,1-12.87-6.27,1.18,1.18,0,0,1,.31-1.66l0,0a1.22,1.22,0,0,1,1.68.34c5.85,8.8,19.51,3.63,19.51,3.59a1.22,1.22,0,0,1,.9,2.26A29.72,29.72,0,0,1,568.29,416.48Z"/><path class="cls-7" d="M545.91,368.67a1.62,1.62,0,0,1-.44,0,1.22,1.22,0,0,1-.71-1.57v0a13.09,13.09,0,0,1,6.54-6.75,14.3,14.3,0,0,1,11.24.39,1.22,1.22,0,0,1-.9,2.27h0a11.93,11.93,0,0,0-9.37-.44A10.82,10.82,0,0,0,547,368,1.16,1.16,0,0,1,545.91,368.67Z"/><path class="cls-7" d="M598,364.67a1.25,1.25,0,0,1-1-.46c-2.44-3-4.66-4.54-6.86-4.44a7.64,7.64,0,0,0-5.19,3.46,1.24,1.24,0,0,1-1.68.39,1.19,1.19,0,0,1-.42-1.64l0,0a10,10,0,0,1,7.12-4.61c3.12-.17,6.07,1.66,8.92,5.39a1.22,1.22,0,0,1-.22,1.71A1.18,1.18,0,0,1,598,364.67Z"/><path class="cls-7" d="M626.12,300.35c-10.68-12.19-21.94-11.46-28.67-8.82-9.12-15.36-39.25-27.55-78-12.75-45.3,17.26-39.91,63.65-37.74,72.29s17.26,31.28,27,32.35c0,0,8.63-7.56,8.63-15.09s20.5-22.65,41-29.14c12.9-4.07,27.06-11.55,35.26-21.11A33.49,33.49,0,0,0,598.18,336c6.49,9.75,16.19,15.12,16.19,18.36s5.39,15.09,9.75,15.09,4.32-17.26,5.39-24.82S641.21,317.62,626.12,300.35Z"/><path class="cls-7" d="M508.53,385.84h-.14c-10.61-1.2-25.82-24.6-28-33.28-.12-.54-12-54.44,38.53-73.7,37.32-14.24,68.26-4.32,79.06,12.38,5.51-1.85,17.56-3.66,29.06,9.51h0c12.61,14.41,7.83,30.23,4.88,39.72a42.87,42.87,0,0,0-1.44,5.48c-.27,1.83-.46,4.29-.68,6.88-.93,11.48-1.85,19-5.93,19-5.36,0-10.92-12.87-10.92-16.31,0-1-2.44-3.32-4.87-5.51A66.74,66.74,0,0,1,597,337.81a32.3,32.3,0,0,1-4.88-15.56c-7.75,7.88-20.11,15-33.79,19.29-20.68,6.53-40.13,21.28-40.13,28,0,8-8.68,15.68-9.05,16A1.24,1.24,0,0,1,508.53,385.84Zm44.72-112.5a94.4,94.4,0,0,0-33.5,6.58c-48.59,18.53-37.13,70.32-37,70.85,2.14,8.58,16.48,29.6,25.4,31.36,1.66-1.56,7.81-7.81,7.81-13.8,0-8.46,21.11-23.75,41.83-30.31,14.51-4.56,27.48-12.33,34.7-20.75a1.24,1.24,0,0,1,1.36-.34,1.21,1.21,0,0,1,.78,1.15,32.31,32.31,0,0,0,4.46,17.21A64.31,64.31,0,0,0,609.79,347c3.41,3.15,5.68,5.22,5.68,7.32,0,3.14,5.26,13.87,8.48,13.87,2.15,0,3.1-11.73,3.51-16.75.2-2.63.42-5.12.69-7a43.68,43.68,0,0,1,1.51-5.85c2.87-9.56,7.31-24-4.46-37.4h0c-10.83-12.36-21.75-10.63-27.31-8.49a1.22,1.22,0,0,1-1.49-.53C590.67,282.53,575.09,273.34,553.25,273.34Z"/><path class="cls-8" d="M499.46,356.58h-.21a1.21,1.21,0,0,1-1-1.41c.71-3.78,3.36-7,8.14-9.9a1.22,1.22,0,0,1,1.25,2.1c-4.12,2.43-6.42,5.19-7,8.26A1.2,1.2,0,0,1,499.46,356.58Z"/><path class="cls-8" d="M514.9,343.68a1.25,1.25,0,0,1-1.15-.78,1.22,1.22,0,0,1,.71-1.56A205.67,205.67,0,0,1,540.35,334c6.53-1.51,12.73-3,17.87-4.6,19.31-6.15,30.14-23,30.26-23.12a1.21,1.21,0,0,1,1.64-.42l0,0a1.22,1.22,0,0,1,.37,1.68,63.41,63.41,0,0,1-31.7,24.17c-5.22,1.65-11.46,3.12-18,4.65a207.88,207.88,0,0,0-25.58,7.07A1.27,1.27,0,0,1,514.9,343.68Z"/><path class="cls-8" d="M495.83,321.93a1.13,1.13,0,0,1-.68-.22,1.21,1.21,0,0,1-.34-1.68c2.44-3.78,9-3.51,18.84-3.12a192.83,192.83,0,0,0,23.92-.15c22.16-1.78,42-15.11,42.16-15.26a1.22,1.22,0,0,1,1.39,2h0c-.83.56-20.53,13.85-43.32,15.68a193.64,193.64,0,0,1-24.21.15c-8.68-.35-14.95-.61-16.73,2A1.19,1.19,0,0,1,495.83,321.93Z"/><path class="cls-8" d="M626.8,334.66h0a1.23,1.23,0,0,1-1.17-1.27h0a41.8,41.8,0,0,0-.65-9,1.19,1.19,0,0,1,.9-1.43h0a1.22,1.22,0,0,1,1.43,1v0a45,45,0,0,1,.7,9.56,1.22,1.22,0,0,1-1.26,1.17Z"/><path class="cls-8" d="M624.81,320.49a1.18,1.18,0,0,1-1.15-.83,31,31,0,0,0-19-18.7,1.25,1.25,0,0,1-.85-1.51,1.22,1.22,0,0,1,1.51-.83A32.83,32.83,0,0,1,626,318.86a1.21,1.21,0,0,1-.74,1.55h0A1.07,1.07,0,0,1,624.81,320.49Z"/><path class="cls-7" d="M546.4,431.16a19.44,19.44,0,0,1-9.19-1.91c-9.29-4.87-25.8-26.81-26.48-27.84a1.22,1.22,0,1,1,1.95-1.46c.17.22,16.85,22.5,25.67,27.16s25.38-1.83,25.55-1.9a1.22,1.22,0,0,1,1.59.7,1.24,1.24,0,0,1-.71,1.59A59.89,59.89,0,0,1,546.4,431.16Z"/><path class="cls-7" d="M570.39,426.55c0,2.22-2.73,4.05-6.07,4.05s-6.07-1.83-6.07-4.05,2.7-4.05,6.07-4.05S570.39,424.31,570.39,426.55Z"/><path class="cls-8" d="M502.2,369.81s-20-51.83,0-82.74c0,0-30.94,31.81-3.64,90Z"/><path class="cls-8" d="M516.07,386.61c1.83,12.19-1.49,22.73-7.44,23.63s-12.19-8.24-14-20.41,1.51-22.72,7.43-23.62S514.34,374.45,516.07,386.61Z"/><path class="cls-7" d="M507.9,411.46c-6.36,0-12.58-9.1-14.43-21.48a37.9,37.9,0,0,1,.85-16.61c1.54-4.87,4.24-7.92,7.61-8.41,6.68-1,13.48,8.39,15.43,21.41a38.15,38.15,0,0,1-.85,16.6c-1.56,4.88-4.25,7.93-7.61,8.41A6.74,6.74,0,0,1,507.9,411.46ZM503,367.33a2.36,2.36,0,0,0-.65,0c-2.44.34-4.39,2.8-5.64,6.73a35.44,35.44,0,0,0-.75,15.5c1.68,11.27,7.46,20.17,12.65,19.36,2.44-.34,4.41-2.8,5.66-6.73a35.75,35.75,0,0,0,.75-15.5c-1.73-10.73-7.12-19.31-12.11-19.31Z"/><ellipse class="cls-8" cx="502" cy="387.86" rx="9.65" ry="22.26" transform="translate(-52.09 78.94) rotate(-8.55)"/><path class="cls-7" d="M504.63,411.16c-2.78,0-5.63-2.12-8.09-6a41.66,41.66,0,0,1-5.32-15.61c-2-13,1.25-23.94,7.32-24.84s12.19,8.58,14.26,21.6a42,42,0,0,1-.49,16.48c-1.31,4.88-3.73,7.9-6.8,8.37Zm-5.36-44.83h-.41c-3.95.59-7.08,9.76-5.22,21.95a39.43,39.43,0,0,0,4.87,14.62c2.15,3.39,4.49,5.17,6.51,4.88s3.78-2.71,4.88-6.58a39.36,39.36,0,0,0,.44-15.48C508.56,374.18,503.19,366.33,499.27,366.33Z"/><polygon class="cls-11" points="700.56 472.94 728.67 695.17 672.52 694.08 700.56 472.94"/><path class="cls-7" d="M728.67,696.39h0l-56.08-1.09a1.26,1.26,0,0,1-.9-.42,1.21,1.21,0,0,1-.27-1l28-221.13a1.21,1.21,0,0,1,1.22-1.07h0a1.21,1.21,0,0,1,1.2,1.07L730,695a1.16,1.16,0,0,1-.29,1A1.19,1.19,0,0,1,728.67,696.39Zm-54.76-3.51,53.37,1L700.46,482.65Z"/><path class="cls-19" d="M728.67,696.39h0l-56.08-1.09a1.26,1.26,0,0,1-.9-.42,1.21,1.21,0,0,1-.27-1l28-221.13a1.21,1.21,0,0,1,1.22-1.07h0a1.21,1.21,0,0,1,1.2,1.07L730,695a1.16,1.16,0,0,1-.29,1A1.19,1.19,0,0,1,728.67,696.39Zm-54.76-3.51,53.37,1L700.46,482.65Z"/><g class="cls-20"><polygon class="cls-13" points="714.93 594.14 685.7 611.7 686.19 578.85 671.58 694.08 727.73 695.17 723.12 658.87 698.62 659.68 720.37 637.08 720.2 635.59 690.31 645.83 717.34 613.09 714.93 594.14"/></g><path class="cls-21" d="M728.67,696.39h0l-56.08-1.09a1.26,1.26,0,0,1-.9-.42,1.21,1.21,0,0,1-.27-1l28-221.13a1.21,1.21,0,0,1,1.22-1.07h0a1.21,1.21,0,0,1,1.2,1.07L730,695a1.16,1.16,0,0,1-.29,1A1.19,1.19,0,0,1,728.67,696.39Zm-54.76-3.51,53.37,1L700.46,482.65Z"/><path class="cls-8" d="M499.68,407.41s8.29-2.9,10.1.29,3.9,17.07,3.85,19-.73,3.78-4.49,2.44-9.75-13.55-9.75-13.55Z"/><path class="cls-7" d="M511.36,431a7.67,7.67,0,0,1-2.63-.54c-4-1.48-9.36-12-10.39-14.16a1.75,1.75,0,0,1,0-.56l.25-8.19a1.21,1.21,0,0,1,.8-1.12c1.56-.54,9.36-3.05,11.56.85,1.92,3.39,4.09,17.63,4,19.67a4.27,4.27,0,0,1-1.51,3.49A3.54,3.54,0,0,1,511.36,431Zm-10.7-15.51c2.27,4.56,6.56,11.81,8.9,12.68,1.68.61,2.27.34,2.44.25a2.29,2.29,0,0,0,.46-1.54c0-1.68-2-15.41-3.71-18.41-.8-1.46-4.87-.9-7.82,0Z"/><path class="cls-15" d="M462.93,451.39s7.68-49.37,7.85-54.73,7.32-9.75,10.73-11.07,22.92-.68,25-.61,10.41-.37,10.34,2.44-.81,4-7.78,5.12-23.65,2-23.65,2l-4.36,6.58,20.7,3.95s4.87,2.14,4,5.48-3.29,18-3.34,20-2.19,3.29-7.14,6.51a25.22,25.22,0,0,1-9.75,3.73s.39,10.07-2.44,11.31L476,455.24l-1,57.62-31.82-3.61Z"/><path class="cls-7" d="M476,512.62h-.14L444.44,509a1.08,1.08,0,0,1-.9-1.6l19.56-57.2c.38-2.42,7.59-49,7.74-54.06.17-6.1,7.94-10.87,11.45-12.1s18.77-.87,25.23-.68h.58c3.95,0,7.92.12,9.51,1.74a2.34,2.34,0,0,1,.69,1.73c0,3.76-1.95,5.07-8.58,6.16-6.14,1-19.56,1.76-22.6,1.93l-2.93,4.42,18.44,3.52h.26c.21,0,5.57,2.55,4.57,6.71-.84,3.5-3.19,17.56-3.24,19.29,0,2.38-2.21,3.88-6.87,6.9l-.62.41a26.48,26.48,0,0,1-9,3.63c0,3.24-.24,9.85-3.1,11.14l-6.16,2.76-1,57.62a1.22,1.22,0,0,1-.41.89A1.19,1.19,0,0,1,476,512.62Zm-31.25-4.93,28.8,3.32.94-56.27a1.21,1.21,0,0,1,.73-1.07l7-3.15c1.21-.56,1.86-5.8,1.69-10.17a1.21,1.21,0,0,1,1.07-1.26,23.74,23.74,0,0,0,9.25-3.54l.65-.41c4.15-2.73,5.85-3.88,5.9-5.1,0-2.24,2.64-17.07,3.37-20.26.48-2-2.43-3.71-3.18-4l-20.45-3.93a1.24,1.24,0,0,1-.9-.73,1.29,1.29,0,0,1,0-1.15l4.32-6.58a1.29,1.29,0,0,1,1-.53c.15,0,16.59-.86,23.39-2s6.67-2.17,6.72-4c-.22-.37-1.53-1.05-7.82-1.05h-1.31c-9.7-.29-22-.32-24.4.53-3.28,1.17-9.7,5.42-9.87,10-.17,5.36-7.5,52.85-7.82,54.88v.19Zm18.64-56.3"/><path class="cls-7" d="M505.28,415.1h-.22L480,410.58a1.23,1.23,0,1,1,.44-2.43l25.11,4.53a1.22,1.22,0,1,1-.22,2.44h0Z"/><path class="cls-7" d="M501.71,424.85h-.27l-20.68-5a1.25,1.25,0,0,1,.57-2.43l20.69,5a1.17,1.17,0,0,1,.9,1.39s0,.05,0,.07A1.18,1.18,0,0,1,501.71,424.85Z"/><path class="cls-7" d="M485.93,441.88a1.16,1.16,0,0,1-1-.56c-.88-1.36-2.85-4.7-2.19-6.53a1.92,1.92,0,0,1,1.29-1.22c1.92-.59,6.41-1.73,6.41-1.73l.61,2.44s-4,1-6,1.61a13.36,13.36,0,0,0,1.95,4.19,1.21,1.21,0,0,1-.37,1.68A1.24,1.24,0,0,1,485.93,441.88Z"/><path class="cls-11" d="M446.56,479.41l34.38,13S457,642.66,451.24,654.46,432,680,414.67,681.62s-29.92-17.07-30.43-36.74S446.56,479.41,446.56,479.41Z"/><path class="cls-7" d="M412.45,682.94a24.15,24.15,0,0,1-16.16-6.42c-7.9-7-13-19.11-13.34-31.69-.54-19.63,59.93-160,62.49-166a1.22,1.22,0,0,1,1.56-.63l34.37,12.94a1.19,1.19,0,0,1,.78,1.32c-1,6.14-24,150.62-29.84,162.42-6.19,12.68-20.23,26.21-37.62,27.87A9.83,9.83,0,0,1,412.45,682.94Zm34.77-202c-5.71,13.31-62.32,145.67-61.83,163.88.29,11.83,5.09,23.26,12.53,29.84a21.36,21.36,0,0,0,16.55,5.71c16.44-1.56,29.75-14.43,35.67-26.48,5.39-11,27.36-147.74,29.45-160.76Z"/><g class="cls-22"><path class="cls-13" d="M418.11,604.12A157.15,157.15,0,0,1,392,614.6c-3.1,9-5.47,16.63-6.73,22.09l16.26-2.05a180.94,180.94,0,0,0,34.13-7.31s-26.82,16.6-50.73,19.38h-.57c1.59,18.48,13.68,35.45,30.26,33.87,17.43-1.66,30.87-15.39,36.57-27.16,2.83-5.81,10.05-45,16.65-83.31A285,285,0,0,1,418.11,604.12Z"/></g></g></g><g id="freepik--Gears--inject-2"><path class="cls-7" d="M785.66,221.21v-7.35a3.56,3.56,0,0,0-3.56-3.56H777a30.91,30.91,0,0,0-3.92-9.44l3.6-3.62a3.58,3.58,0,0,0,0-5l-4.63-4.63a3.59,3.59,0,0,0-5,0l-3.62,3.59a31.16,31.16,0,0,0-9.44-3.92v-5.08a3.56,3.56,0,0,0-3.56-3.56h-7.51a3.56,3.56,0,0,0-3.55,3.56v5.08a31.16,31.16,0,0,0-9.44,3.92l-3.61-3.59a3.6,3.6,0,0,0-5.06,0l-4.62,4.62a3.58,3.58,0,0,0,0,5l3.6,3.62a30.41,30.41,0,0,0-3.9,9.44h-5.1a3.56,3.56,0,0,0-3.56,3.56v7.51a3.56,3.56,0,0,0,3.56,3.56h5.08a30.48,30.48,0,0,0,3.89,9.42l-3.58,3.6a3.58,3.58,0,0,0,0,5.05l4.6,4.6a3.57,3.57,0,0,0,5,0l3.6-3.58a30,30,0,0,0,9.49,3.94v5.09a3.55,3.55,0,0,0,3.55,3.56h7.51a3.56,3.56,0,0,0,3.56-3.56v-5.13a30.65,30.65,0,0,0,9.46-3.91l3.64,3.61a3.56,3.56,0,0,0,5,0l4.53-4.55a3.6,3.6,0,0,0,0-5.05L773,234.4a31.35,31.35,0,0,0,3.93-9.47h5.12a3.54,3.54,0,0,0,3.61-3.47Zm-36.57,11.93a15.27,15.27,0,0,1-16.82-13.78,15.61,15.61,0,0,1,14.82-16.66,15.27,15.27,0,0,1,15.55,13.64,14.62,14.62,0,0,1,0,3.24,15.29,15.29,0,0,1-13.55,13.63Z"/><path class="cls-7" d="M161.51,512.34v-4.29a2.74,2.74,0,0,0-2.73-2.75h-4a24.19,24.19,0,0,0-3-7.26l2.78-2.77a2.73,2.73,0,0,0,0-3.84h0l-3.6-3.61a2.7,2.7,0,0,0-3.82,0h0l-2.78,2.77a23.21,23.21,0,0,0-7.24-3v-3.95a2.71,2.71,0,0,0-2.7-2.72h-4.34a2.72,2.72,0,0,0-2.71,2.71v4a23.32,23.32,0,0,0-7.26,3l-2.79-2.77a2.74,2.74,0,0,0-3.85,0h0l-3.58,3.61a2.7,2.7,0,0,0,0,3.81l0,0,2.77,2.77a24,24,0,0,0-3,7.26h-4A2.68,2.68,0,0,0,103,508v4.35a2.71,2.71,0,0,0,2.7,2.72h3.91a23.28,23.28,0,0,0,3,7.25l-2.75,2.79a2.7,2.7,0,0,0,0,3.8l0,.05,3.68,3.6a2.7,2.7,0,0,0,3.83,0h0l2.77-2.79a23.06,23.06,0,0,0,7.23,3v4a2.71,2.71,0,0,0,2.71,2.71h4.31a2.75,2.75,0,0,0,2.73-2.74v-3.93a23.19,23.19,0,0,0,7.29-3l2.81,2.79a2.74,2.74,0,0,0,3.86,0h0l3.62-3.6a2.71,2.71,0,0,0,0-3.84h0l-2.8-2.79a23.33,23.33,0,0,0,3-7.25h3.94A2.75,2.75,0,0,0,161.51,512.34Zm-27.73,9.12A11.51,11.51,0,1,1,144,508.83a11.73,11.73,0,0,1,0,2.37A11.5,11.5,0,0,1,133.78,521.46Z"/><path class="cls-7" d="M910,446.62v-6.88a2.7,2.7,0,0,0-2.71-2.7h-3.95a23.38,23.38,0,0,0-3-7.22l2.79-2.75a2.7,2.7,0,0,0,0-3.82h0l-3.61-3.59a2.73,2.73,0,0,0-3.84,0h0l-2.79,2.75a23.75,23.75,0,0,0-7.25-3v-4.05a2.71,2.71,0,0,0-2.72-2.7h-4.32a2.71,2.71,0,0,0-2.71,2.71h0v3.93a24,24,0,0,0-7.27,3l-2.79-2.77a2.71,2.71,0,0,0-3.84,0h0l-3.58,3.61a2.68,2.68,0,0,0,0,3.8l0,.05,2.76,2.77a23.5,23.5,0,0,0-3,7.26h-4a2.68,2.68,0,0,0-2.68,2.68v6.79a2.71,2.71,0,0,0,2.71,2.72h3.95a23.07,23.07,0,0,0,3,7.25l-2.76,2.79a2.69,2.69,0,0,0,0,3.81l0,0,3.57,3.6a2.71,2.71,0,0,0,3.84,0h0l2.79-2.78a23.6,23.6,0,0,0,7.26,3v3.92a2.74,2.74,0,0,0,2.71,2.74h4.32a2.73,2.73,0,0,0,2.72-2.73V467a23.1,23.1,0,0,0,7.26-3l2.79,2.78a2.73,2.73,0,0,0,3.85,0h0l3.6-3.59a2.68,2.68,0,0,0,0-3.82h0l-2.81-2.88a23.14,23.14,0,0,0,3-7.22h3.93A2.74,2.74,0,0,0,910,446.62Zm-29.26,7.89A11.51,11.51,0,1,1,891,441.88a11.73,11.73,0,0,1,0,2.37,11.5,11.5,0,0,1-10.27,10.21Z"/><path class="cls-7" d="M498,118.82v-2.26a1.36,1.36,0,0,0-1.35-1.35h-2a11.82,11.82,0,0,0-1.52-3.63l1.4-1.38a1.37,1.37,0,0,0,0-1.93l-1.81-1.8a1.33,1.33,0,0,0-1.9,0l-1.4,1.39a12,12,0,0,0-3.63-1.51V104.4a1.38,1.38,0,0,0-1.35-1.38h-2.18a1.38,1.38,0,0,0-1.35,1.38v1.95a12,12,0,0,0-3.64,1.51l-1.39-1.39a1.37,1.37,0,0,0-1.93,0l-1.78,1.8a1.37,1.37,0,0,0,0,1.93l1.37,1.37a12.18,12.18,0,0,0-1.5,3.64h-2a1.35,1.35,0,0,0-1.35,1.35v2.15a1.38,1.38,0,0,0,1.35,1.38h2a11.86,11.86,0,0,0,1.5,3.62l-1.37,1.4a1.37,1.37,0,0,0,0,1.93l1.78,1.81a1.37,1.37,0,0,0,1.93,0l1.39-1.4a11.26,11.26,0,0,0,3.64,1.5v2a1.35,1.35,0,0,0,1.35,1.35h2.18a1.35,1.35,0,0,0,1.35-1.34v-2.06a11.55,11.55,0,0,0,3.63-1.49l1.4,1.39a1.35,1.35,0,0,0,1.9,0l1.81-1.79a1.36,1.36,0,0,0,0-1.92l-1.4-1.39a11.5,11.5,0,0,0,1.52-3.59h1.95A1.37,1.37,0,0,0,498,118.82ZM484.1,123a5.9,5.9,0,1,1,5.13-6.58,5.83,5.83,0,0,1,0,1.32A5.91,5.91,0,0,1,484.1,123Z"/><path class="cls-7" d="M185.89,288.32H168.83v17.06h17.06Zm-14.62,4.87H181v9.75h-9.75Z"/><path class="cls-7" d="M854,612.58H836.86v17.06h17.06Zm-12.27,4.87h9.76v9.76h-9.76Z"/><path class="cls-7" d="M605.27,137.16H588.18v17.06h17.06ZM593.05,142h9.75v9.75h-9.75Z"/><path class="cls-7" d="M176.14,554.06H159.08v17.07h17.06Zm-14.63,2.44h9.76v9.76h-9.76Z"/><path class="cls-23" d="M662.31,253.63A10,10,0,0,0,649,265.26,10,10,0,0,0,668.63,263v0A9.82,9.82,0,0,0,662.31,253.63Zm-3.43,15.3a6,6,0,0,1-5.77-7.57,5.91,5.91,0,0,1,4.18-4.17,5.93,5.93,0,1,1,1.59,11.64Z"/></g><g id="freepik--speech-bubble--inject-2"><path class="cls-7" d="M480.44,299.59l-22.26-30.78a15.45,15.45,0,0,0,15.41-15.39V169.61a15.48,15.48,0,0,0-15.41-15.39H264.69a15.45,15.45,0,0,0-15.41,15.39v83.81a15.43,15.43,0,0,0,15.41,15.39H432Z"/><path class="cls-6" d="M314.56,207.85a9.46,9.46,0,1,0-9.46,9.46,9.46,9.46,0,0,0,9.46-9.46Z"/><path class="cls-6" d="M371.19,208.15a9.47,9.47,0,1,0-9.46,9.46h0a9.42,9.42,0,0,0,9.41-9.43Z"/><path class="cls-6" d="M426.2,207.85a9.46,9.46,0,1,0-9.46,9.46,9.46,9.46,0,0,0,9.46-9.46Z"/></g></svg>