<svg id="Capa_1" data-name="Capa 1" xmlns="http://www.w3.org/2000/svg" viewBox="0 0 1000 1000"><defs><style>.cls-1{fill:#d3d3d3;}.cls-2{fill:#8eb515;}.cls-14,.cls-3{fill:#ba68c8;}.cls-4,.cls-8{fill:#263238;}.cls-10,.cls-11,.cls-12,.cls-13,.cls-14,.cls-4,.cls-5,.cls-7,.cls-9{stroke:#263238;}.cls-10,.cls-11,.cls-12,.cls-13,.cls-4,.cls-5,.cls-7,.cls-9{stroke-linecap:round;stroke-linejoin:round;}.cls-10,.cls-11,.cls-12,.cls-13,.cls-4,.cls-5{stroke-width:1.97px;}.cls-5,.cls-6,.cls-7{fill:#fff;}.cls-7{stroke-width:1.39px;}.cls-9{fill:#a88556;stroke-width:2.28px;}.cls-10{fill:#3398af;}.cls-11{fill:#347382;}.cls-12{fill:none;}.cls-13{fill:#1bb3db;}.cls-14{stroke-miterlimit:10;stroke-width:1.97px;}</style></defs><g id="freepik--background-simple--inject-2"><path class="cls-1" d="M673.2,134.9S529.81,83.9,389,165.09,177.24,407.43,116.26,536.51s-25.89,260.4,81.56,320.28S378.34,828.4,529,824.1s191.24,17.25,316.38-67.9,147.71-286.27,49-435.08S673.2,134.9,673.2,134.9Z"/></g><g id="freepik--Plants--inject-2"><path class="cls-2" d="M890.43,804.84c-7.89-1.13-22.89-10.91-22.91-10.91s9.44-7.88,10.09-8.36c7.67-4.91,25.36-9.85,33.22-3.41a12.07,12.07,0,0,1,1.17,17,11.43,11.43,0,0,1-.91.93C906,805.17,897.15,805.8,890.43,804.84Z"/><path class="cls-2" d="M743.37,729.15c-.2,0,3.49-11.83,3.8-12.54,3.69-8.32,15.78-22.22,25.83-21.16A12.06,12.06,0,0,1,783.36,709c-.06.43-.14.86-.24,1.28-1.46,7.06-8.48,12.46-14.63,15.36C761.27,729,743.37,729.15,743.37,729.15Z"/><path class="cls-2" d="M728.22,926.9c-3.49,4.34-6.67,8.43-9.51,12.17h-7.18c3.61-4.63,7.89-9.86,12.59-15.54,2.76-3.32,5.78-6.79,8.92-10.34a117.84,117.84,0,0,1-7.9-11c-6.41,2.15-19.51,1.58-21.2,1.5-.5,4.2-.93,8.33-1.29,12.19-.83,8.78-1.32,16.57-1.65,23.14h-5.92c.47-6.7,1.16-14.67,2.19-23.67.49-4.3,1.08-8.86,1.75-13.55-1.65-.5-15.09-4.7-20-9.06-4.48-3.95-9.08-10.26-8.58-16.57a10.61,10.61,0,0,1,11.07-10.13,8.33,8.33,0,0,1,1.12.11c8.82,1.59,15.52,16.29,16.59,24.22,0,.48.18,5.63.2,8.88.27-2,.53-3.77.83-5.74.59-3.95,1.3-7.75,2-11.84.43-2,.87-3.94,1.3-6.05s1.07-4.13,1.6-6.22c1.32-4.79,2.9-9.61,4.6-14.42-3.42-.51-15.49-2.57-20.54-5.82s-10.52-8.76-11-15.08a10.62,10.62,0,0,1,9.36-11.76,9.18,9.18,0,0,1,1.17-.07c9,.23,17.76,13.81,20.09,21.44.14.48,1.12,6.16,1.62,9.3,1-2.88,2.07-5.77,3.21-8.65,3.32-8.3,6.93-16.63,10.5-24.93,1.08-2.55,2.15-5.11,3.21-7.66-1.2-.18-15.6-2.29-21.26-5.92-5-3.23-10.52-8.76-11-15.07A10.62,10.62,0,0,1,704.44,779a11.48,11.48,0,0,1,1.17-.07c9,.24,17.76,13.81,20.07,21.45.17.57,1.59,8.76,1.85,10.87,2.37-5.62,4.66-11.25,6.69-16.87a189.23,189.23,0,0,0,6.89-23.22c-.58,0-15.61-2.23-21.41-5.92-5-3.24-10.52-8.76-11-15.07A10.61,10.61,0,0,1,718,738.44a9.87,9.87,0,0,1,1.22-.07c9,.24,17.75,13.81,20.06,21.43.16.51,1.24,6.74,1.7,9.72h.51a136,136,0,0,0,2.58-24.23c.14-4.47,0-8.76-.19-12.92-2.84-.12-15.79-.77-21.41-3.57s-11.42-7.54-12.59-13.81A10.63,10.63,0,0,1,718,702.33a9.91,9.91,0,0,1,1.09-.18c8.91-.75,19.21,11.72,22.29,19.09.18.42,1.42,4.68,2.29,7.9-.12-2-.22-3.83-.38-5.63-.57-6.76-1.49-12.9-2.36-18.35q-.78-4.63-1.58-8.46c-2.72-1.58-13.65-8-17.26-13s-6.65-12-4.82-18a10.61,10.61,0,0,1,13-7.51,10.22,10.22,0,0,1,1.07.34c8.27,3.46,11.66,19.26,11,27.23,0,.69-2.21,11.37-2.35,11.29l-.16-.1c.55,2.48,1.13,5.17,1.68,8.11,1,5.42,2,11.58,2.78,18.34a187.16,187.16,0,0,1,1.26,21.94,139.86,139.86,0,0,1-2,24.77l0,0c1.21-2.3,4.87-8.71,5.21-9.16,4.71-6.45,17.66-16.16,26.16-13.34a10.56,10.56,0,0,1,5.92,14.62c-2.59,5.78-9.65,9.12-15.47,10.46-6.57,1.52-20.89-1.4-22-1.64a187.14,187.14,0,0,1-6.55,24.17c-1.55,4.62-3.27,9.21-5.05,13.81,1.13-2,2.13-3.73,2.31-3.95,4.72-6.45,17.64-16.16,26.16-13.33a10.58,10.58,0,0,1,6.37,13.56,10.86,10.86,0,0,1-.45,1.06c-2.58,5.78-9.63,9.11-15.45,10.45s-18.17-.89-21.4-1.52c-.71,1.76-1.38,3.51-2.09,5.27-3.4,8.41-6.81,16.77-9.87,25.08-1.08,2.92-2,5.92-3,8.78l2-3.44c4.71-6.47,17.63-16.16,26.16-13.35a10.6,10.6,0,0,1,6.36,13.59c-.13.36-.28.71-.44,1-2.59,5.78-9.63,9.11-15.45,10.43s-17-.65-20.84-1.4c-.9,3-1.83,6.06-2.58,9-.45,2-1,3.94-1.4,6s-.79,4.07-1.19,6.08c-.59,4-1.24,7.89-1.73,11.72-.38,2.64-.67,5.17-1,7.71,1-2.92,3.24-8.6,3.47-9a41.33,41.33,0,0,1,14.5-14.9,11.62,11.62,0,0,1,1.27-2,10.59,10.59,0,0,1,14.79-2.36c.31.23.61.47.89.72,6.49,6.2,4,22.16.48,29.36-.2.43-2.94,4.79-4.74,7.52,1.3-1.44,2.53-2.86,4-4.32,2.64-2.92,5.34-5.76,8.26-8.82l4.44-4.32c1.44-1.48,3.16-2.86,4.74-4.3C760,886.18,764,883,768.09,880c-2.54-2.31-11.48-10.68-13.81-16.18s-3.94-13.1-.84-18.63a10.61,10.61,0,0,1,14.31-4.5,9.23,9.23,0,0,1,1,.56c7.34,5.15,7.28,21.31,4.91,29-.14.47-2.45,5.76-3.77,8.64,2.45-1.81,4.89-3.65,7.44-5.42,7.36-5.11,15-10.07,22.53-15l6.9-4.59c-.92-.83-11.83-10.54-14.46-16.7-2.4-5.46-3.94-13.12-.85-18.64a10.61,10.61,0,0,1,14.29-4.53c.34.18.67.37,1,.58,7.33,5.13,7.28,21.31,4.91,29-.18.57-3.51,8.2-4.46,10.1,5.07-3.39,10.08-6.81,14.87-10.38a183.06,183.06,0,0,0,18.57-15.59c-.43-.37-11.84-10.45-14.56-16.77-2.41-5.46-3.95-13.11-.87-18.62a10.6,10.6,0,0,1,14.28-4.53c.34.18.67.37,1,.58,7.36,5.15,7.28,21.31,4.93,29-.15.51-2.7,6.31-3.94,9a3.91,3.91,0,0,1,.41.3,135.54,135.54,0,0,0,15.53-18.78c2.58-3.67,4.85-7.3,7-10.89-2.3-1.68-12.76-9.37-15.88-14.78s-5.36-12.61-2.9-18.43a10.6,10.6,0,0,1,13.67-6.14,10.27,10.27,0,0,1,1.07.48c7.89,4.3,9.57,20.38,8.07,28.23,0,.44-1.4,4.7-2.39,7.78.93-1.64,2-3.32,2.78-4.9,3.26-5.92,5.92-11.58,8.15-16.61,1.26-2.86,2.37-5.46,3.36-7.89-1.42-2.8-7-14.23-7.24-20.34s1-13.65,5.91-17.76a10.6,10.6,0,0,1,15,.87,10.77,10.77,0,0,1,.73.91c5,7.44-.89,22.49-5.92,28.76-.41.56-8.09,8.27-8.17,8.13l-.1-.18c-.9,2.39-2,4.94-3,7.7-2.17,5.07-4.68,10.79-7.9,16.83a186.35,186.35,0,0,1-11,19,137.05,137.05,0,0,1-15.26,19.29,1.8,1.8,0,0,1-.19.2c2.29-1.26,8.86-4.56,9.39-4.76,7.5-2.78,23.67-3.74,29.18,3.3a10.6,10.6,0,0,1-2.18,14.82c-.32.23-.64.45-1,.65-5.33,3.39-13,2.27-18.64.17-6.32-2.36-16.65-12.68-17.48-13.51a185.57,185.57,0,0,1-18.8,16.53q-5.93,4.5-11.84,8.74a32.62,32.62,0,0,1,4.12-2c7.5-2.78,23.68-3.75,29.18,3.29a10.61,10.61,0,0,1-2.18,14.83,9.16,9.16,0,0,1-1,.64c-5.32,3.4-13,2.29-18.64.2s-14.68-10.77-17-13.08c-1.54,1.06-3.07,2.17-4.63,3.23-7.46,5.13-14.94,10.22-22.12,15.45-2.52,1.84-4.93,3.75-7.38,5.65,1.82-.93,3.34-1.68,3.57-1.76,7.5-2.78,23.68-3.75,29.18,3.29a10.59,10.59,0,0,1-2.17,14.83,10,10,0,0,1-1,.64c-5.35,3.4-13.07,2.29-18.67.18s-13.81-9.87-16.59-12.65c-2.43,2-4.87,3.95-7.12,6.1-1.52,1.44-3.08,2.72-4.52,4.26l-4.34,4.42c-2.65,2.92-5.39,5.92-7.89,8.8-1.76,2-3.42,4-5.07,5.92,2.5-1.86,7.45-5.39,7.89-5.64,7-4,22.79-7.28,29.34-1.17a10.62,10.62,0,0,1,.1,15c-.27.27-.56.53-.85.77-5,4-12.69,4-18.61,2.87-6.43-1.35-17.76-9.61-19.22-10.64C733.29,920.67,730.65,923.84,728.22,926.9Z"/><path class="cls-3" d="M642,804.84c-7.88-1.13-22.89-10.91-22.91-10.91s9.45-7.88,10.1-8.36c7.67-4.91,25.35-9.85,33.22-3.41a12.07,12.07,0,0,1,1.16,17,10,10,0,0,1-.91.93C657.57,805.17,648.74,805.8,642,804.84Z"/><path class="cls-3" d="M495,729.15c-.19,0,3.49-11.83,3.81-12.54,3.69-8.32,15.77-22.22,25.83-21.16A12.05,12.05,0,0,1,534.94,709c-.06.43-.14.86-.24,1.28-1.46,7.06-8.48,12.46-14.63,15.36C512.86,729,495,729.15,495,729.15Z"/><path class="cls-2" d="M479.81,926.9c-3.49,4.34-6.67,8.43-9.51,12.17h-7.18c3.61-4.63,7.89-9.86,12.58-15.54,2.77-3.32,5.78-6.79,8.92-10.34a117.74,117.74,0,0,1-7.89-11c-6.41,2.15-19.51,1.58-21.21,1.5-.49,4.2-.93,8.33-1.28,12.19-.83,8.78-1.32,16.57-1.66,23.14h-5.82c.47-6.7,1.16-14.67,2.19-23.67.49-4.3,1.09-8.86,1.76-13.55-1.66-.5-15.1-4.7-20-9.06-4.48-3.95-9.07-10.26-8.58-16.57a10.61,10.61,0,0,1,11.08-10.13,8.34,8.34,0,0,1,1.11.11c8.82,1.59,15.53,16.29,16.59,24.22,0,.48.18,5.63.2,8.88.28-2,.53-3.77.83-5.74.59-3.95,1.3-7.75,2-11.84.44-2,.87-3.94,1.31-6.05s1.06-4.13,1.59-6.22c1.32-4.79,2.9-9.61,4.6-14.42-3.41-.51-15.49-2.57-20.54-5.82s-10.51-8.76-11-15.08a10.63,10.63,0,0,1,9.36-11.76,9.34,9.34,0,0,1,1.18-.07c9,.23,17.75,13.81,20.08,21.44.14.48,1.13,6.16,1.62,9.3,1.05-2.88,2-5.77,3.22-8.65,3.31-8.3,6.92-16.63,10.49-24.93,1.09-2.55,2.15-5.11,3.22-7.66-1.21-.18-15.61-2.29-21.27-5.92-5-3.23-10.52-8.76-11-15.07A10.63,10.63,0,0,1,456.12,779a11.5,11.5,0,0,1,1.18-.07c8.95.24,17.75,13.81,20.06,21.45.18.57,1.6,8.76,1.86,10.87,2.36-5.62,4.65-11.25,6.68-16.87a185.79,185.79,0,0,0,6.89-23.22c-.57,0-15.61-2.23-21.41-5.92-5-3.24-10.51-8.76-11-15.07a10.62,10.62,0,0,1,9.32-11.77,10,10,0,0,1,1.22-.07c9,.24,17.76,13.81,20.06,21.43.16.51,1.25,6.74,1.7,9.72h.51a136,136,0,0,0,2.59-24.23c.14-4.47,0-8.76-.2-12.92-2.84-.12-15.78-.77-21.41-3.57S462.76,721.26,461.6,715a10.64,10.64,0,0,1,8.1-12.67c.36-.07.71-.13,1.07-.17,8.94-.75,19.24,11.72,22.31,19.09.18.42,1.43,4.68,2.29,7.9-.11-2-.21-3.83-.37-5.63-.57-6.76-1.5-12.9-2.37-18.35q-.76-4.63-1.58-8.46c-2.72-1.58-13.65-8-17.26-13s-6.65-12-4.81-18a10.6,10.6,0,0,1,13-7.51,9.52,9.52,0,0,1,1.07.34c8.27,3.46,11.66,19.26,11,27.23,0,.69-2.21,11.37-2.35,11.29l-.15-.1c.55,2.48,1.12,5.17,1.67,8.11,1,5.42,2.07,11.58,2.79,18.34a191.6,191.6,0,0,1,1.26,21.94,140,140,0,0,1-2.12,24.77l0,0c1.22-2.3,4.88-8.71,5.21-9.16,4.72-6.45,17.66-16.16,26.17-13.34a10.56,10.56,0,0,1,5.91,14.62c-2.58,5.78-9.64,9.12-15.46,10.46-6.57,1.52-20.9-1.4-22-1.64a190.42,190.42,0,0,1-6.55,24.17c-1.56,4.62-3.28,9.21-5.05,13.81,1.12-2,2.13-3.73,2.31-3.95,4.71-6.45,17.63-16.16,26.16-13.33a10.59,10.59,0,0,1,6.36,13.56c-.13.36-.28.71-.44,1.06-2.59,5.78-9.63,9.11-15.45,10.45s-18.17-.89-21.41-1.52c-.71,1.76-1.38,3.51-2.09,5.27-3.39,8.41-6.81,16.77-9.86,25.08-1.09,2.92-2,5.92-3,8.78,1-1.76,1.85-3.24,2-3.44,4.72-6.47,17.64-16.16,26.16-13.35a10.6,10.6,0,0,1,6.36,13.59,9.69,9.69,0,0,1-.44,1c-2.58,5.78-9.63,9.11-15.45,10.43s-17-.65-20.83-1.4c-.91,3-1.84,6.06-2.59,9-.45,2-1,3.94-1.4,6s-.79,4.07-1.18,6.08c-.59,4-1.24,7.89-1.74,11.72-.37,2.64-.67,5.17-1,7.71,1-2.92,3.23-8.6,3.47-9a41.25,41.25,0,0,1,14.5-14.9,11.57,11.57,0,0,1,1.26-2,10.59,10.59,0,0,1,14.78-2.45,11.19,11.19,0,0,1,1,.81c6.49,6.2,3.94,22.16.47,29.36-.2.43-2.94,4.79-4.74,7.52,1.31-1.44,2.53-2.86,3.95-4.32,2.64-2.92,5.35-5.76,8.27-8.82l4.44-4.32c1.44-1.48,3.15-2.86,4.73-4.3,3.77-3.3,7.73-6.44,11.84-9.51-2.55-2.31-11.48-10.68-13.81-16.18s-4-13.1-.85-18.63a10.62,10.62,0,0,1,14.32-4.5,10.26,10.26,0,0,1,.95.56c7.34,5.15,7.28,21.31,4.91,29-.14.47-2.44,5.76-3.77,8.64,2.45-1.81,4.9-3.65,7.44-5.42,7.36-5.11,15-10.07,22.53-15l6.91-4.59c-.93-.83-11.84-10.54-14.46-16.7-2.41-5.46-4-13.12-.85-18.64a10.6,10.6,0,0,1,14.28-4.53c.34.18.67.37,1,.58,7.34,5.13,7.28,21.31,4.91,29-.18.57-3.51,8.2-4.46,10.1,5.07-3.39,10.08-6.81,14.88-10.38a184,184,0,0,0,18.56-15.59c-.43-.37-11.83-10.45-14.56-16.77-2.4-5.46-3.94-13.11-.86-18.62a10.6,10.6,0,0,1,14.28-4.53c.34.18.67.37,1,.58,7.35,5.15,7.28,21.31,4.93,29-.16.51-2.7,6.31-3.95,9a3.19,3.19,0,0,1,.42.3A135.47,135.47,0,0,0,609,807.76c2.59-3.67,4.86-7.3,7-10.89-2.31-1.68-12.77-9.37-15.88-14.78s-5.37-12.61-2.9-18.43a10.58,10.58,0,0,1,13.66-6.14A9.41,9.41,0,0,1,612,758c7.9,4.3,9.57,20.38,8.07,28.23,0,.44-1.4,4.7-2.38,7.78.92-1.64,2-3.32,2.78-4.9,3.25-5.92,5.92-11.58,8.15-16.61,1.26-2.86,2.36-5.46,3.35-7.89-1.42-2.8-7-14.23-7.24-20.34s1-13.65,5.92-17.76a10.56,10.56,0,0,1,15.68,1.78c5,7.44-.89,22.49-5.92,28.76-.41.56-8.09,8.27-8.16,8.13l-.1-.18c-.91,2.39-2,4.94-3.06,7.7-2.17,5.07-4.68,10.79-7.89,16.83a184.59,184.59,0,0,1-11,19,137.72,137.72,0,0,1-15.25,19.29,1.89,1.89,0,0,1-.2.2c2.29-1.26,8.86-4.56,9.39-4.76,7.5-2.78,23.68-3.74,29.18,3.3A10.59,10.59,0,0,1,631,841.38a11.09,11.09,0,0,1-1,.65c-5.32,3.39-13,2.27-18.64.17-6.31-2.36-16.65-12.68-17.48-13.51a185.57,185.57,0,0,1-18.8,16.53q-5.92,4.5-11.84,8.74a33.34,33.34,0,0,1,4.12-2c7.5-2.78,23.68-3.75,29.18,3.29a10.6,10.6,0,0,1-2.18,14.83,10.15,10.15,0,0,1-1,.64c-5.33,3.4-13,2.29-18.65.2s-14.68-10.77-17-13.08c-1.54,1.06-3.08,2.17-4.64,3.23-7.46,5.13-14.93,10.22-22.12,15.45-2.52,1.84-4.93,3.75-7.37,5.65,1.81-.93,3.33-1.68,3.57-1.76,7.49-2.78,23.67-3.75,29.18,3.29a10.61,10.61,0,0,1-2.17,14.83,10.15,10.15,0,0,1-1,.64c-5.35,3.4-13.06,2.29-18.66.18s-13.82-9.87-16.6-12.65c-2.42,2-4.87,3.95-7.12,6.1-1.52,1.44-3.08,2.72-4.52,4.26L502,901.51c-2.64,2.92-5.38,5.92-7.89,8.8-1.76,2-3.41,4-5.07,5.92,2.51-1.86,7.46-5.39,7.89-5.64,7-4,22.79-7.28,29.34-1.17a10.61,10.61,0,0,1,.1,15,10.36,10.36,0,0,1-.85.77c-5.07,4-12.79,4-18.7,2.87-6.44-1.35-17.76-9.61-19.22-10.64C484.88,920.67,482.23,923.84,479.81,926.9Z"/><path class="cls-2" d="M89.92,819.76c7-1,20.35-9.7,20.35-9.7s-8.38-7-9-7.41c-6.81-4.36-22.52-8.8-29.58-3a10.74,10.74,0,0,0-1,15.14c.25.28.52.55.8.81C76.1,820.06,84,820.63,89.92,819.76Z"/><path class="cls-2" d="M220.59,752.51c.16,0-3.11-10.51-3.39-11.14-3.27-7.39-13.94-19.71-22.95-18.81a10.7,10.7,0,0,0-9.2,12,11.08,11.08,0,0,0,.21,1.15c1.31,6.25,7.56,11.06,13,13.65C204.68,752.39,220.57,752.51,220.59,752.51Z"/><path class="cls-2" d="M232.66,928.31c3.08,3.93,5.88,7.45,8.39,10.76h6.35c-3.2-4.1-6.92-8.73-11.11-13.74-2.45-2.93-5.12-6-7.84-9.13a102.71,102.71,0,0,0,7-9.7c5.65,2,17.21,1.39,18.72,1.32.43,3.73.8,7.36,1.12,10.79.72,7.76,1.17,14.65,1.47,20.46h5.13c-.41-5.89-1-13-2-20.93-.43-3.79-1-7.85-1.53-12,1.45-.46,13.31-4.17,17.64-8,3.92-3.51,8-9.07,7.58-14.64a9.38,9.38,0,0,0-9.8-9,7.79,7.79,0,0,0-1,.09c-7.84,1.42-13.71,14.41-14.65,21.42,0,.42-.16,5-.16,7.86-.26-1.69-.47-3.34-.75-5.09-.53-3.43-1.15-6.85-1.8-10.52-.39-1.77-.76-3.56-1.16-5.36s-.94-3.65-1.41-5.5c-1.15-4.24-2.54-8.5-4.05-12.74,3-.48,13.71-2.28,18.1-5.17s9.29-7.73,9.8-13.31a9.39,9.39,0,0,0-8.33-10.35,7.93,7.93,0,0,0-1-.06c-7.83.22-15.67,12.18-17.63,19-.12.43-1,5.46-1.43,8.25-.92-2.56-1.83-5.11-2.84-7.66-2.92-7.34-6.12-14.71-9.25-22.05-1-2.26-2-4.52-2.87-6.76,1.08-.15,13.72-2,18.78-5.26,4.43-2.86,9.29-7.73,9.8-13.33a9.36,9.36,0,0,0-8.28-10.33,8.43,8.43,0,0,0-1-.06c-7.84.22-15.68,12.16-17.64,19-.16.51-1.41,7.76-1.63,9.62-2.09-5-4.11-9.93-5.87-14.9a166.77,166.77,0,0,1-6.06-20.54c.49,0,13.72-2,18.87-5.28,4.43-2.87,9.29-7.74,9.8-13.33A9.37,9.37,0,0,0,242,761.74c-.34,0-.68,0-1,0-7.84.21-15.68,12.15-17.64,18.95-.13.45-1.09,5.89-1.49,8.6h-.45a122.62,122.62,0,0,1-2.9-21.41c-.11-3.92,0-7.85.18-11.44,2.51,0,14-.67,18.89-3.14s10.09-6.68,11.11-12.18a9.38,9.38,0,0,0-7.13-11.19c-.31-.07-.64-.12-1-.16-7.84-.67-17,10.35-19.6,16.89-.13.35-1.25,4.12-2,6.89.12-1.67.2-3.38.34-5,.49-5.89,1.31-11.41,2.09-16.22.45-2.73.92-5.2,1.39-7.5,2.41-1.37,12.06-7.07,15.23-11.44s5.88-10.59,4.25-16a9.36,9.36,0,0,0-11.46-6.65c-.32.09-.63.19-.94.31-7.31,3.06-10.31,17-9.8,24.07,0,.61,2,10.06,2,10l.33-.1c-.49,2.2-1,4.57-1.49,7.17-.88,4.81-1.82,10.25-2.45,16.21a165.87,165.87,0,0,0-1.11,19.42,123.11,123.11,0,0,0,1.82,21.6v.26c-1.08-2-4.29-7.7-4.59-8.11-4.17-5.7-15.67-14.28-23.08-11.78a9.39,9.39,0,0,0-5.6,12,8,8,0,0,0,.39.91c2.27,5.12,8.48,8,13.71,9.25,5.88,1.33,18.44-1.24,19.44-1.46a166.73,166.73,0,0,0,5.88,21.39c1.37,4.08,2.88,8.14,4.45,12.19a38,38,0,0,1-2-3.5c-4.17-5.71-15.58-14.29-23.08-11.78a9.4,9.4,0,0,0-5.6,12,9.17,9.17,0,0,0,.38.91c2.28,5.11,8.49,8.05,13.72,9.23s16-.76,18.89-1.33c.61,1.55,1.22,3.12,1.85,4.65,3,7.44,6,14.82,8.74,22.19,1,2.57,1.82,5.16,2.7,7.75-.88-1.55-1.65-2.84-1.78-3-4.18-5.71-15.68-14.29-23.09-11.78a9.39,9.39,0,0,0-5.6,12c.12.31.24.61.39.91,2.27,5.1,8.5,8.05,13.72,9.25s15-.59,18.38-1.24c.8,2.67,1.62,5.34,2.27,8,.41,1.79.94,3.5,1.26,5.34s.68,3.6,1,5.38c.53,3.44,1.1,7,1.53,10.35.34,2.34.59,4.58.86,6.83-.94-2.59-2.86-7.61-3.07-8a36.08,36.08,0,0,0-12.8-13.17,9.51,9.51,0,0,0-1.1-1.77,9.35,9.35,0,0,0-13.08-2.06,7.82,7.82,0,0,0-.77.63c-5.72,5.47-3.51,19.63-.43,26,.19.38,2.6,4.23,4.19,6.64l-3.43-3.93c-2.33-2.57-4.72-5.08-7.31-7.85l-3.92-3.81c-1.27-1.31-2.78-2.53-4.19-3.81-3.31-2.9-6.82-5.67-10.41-8.4,2.26-2,10.14-9.45,12.27-14.3s3.49-11.6.77-16.49a9.39,9.39,0,0,0-12.66-4c-.28.15-.56.31-.83.48-6.48,4.56-6.42,18.85-4.35,25.53.14.43,2.18,5.11,3.35,7.66-2.17-1.61-4.33-3.24-6.58-4.81-6.49-4.52-13.19-8.88-19.87-13.28-2-1.33-4.06-2.71-6.1-4.06.81-.73,10.39-9.31,12.76-14.75,2.12-4.85,3.49-11.6.77-16.49a9.39,9.39,0,0,0-12.66-4c-.28.15-.56.31-.83.49-6.46,4.55-6.42,18.85-4.33,25.52.16.51,3.1,7.25,3.92,8.92-4.47-3-8.88-6-13.13-9.17a165.09,165.09,0,0,1-16.36-13.75c.37-.33,10.4-9.25,12.83-14.84,2.14-4.83,3.49-11.59.77-16.48a9.37,9.37,0,0,0-12.62-4,9.26,9.26,0,0,0-.86.51c-6.47,4.55-6.43,18.85-4.33,25.52.13.46,2.37,5.58,3.48,8l-.37.25a120.42,120.42,0,0,1-13.72-16.59c-2.27-3.24-4.27-6.46-6.15-9.64,2-1.47,11.27-8.29,14-13.06s4.72-11.15,2.55-16.3a9.32,9.32,0,0,0-12-5.41,8.26,8.26,0,0,0-1,.43c-6.94,3.79-8.47,18-7.14,25,0,.38,1.24,4.15,2.12,6.88-.82-1.46-1.71-2.93-2.47-4.34-2.86-5.25-5.17-10.23-7.17-14.67-1.14-2.53-2.1-4.85-3-7,1.25-2.48,6.15-12.57,6.41-18s-.94-12-5.23-15.71a9.35,9.35,0,0,0-13.2.77,9.89,9.89,0,0,0-.64.81c-4.41,6.57.78,19.89,5.15,25.52.4.47,7.16,7.31,7.24,7.17v-.14c.8,2.1,1.7,4.36,2.72,6.79,2,4.5,4.11,9.55,6.88,14.89a167.76,167.76,0,0,0,9.8,16.81,121.36,121.36,0,0,0,13.44,17l.2.2c-2-1.12-7.84-4.05-8.29-4.23-6.63-2.47-20.86-3.31-25.75,2.91a9.4,9.4,0,0,0,1.85,13.14c.29.22.6.42.91.61,4.72,3,11.52,2,16.46.15,5.59-2.08,14.7-11.21,15.42-12a162.54,162.54,0,0,0,16.62,14.63c3.39,2.65,6.88,5.21,10.43,7.72-1.79-.9-3.39-1.71-3.63-1.79-6.62-2.45-20.87-3.32-25.75,2.93A9.39,9.39,0,0,0,132,877.68c.3.22.62.43.94.62,4.73,3,11.53,2,16.46.16s13-9.5,15-11.55l4.09,2.87c6.59,4.54,13.17,9,19.6,13.65,2.23,1.63,4.37,3.32,6.52,5-1.58-.81-2.94-1.48-3.15-1.56-6.63-2.45-20.85-3.31-25.75,2.93a9.37,9.37,0,0,0,1.84,13.12,8.48,8.48,0,0,0,.94.62c4.7,3,11.52,2,16.46.16s12.17-8.76,14.64-11.19c2.16,1.79,4.29,3.57,6.29,5.4,1.35,1.28,2.73,2.41,3.92,3.77l3.92,3.93c2.33,2.57,4.76,5.22,7,7.85,1.56,1.77,3,3.5,4.46,5.22-2.19-1.65-6.58-4.77-7-5-6.17-3.44-20.11-6.44-25.89-1a9.4,9.4,0,0,0-.07,13.28c.24.23.48.46.74.67,4.21,3.67,11.09,3.73,16.24,2.65,5.69-1.2,15.68-8.49,17-9.41C228.27,922.8,230.53,925.6,232.66,928.31Z"/></g><g id="freepik--Device--inject-2"><rect class="cls-4" x="304.92" y="117.93" width="394.31" height="745.24" rx="15.12"/><rect class="cls-5" x="322.67" y="200.73" width="358.82" height="581.61"/><path class="cls-6" d="M541.11,158.34H462.9a5.13,5.13,0,0,1-5.32-4.92h0a5.13,5.13,0,0,1,5.3-4.94h78.63a4.93,4.93,0,0,1,4.93,4.94h0a5.14,5.14,0,0,1-5.33,4.92Z"/><path class="cls-7" d="M521.79,815.25a21.33,21.33,0,1,0-21.33,21.33,21.33,21.33,0,0,0,21.33-21.33Z"/><rect class="cls-8" x="491.23" y="805.01" width="21.69" height="21.69"/></g><g id="freepik--character-2--inject-2"><path class="cls-9" d="M708.09,562l-2.32,17.71s-9.6,65.76-2.95,99.75,19.2,68.71,19.95,76.84-3.7,39.89,1.47,65.76S739,898.92,739,898.92l-8.12,19.22s-17,11.08-19.2,14.78a3.31,3.31,0,0,0,.57,4.66,3.13,3.13,0,0,0,.91.51H766a30.17,30.17,0,0,0,2.23-12.56V873.87c0-5.17,2.94-93,5.89-108.5S780,632.5,780,632.5h3s14,116.61,17.69,129.17,19.2,66.43,23.58,77.51,9.61,49.44,12.56,59.05a199.63,199.63,0,0,1,6.64,26.57,65.23,65.23,0,0,0,3.7,13.29h40.37s.75-6.65-2.22-11.08-22.15-23.6-25.12-37.69,4.44-79.09,3.74-102-7.4-25.87-7.4-45.82,7.4-80.53,7.4-109.35-3.94-55.37-11.16-70.54l-10.27-10H715.37Z"/><path class="cls-10" d="M866.81,901.59v.1s-10.62-6.82-14.41-1.51-3.8,8.34-3.8,8.34h-8.07a133.43,133.43,0,0,1,3.53,15.92,66.65,66.65,0,0,0,3.8,13.65h40.85s.77-6.82-2.28-11.37C884.29,923.49,873.86,912.71,866.81,901.59Z"/><path class="cls-5" d="M847.76,938.09h40a32.89,32.89,0,0,0-.14-5.92H846C846.88,936.4,847.76,938.59,847.76,938.09Z"/><path class="cls-10" d="M768.24,925.53V912.46H754.45c0,.95.75-5-5.92-9.42s-13.34,5.48-13.34,5.48h-.6l-4.08,9.6s-17,11.09-19.22,14.79a3.33,3.33,0,0,0,.57,4.67,3.27,3.27,0,0,0,.91.51h53.16A30.24,30.24,0,0,0,768.24,925.53Z"/><path class="cls-5" d="M711.47,932.17c-1.11,2.74-.83,4.83.64,5.94.27.2.56.36.88,0h53.23c.72-1.15,1.24-2.88,1.54-5.92Z"/><path class="cls-11" d="M860.24,863.16c1.25-25.25,4.4-59.58,4-75-.73-23-7.42-26-7.42-46s7.42-80.77,7.42-109.69-4-55.57-11.19-70.79l-10.31-10H715.12l-7.31,10.4-2.33,17.76s-9.63,66-3,100.1,19.27,69,20,77.11-3.71,40,1.48,66c2.29,11.38,5.41,27.63,8.21,42.28a137.79,137.79,0,0,0,36.44,3.29c.63-21.45,3.2-89.2,5.76-102.64,3-15.58,5.93-133.46,5.93-133.46h2.9S797.35,749.63,801,762.25,820.31,829,824.71,840.1c2,4.74,3.95,14.45,5.92,24.79A64.1,64.1,0,0,0,860.24,863.16Z"/><line class="cls-12" x1="792.22" y1="625.35" x2="832.21" y2="593.51"/><line class="cls-12" x1="733.71" y1="596.46" x2="754.45" y2="613.5"/><path class="cls-4" d="M820.71,237.62s-17-10.05-16.62-4.63,7.73,9.27,7.73,9.27-24.37-3.47-28.23-2,2.72,3.49,2.72,3.49-30.16,23.19-40.59,39-19.72,39.06-8.9,56.84,26.68,31.7,53.35,39.43,53-.39,70.74-7.73,35.49-28.23,32.47-54.51S867,263.13,849.62,244.6s-28.22-15.77-28.22-13.15A33.7,33.7,0,0,1,820.71,237.62Z"/><path class="cls-9" d="M779,347.44l-4,29.75s-28.23,9.26-38.66,13.52-15.08,9.66-17,14.3-29.58,69-30.76,75.11.77,8.89,9.27,12.76S730,482.45,730,482.45l3.1,10.82s-15.48,26.28-18.18,34.78-7,33.64-7,33.64,29.38,14.68,75.77,13.54S853,561.31,853,561.31s-5-25.14-10.43-39.82S832.46,501,832.46,495.2s17-36,17-36l35.92,16.94s-8.48-29.3-10.8-49-6.33-22.93-14.08-29.89-41.74-17-42.9-17.75,1.54-33.24,1.54-33.24S789.82,354,779,347.44Z"/><path class="cls-4" d="M801.43,367.8c5.4-2,11.83-7.07,16.88-11.65.41-5.54.77-9.86.77-9.86s-29.26,7.77-40.08,1.19l-2.67,19.71C782.33,372.55,792.11,371.31,801.43,367.8Z"/><path class="cls-13" d="M842.4,521.49c-5.42-14.69-10-20.49-10-26.29s17-36,17-36l35.92,16.94s-8.48-29.3-10.8-49c-1.24-10.67-3-16.49-5.58-20.7-55.09,7-116.32-5.56-140.75-11.5a23,23,0,0,0-8.85,10c-2,4.65-29.58,69-30.76,75.11s.77,8.89,9.27,12.76S730,482.45,730,482.45l3.1,10.82s-15.48,26.28-18.18,34.78-7,33.64-7,33.64,29.38,14.68,75.77,13.54S853,561.31,853,561.31,847.84,536.17,842.4,521.49Z"/><path class="cls-12" d="M734.91,471.8s-7.69-16.11-5.6-24.5,3.51-10.51,3.51-10.51"/><path class="cls-13" d="M874.52,427.17c-1.25-10.67-3-16.49-5.58-20.7-55.09,7-116.32-5.56-140.75-11.5a23,23,0,0,0-8.85,10c-.67,1.63-4.56,10.68-9.33,22,21.69,5.91,104.75,26.48,167.33,16.84C876.15,438.07,875.13,432.29,874.52,427.17Z"/><path class="cls-9" d="M786.55,275.65l49.29,31.76-1.37,12.84s8.8-8.78,10.16.69-2,14.19-8.12,16.89-9.47,2-9.47,2S812.18,356,801.41,360.07s-22.28,5.13-27.6-3.67S760.92,331.68,763,322.22s20.3-46.57,20.3-46.57Z"/><path class="cls-12" d="M791.4,305.58a10.56,10.56,0,0,1-2.33,6.57c-2.31,2.32-7.73,5.42-7.73,7.72s5,7,9.66,6.59"/><path class="cls-12" d="M782.88,331.49a13.25,13.25,0,0,0,15.48-.4"/><path class="cls-12" d="M801.45,311.38s8.5-3.1,13.13,3.47"/><path class="cls-12" d="M775.15,307.51s7-3.09,10.45.77"/><path class="cls-12" d="M779.41,294.36a9.86,9.86,0,0,1,10.82-3.09"/><path class="cls-12" d="M805.32,295.13s10.82.4,13.13,10.45"/><path class="cls-9" d="M706.36,467.39s-12,4.63-15.77,12-3.09,24.35,12,28.61S829,489.8,829,489.8a126.94,126.94,0,0,0,8.9,12c2.72,2.7,9.68,8.12,10,10.43s1.16,17,4.26,17.74,2-7,2-7,5-7.33,5-10.82.77-14.69,0-17.39-18.95-18.55-22.81-19.72-102.84-3.94-112.1-5.42S709.44,467,706.36,467.39Z"/><rect class="cls-14" x="799.13" y="331.52" width="52.23" height="23.32" rx="4.55" transform="translate(82.63 840.5) rotate(-56.39)"/><path class="cls-9" d="M840.43,361.61a116.77,116.77,0,0,1,4.87-10.78c2.42-4.52,2.44-6.63.71-6.63a9.63,9.63,0,0,0-7.67,7.32,36.08,36.08,0,0,0-.69,11.49Z"/><path class="cls-9" d="M820.32,385.65s19.86-19.86,20.55-21.59,0-24.35-.3-30.74a2,2,0,0,0-1.67-2h0a2,2,0,0,0-2.35,1.51c0,.11,0,.21,0,.32L835,351.5l-4.55-23.07a2,2,0,0,0-2-1.65h0a2,2,0,0,0-2,2,1.09,1.09,0,0,0,0,.18l1.28,25.63L822,332.61a2.13,2.13,0,0,0-2.6-1.52h0a2.14,2.14,0,0,0-1.56,2.29L820.42,357l-4.87,4.18v-8.36L809.64,343a1.65,1.65,0,0,0-2.15-.63h0a1.63,1.63,0,0,0-.77,2.15l3.94,8.65s-7.67,31.35-8,32.4,1.4,6.62,2.44,8.71,47.71,101,50.49,104.81,21.59,9.76,29.95.69,5.58-18.1,1.05-28.55S820.32,385.65,820.32,385.65Z"/></g><g id="freepik--Icons--inject-2"><circle class="cls-1" cx="495.41" cy="313.61" r="82.8"/><polygon class="cls-8" points="545.96 276.63 447.81 276.63 496.2 323.28 545.96 276.63"/><polygon class="cls-8" points="516.21 312.44 550.38 342.65 550.38 280.42 516.21 312.44"/><polygon class="cls-8" points="476.56 312.38 441.94 279.02 441.94 341.23 476.56 312.38"/><polygon class="cls-8" points="511.52 315.61 496.14 330.02 481.19 315.63 445.17 345.64 545.49 345.64 511.52 315.61"/><circle class="cls-1" cx="495.41" cy="494.99" r="82.8"/><path class="cls-8" d="M484.35,468.86a3.65,3.65,0,0,0,4.93,1.59,1.77,1.77,0,0,0,.33-.19,87.05,87.05,0,0,0,7.89-4.67,10.48,10.48,0,0,0,2.17-2.94c-.5-1.16-.75-2-1.15-2.68-1.06-2-2.21-3.94-3.33-5.91l-11.41-19.72a4,4,0,0,0-5.12-2.22,3.87,3.87,0,0,0-1,.59c-2.44,1.38-4.87,2.76-7.25,4.22a3.6,3.6,0,0,0-1.7,4.81c.07.13.14.26.22.39Q476.61,455.55,484.35,468.86Z"/><path class="cls-8" d="M541.19,533.75q-7.5-13-15-26a3.72,3.72,0,0,0-4.85-2,3,3,0,0,0-.8.45q-3.76,2.1-7.46,4.31a3.71,3.71,0,0,0-1.78,4.93l.15.28,16.32,27.86a3.66,3.66,0,0,0,4.32.33c2.64-1.44,5.3-2.88,7.89-4.55a12.54,12.54,0,0,0,2.32-2.86A19.24,19.24,0,0,0,541.19,533.75Z"/><path class="cls-8" d="M507.4,517.48a11.83,11.83,0,0,1-9.86-.86,25.41,25.41,0,0,1-4.7-3.12,46.42,46.42,0,0,1-14.56-24.43c-1.44-5.91-1.84-11.83,2.7-16.56l-16.8-28.78c-1.32.85-2.6,1.65-3.81,2.5A15.66,15.66,0,0,0,453,460.7a93.45,93.45,0,0,0,2.54,17.37,137.62,137.62,0,0,0,29,53.39,72.86,72.86,0,0,0,17.75,15.6,19.25,19.25,0,0,0,21.84-1Z"/><circle class="cls-1" cx="495.41" cy="676.37" r="82.8"/><path class="cls-8" d="M484,692.63H465.6V702a11.48,11.48,0,0,0,10.67,11.45Z"/><path class="cls-8" d="M534.72,659.12h-8v15.77A15.77,15.77,0,0,1,511,690.66h-1l-29.41,21.69h32.33l-7.65,20.49,27.85-20.49h1.68a11.65,11.65,0,0,0,11.68-11.6v-30a11.64,11.64,0,0,0-11.7-11.59Z"/><path class="cls-8" d="M511.26,635.46H453.44A11.49,11.49,0,0,0,441.94,647v29.28s4.33,11.5,10.69,12.46h36.65l-7.55,19.22,27.48-19.22h2.11a11.57,11.57,0,0,0,11.46-11.63V647A11.54,11.54,0,0,0,511.26,635.46Z"/><circle class="cls-3" cx="465.78" cy="660.54" r="4.12"/><path class="cls-3" d="M486.67,660.6a4.12,4.12,0,1,1-4.12-4.12h0A4.14,4.14,0,0,1,486.67,660.6Z"/><path class="cls-3" d="M503.05,659.47a4.14,4.14,0,1,1-3.74-2.33h0A4,4,0,0,1,503.05,659.47Z"/></g><g id="freepik--Floor--inject-2"><line class="cls-12" x1="54.54" y1="938.09" x2="935.82" y2="938.09"/></g></svg>