<svg id="Capa_1" data-name="Capa 1" xmlns="http://www.w3.org/2000/svg" viewBox="0 0 1000 1000"><defs><style>.cls-1{fill:#d3d3d3;}.cls-2{fill:#ed1e79;}.cls-3{fill:#8eb515;}.cls-4,.cls-7{fill:#263238;}.cls-5{fill:#efc48f;}.cls-10,.cls-11,.cls-12,.cls-13,.cls-14,.cls-5,.cls-6,.cls-7,.cls-8,.cls-9{stroke:#263238;stroke-linecap:round;stroke-linejoin:round;}.cls-5,.cls-6,.cls-8{stroke-width:2.28px;}.cls-6{fill:#a88556;}.cls-11,.cls-12,.cls-13,.cls-7,.cls-9{stroke-width:3.23px;}.cls-8{fill:#f28106;}.cls-10,.cls-14,.cls-9{fill:none;}.cls-10{stroke-width:1.62px;}.cls-11{fill:#828282;}.cls-12{fill:#4c4c4c;}.cls-13{fill:#fff;}.cls-14{stroke-width:2.01px;}</style></defs><g id="freepik--background-simple--inject-9"><path class="cls-1" d="M958.35,639.25S1005.5,389.94,877,248.31C763.71,123.4,584.1,74.82,437.75,178.13c-52.13,36.79-90.09,108.24-151,130.34-68.36,24.75-156.1,33.6-219.52,139.74S26.57,690.54,111.11,763.08s232.55,1.75,365.93-3.54S888.36,947.07,958.35,639.25Z"/></g><g id="freepik--Graphics--inject-9"><path class="cls-2" d="M774.69,179.52H718.44V127.24h56.29Zm-54.28-2h52.31V129.25H720.45Z"/><path class="cls-2" d="M869.23,284.07h-56.3V231.79h56.3Zm-54.29-2h52.28V233.8H814.94Z"/><path class="cls-2" d="M869.23,221.74h-56.3V169.47h56.3Zm-54.29-2h52.28V171.48H814.94Z"/><polygon class="cls-2" points="814.94 261.95 744.57 261.95 744.57 179.52 746.58 179.52 746.58 259.94 814.94 259.94 814.94 261.95"/><rect class="cls-2" x="744.57" y="197.61" width="68.36" height="2.01"/><path class="cls-2" d="M426.9,332.32H370.61V280.05H426.9Zm-54.28-2h52.27V282.06H372.62Z"/><path class="cls-2" d="M521.4,438.88H465.1V386.61h56.3Zm-54.29-2h52.28V388.62H467.11Z"/><path class="cls-2" d="M521.4,374.54H465.1V322.27h56.3Zm-54.29-2h52.28V324.28H467.11Z"/><polygon class="cls-2" points="467.11 414.75 396.75 414.75 396.75 332.32 398.75 332.32 398.75 412.74 467.11 412.74 467.11 414.75"/><rect class="cls-2" x="398.76" y="350.42" width="68.36" height="2.01"/><circle class="cls-2" cx="552.68" cy="169.66" r="4.34"/><circle class="cls-2" cx="597.18" cy="169.66" r="4.34"/><circle class="cls-2" cx="641.65" cy="169.66" r="4.34"/><circle class="cls-2" cx="686.15" cy="169.66" r="4.34"/><circle class="cls-2" cx="552.68" cy="196.78" r="4.34"/><circle class="cls-2" cx="597.18" cy="196.78" r="4.34"/><circle class="cls-2" cx="641.65" cy="196.78" r="4.34"/><circle class="cls-2" cx="686.15" cy="196.78" r="4.34"/><circle class="cls-2" cx="552.68" cy="223.92" r="4.34"/><circle class="cls-2" cx="597.18" cy="223.92" r="4.34"/><circle class="cls-2" cx="641.65" cy="223.92" r="4.34"/><circle class="cls-2" cx="686.15" cy="223.92" r="4.34"/><circle class="cls-2" cx="552.68" cy="251.04" r="4.34"/><circle class="cls-2" cx="597.18" cy="251.04" r="4.34"/><circle class="cls-2" cx="641.65" cy="251.04" r="4.34"/><circle class="cls-2" cx="686.15" cy="251.04" r="4.34"/><circle class="cls-2" cx="552.68" cy="276" r="4.34"/><circle class="cls-2" cx="597.18" cy="276" r="4.34"/><circle class="cls-2" cx="641.65" cy="276" r="4.34"/><circle class="cls-2" cx="686.15" cy="276" r="4.34"/><path class="cls-2" d="M552.68,298.14a4.38,4.38,0,0,0-3.93,6.26,3.94,3.94,0,0,0,2.1,2.05,4.41,4.41,0,0,0,5.45-6.51,3.86,3.86,0,0,0-3.34-1.8Z"/><path class="cls-2" d="M597.5,298.14a4.36,4.36,0,0,0-4.22,5.48,4.27,4.27,0,0,0,3,3.05,4.35,4.35,0,0,0,5.52-4.17v0a4.32,4.32,0,0,0-4.31-4.34Z"/><path class="cls-2" d="M641.65,298.88a4.34,4.34,0,1,0,4.34,4.34,4.34,4.34,0,0,0-4.34-4.34Z"/><path class="cls-2" d="M686.15,298.88a4.34,4.34,0,1,0,4.34,4.34,4.34,4.34,0,0,0-4.34-4.34Z"/><circle class="cls-2" cx="552.68" cy="330.26" r="4.34"/><circle class="cls-2" cx="597.18" cy="330.26" r="4.34"/><circle class="cls-2" cx="641.65" cy="330.26" r="4.34"/><circle class="cls-2" cx="686.15" cy="330.26" r="4.34"/><path class="cls-2" d="M552.68,353a4.35,4.35,0,1,0,4.35,4.34,4.35,4.35,0,0,0-4.35-4.34Z"/><path class="cls-2" d="M599.4,353.45a4.38,4.38,0,0,0-6.16,4.9,4.34,4.34,0,0,0,8.58-1v0A4.24,4.24,0,0,0,599.4,353.45Z"/><path class="cls-2" d="M641.65,353a4.35,4.35,0,1,0,4.34,4.34,4.34,4.34,0,0,0-4.34-4.34Z"/><path class="cls-2" d="M686.15,353a4.35,4.35,0,1,0,4.34,4.34,4.35,4.35,0,0,0-4.34-4.34Z"/><circle class="cls-2" cx="817.3" cy="413.02" r="4.34"/><circle class="cls-2" cx="861.79" cy="413.02" r="4.34"/><circle class="cls-2" cx="906.28" cy="413.07" r="4.34"/><path class="cls-2" d="M950.78,417.36a4.35,4.35,0,1,0-4.35-4.34,4.34,4.34,0,0,0,4.35,4.34Z"/><circle class="cls-2" cx="817.3" cy="440.14" r="4.34"/><circle class="cls-2" cx="861.79" cy="440.14" r="4.34"/><circle class="cls-2" cx="906.27" cy="440.19" r="4.34"/><path class="cls-2" d="M953.23,436.22a4.37,4.37,0,0,0-6.12,4.92,4.28,4.28,0,0,0,3.07,3.21,4.35,4.35,0,0,0,5.5-4.19v0A4.22,4.22,0,0,0,953.23,436.22Z"/><circle class="cls-2" cx="817.3" cy="467.28" r="4.34"/><circle class="cls-2" cx="861.79" cy="467.28" r="4.34"/><circle class="cls-2" cx="906.27" cy="467.32" r="4.34"/><path class="cls-2" d="M950.78,462.94a4.34,4.34,0,1,0,4.34,4.34,4.34,4.34,0,0,0-4.34-4.34Z"/><circle class="cls-2" cx="817.3" cy="494.4" r="4.34"/><circle class="cls-2" cx="861.79" cy="494.4" r="4.34"/><circle class="cls-2" cx="906.26" cy="494.44" r="4.34"/><path class="cls-2" d="M950.78,490.06a4.35,4.35,0,1,0,4.34,4.34,4.35,4.35,0,0,0-4.34-4.34Z"/><circle class="cls-2" cx="817.3" cy="519.36" r="4.34"/><circle class="cls-2" cx="861.79" cy="519.36" r="4.34"/><circle class="cls-2" cx="906.28" cy="519.4" r="4.34"/><path class="cls-2" d="M950.78,523.7a4.35,4.35,0,1,0-4.35-4.34,4.34,4.34,0,0,0,4.35,4.34Z"/><circle class="cls-2" cx="817.3" cy="546.5" r="4.34"/><circle class="cls-2" cx="861.79" cy="546.5" r="4.34"/><circle class="cls-2" cx="906.27" cy="546.54" r="4.34"/><path class="cls-2" d="M950.78,542.15a4.35,4.35,0,1,0,4.34,4.35,4.35,4.35,0,0,0-4.34-4.35Z"/><circle class="cls-2" cx="817.3" cy="573.62" r="4.34"/><circle class="cls-2" cx="861.79" cy="573.62" r="4.34"/><circle class="cls-2" cx="906.27" cy="573.65" r="4.34"/><path class="cls-2" d="M950.78,569.28a4.34,4.34,0,1,0,4.34,4.34,4.34,4.34,0,0,0-4.34-4.34Z"/><path class="cls-2" d="M817.3,596.44a4.35,4.35,0,1,0,4.34,4.34,4.34,4.34,0,0,0-4.34-4.34Z"/><path class="cls-2" d="M861.79,596.44a4.35,4.35,0,1,0,4.34,4.34,4.34,4.34,0,0,0-4.34-4.34Z"/><path class="cls-2" d="M906.28,596.44a4.35,4.35,0,1,0,4.35,4.34,4.34,4.34,0,0,0-4.35-4.34Z"/><path class="cls-2" d="M950.78,596.44a4.35,4.35,0,1,0,4.34,4.34,4.34,4.34,0,0,0-4.34-4.34Z"/><circle class="cls-2" cx="282.73" cy="223.4" r="4.34"/><circle class="cls-2" cx="327.22" cy="223.4" r="4.34"/><circle class="cls-2" cx="371.69" cy="223.4" r="4.34"/><circle class="cls-2" cx="416.19" cy="223.4" r="4.34"/><path class="cls-2" d="M282.73,245.87a4.34,4.34,0,0,0-4.07,5.58,4.27,4.27,0,0,0,3,3,4.34,4.34,0,1,0,1.23-8.54Z"/><path class="cls-2" d="M330,246.59a4.38,4.38,0,0,0-6.16,4.9,4.35,4.35,0,0,0,8.59-1v0A4.24,4.24,0,0,0,330,246.59Z"/><path class="cls-2" d="M371.61,245.87a4.34,4.34,0,1,0,.19,0Z"/><path class="cls-2" d="M416.19,246.18a4.34,4.34,0,1,0,4.34,4.34,4.34,4.34,0,0,0-4.34-4.34Z"/><circle class="cls-2" cx="282.73" cy="277.64" r="4.34"/><circle class="cls-2" cx="327.22" cy="277.64" r="4.34"/><circle class="cls-2" cx="371.69" cy="277.64" r="4.34"/><circle class="cls-2" cx="416.19" cy="277.64" r="4.34"/><path class="cls-2" d="M282.73,300.44a4.35,4.35,0,1,0,4.34,4.35,4.35,4.35,0,0,0-4.34-4.35Z"/><path class="cls-2" d="M328.08,300.15a4.36,4.36,0,0,0-4.22,5.48,4.3,4.3,0,0,0,3,3.05,4.36,4.36,0,0,0,5.52-4.17v0a4.34,4.34,0,0,0-4.32-4.34Z"/><path class="cls-2" d="M371.61,300.15a4.38,4.38,0,0,0-3.93,6.26,4,4,0,0,0,2.09,2,4.41,4.41,0,0,0,5.45-6.51,3.85,3.85,0,0,0-3.33-1.8Z"/><path class="cls-2" d="M416.19,300.44a4.35,4.35,0,1,0,4.34,4.35,4.35,4.35,0,0,0-4.34-4.35Z"/><path class="cls-2" d="M71.05,746.93a4.35,4.35,0,1,0,4.35-4.34,4.34,4.34,0,0,0-4.35,4.34Z"/><path class="cls-2" d="M71.05,702.46a4.35,4.35,0,1,0,4.35-4.35,4.34,4.34,0,0,0-4.35,4.35Z"/><path class="cls-2" d="M71.05,658a4.35,4.35,0,1,0,4.35-4.34A4.35,4.35,0,0,0,71.05,658Z"/><path class="cls-2" d="M79.74,613.47a4.35,4.35,0,1,0-4.34,4.34,4.34,4.34,0,0,0,4.34-4.34Z"/><path class="cls-2" d="M98.17,746.93a4.35,4.35,0,1,0,4.35-4.34,4.34,4.34,0,0,0-4.35,4.34Z"/><circle class="cls-2" cx="102.52" cy="702.46" r="4.34"/><circle class="cls-2" cx="102.52" cy="657.96" r="4.34"/><circle class="cls-2" cx="102.52" cy="613.47" r="4.34"/><path class="cls-2" d="M125.32,746.93a4.34,4.34,0,1,0,4.34-4.34,4.34,4.34,0,0,0-4.34,4.34Z"/><circle class="cls-2" cx="129.66" cy="702.46" r="4.34"/><circle class="cls-2" cx="129.66" cy="657.96" r="4.34"/><circle class="cls-2" cx="129.66" cy="613.47" r="4.34"/><path class="cls-2" d="M152.46,746.93a4.35,4.35,0,1,0,4.34-4.34,4.34,4.34,0,0,0-4.34,4.34Z"/><circle class="cls-2" cx="156.78" cy="702.46" r="4.34"/><circle class="cls-2" cx="156.78" cy="657.96" r="4.34"/><circle class="cls-2" cx="156.78" cy="613.47" r="4.34"/><path class="cls-2" d="M177.39,746.93a4.35,4.35,0,1,0,4.34-4.34,4.34,4.34,0,0,0-4.34,4.34Z"/><circle class="cls-2" cx="181.73" cy="702.46" r="4.34"/><circle class="cls-2" cx="181.73" cy="657.96" r="4.34"/><circle class="cls-2" cx="181.73" cy="613.47" r="4.34"/><path class="cls-2" d="M203.73,746.93a4.37,4.37,0,0,0,6.26,3.93,4,4,0,0,0,2-2.09,4.41,4.41,0,0,0-6.51-5.45,3.83,3.83,0,0,0-1.8,3.33Z"/><circle class="cls-2" cx="208.88" cy="702.46" r="4.34"/><circle class="cls-2" cx="208.88" cy="657.96" r="4.34"/><circle class="cls-2" cx="208.88" cy="613.47" r="4.34"/><path class="cls-2" d="M231.66,746.93a4.34,4.34,0,1,0,4.34-4.34,4.34,4.34,0,0,0-4.34,4.34Z"/><path class="cls-2" d="M231.66,702.46a4.34,4.34,0,1,0,4.34-4.35,4.34,4.34,0,0,0-4.34,4.35Z"/><path class="cls-2" d="M231.66,658a4.34,4.34,0,1,0,4.34-4.34,4.34,4.34,0,0,0-4.34,4.34Z"/><path class="cls-2" d="M231.66,613.47a4.34,4.34,0,1,0,4.34-4.34,4.34,4.34,0,0,0-4.34,4.34Z"/><path class="cls-2" d="M258.78,746.93a4.34,4.34,0,1,0,4.34-4.34h0A4.34,4.34,0,0,0,258.78,746.93Z"/><circle class="cls-2" cx="263.12" cy="702.46" r="4.34"/><circle class="cls-2" cx="263.12" cy="657.96" r="4.34"/><circle class="cls-2" cx="263.12" cy="613.47" r="4.34"/><path class="cls-2" d="M71.05,563a4.35,4.35,0,1,0,4.35-4.34A4.35,4.35,0,0,0,71.05,563Z"/><path class="cls-2" d="M71.05,518.55a4.35,4.35,0,1,0,4.35-4.34,4.34,4.34,0,0,0-4.35,4.34Z"/><path class="cls-2" d="M71.49,471.42a4.37,4.37,0,0,0,4.83,6.21,4.34,4.34,0,0,0-.86-8.59H75.4A4.22,4.22,0,0,0,71.49,471.42Z"/><path class="cls-2" d="M79.74,429.56a4.35,4.35,0,1,0-4.34,4.35,4.34,4.34,0,0,0,4.34-4.35Z"/><circle class="cls-2" cx="102.52" cy="563.04" r="4.34"/><circle class="cls-2" cx="102.52" cy="518.55" r="4.34"/><circle class="cls-2" cx="102.52" cy="474.06" r="4.34"/><circle class="cls-2" cx="102.52" cy="429.56" r="4.34"/><circle class="cls-2" cx="129.66" cy="563.04" r="4.34"/><circle class="cls-2" cx="129.66" cy="518.55" r="4.34"/><circle class="cls-2" cx="129.66" cy="474.06" r="4.34"/><circle class="cls-2" cx="129.66" cy="429.56" r="4.34"/><circle class="cls-2" cx="156.78" cy="563.04" r="4.34"/><circle class="cls-2" cx="156.78" cy="518.55" r="4.34"/><circle class="cls-2" cx="156.78" cy="474.06" r="4.34"/><circle class="cls-2" cx="156.78" cy="429.56" r="4.34"/><circle class="cls-2" cx="181.73" cy="563.04" r="4.34"/><circle class="cls-2" cx="181.73" cy="518.55" r="4.34"/><circle class="cls-2" cx="181.73" cy="474.06" r="4.34"/><circle class="cls-2" cx="181.73" cy="429.56" r="4.34"/><circle class="cls-2" cx="208.88" cy="563.04" r="4.34"/><circle class="cls-2" cx="208.88" cy="518.55" r="4.34"/><circle class="cls-2" cx="208.88" cy="474.06" r="4.34"/><circle class="cls-2" cx="208.88" cy="429.56" r="4.34"/><path class="cls-2" d="M231.66,563A4.34,4.34,0,1,0,236,558.7a4.34,4.34,0,0,0-4.34,4.34Z"/><path class="cls-2" d="M231.66,518.55a4.34,4.34,0,1,0,4.34-4.34,4.34,4.34,0,0,0-4.34,4.34Z"/><path class="cls-2" d="M231.66,474.06a4.34,4.34,0,1,0,4.34-4.35,4.34,4.34,0,0,0-4.34,4.35Z"/><path class="cls-2" d="M231.66,429.56a4.34,4.34,0,1,0,4.34-4.34,4.34,4.34,0,0,0-4.34,4.34Z"/><circle class="cls-2" cx="263.12" cy="563.04" r="4.34"/><circle class="cls-2" cx="263.12" cy="518.55" r="4.34"/><circle class="cls-2" cx="263.12" cy="474.06" r="4.34"/><circle class="cls-2" cx="263.12" cy="429.56" r="4.34"/></g><g id="freepik--Plants--inject-9"><path class="cls-3" d="M471.31,391c-10.66,2.54-16.57,10.34-23.36,18.24a84.2,84.2,0,0,1-10.06,11.12c.12-.56.22-1.13.32-1.69a209.56,209.56,0,0,0,2.64-28.51c4.86-1.07,16.08-3.6,23.92-6,10.8-3.22,28.15-14.48,23.17-27.81-3.7-9.71-14.24-8.38-21.92-4.36-9.69,5.09-13.49,14.07-18.09,23.4a86,86,0,0,1-7,13.17c.22-9.29-.12-16.63-.32-19.94,2.33-4.65,7.23-14.64,10.23-22,4.26-10.43,6.39-31-7.1-35.49-10.05-3.31-15.5,5.8-17.19,14.3-2.13,10.74,2.5,19.34,6.84,28.81a93,93,0,0,1,5.75,13.29c0,.7.12,2,.2,3.56h0c.16,3.36.32,8.46.24,14.64-1.37-5.57-3.66-14.6-5.77-21.19-3.42-10.72-15-27.85-28.15-22.6-9.77,3.86-8.16,14.39-4,22,5.29,9.59,14.36,13.23,23.77,17.68,2,1,13.59,7.43,13.59,7.43v1a.87.87,0,0,1-.52.54l1-.2a204.93,204.93,0,0,1-2.67,28c-.12.72-.28,1.49-.45,2.25-1.87-3.7-7.68-15.1-12.24-22.66-5.83-9.63-21.09-23.58-32.73-15.4-8.59,6-4.59,15.9,1.24,22.32,7.36,8,17,9.51,27.23,11.66,2.45.52,13.35,2,15.14,4.52v.24c.94.18.16.31.16.31h1s-2.55,9.81-4.3,15.72c-1.65,5.57-3.46,11.72-5.13,18.35-2-4.82-6.37-15-10.05-22.11-5.13-10-19.32-25.07-31.52-17.78-9,5.41-5.73,15.55-.39,22.36,6.76,8.63,16.31,10.74,26.3,13.61,2.23.65,11.56,2.7,15.26,5.11a187.31,187.31,0,0,0-4.72,26.6c-2.5-3.26-10.34-13.43-16.25-20.11-7.5-8.38-25.07-19.28-35-9.1-7.34,7.52-1.57,16.48,5.33,21.71,8.74,6.6,18.51,6.21,28.91,6.43,2.51,0,13.49-.42,17,1.43a136.45,136.45,0,0,0,.48,31.29h-.4l-.77.14v.72c-1.24-2.15-11.64-11.3-19.12-16.93-8.22-6.19-25.07-12.74-33.84-4.74-2-6.86-9-7.84-14.89-4.85-8.05,4-10.8,11-16.23,18.82-1.29,1.89-5.43,9.55-8.34,11.34-1-7-1.35-14.5-2.11-21.63-.59.2-1.07.3,1-.79,3.58-1.91,11.22-4.78,18.1-9.39s16.62-17.85,9.63-27.76c-5.17-7.32-12.61-5.81-17,.26-5.59,7.68-4.22,14.58-6.32,23.92-.56,2.5-2,11.2-5.26,13.37h0c-.73-5.28-.53-11.23-1.75-16.32s-3.84-9.35-5.71-14.07c5.79-3.87,9.59-5.61,15.24-10.9,7.84-7.3,12.44-20.11,4.74-29.66-5.67-7-13.61-5.51-17.95,1-5.49,8.2-3.14,15.8-2.9,25.67,0,2,1.15,9.69.28,12.57-.26-.42-.5-.86-.72-1.31a191.92,191.92,0,0,0-15.8-23.64,173.7,173.7,0,0,0,10.45-16.23c5.07-9.53,5.89-24.31-4-31.32-7.28-5.17-14.31-1.73-17.17,5.65-3.6,9.31,1.81,17.57,5.15,27.18.68,2,4.2,10.15,4.52,13.29-4.26-5.21-8.86-10.62-13.71-15.64-2.77-7-6.57-15.56-9.75-22-4.49-9.15-12.43-21.49-22.7-17.47-7.6,3-7.2,10.27-3.36,16.31,4.85,7.62,13.19,11.13,22.12,15.94a95.71,95.71,0,0,1,12.06,7.16c.38.32,2.25,2.25,2.53,2.55l.13.12h0c3.47,3.68,6.91,7.6,10.05,11.5-5.19-4.48-12.29-10.05-17.59-13.75-8.67-6-24.13-12.55-29.26-1.15-3.82,8.41,4.4,13.61,11,16.69,8.36,3.86,15.5,2.61,25.21,1.61,2.15-.22,9.67-1.51,12.73-.66.22,0,.6.6.7.76a1,1,0,0,1,0,.48,1.89,1.89,0,0,0,.2-.2,191.38,191.38,0,0,1,15.4,23.18c.35.63.69,1.29,1,1.89-6.72-4.18-14.07-8.54-20.93-12.2-8.87-4.67-24.81-8.26-28.15,3.38-2.45,8.6,5.49,12.74,12.23,14.75,8.52,2.54,15.36.17,24.36-2.45,2.18-.64,9.31-3.76,12.63-3a.14.14,0,0,1,.14.18c0,.12-.09.24-.16.41h.32c1.77,4.51,4.33,8.86,5.51,13.64s1.05,10,1.71,14.86a72,72,0,0,0-14.48-12.21c-8-5.18-23.22-10.43-29-.48-4.26,7.36,2,12.55,8.2,15.26,7.73,3.46,14.68,1.65,23.49.18,2-.34,8.93-2.21,11.74-1.65.88,7.44,1.19,15,2.23,22.46-5.45-4-9.17-7.24-15.74-10.25-7.64-3.48-19.7-4-25.05,3.24a17.51,17.51,0,0,0-4.65-5.94c-6.95-5.71-14.45-2.71-17.41,4.51-3.76,9.13,0,16.08,2.23,25.75.47,2,3.06,9.27,2.76,12.27-.26-.22-.63-.75-1-1.13a190.72,190.72,0,0,0-20.1-20.1,175.27,175.27,0,0,0,7-18c3.08-10.35,1-25-10-29.92-8.16-3.61-14.37,1.15-15.72,8.93-1.69,9.83,5.25,16.89,10.43,25.64,1.05,1.79,6,9.1,7,12.06-5.21-4.24-10.78-8.65-16.53-12.61-4-6.29-9.53-14-13.89-19.62-6.21-8-16.43-18.62-25.71-12.65-6.86,4.43-5,11.52,0,16.67,6.25,6.5,15.11,8.3,24.81,11.24a99.5,99.5,0,0,1,13.29,4.62c.44.25,2.65,1.77,3,2l.14.1h0c4,2.91,8.27,6,12.07,9.26-6-3.35-14.08-7.37-20-10-9.69-4.24-26.14-7.54-28.91,4.65-2,9,7,12.46,14.07,14.17,9,2.15,15.73-.48,25-3.4,2-.64,9.19-3.4,12.35-3.17.24,0,.7.48.82.62a.93.93,0,0,1,.12.46l.18-.24a194.38,194.38,0,0,1,19.67,19.68c.46.55.92,1.13,1.35,1.67-7.42-2.79-15.41-5.63-22.95-7.82-9.61-2.81-25.93-3.2-26.9,8.87-.72,8.92,7.88,11.4,14.88,12.06,8.87.81,15.08-2.87,23.4-7.22,2-1.06,8.41-5.53,11.79-5.49,0,0,.18,0,.18.15a2.67,2.67,0,0,1,0,.4l.3-.18c2.63,4.12,6,7.88,8,12.34s3,9.55,4.63,14.24a71.94,71.94,0,0,0-16.67-8.65c-8.93-3.5-24.81-5.65-28.51,5.25-2.72,8,4.54,11.88,11.06,13.35,8.24,1.85,14.71-1.29,23.06-4.48,1.85-.71,8.32-3.93,11.2-3.93,2.31,7.12,4,14.44,6.59,21.56-6-2.84-10.39-5.27-17.43-6.92-9-2-22.5.26-24.81,10.68-1.71,7.68,4.68,11,11.14,11.28,8.16.32,13.33-3.84,20.49-8.53,1.72-1.12,7.58-6,10.63-6,3.08,8.24,6,16.08,11.84,22.88-.12,0-.26,0-.3.14s.22,0,.3,0,.79.38.35.34c-6.74-.56-11.81-2.83-19.25-3.84-8.94-1.2-21.45,2.78-22.31,13.49-.65,7.93,7.32,9.9,13.67,9,8-1.12,12.24-5.35,18.5-11.06,1.56-1.42,6.43-6.83,9.51-7.4a124.23,124.23,0,0,0,27,19.14c.16-.3.34-.6.5-.92A119.2,119.2,0,0,1,302.3,624c6.69-2.19,12.18-3.3,19-6.45,9.09-4.23,20.27-13.56,16.43-24.63-2.86-8.19-10.74-7.16-16.61-2.88-7.42,5.41-9.89,13.15-13.79,22.12-.91,2-3.24,9.15-5.33,11.4-6-6.3-8.73-14.46-11.7-22.54A146.38,146.38,0,0,0,309,594.76c9.09-4,19.55-14.18,15.69-25.12-2.86-8-10.66-7.92-16.29-3.47-7.12,5.63-8.42,12.88-12.18,21.65-.91,2.11-3.44,10.43-5.93,12.75-2.38-6.66-4.21-13.94-6.36-20.77-.54.3-1,.5.81-1,3.13-2.57,10.05-6.89,15.84-12.76a30.1,30.1,0,0,0,5.05-7.26c7-.1,11.82-3.18,18.53-7.2,1.83-1.09,7.64-5.43,10.78-5.37a125,125,0,0,0,22.72,24.13l.66-.79a119.17,119.17,0,0,1-22.49-24.12c7-.81,12.58-.83,19.86-2.58,9.73-2.33,22.54-9.27,21-20.89a9.84,9.84,0,0,0-1.71-4.54l.32.16c9.85,4.81,19.36,2.51,29.62.72,2.57-.46,14.07-3.25,17.37-1.75a127.4,127.4,0,0,0,13,40.48l1.24-.65a125.47,125.47,0,0,1-12.82-40.21c4.48,1.39,16,4.89,24.12,6.76,11,2.49,31.63,1.22,33.84-12.81,1.65-10.37-8.24-14.35-16.91-14.64-10.93-.34-18.68,5.63-27.3,11.48-2,1.31-9.75,7.34-13.91,8.49a133.84,133.84,0,0,1-.51-30.86c3.82,1.2,16.25,5,24.95,7,11,2.5,31.63,1.23,33.84-12.8,1.63-10.38-8.24-14.36-16.91-14.64-10.93-.34-18.69,5.63-27.3,11.46-2,1.41-10.56,8-14.54,8.65a186.13,186.13,0,0,1,4.53-25.9,1.25,1.25,0,0,1,.24.4,3.94,3.94,0,0,0-.18-.48c.46,0,16.61.68,27.1.26,11.26-.48,30.82-7.12,29.27-21.25-1.12-10.44-11.72-11.68-20.1-9.67-10.66,2.53-16.55,10.33-23.34,18.21-1.81,2.11-9.65,12.55-12.89,12.45h0c1.79-7.32,3.78-14.08,5.57-20.11s3.36-11.38,4.38-16.08c5,.16,16.53.48,24.65.16,11.26-.48,30.84-7.12,29.29-21.25C490.27,390.14,479.73,389,471.31,391ZM334.45,544.8c-6.5-1.89-11-5.12-18.1-7.58a25.75,25.75,0,0,0-11.82-1.06l-.4-.45c-6.51-6.15-13.51-3.21-16.65,3.6-4,8.65-1.22,15.12-1.45,24.71,0,2.56.21,11.38-2.51,14.08h0c-1.77-5.05-2.73-10.92-4.95-15.66s-5.6-8.41-8.34-12.63c4.89-4.93,8.26-7.4,12.77-13.69A28.81,28.81,0,0,0,287.82,525a16.77,16.77,0,0,0,6,2.65c8,2,13.81-1.12,21.75-4.3,2-.76,8.62-4.32,11.64-3.86,1.39,8.69,2.65,17,7.08,24.77h0c.08,0,.54.64.12.52ZM361,515.64c-8.35,3.84-12.31,10.94-17.9,18.86-1.26,1.79-5,8.34-7.48,10-4.62-7.36-5.69-15.9-7-24.41a146.69,146.69,0,0,0,19.58-2.43A31.33,31.33,0,0,0,364.91,508a18.09,18.09,0,0,0,5.25,6.15,15.34,15.34,0,0,0-9.25,1.55Z"/><path class="cls-4" d="M327,498.05c.4-.2,0,0-.4.1C326.51,498.21,326.59,498.23,327,498.05Z"/><path class="cls-4" d="M317.46,468.37c0,.12.24,0,.36-.3C317.6,468.15,317.36,468.23,317.46,468.37Z"/><path class="cls-4" d="M300.89,442.66c.12,0,.18-.16.22-.43C300.93,442.42,300.75,442.56,300.89,442.66Z"/><path class="cls-4" d="M326.45,498a.81.81,0,0,0,0,.22h0C326.59,498.05,327,497.75,326.45,498Z"/><path class="cls-4" d="M232.31,517Z"/><path class="cls-4" d="M284.18,579.29v.21h0C284.33,579.33,284.63,579,284.18,579.29Z"/><path class="cls-4" d="M284.33,579.27c.36-.28,0,0-.39.19C283.92,579.52,284,579.5,284.33,579.27Z"/><path class="cls-4" d="M247.83,530.12c.12,0,.14-.21.12-.47C247.81,529.83,247.67,530,247.83,530.12Z"/><path class="cls-4" d="M269.11,552c.12.12.22-.12.3-.34C269.25,551.79,269.11,551.93,269.11,552Z"/><path class="cls-4" d="M919.2,449.91Z"/><path class="cls-4" d="M857.34,518.08h-.2C857.32,518.24,857.8,518.48,857.34,518.08Z"/><path class="cls-3" d="M892,559.48c-11.46.28-18.28,9.09-27.34,16.43-1.85,1.48-9.29,8.38-12.55,10.05,4-6.39,8-13.23,11.48-20.11,6.43-5.65,14.22-13,19.9-18.82,8-8.28,18.3-21.29,9.92-29.83-6.22-6.34-14-2.9-18.94,3.44-6.34,8-6.84,17.73-8.51,28.59a105.7,105.7,0,0,1-2.93,15c-.22.5-1.57,3.15-1.79,3.57V568h0c-2.6,5-5.49,10.06-8.45,14.74a240,240,0,0,0,7.88-23.22c3.16-11.12,4-29.15-10.27-29.56-10.59-.3-13,10.06-13.67,17.9-.89,9.93,3.28,16.53,8.18,25.75,1.11,2,5.45,9,5.75,12.37a2.59,2.59,0,0,1-.56,1,1.2,1.2,0,0,1-.5.23l.3.14a225.26,225.26,0,0,1-19,24.95c-.52.58-1.11,1.2-1.65,1.75,1.87-8.43,3.72-17.46,4.93-25.88,1.52-10.76-.87-28.15-14.74-26.58-10.28,1.13-11.6,10.76-11.12,18.28.62,9.53,5.89,15.34,12.26,23.2,1.53,1.89,7.72,7.72,8.27,11.3a.19.19,0,0,1-.12.22h-.49a1.79,1.79,0,0,0,.27.28c-4.25,3.66-7.93,8-12.63,11.18s-10.35,5.17-15.38,7.88a78.87,78.87,0,0,0,7.48-19.5c2.43-10.17,2.11-27.41-10.92-29-9.61-1.19-12.71,7.29-13.25,14.49-.66,9.11,4,15.3,9.09,23.43,1.12,1.81,5.91,8,6.39,11-7.7,4-15.7,7.4-23.36,11.54,2.17-7,4.2-12.06,4.85-19.9.84-9.91-4.19-23.71-16.43-24-9-.18-11.7,7.28-10.88,14.08,1,8.7,6.66,13.27,13.23,19.86,1.59,1.59,8,6.76,8.77,9.93-8.83,5-17.31,9.74-24,17.36,0-.11,0-.25-.22-.29s0,.25.12.33-.28.9-.32.42c-.5-7.24,1.19-13.09,1-21.15-.18-9.71-6.87-22.12-19.2-20.73-9.1,1-10,9.81-7.86,16.32,2.7,8.25,8.21,11.83,15.79,17.23,1.91,1.37,8.86,5.35,10,8.49a138.41,138.41,0,0,0-17.11,32.57l1.12.34a132.88,132.88,0,0,1,17-32.35c3.66,6.62,5.87,12.19,10.62,18.68,6.37,8.71,18.9,18.56,30.84,12.16,8.81-4.74,6.27-12.84.38-18.09-7.42-6.7-16.64-7.68-27.42-9.95-2.43-.51-11-1.49-13.89-3.2,6.13-7.66,14.93-12.29,23.6-17.13,3.64,6.84,5.51,11.52,10.35,18.46,6.14,8.74,19.49,17.65,31.25,11.26,8.66-4.73,7.16-12.93,1.14-18-7.64-6.33-16.08-6.17-26.74-8.28-2.53-.53-12.44-1.45-15.5-3.6,7.16-3.9,15.1-7.36,22.52-11.1-.44-.5-.76-.92,1.23.66,3.46,2.76,9.59,9.17,17.25,14.08s25.83,9.11,33.78-2c5.87-8.19,1.32-15-7-16.83-10.5-2.35-17.39,1.89-28.35,3.68-2.9.48-12.87,2.61-16.49.32h0c5.43-2.92,11.93-5.19,16.93-8.5s8.59-7.71,12.91-11.51c6.45,4.15,9.83,7.18,17.77,10.62,11,4.75,26.74,4,33.9-7.62,5.31-8.54.58-15.84-8-17.45-11-2-18.3,3.46-28.89,7.8-2.17.9-10.06,5.19-13.45,5.51a13.56,13.56,0,0,1,1.12-1.27A221.7,221.7,0,0,0,851,587.61a208.12,208.12,0,0,0,21.5,3.56c12.28,1.08,28.57-4.25,32.17-17C907.56,564.81,901.07,559.24,892,559.48Z"/><path class="cls-4" d="M907,469.08c0,.16.24.12.54,0C907.34,469,907.08,468.89,907,469.08Z"/><path class="cls-4" d="M885.79,496.24c-.1.14.16.2.44.24C886.07,496.28,885.89,496.08,885.79,496.24Z"/><path class="cls-4" d="M857.46,518c.38.32,0,0-.26-.36C857.12,517.65,857.14,517.73,857.46,518Z"/></g><g id="freepik--Character--inject-9"><path class="cls-5" d="M732.5,705.68a42,42,0,0,0-33.91-23.24s-47.48,4.88-118.94,7.2-79.35-3.23-79.35-3.23a186.34,186.34,0,0,0-9.7,24.08c-2.84,2.33-13.25,11-18,15.1-5.49,4.81-28,12.67-22.2,39.85s40.72,35.16,83.07,41c40.36,5.59,110.34,2.78,144.18-7.57,12.93-2.48,23.79-6.1,31-11.15C735.38,769,743.88,728.11,732.5,705.68Z"/><path class="cls-6" d="M675.45,618.86c-6.46-13.67-16.16-40.69-16.16-40.69l15-65.49s14-29.08,9.34-52.61S673.12,436.24,653,429s-33.2-7.5-38.79-14.45a59.56,59.56,0,0,1-11-24.69c-.71-5.82-1-12.13-1-12.13s-20.4,16.17-52.3,7.79A104.35,104.35,0,0,1,551,410.71c-1.29,11.31-4.72,14.61-24.56,23.59s-48.81,16.17-54.4,31.74-7,40.37-8.24,79.42c-1.33,41.27-3.85,47.41-3.85,47.41L356.53,637.28l-.42-1s-5.07-2.42-9.37-4.88-6.85,0-10.86-4.85-5.59-13.83-7.72-10.31a11.63,11.63,0,0,0,1.71,12.09l-1.29,5L335,658.16a24.78,24.78,0,0,0,14.8-1.42c4.17-2.23,8-4.39,10.15-5.62,26-4.14,128.74-33.58,131.78-34.88,3.55-1.52,17.19-88.88,17.19-88.88s14.16,43.92,14.94,51.55-26.44,111.45-26.44,111.45,11.73,10.73,62.09,9.69,115.29-8.34,127.25-12.93l11.92-4.62S681.92,632.34,675.45,618.86Z"/><path class="cls-7" d="M577.23,426.77c10.53,0,27.24-11.37,32.64-18.52A59,59,0,0,1,603,389.73c-.71-5.81-1-12.12-1-12.12s-20.39,16.16-52.29,7.79A109.57,109.57,0,0,1,551,408.71C559.35,415.53,566.56,426.77,577.23,426.77Z"/><path class="cls-7" d="M678.52,291.19c0,3.49-3.23,6.75-3.75,10.14s2.07,7.47,1.23,10.83-4.85,5.63-6.08,8.83.2,7.75-1.39,10.79-6,4.2-7.95,7.05-1.52,7.56-3.75,10.15-6.78,2.71-9.24,5.07-3,7-5.72,9.08-7.14,1.23-10,3-4.3,6.3-7.31,7.79-7.27-.23-10.4,1-5.3,5.36-8.54,6.27-7.11-1.59-10.4-1-6.14,4.3-9.47,4.62-6.73-2.85-10.09-2.85-6.79,3.24-10.08,2.88-6.24-4-9.47-4.56-7.21,1.91-10.41,1-5.46-5-8.56-6.21-7.44.52-10.41-.94-4.5-6-7.34-7.75-7.4-.91-10.05-2.94-3.23-6.79-5.75-9.09-7.08-2.45-9.28-5-1.88-7.33-3.78-10.14-6.47-4-8-7-.19-7.56-1.45-10.76S475.8,316,475,312.61s1.58-7.33,1.16-10.79-3.81-6.66-3.81-10.15,3.23-6.76,3.75-10.15-2-7.47-1.23-10.83,4.88-5.62,6.11-8.82-.19-7.76,1.39-10.8,6-4.2,7.95-7,1.52-7.57,3.75-10.15,6.76-2.72,9.24-5.08,3-7,5.69-9.08,7.18-1.23,10.05-3,4.27-6.27,7.31-7.79,7.24.22,10.41-1,5.3-5.37,8.53-6.24,7.08,1.55,10.41,1,6.11-4.3,9.44-4.62,6.75,2.84,10.11,2.84,6.79-3.23,10-2.88,6.4,3.88,9.64,4.56,7.2-1.91,10.37-1,5.5,5,8.6,6.2,7.4-.51,10.41.94,4.49,6,7.33,7.76,7.37.9,10.06,2.94,3.23,6.79,5.75,9.08,7,2.46,9.24,5,1.88,7.34,3.82,10.15,6.46,4,8,7,.19,7.57,1.42,10.77,5.3,5.46,6.14,8.82-1.61,7.34-1.16,10.8S678.52,287.69,678.52,291.19Z"/><path class="cls-6" d="M625.09,321s6.27-14,11.67-12.16,7.69,20.2,1,28.32-12.12,5.43-13.48,3.62S625.09,321,625.09,321Z"/><path class="cls-6" d="M523.48,313.58a10.54,10.54,0,0,0-11.2,9.84c0,.33,0,.66,0,1-.87,11.67,12.64,16.58,14.42,17.49S523.48,313.58,523.48,313.58Z"/><path class="cls-6" d="M519.82,291.12s2.81,48.1,11,71.46,35.17,47.13,46.87,45.74,22-8.15,32.32-23.89A111.07,111.07,0,0,0,619.5,365a109.67,109.67,0,0,0,7.34-43.12l-.91-30.51s-15.38-32.8-53.13-31.8C545.36,260.09,531,274.44,519.82,291.12Z"/><path class="cls-8" d="M625.93,291.31s-15.38-32.8-53.13-31.8c-27.44.71-41.79,14.93-53,31.61,0,0,.23,4,.75,10.25a78.15,78.15,0,0,1,54.07-18.94c27.47,1.22,43.54,11.11,51.55,18.1Z"/><path class="cls-4" d="M554.08,328.13c0,3.84-1.71,3.75-3.81,3.75s-3.81,0-3.85-3.75,1.72-6.95,3.82-6.95S554.08,324.28,554.08,328.13Z"/><path class="cls-4" d="M596.78,328c0,3.84-1.68,3.71-3.78,3.75s-3.85,0-3.85-3.75,1.68-7,3.82-7S596.78,324.19,596.78,328Z"/><path class="cls-9" d="M536.05,315.81A23.36,23.36,0,0,1,555.83,309"/><path class="cls-9" d="M583.24,307.6s13.48-6.46,25.21,7.57"/><path class="cls-9" d="M564.91,347.36s10.38,8.08,19.39,0"/><path class="cls-10" d="M541.19,334.69a53.42,53.42,0,0,1,16.74-.45"/><path class="cls-10" d="M587.44,333.78a37.31,37.31,0,0,1,16.74.91"/><line class="cls-10" x1="567.17" y1="335.98" x2="579.52" y2="331.59"/><line class="cls-10" x1="567.63" y1="332.46" x2="576.87" y2="328.52"/><path class="cls-9" d="M560.9,362.94s16.65,10.31,28.77-2.3"/><path class="cls-7" d="M687.64,687.06l11.92-4.62s-16.68-50.1-23.14-63.74S660.26,578,660.26,578l12.67-55.11c-15.09-3.23-30.64-29.71-32.64-47.93-1.56-14.32-.2-37,.87-50.14L634.34,423a514.1,514.1,0,0,0-1.07,56.34C584.79,493.23,533.5,482,533.5,482V431.23c-1.88.91-4,1.88-6.24,2.91-.26,8.47-1,25-3.24,41.12-3,23.07-14.31,51.94-14.31,51.94s14.15,43.92,14.93,51.55S498.2,690.19,498.2,690.19s11.73,10.74,62.09,9.7S675.68,691.65,687.64,687.06Z"/><polygon class="cls-11" points="505.38 679.5 572.57 622.9 402.27 609 335.43 663.34 505.38 679.5"/><polygon class="cls-7" points="335.43 663.34 505.38 679.5 478.74 557.84 306.34 546.85 335.43 663.34"/><path class="cls-12" d="M482,572.93c-33.32,5.43-46.8,38-84.52,68.85a115.12,115.12,0,0,1-43.73,23.3L505.38,679.5Z"/><path class="cls-6" d="M328.12,650a15.49,15.49,0,0,0,4.3,8.54c3.62,3.23,11.67,2.94,13.29.26s-1.88-3.24-6.47-5.14A77.37,77.37,0,0,0,328.12,650Z"/><path class="cls-6" d="M327.09,646.75s-2,3.56,6.82,6.21,13.48-.39,14.42-3.68a4.29,4.29,0,0,0-2.52-5.49,4.5,4.5,0,0,0-1-.24c-1.94,0-14.74,1.75-16.16,1.81S326.64,644.17,327.09,646.75Z"/><path class="cls-6" d="M323.41,636.44s0,7.63,1.29,9.54,12.93,3.78,18.32.48,3.92-9.34.46-9.18S323.41,636.44,323.41,636.44Z"/><path class="cls-6" d="M324.83,620.48s-6.89,13.6-2,17.48,18.88,2.65,21-2.71-3.23-4.53-9-5.43l-7.37-1.17Z"/><path class="cls-6" d="M647.88,786.93s-101.46-25.21-142.5-55.69-66.33-55.23-97.94-62-55.79,10.86-55.66,34.29,16.16,39,56.5,60.44,101.17,34.78,144,41.47,90.86,4.14,99.87,4.14,23.86.81,45.64-1.23a37.89,37.89,0,0,0,35.56-38c.22-8.11-14.74-20.46-27.83-14.19S668.31,784.93,647.88,786.93Z"/><path class="cls-5" d="M599.85,773.13c-32-10.28-72.14-25.31-94.47-42-41.09-30.44-66.33-55.23-97.84-62S351.75,680,351.88,703.38s16.16,39,56.5,60.44,101.16,34.78,144,41.47c12,1.88,24.34,3,36.17,3.72,0-1.68,0-3.43.16-5.33C589.12,793,595.2,780.92,599.85,773.13Z"/><path class="cls-7" d="M705.54,756c-9.69,4.66-25.37,18.2-41.18,25.86a8.06,8.06,0,0,0-.16,7.85,29.91,29.91,0,0,0,11.15,10.93s-6.46,7.43-23.23,8.82c9-.26,23.85.81,45.63-1.23a37.88,37.88,0,0,0,35.56-38C733.6,762.11,718.63,749.76,705.54,756Z"/><path class="cls-13" d="M725.23,774.78c.87,19.75-17.17,27.12-27.48,33.45a37.88,37.88,0,0,0,35.56-38c.22-8.11-14.74-20.46-27.83-14.19C705.54,756,724.19,755,725.23,774.78Z"/><path class="cls-6" d="M438.63,785.58s102-22.63,143.93-52,67.87-53.46,99.45-59.4,55.47,12.34,54.75,35.78-17.16,38.59-58.17,58.88-102.08,32.07-145,37.63-90.82,1.84-99.84,1.35a453.37,453.37,0,0,1-45.57-2.42,37.91,37.91,0,0,1-34.62-38.95c0-8.11,15.29-20,28.18-13.41S418.24,782.89,438.63,785.58Z"/><path class="cls-5" d="M682.17,674.2c-31.67,5.94-57.59,30-99.45,59.4-23.37,16.32-65.39,30.71-98,40a74.35,74.35,0,0,0-.51,28c.55,2.88,1.06,5.46,1.61,7.82a414.5,414.5,0,0,0,47.77-3c43-5.56,104.11-17.33,145-37.63S736,733.31,736.83,710,713.72,668.28,682.17,674.2Z"/><path class="cls-7" d="M407.44,802.09a52.83,52.83,0,0,0,11.7-11.18c3.23-5.08-.71-12.45-1.29-13.51-14-8.18-27.35-19.94-35.94-24.34-12.93-6.46-28.19,5.3-28.19,13.41a37.92,37.92,0,0,0,34.62,38.95,322.62,322.62,0,0,0,34.45,2.17A145.1,145.1,0,0,1,407.44,802.09Z"/><path class="cls-13" d="M389.15,805.52c-3.24-1.72-6.47-3.56-9.34-5.21-8.38-5.14-20.37-12.92-20.95-25.85-.42-8.89,6.47-18.1,10.67-23-8.7,1.9-15.94,9.3-15.94,14.86a37.91,37.91,0,0,0,34.62,38.95Z"/><path class="cls-6" d="M661.84,496.43S713.56,626,722.38,631s29.83,3.23,24.47-26.31-28.77-118-38.17-136.91a65.25,65.25,0,0,0-33.84-32.32,54.28,54.28,0,0,0-17.75-4.14"/><path class="cls-6" d="M722.51,594.49a289.21,289.21,0,0,1-69.72,10.83c-36.84.77-36.42.74-50.09-3.59s-38.05-12.93-47.1-14.29-14.28-4-17.32-.45c-26.7,31.52-30.64,32.55-30.09,35.2S520.63,619,520.63,619s-6.69,11.12-4,11.44a31.51,31.51,0,0,0,9.37-2.23s.19,4.49,3.75,3.88a29.68,29.68,0,0,0,9.24-4.91s-4,11,.78,7.17,17.74-15.64,19.07-16.16,13.22,3.46,19.39,3.62a70.74,70.74,0,0,0,15.19-2s41.63,14.77,78.77,19.4,67-1.68,73.82-9.22.42-20.71-3.23-30.89"/><path class="cls-9" d="M520.57,618.86s13.18-17.23,18.32-23.3"/><line class="cls-9" x1="526.03" y1="628.14" x2="550.66" y2="595.52"/><path class="cls-9" d="M539,627.1s15.29-20,18.43-20.62"/></g><g id="freepik--Floor--inject-9"><line class="cls-14" x1="49.95" y1="810.62" x2="1008.99" y2="810.62"/></g></svg>