<svg id="Capa_1" data-name="Capa 1" xmlns="http://www.w3.org/2000/svg" viewBox="0 0 1000 1000"><defs><style>.cls-1{fill:#29abe2;}.cls-2{opacity:0.6;}.cls-3{fill:#d3d3d3;}.cls-14,.cls-4,.cls-6,.cls-9{fill:none;}.cls-10,.cls-11,.cls-12,.cls-13,.cls-16,.cls-17,.cls-4,.cls-5,.cls-6,.cls-7,.cls-8,.cls-9{stroke:#263238;}.cls-10,.cls-4,.cls-5,.cls-6,.cls-7,.cls-8{stroke-linecap:round;}.cls-10,.cls-4,.cls-5,.cls-8{stroke-linejoin:round;}.cls-11,.cls-12,.cls-13,.cls-14,.cls-16,.cls-17,.cls-4,.cls-6,.cls-7,.cls-9{stroke-width:1.98px;}.cls-5{fill:#7acc1b;stroke-width:1.97px;}.cls-11,.cls-12,.cls-13,.cls-14,.cls-16,.cls-17,.cls-6,.cls-7,.cls-9{stroke-miterlimit:10;}.cls-12,.cls-15,.cls-7{fill:#263238;}.cls-8{fill:#d68c16;}.cls-10,.cls-8{stroke-width:1.97px;}.cls-10{fill:#d6b883;}.cls-11{fill:#fff;}.cls-13{fill:#7c7e7f;}.cls-14{stroke:#eaeaea;}.cls-16{fill:#9c9c9c;}.cls-17{fill:#bababa;}</style></defs><g id="freepik--Graphics--inject-9"><path class="cls-1" d="M697.71,110.32h-37.6V74.58h37.63Zm-36.29-1.38h35V76H661.45Z"/><path class="cls-1" d="M760.91,181.78H723.28V146.05h37.63Zm-36.29-1.38h35v-33h-35Z"/><path class="cls-1" d="M760.91,139.17H723.28V103.44h37.63Zm-36.29-1.37h35v-33h-35Z"/><polygon class="cls-1" points="724.62 166.66 677.58 166.66 677.58 110.31 678.92 110.31 678.92 165.28 724.62 165.28 724.62 166.66"/><rect class="cls-1" x="677.58" y="122.68" width="45.7" height="1.37"/><path class="cls-1" d="M465.21,214.76H427.58V179h37.63Zm-36.29-1.38h34.95v-33H428.92Z"/><path class="cls-1" d="M528.39,287.59H490.75V251.86h37.64Zm-36.3-1.37H527v-33H492.09Z"/><path class="cls-1" d="M528.39,243.62H490.75V207.89h37.64Zm-36.3-1.38H527v-33H492.09Z"/><polygon class="cls-1" points="492.1 271.1 445.05 271.1 445.05 214.76 446.4 214.76 446.4 269.73 492.1 269.73 492.1 271.1"/><rect class="cls-1" x="446.4" y="227.13" width="45.7" height="1.37"/><ellipse class="cls-1" cx="549.3" cy="103.57" rx="2.9" ry="2.97"/><ellipse class="cls-1" cx="579.04" cy="103.57" rx="2.9" ry="2.97"/><ellipse class="cls-1" cx="608.77" cy="103.57" rx="2.9" ry="2.97"/><ellipse class="cls-1" cx="638.52" cy="103.57" rx="2.9" ry="2.97"/><ellipse class="cls-1" cx="549.3" cy="122.11" rx="2.9" ry="2.97"/><ellipse class="cls-1" cx="579.04" cy="122.11" rx="2.9" ry="2.97"/><ellipse class="cls-1" cx="608.77" cy="122.11" rx="2.9" ry="2.97"/><ellipse class="cls-1" cx="638.52" cy="122.11" rx="2.9" ry="2.97"/><ellipse class="cls-1" cx="549.3" cy="140.67" rx="2.9" ry="2.97"/><ellipse class="cls-1" cx="579.04" cy="140.67" rx="2.9" ry="2.97"/><ellipse class="cls-1" cx="608.77" cy="140.67" rx="2.9" ry="2.97"/><ellipse class="cls-1" cx="638.52" cy="140.67" rx="2.9" ry="2.97"/><ellipse class="cls-1" cx="549.3" cy="159.2" rx="2.9" ry="2.97"/><ellipse class="cls-1" cx="579.04" cy="159.2" rx="2.9" ry="2.97"/><ellipse class="cls-1" cx="608.77" cy="159.2" rx="2.9" ry="2.97"/><ellipse class="cls-1" cx="638.52" cy="159.2" rx="2.9" ry="2.97"/><ellipse class="cls-1" cx="549.3" cy="176.26" rx="2.9" ry="2.97"/><ellipse class="cls-1" cx="579.04" cy="176.26" rx="2.9" ry="2.97"/><ellipse class="cls-1" cx="608.77" cy="176.26" rx="2.9" ry="2.97"/><ellipse class="cls-1" cx="638.52" cy="176.26" rx="2.9" ry="2.97"/><path class="cls-1" d="M549.3,191.4a3,3,0,0,0-2.63,4.28,2.68,2.68,0,0,0,1.4,1.39,3,3,0,0,0,3.64-4.44,2.54,2.54,0,0,0-2.22-1.23Z"/><path class="cls-1" d="M579.26,191.4a3,3,0,0,0-2.82,3.74,2.9,2.9,0,0,0,5.71-.76v0a2.93,2.93,0,0,0-2.89-3Z"/><path class="cls-1" d="M608.77,191.9a3,3,0,1,0,2.91,3,2.94,2.94,0,0,0-2.91-3Z"/><path class="cls-1" d="M638.52,191.9a3,3,0,1,0,2.9,3,2.94,2.94,0,0,0-2.9-3Z"/><ellipse class="cls-1" cx="549.3" cy="213.35" rx="2.9" ry="2.97"/><ellipse class="cls-1" cx="579.04" cy="213.35" rx="2.9" ry="2.97"/><ellipse class="cls-1" cx="608.77" cy="213.35" rx="2.9" ry="2.97"/><ellipse class="cls-1" cx="638.52" cy="213.35" rx="2.9" ry="2.97"/><path class="cls-1" d="M549.3,228.92a3,3,0,1,0,2.9,3,2.94,2.94,0,0,0-2.9-3Z"/><path class="cls-1" d="M580.53,229.2a3,3,0,0,0-4.12,3.35,2.9,2.9,0,0,0,5.74-.65h0A2.9,2.9,0,0,0,580.53,229.2Z"/><path class="cls-1" d="M608.77,228.92a3,3,0,1,0,2.91,3,2.94,2.94,0,0,0-2.91-3Z"/><path class="cls-1" d="M638.52,228.92a3,3,0,1,0,2.9,3,2.94,2.94,0,0,0-2.9-3Z"/><ellipse class="cls-1" cx="726.19" cy="269.91" rx="2.9" ry="2.97"/><ellipse class="cls-1" cx="755.94" cy="269.91" rx="2.9" ry="2.97"/><ellipse class="cls-1" cx="785.68" cy="269.95" rx="2.9" ry="2.97"/><path class="cls-1" d="M815.43,272.88a3,3,0,1,0-2.91-3,2.94,2.94,0,0,0,2.91,3Z"/><ellipse class="cls-1" cx="726.19" cy="288.45" rx="2.9" ry="2.97"/><ellipse class="cls-1" cx="755.94" cy="288.45" rx="2.9" ry="2.97"/><ellipse class="cls-1" cx="785.68" cy="288.48" rx="2.9" ry="2.97"/><path class="cls-1" d="M817.07,285.77a3,3,0,1,0,1.64,2.69h0A2.92,2.92,0,0,0,817.07,285.77Z"/><ellipse class="cls-1" cx="726.19" cy="307" rx="2.9" ry="2.97"/><ellipse class="cls-1" cx="755.94" cy="307" rx="2.9" ry="2.97"/><ellipse class="cls-1" cx="785.67" cy="307.03" rx="2.9" ry="2.97"/><path class="cls-1" d="M815.43,304a3,3,0,1,0,2.9,3,2.93,2.93,0,0,0-2.9-3Z"/><ellipse class="cls-1" cx="726.19" cy="325.54" rx="2.9" ry="2.97"/><ellipse class="cls-1" cx="755.94" cy="325.54" rx="2.9" ry="2.97"/><ellipse class="cls-1" cx="785.67" cy="325.57" rx="2.9" ry="2.97"/><path class="cls-1" d="M815.43,322.57a3,3,0,1,0,2.9,3,2.94,2.94,0,0,0-2.9-3Z"/><ellipse class="cls-1" cx="726.19" cy="342.6" rx="2.9" ry="2.97"/><ellipse class="cls-1" cx="755.94" cy="342.6" rx="2.9" ry="2.97"/><ellipse class="cls-1" cx="785.68" cy="342.63" rx="2.9" ry="2.97"/><path class="cls-1" d="M815.43,345.56a3,3,0,1,0-2.91-3,2.93,2.93,0,0,0,2.91,3Z"/><ellipse class="cls-1" cx="726.19" cy="361.15" rx="2.9" ry="2.97"/><ellipse class="cls-1" cx="755.94" cy="361.15" rx="2.9" ry="2.97"/><ellipse class="cls-1" cx="785.68" cy="361.17" rx="2.9" ry="2.97"/><path class="cls-1" d="M815.43,358.18a3,3,0,1,0,2.9,3,2.94,2.94,0,0,0-2.9-3Z"/><ellipse class="cls-1" cx="726.19" cy="379.69" rx="2.9" ry="2.97"/><ellipse class="cls-1" cx="755.94" cy="379.69" rx="2.9" ry="2.97"/><ellipse class="cls-1" cx="785.67" cy="379.71" rx="2.9" ry="2.97"/><path class="cls-1" d="M815.43,376.72a3,3,0,1,0,2.9,3,2.94,2.94,0,0,0-2.9-3Z"/><path class="cls-1" d="M726.19,395.28a3,3,0,1,0,2.91,3,2.94,2.94,0,0,0-2.91-3Z"/><path class="cls-1" d="M755.94,395.28a3,3,0,1,0,2.9,3,2.94,2.94,0,0,0-2.9-3Z"/><path class="cls-1" d="M785.68,395.28a3,3,0,1,0,2.91,3,2.94,2.94,0,0,0-2.91-3Z"/><path class="cls-1" d="M815.43,395.28a3,3,0,1,0,2.9,3,2.94,2.94,0,0,0-2.9-3Z"/><ellipse class="cls-1" cx="368.83" cy="140.31" rx="2.9" ry="2.97"/><ellipse class="cls-1" cx="398.57" cy="140.31" rx="2.9" ry="2.97"/><ellipse class="cls-1" cx="428.3" cy="140.31" rx="2.9" ry="2.97"/><ellipse class="cls-1" cx="458.05" cy="140.31" rx="2.9" ry="2.97"/><path class="cls-1" d="M368.83,155.66a3,3,0,0,0-2.72,3.82,2.9,2.9,0,0,0,5.69-.78,2.94,2.94,0,0,0-2.84-3Z"/><path class="cls-1" d="M400.42,156.16a3,3,0,1,0,1.62,2.7h0A2.9,2.9,0,0,0,400.42,156.16Z"/><path class="cls-1" d="M428.25,155.66a3,3,0,0,0-2.73,3.81,2.89,2.89,0,0,0,2,2,3,3,0,1,0,.83-5.84Z"/><path class="cls-1" d="M458.05,155.88a3,3,0,1,0,2.9,3,2.94,2.94,0,0,0-2.9-3Z"/><ellipse class="cls-1" cx="368.83" cy="177.39" rx="2.9" ry="2.97"/><ellipse class="cls-1" cx="398.57" cy="177.39" rx="2.9" ry="2.97"/><ellipse class="cls-1" cx="428.3" cy="177.39" rx="2.9" ry="2.97"/><ellipse class="cls-1" cx="458.05" cy="177.39" rx="2.9" ry="2.97"/><path class="cls-1" d="M368.83,193a3,3,0,1,0,2.9,3,2.94,2.94,0,0,0-2.9-3Z"/><path class="cls-1" d="M399.15,192.77a3,3,0,0,0-2.82,3.75,2.89,2.89,0,0,0,2,2.08,2.92,2.92,0,0,0,3.69-2.85h0a2.92,2.92,0,0,0-2.88-3Z"/><path class="cls-1" d="M428.25,192.77a3,3,0,0,0-2.63,4.28,2.66,2.66,0,0,0,1.4,1.4,3,3,0,0,0,3.65-4.45,2.57,2.57,0,0,0-2.23-1.23Z"/><path class="cls-1" d="M458.05,193a3,3,0,1,0,2.9,3,2.94,2.94,0,0,0-2.9-3Z"/><path class="cls-1" d="M227.32,498.15a2.91,2.91,0,1,0,2.91-3,2.93,2.93,0,0,0-2.91,3Z"/><path class="cls-1" d="M227.32,467.75a2.91,2.91,0,1,0,2.91-3,2.94,2.94,0,0,0-2.91,3Z"/><path class="cls-1" d="M227.32,437.34a2.91,2.91,0,1,0,2.91-3,2.93,2.93,0,0,0-2.91,3Z"/><path class="cls-1" d="M233.13,406.92a2.91,2.91,0,1,0-2.9,3,2.93,2.93,0,0,0,2.9-3Z"/><path class="cls-1" d="M245.45,498.15a2.91,2.91,0,1,0,2.91-3,2.93,2.93,0,0,0-2.91,3Z"/><ellipse class="cls-1" cx="248.36" cy="467.75" rx="2.9" ry="2.97"/><ellipse class="cls-1" cx="248.36" cy="437.34" rx="2.9" ry="2.97"/><ellipse class="cls-1" cx="248.36" cy="406.92" rx="2.9" ry="2.97"/><path class="cls-1" d="M263.6,498.15a2.91,2.91,0,1,0,2.9-3,2.93,2.93,0,0,0-2.9,3Z"/><ellipse class="cls-1" cx="266.5" cy="467.75" rx="2.9" ry="2.97"/><ellipse class="cls-1" cx="266.5" cy="437.34" rx="2.9" ry="2.97"/><ellipse class="cls-1" cx="266.5" cy="406.92" rx="2.9" ry="2.97"/><path class="cls-1" d="M281.75,498.15a2.9,2.9,0,1,0,2.9-3,2.92,2.92,0,0,0-2.9,3Z"/><ellipse class="cls-1" cx="284.63" cy="467.75" rx="2.9" ry="2.97"/><ellipse class="cls-1" cx="284.63" cy="437.34" rx="2.9" ry="2.97"/><ellipse class="cls-1" cx="284.63" cy="406.92" rx="2.9" ry="2.97"/><path class="cls-1" d="M298.41,498.15a2.91,2.91,0,1,0,2.91-3,2.93,2.93,0,0,0-2.91,3Z"/><ellipse class="cls-1" cx="301.32" cy="467.75" rx="2.9" ry="2.97"/><ellipse class="cls-1" cx="301.32" cy="437.34" rx="2.9" ry="2.97"/><ellipse class="cls-1" cx="301.32" cy="406.92" rx="2.9" ry="2.97"/><path class="cls-1" d="M316,498.15a2.93,2.93,0,0,0,4.19,2.68,2.65,2.65,0,0,0,1.36-1.43,3,3,0,0,0-4.35-3.72A2.64,2.64,0,0,0,316,498Z"/><ellipse class="cls-1" cx="319.46" cy="467.75" rx="2.9" ry="2.97"/><ellipse class="cls-1" cx="319.46" cy="437.34" rx="2.9" ry="2.97"/><ellipse class="cls-1" cx="319.46" cy="406.92" rx="2.9" ry="2.97"/><path class="cls-1" d="M334.69,498.15a2.91,2.91,0,1,0,2.9-3,2.93,2.93,0,0,0-2.9,3Z"/><path class="cls-1" d="M334.69,467.75a2.91,2.91,0,1,0,2.9-3,2.94,2.94,0,0,0-2.9,3Z"/><path class="cls-1" d="M334.69,437.34a2.91,2.91,0,1,0,2.9-3,2.93,2.93,0,0,0-2.9,3Z"/><path class="cls-1" d="M334.69,406.92a2.91,2.91,0,1,0,2.9-3,2.94,2.94,0,0,0-2.9,3Z"/><path class="cls-1" d="M352.82,498.15a2.91,2.91,0,1,0,2.9-3h0A2.94,2.94,0,0,0,352.82,498.15Z"/><ellipse class="cls-1" cx="355.72" cy="467.75" rx="2.9" ry="2.97"/><ellipse class="cls-1" cx="355.72" cy="437.34" rx="2.9" ry="2.97"/><ellipse class="cls-1" cx="355.72" cy="406.92" rx="2.9" ry="2.97"/><path class="cls-1" d="M227.32,372.46a2.91,2.91,0,1,0,2.91-3,2.94,2.94,0,0,0-2.91,3Z"/><path class="cls-1" d="M227.32,342.05a2.91,2.91,0,1,0,2.91-3,2.93,2.93,0,0,0-2.91,3Z"/><path class="cls-1" d="M227.61,309.83a3,3,0,0,0,3.23,4.25,3,3,0,0,0-.57-5.87h0A2.82,2.82,0,0,0,227.61,309.83Z"/><path class="cls-1" d="M233.13,281.22a2.91,2.91,0,1,0-2.9,3,2.94,2.94,0,0,0,2.9-3Z"/><ellipse class="cls-1" cx="248.36" cy="372.46" rx="2.9" ry="2.97"/><ellipse class="cls-1" cx="248.36" cy="342.05" rx="2.9" ry="2.97"/><ellipse class="cls-1" cx="248.36" cy="311.63" rx="2.9" ry="2.97"/><ellipse class="cls-1" cx="248.36" cy="281.22" rx="2.9" ry="2.97"/><ellipse class="cls-1" cx="266.5" cy="372.46" rx="2.9" ry="2.97"/><ellipse class="cls-1" cx="266.5" cy="342.05" rx="2.9" ry="2.97"/><ellipse class="cls-1" cx="266.5" cy="311.63" rx="2.9" ry="2.97"/><ellipse class="cls-1" cx="266.5" cy="281.22" rx="2.9" ry="2.97"/><ellipse class="cls-1" cx="284.63" cy="372.46" rx="2.9" ry="2.97"/><ellipse class="cls-1" cx="284.63" cy="342.05" rx="2.9" ry="2.97"/><ellipse class="cls-1" cx="284.63" cy="311.63" rx="2.9" ry="2.97"/><ellipse class="cls-1" cx="284.63" cy="281.22" rx="2.9" ry="2.97"/><ellipse class="cls-1" cx="301.32" cy="372.46" rx="2.9" ry="2.97"/><ellipse class="cls-1" cx="301.32" cy="342.05" rx="2.9" ry="2.97"/><ellipse class="cls-1" cx="301.32" cy="311.63" rx="2.9" ry="2.97"/><ellipse class="cls-1" cx="301.32" cy="281.22" rx="2.9" ry="2.97"/><ellipse class="cls-1" cx="319.46" cy="372.46" rx="2.9" ry="2.97"/><ellipse class="cls-1" cx="319.46" cy="342.05" rx="2.9" ry="2.97"/><ellipse class="cls-1" cx="319.46" cy="311.63" rx="2.9" ry="2.97"/><ellipse class="cls-1" cx="319.46" cy="281.22" rx="2.9" ry="2.97"/><path class="cls-1" d="M334.69,372.46a2.91,2.91,0,1,0,2.9-3,2.94,2.94,0,0,0-2.9,3Z"/><path class="cls-1" d="M334.69,342.05a2.91,2.91,0,1,0,2.9-3,2.93,2.93,0,0,0-2.9,3Z"/><path class="cls-1" d="M334.69,311.63a2.91,2.91,0,1,0,2.9-3,2.94,2.94,0,0,0-2.9,3Z"/><path class="cls-1" d="M334.69,281.22a2.91,2.91,0,1,0,2.9-3,2.94,2.94,0,0,0-2.9,3Z"/><ellipse class="cls-1" cx="355.72" cy="372.46" rx="2.9" ry="2.97"/><ellipse class="cls-1" cx="355.72" cy="342.05" rx="2.9" ry="2.97"/><ellipse class="cls-1" cx="355.72" cy="311.63" rx="2.9" ry="2.97"/><ellipse class="cls-1" cx="355.72" cy="281.22" rx="2.9" ry="2.97"/></g><g id="freepik--background-simple--inject-8" class="cls-2"><path class="cls-3" d="M385.12,199.65C462.9,182,551.61,182.2,627.28,209.75A506.4,506.4,0,0,1,702,244.27C882.18,345.49,889,496.13,857.59,569.11c-18,41.74-67.15,66.72-109,89.3-37,20-102,44-119,81.48C606.73,790.46,575.11,861.24,478,836.2S305.15,786.11,228.27,668.94,122.51,469.9,141,395C166.05,294.06,269,225.89,385.12,199.65Z"/></g><g id="freepik--Plant--inject-8"><line class="cls-4" x1="99.88" y1="656.62" x2="99.94" y2="559.84"/><polyline class="cls-4" points="57.34 582.26 99.76 615.68 129.47 577.96"/><path class="cls-5" d="M99.94,574.13a50.38,50.38,0,0,1-14-22.48c-4-14,15-39.32,15-39.32s12.38,25.67,13.7,37.9S99.94,574.13,99.94,574.13Z"/><path class="cls-5" d="M118.74,591.15a164.37,164.37,0,0,1,1.54-21.72c1.42-7.76,12.4-12.68,20.38-14.62s23.29.34,23.29.34a41.14,41.14,0,0,1-14.28,25.2C137.05,590.48,118.74,591.15,118.74,591.15Z"/><path class="cls-5" d="M78.29,597.08s4.23-7.35-11.59-23.37-42-2.84-42-2.84,12.62,18.39,20.56,24.41S78.29,597.08,78.29,597.08Z"/><path class="cls-5" d="M99.36,635.24A43.83,43.83,0,0,0,75,619.44c-15.7-3.5-25.48-1-25.48-1s10,20.58,21.57,23.42S99.36,635.24,99.36,635.24Z"/><path class="cls-5" d="M99.36,635.24a20.87,20.87,0,0,1,8.42-8.69c6.6-4.15,24.11-5.24,24.11-5.24s-.45,8.75-10.82,13.47S99.36,635.24,99.36,635.24Z"/><line class="cls-6" x1="78.29" y1="597.1" x2="39.01" y2="573.06"/><line class="cls-6" x1="99.88" y1="573.66" x2="99.88" y2="534.16"/><line class="cls-6" x1="118.74" y1="591.17" x2="140.11" y2="567.37"/><polyline class="cls-6" points="75.55 631.13 99.36 635.24 113.72 630.71"/><polygon class="cls-7" points="126.36 646.74 68.01 646.74 72.87 692.17 121.5 692.17 126.36 646.74"/></g><g id="freepik--Character--inject-8"><path class="cls-8" d="M514,395.45l5.2,25.89s-35,10.37-58.92,16.2S423,447.42,424.94,459.8s0,39.5,0,39.5L398.75,614.92l-2,8.42,54.42,9L461,600s5.83,10.35,5.83,17.48-6.48,74.66-6.48,74.66H662.24L684.9,550.83S701.07,477,702.38,466s7.11-23.3-2.59-31.72-98.42-13.59-100.36-14.24-7.11-2.59-7.11-2.59l-2-18.78A78.31,78.31,0,0,1,558,406.45c-17.48,0-43.45-17.48-43.45-17.48Z"/><path class="cls-9" d="M522.19,600.81s36.44,15.33,61.34,18.53"/><path class="cls-9" d="M460.25,514.22s-11.65,48.55-9.72,63.44A39.36,39.36,0,0,0,461,600.32"/><path class="cls-10" d="M451.72,648.29s5.92-8.19-2.29-18.68-29.63-15-39.62-13.67-16.87,8.22-25.52,16.41-17.32,15-17.32,15-13.67-11.85-19.14-13.66-24.59,16.39-29.63,21.41-10,5.92,1.37,13.21,14.57,6.38,25.51,6.83,40.55-2.27,45.57-5,21-1.82,32.8-5.93C443,657.5,443.05,656.94,451.72,648.29Z"/><path class="cls-11" d="M303,649.32s-12.61,2.09-16.28,4.72-11,9.46-7.9,13.13,12.07-4.74,13.65-4.74,18.43,3.78,18.43,3.78S309.28,652,303,649.32Z"/><path class="cls-11" d="M317.14,634.6s-16.28,3.14-17.78,7.9.51,28.88,2.09,32,6.31,3.14,8.4-.53,2.09-18.9,3.67-22.58S317.14,634.6,317.14,634.6Z"/><path class="cls-11" d="M336.53,632.51s-12.6-4.72-18.39-2.61-9.44,38.32-6.3,40.41a6.91,6.91,0,0,0,9.88-4.2c1.58-4.72,4.74-16.26,4.74-16.26l7.9-6.3"/><path class="cls-11" d="M351.54,628s16.65,16.73,21.33,19.41a28.91,28.91,0,0,0,14.9,3.81c6.18-.21,11.49-5.33,17.67-2.09a5.91,5.91,0,0,1,3.36,4c.43,2.57-1.56,4.86-3.59,6.48a33.63,33.63,0,0,1-30,5.83,4.57,4.57,0,0,0-2-.32,4.25,4.25,0,0,0-1.8.93A39,39,0,0,1,361,672.37c-7.38,2.53-16.81.31-16.81.31"/><path class="cls-9" d="M344.2,648.94s4.52,4.53,10.56-2"/><path class="cls-11" d="M346,638.81s-4.72,20.48-6.81,24.16-7.37,5.25-10.51,1.58,4.21-31.6,4.72-35.71a4.76,4.76,0,0,1,4.72-4.19s7.9-1,11,.51,8.4,12.09,8.4,12.09"/><path class="cls-10" d="M599.43,420.35c-2-.65-7.11-2.59-7.11-2.59l-2-18.78A78.47,78.47,0,0,1,558,406.74c-17.48,0-43.45-17.48-43.45-17.48l-.66,6.48,5.2,25.89s-14.1,4.19-30.52,8.73c7.67,17,28.56,58.21,55.11,66.38,26.09,8,64.21-48.46,80.07-74.32C610.2,421.3,600.09,420.57,599.43,420.35Z"/><polygon class="cls-12" points="523.14 440.87 502.28 426.31 519.17 421.63 523.14 440.87"/><polygon class="cls-12" points="519.17 421.63 523.14 440.87 555.65 420.63 513.99 395.74 519.17 421.63"/><line class="cls-9" x1="592.32" y1="417.76" x2="594.54" y2="433.4"/><path class="cls-9" d="M600.4,449s-31.44,8.53-36.77,10.13-10.12,3.73-11.18,6.4"/><line class="cls-9" x1="510.87" y1="454.18" x2="535.8" y2="465.42"/><path class="cls-13" d="M607.12,326.73s3.77-8.63,7.54-1.62,6.48,15.64,1.62,23.7a41.92,41.92,0,0,1-9.16,11.32l-4.35-35Z"/><path class="cls-10" d="M482,346.68a32.35,32.35,0,0,0,.53,22.65c4.86,12.41,18.88,11.34,18.88,11.34s12.94,20.48,22.66,29.63,37.74,24.27,49.08,20.5,27.49-27,32.35-46.93.53-49.06.53-49.06,2.15-17.78-3.77-32.35-13.49-20.51-27-18.89-48,6.48-66.88,19.42-23.18,22.65-23.18,28.58S482,346.68,482,346.68Z"/><path class="cls-13" d="M587.15,300.3s5.39,11.85,10.23,15.11l4.86,3.24s2.7,11.85,3.77,16.18,4.86,2.68,5.39-2.71.54-12.4.54-12.4a35.48,35.48,0,0,0,11.33-16.18c3.78-10.78,7.55-25.89-4.32-38.29s-24.81-15.09-30.73-13.47S582.29,284.66,587.15,300.3Z"/><path class="cls-13" d="M482,346.68a5.91,5.91,0,0,1,8.09,1.08c3.78,4.31,2.16,10.26,4.31,12.41s7,3.77,7.54-2.69-3.77-16.73-1.61-21.59,9.18-10.23,15.64-6.45,17.77,12.4,25.89,2.15,7.55-26.43,13.49-27,4.84,5.39,18.86,3.77,19.95-4.86,21-34.52-14-55-34-61.47-74.42,4.31-94.37,32.35S448,301.39,456.1,312.71,483.6,344,482,346.68Z"/><path class="cls-14" d="M573.78,256.06s-21.06-6.12-29.88,4.07-9.51,32.59-19.76,36-17.65-6.78-25.12,0-2,18.33-12.22,22.41-23.07-6.12-23.07-6.12"/><path class="cls-14" d="M512,275.14a23.69,23.69,0,0,0-19.75,4.76c-8.81,7.47-.67,18.33-12.9,20.36s-21-6.79-21-6.79"/><path class="cls-9" d="M568.8,359.63l1.62,13.47s10.25,12.41-1.09,15.11-10.78-4.32-10.78-4.32"/><path class="cls-9" d="M547.86,395.76s13,7.54,22.66,5.92,15.64-12.93,15.64-12.93"/><path class="cls-15" d="M542.93,362.6c0,3.71-2,6.73-4.33,6.73s-4.3-3-4.3-6.73,2-6.74,4.3-6.74S542.93,358.86,542.93,362.6Z"/><path class="cls-15" d="M586.6,354.5c0,3.73-2,6.75-4.31,6.75s-4.32-3-4.32-6.75,2-6.74,4.32-6.74S586.6,350.79,586.6,354.5Z"/><path class="cls-9" d="M519.72,349.38s11.85-9.16,26.43-6.47"/><path class="cls-9" d="M572.57,338.07A19.23,19.23,0,0,1,592,333.74"/><path class="cls-9" d="M550.87,349.32l-30.66,5.75a5.1,5.1,0,0,0-4,5.93l2.17,10.68a5.61,5.61,0,0,0,6.6,4.4H525L553.45,370a5.63,5.63,0,0,0,4.43-6.06l-1.07-10.19a5.12,5.12,0,0,0-5.73-4.42Z"/><path class="cls-9" d="M574.71,344.53l31.44-5.36a4.3,4.3,0,0,1,5.16,3.19,3.85,3.85,0,0,1,.11,1l.12,10.78a6.75,6.75,0,0,1-5.69,6.44l-29.42,4.29a4.72,4.72,0,0,1-5.56-3.7,3.5,3.5,0,0,1-.07-.45l-1.09-9.87A5.93,5.93,0,0,1,574.71,344.53Z"/><path class="cls-9" d="M558.16,356.12a9.87,9.87,0,0,1,11.13-1.86"/><line class="cls-9" x1="517.07" y1="365.3" x2="492.05" y2="352.64"/><path class="cls-8" d="M644.76,501.92l-5.63,105.71s4,2,22,13.58,46,13,49.85,8.42-12.51-168.5-12.51-168.5"/><path class="cls-10" d="M398,651.49s-1.82,1.82-8.65,2.73-16-2.27-18.23,4.56,8.19,10.92,14.12,10a118.08,118.08,0,0,0,16.85-5s12.75.45,18.68,2.74,10.49,5.93,19.59,3.64,17.07-.72,19.93-4.47,10.61-7.9-12.19-13.82a88.87,88.87,0,0,0-40.54-1.39Z"/><path class="cls-10" d="M416.64,633.72s-8.22-2.73-12.76.45-10.94,26.88-12.76,33.71-1.81,14.13,1.37,15.49,6.83-1.36,9.1-7.29S416.64,644.18,418,641,422.09,632.81,416.64,633.72Z"/><path class="cls-10" d="M436.94,635.28s-16.21-2.93-20.3-1.56-14.12,25.51-14.59,30.06-5.46,19.59.47,21,9.56-4.09,12.28-9.56,8.22-22.77,11.4-26.88a28.85,28.85,0,0,1,8.65-6.83S441.76,638.2,436.94,635.28Z"/><path class="cls-10" d="M708,634.6s15.92-5-8.69-19.19-49.85-16.18-58.26-13S506.86,646.3,506.86,646.3s-60.85-9.7-69.92-11-13.5,8.39-17.45,16.15-9.07,29.13-7.77,31.72,7.77.65,9.07-2.59,5.17-14.24,6.46-16.17,11-7.76,11-7.76l15.52,2.58s-10.25,13.67-18.46,18.67-5,10.49-.91,10.49,16.41-7.29,20.95-10.95a154,154,0,0,1,12.76-8.65,30.42,30.42,0,0,0,12.31,2.73,157.64,157.64,0,0,0,27.33-4.09c5-1.36,115.68-7.31,130.26-10.51S689.36,648.29,708,634.6Z"/></g><g id="freepik--Device--inject-8"><rect class="cls-16" x="159.13" y="684.27" width="367.36" height="5.93"/><rect class="cls-12" x="396.14" y="684.27" width="130.35" height="5.93"/><path class="cls-12" d="M399.9,684.27H162.72L133.4,519.45a7.65,7.65,0,0,1,6.19-8.87,7.5,7.5,0,0,1,1.34-.12H362.6a7.65,7.65,0,0,1,7.53,6.31Z"/><path class="cls-16" d="M395.68,684.27H158.5L129.21,519.45a7.63,7.63,0,0,1,6.15-8.87,8,8,0,0,1,1.38-.12H358.37a7.62,7.62,0,0,1,7.53,6.31Z"/></g><g id="freepik--Books--inject-8"><path class="cls-11" d="M907.69,660.57H751.56a15.81,15.81,0,0,0-15.79,15.81h0a15.81,15.81,0,0,0,15.79,15.79H907.69Z"/><path class="cls-11" d="M747.82,676.36a15.79,15.79,0,0,1,15.8-15.79h-4.78a15.81,15.81,0,0,0,0,31.6h4.78a15.79,15.79,0,0,1-15.8-15.79Z"/><path class="cls-11" d="M795.19,676.36A15.79,15.79,0,0,1,811,660.57h-4.77a15.81,15.81,0,0,0,0,31.6H811a15.79,15.79,0,0,1-15.79-15.79Z"/><polygon class="cls-11" points="826.69 660.57 812.88 667.24 810.11 677.38 813.79 685.67 822.95 692.17 907.68 692.17 907.68 660.57 826.69 660.57"/><path class="cls-11" d="M823.29,686.24a10.38,10.38,0,0,1-11.2-10.65,11,11,0,0,1,11.2-11.07h90.32v-3.95H822.24c-8.88-.75-15.83,6.71-15.52,15.59a16.9,16.9,0,0,0,15.52,16h93.35v-5.93Z"/><line class="cls-9" x1="815.84" y1="672.42" x2="841.52" y2="672.42"/><line class="cls-9" x1="833.62" y1="678.34" x2="851.4" y2="678.34"/><line class="cls-9" x1="906.7" y1="672.42" x2="881.02" y2="672.42"/><line class="cls-9" x1="890.9" y1="680.32" x2="867.2" y2="680.32"/><line class="cls-9" x1="879.05" y1="672.42" x2="873.12" y2="672.42"/><path class="cls-16" d="M907.69,627H751.56a15.81,15.81,0,0,0-15.79,15.81h0a15.8,15.8,0,0,0,15.79,15.79H907.69Z"/><path class="cls-11" d="M747.82,642.78A15.79,15.79,0,0,1,763.62,627h-4.78a15.81,15.81,0,0,0,0,31.6h4.78a15.79,15.79,0,0,1-15.8-15.79Z"/><path class="cls-11" d="M795.19,642.78A15.79,15.79,0,0,1,811,627h-4.77a15.81,15.81,0,0,0,0,31.6H811a15.79,15.79,0,0,1-15.79-15.79Z"/><polygon class="cls-11" points="826.69 626.99 812.88 633.66 810.11 643.81 813.79 652.09 822.95 658.59 907.68 658.59 907.68 626.99 826.69 626.99"/><path class="cls-7" d="M823.29,652.67c-6.2,1-11-4.29-10.76-10.49a12.09,12.09,0,0,1,10.76-11.24h90.32v-4H822.24a15.48,15.48,0,0,0-15.52,16.23,15.85,15.85,0,0,0,15.52,15.37h93.35v-5.92Z"/><line class="cls-9" x1="815.84" y1="640.82" x2="841.52" y2="640.82"/><line class="cls-9" x1="833.62" y1="644.77" x2="851.4" y2="644.77"/><line class="cls-9" x1="906.7" y1="638.84" x2="881.02" y2="638.84"/><line class="cls-9" x1="890.9" y1="646.74" x2="867.2" y2="646.74"/><line class="cls-9" x1="879.05" y1="640.82" x2="873.12" y2="640.82"/><polygon class="cls-17" points="826.71 684.27 552.17 684.27 552.17 692.17 616.99 692.17 720.39 687.31 815.09 692.17 826.71 692.17 826.71 684.27"/><polygon class="cls-12" points="615.37 686.24 615.37 690.19 709.58 690.19 711.05 690.19 728.43 690.19 730.46 692.17 824.73 693.64 824.73 686.24 615.37 686.24"/><path class="cls-11" d="M551.16,667.81s53.09-2.5,72.63-7.4,42.82-5.93,52-4.88a189.43,189.43,0,0,1,20,3.81s38-3.81,64-1.64,28.74,26.57,28.74,26.57H557.09Z"/><path class="cls-11" d="M718.08,686.24V670.15s-27.8-15.27-53.89-9.35-48.82,8.5-48.82,8.5v16.94Z"/><path class="cls-11" d="M718.08,686.24V670.15s27.78-15.27,53.87-9.35,48.83,8.5,48.83,8.5v16.94Z"/><rect class="cls-11" x="552.17" y="668.47" width="63.2" height="17.78"/><path class="cls-9" d="M658.69,672.53c9.2-1,18.78-2,25.14-2.47,13-1.13,30.65,6.24,30.65,6.24"/><path class="cls-9" d="M635,675.17c3.27-.41,8.82-1,15.2-1.74"/><path class="cls-9" d="M711.66,680.84s-13.63-4-25-2.27"/><path class="cls-9" d="M691.22,665.51a107.6,107.6,0,0,0-23.29,1.7"/><path class="cls-9" d="M777.51,674.7c-9.58-.89-21.29-1.8-28.38-1.8a106.25,106.25,0,0,0-24.42,2.85"/><path class="cls-9" d="M793.43,676.3l-6.92-.73"/><path class="cls-9" d="M733.23,670.16a50.32,50.32,0,0,1,27.82-.58"/><path class="cls-9" d="M733.8,681.41a105.24,105.24,0,0,1,23.28-2.27c10.22.58,36.35,2.85,36.35,2.85"/></g><g id="freepik--Table--inject-8"><line class="cls-9" x1="35.69" y1="692.17" x2="962" y2="692.17"/></g></svg>