<svg id="Capa_1" data-name="Capa 1" xmlns="http://www.w3.org/2000/svg" xmlns:xlink="http://www.w3.org/1999/xlink" viewBox="0 0 1000 1000"><defs><style>.cls-1,.cls-12,.cls-23,.cls-7{fill:none;}.cls-2{fill:#d3d3d3;}.cls-3{fill:#b2b2b2;}.cls-11,.cls-29,.cls-4,.cls-6{fill:#fff;}.cls-5{clip-path:url(#clip-path);}.cls-12,.cls-18,.cls-23,.cls-29,.cls-6,.cls-7,.cls-8{stroke:#263238;}.cls-6,.cls-7{stroke-miterlimit:10;}.cls-12,.cls-29,.cls-6,.cls-7,.cls-8{stroke-width:2.3px;}.cls-20,.cls-8,.cls-9{fill:#263238;}.cls-12,.cls-18,.cls-23,.cls-29,.cls-8{stroke-linecap:round;stroke-linejoin:round;}.cls-10{clip-path:url(#clip-path-2);}.cls-11{opacity:0.1;}.cls-11,.cls-15,.cls-20{isolation:isolate;}.cls-13{fill:#4ccc92;}.cls-14{clip-path:url(#clip-path-3);}.cls-15{opacity:0.3;}.cls-16{fill:#ba68c8;}.cls-17{clip-path:url(#clip-path-4);}.cls-18{fill:#a88556;stroke-width:2.28px;}.cls-19{clip-path:url(#clip-path-5);}.cls-20{opacity:0.2;}.cls-21{clip-path:url(#clip-path-6);}.cls-22{clip-path:url(#clip-path-7);}.cls-23{stroke-width:4.6px;}.cls-24{clip-path:url(#clip-path-8);}.cls-25{clip-path:url(#clip-path-9);}.cls-26{clip-path:url(#clip-path-10);}.cls-27{clip-path:url(#clip-path-11);}.cls-28{clip-path:url(#clip-path-12);}</style><clipPath id="clip-path"><rect class="cls-1" x="67.42" y="639.84" width="379.09" height="218.27"/></clipPath><clipPath id="clip-path-2"><path class="cls-1" d="M583.29,321.31c0,3-4.59,5.77-4.94,8.71s4,6.46,3.52,9.38-5.54,5-6.23,8,2.9,7,2,9.81-6.25,4-7.4,6.75,1.79,7.38.46,10-6.89,3-8.36,5.53.66,7.54-1.08,10-7.17,2-9.19,4.23-.46,7.56-2.53,9.7-7.38.89-9.58,2.87-1.54,7.42-3.89,9.19-7.42-.16-9.9,1.49-2.53,7.12-5.1,8.62-7.35-1.15-10,.16-3.46,6.71-6.22,7.86-7.12-2.16-9.95-1.2-4.32,6.18-7.21,6.89-6.76-3.05-9.7-2.48-5.1,5.56-8,5.95-6.32-3.9-9.31-3.72-5.76,4.87-8.75,4.87S446,439.25,443.1,439s-6.39,4.09-9.31,3.72-5.17-5.37-8.06-5.95-6.9,3.24-9.7,2.48-4.41-6-7.21-6.89-7.22,2.3-9.95,1.17-3.56-6.52-6.23-7.83-7.44,1.33-10-.16-2.65-6.9-5.11-8.62-7.58.32-9.9-1.51-1.68-7.27-3.88-9.2-7.54-.73-9.58-2.87-.62-7.42-2.53-9.69-7.35-1.82-9.19-4.23.46-7.42-1.08-10-6.89-2.87-8.34-5.52,1.56-7.28.44-10-6.48-3.93-7.4-6.76,2.69-6.89,2-9.81-5.79-4.89-6.25-7.83,3.74-6.39,3.51-9.38-4.71-5.74-4.71-8.8,4.71-5.79,4.94-8.73-4-6.45-3.51-9.37,5.56-5,6.25-7.84-2.92-6.89-2-9.81,6.27-4,7.4-6.75-1.79-7.35-.44-10,6.89-3,8.34-5.54-.64-7.56,1.08-10,7.17-2,9.19-4.23.46-7.56,2.53-9.7,7.37-.89,9.6-2.87,1.52-7.42,3.86-9.19,7.45.14,9.9-1.51,2.53-7.13,5.1-8.62,7.36,1.17,10-.16,3.47-6.71,6.23-7.84,7.12,2.14,9.95,1.2,4.32-6.2,7.21-6.89S423,206.55,426,206s5.1-5.56,8.06-5.95,6.32,3.93,9.31,3.72,5.74-4.87,8.75-4.87,5.81,4.59,8.75,4.87,6.37-4.09,9.19-3.72,5.17,5.4,8.07,5.95,6.89-3.24,9.69-2.48,4.41,6,7.22,6.89,7.21-2.3,9.95-1.2,3.58,6.55,6.22,7.84,7.47-1.33,10,.16,2.66,6.89,5.1,8.62,7.58-.3,9.9,1.51,1.68,7.26,3.89,9.19,7.53.76,9.58,2.87.64,7.42,2.52,9.7,7.36,1.84,9.19,4.23-.46,7.44,1.08,10,7,2.89,8.37,5.54-1.59,7.26-.46,10,6.48,3.93,7.39,6.75-2.68,6.9-2,9.81,5.77,4.9,6.23,7.84-3.75,6.41-3.52,9.37S583.29,318.3,583.29,321.31Z"/></clipPath><clipPath id="clip-path-3"><path class="cls-1" d="M436.25,474.47s-36,10-62,13.78-42.12,3.84-47.47,16.87-49,160-58.22,177.67S254,740.22,270.07,741,334.4,640.67,334.4,640.67l14.54,27.57S303.77,809.91,304.53,816s20.68,18.38,58.2,21.44,41.35,2.3,67.41,9.19,61.25-2.3,78.11-11.49,36-12.25,43.66-16.84,7.65-5.35,7.65-14.54-36-141.69-36-141.69L545,605.43s49,101.09,51.3,110.28,16.84,20.68,30.63,17.62,27.57-13,23.75-36-68.17-183-72.76-196.81.76-26.81-18.38-31.41-113.34.76-113.34.76Z"/></clipPath><clipPath id="clip-path-4"><path class="cls-1" d="M288.45,675.13s-9.19,58.2-18.38,65.85-23.73,5.38-29.87-23,0-35.22,10-49S284.61,644.49,288.45,675.13Z"/></clipPath><clipPath id="clip-path-5"><path class="cls-1" d="M411.76,417s9.19,32.16,8.41,52.84-6.11,52.09-8.41,66.63,8.41,4.6,32.92-26.79,31.41-40.6,32.93-51.33,1.53-39.81,1.53-39.81a32.39,32.39,0,0,1-31.4,7.65c-19.14-5.35-31.39-19.14-34.47-19.14S411.76,417,411.76,417Z"/></clipPath><clipPath id="clip-path-6"><path class="cls-1" d="M503,366.14s8.57-10,14.31-1.43-11.49,37.22-16.47,37.22S498,381.88,498,376.87,503,366.14,503,366.14Z"/></clipPath><clipPath id="clip-path-7"><path class="cls-1" d="M479.67,288.09c-.89,2.18-1.51,4.8-3.17,5.77-2.57,1.47-7.35-1.17-10,.14s-3.47,6.71-6.23,7.85-7.12-2.13-9.95-1.19-4.32,6.18-7.21,6.89-6.78-3.08-9.7-2.5-5.1,5.58-8.06,5.95-6.32-3.91-9.31-3.72c-2.57.16-5,3.76-7.63,4.59-3.37,9.19-5.4,21.41-5.6,37.68,0,0-.71,47.22,4.29,60.1s31.5,36.51,40.79,37.94,13.6-1.43,17.89-5.72,32.17-27.21,35.06-36.51,13.6-69.41,10-89.45C508.67,303.69,495.39,293.61,479.67,288.09Z"/></clipPath><clipPath id="clip-path-8"><path class="cls-1" d="M537.34,744.06s-11.49-23.76-12.24-45.19,8.43-32.93,18.38-22.22S545.77,733.33,537.34,744.06Z"/></clipPath><clipPath id="clip-path-9"><path class="cls-1" d="M625.43,669.76s-51.33,0-79.66-10.71-53.6-26-66.63-38.3-17.62-15.32-32.92-16.84-26.81-10-26.81-4.59,4.59,9.19,9.19,11.48,21.43,10,21.43,10,1.54,3.84-14.54,6.89a222.73,222.73,0,0,0-46.71,14.55C375,648.32,370.4,652.92,375,654.46s19.14-3.84,22.19-3.84,19.92-2.3,19.92-2.3-31.41,13.79-36,17.62-17.6,9.19-12.25,11.49,27.57-1.54,27.57-1.54-23,6.9-13.78,10S411,684.32,411,684.32s22.21,3.06,28.35,0,42.11-18.38,42.11-18.38,55.14,47.47,102.63,59,46.71,0,46.71,0"/></clipPath><clipPath id="clip-path-10"><path class="cls-1" d="M650.7,712.65c-3.08,19.14-11.49,32.17-46.73,31.41s-66.63,0-66.63,0a215.23,215.23,0,0,0,6.14-33.7c2.29-20.68,2.29-51.31,2.29-51.31s48.25,10.71,87.31,6.89"/></clipPath><clipPath id="clip-path-11"><path class="cls-1" d="M293,565.61s-4.13,12.78-29.11,59.74c-21,39.61-27.57,56.68-27.57,71.22s13,31.41,32.17,19.14,25.27-27,28.4-48.39,19.6-92,19.6-92S311.42,558,293,565.61Z"/></clipPath><clipPath id="clip-path-12"><path class="cls-1" d="M329.32,607.68h0a32.38,32.38,0,0,1-32.15-32.56V525H361.5V575.5a32.18,32.18,0,0,1-32.18,32.18Z"/></clipPath></defs><g id="freepik--background-simple--inject-2"><path class="cls-2" d="M949.27,638A404.41,404.41,0,0,0,951,549.71C929.46,292.37,714,20,471.45,83.13c-83.79,21.8-145.9,81.38-182.86,167-27.14,62.79-46.39,136.31-90.5,186.51-72.4,82.49-159.77,211.52-49.93,324.3s244.62,39.52,359.45,33.71c96.5-4.9,194,31.06,290.27,18.12C889.3,800.33,936.81,728.74,949.27,638Z"/></g><g id="freepik--Window--inject-2"><path class="cls-3" d="M607.34,203.31V713.36H926.69v-510ZM775.06,217.1H915.21V329.68H775.06Zm0,124.06H915.21V453.74H775.06Zm0,124.07H915.21V580.11H775.06ZM763.57,701.88H621.12V591.59H763.57Zm0-121.77H621.12V465.23H763.57Zm0-126.37H621.12V341.16H763.57Zm0-124.06H621.12V217.1H763.57Zm11.49,372.2V591.59H915.21V701.88Z"/></g><g id="freepik--Pictures--inject-2"><rect class="cls-3" x="212.16" y="288.32" width="137.85" height="186.1"/><rect class="cls-4" x="223.65" y="304.4" width="112.58" height="151.64"/><rect class="cls-3" x="129.45" y="495.1" width="107.98" height="147.04"/><rect class="cls-4" x="140.94" y="508.88" width="87.31" height="119.47"/></g><g id="freepik--Couch--inject-2"><g class="cls-5"><path class="cls-6" d="M399.43,834H227.09V706.79a45.13,45.13,0,0,1,45.13-45.12h82.13a45.06,45.06,0,0,1,45.06,45.06h0V834Z"/><path class="cls-4" d="M200.67,952.31H78.9V806.21a46.9,46.9,0,0,1,46.9-46.9h74.87v193Z"/><path class="cls-7" d="M201.82,953.46H80.05V807.36a46.9,46.9,0,0,1,46.89-46.9h74.88v193Z"/><path class="cls-6" d="M234,953.46H112.22V807.34a47,47,0,0,1,47-46.88H234v193Z"/><path class="cls-4" d="M373,832.84H200.67V705.64a45.12,45.12,0,0,1,45.13-45.12h82.13A45.07,45.07,0,0,1,373,705.58h0Z"/><path class="cls-7" d="M371.84,834H199.52V706.79a45.13,45.13,0,0,1,45.13-45.12h82.13a45.05,45.05,0,0,1,45.06,45.06h0Z"/><path class="cls-4" d="M354.61,952.31h-232V846.85a16.31,16.31,0,0,1,16.31-16.31H354.61V952.31Z"/><path class="cls-7" d="M353.46,951.16h-232V845.7a16.31,16.31,0,0,1,16.31-16.31H353.46V951.16Z"/><line class="cls-7" x1="127.15" y1="873.04" x2="244.33" y2="873.04"/><path class="cls-4" d="M366.09,952.31H244.33V806.21a46.89,46.89,0,0,1,46.89-46.9h74.87v193Z"/><path class="cls-7" d="M365,953.46H243.18V807.36a46.89,46.89,0,0,1,46.89-46.9H365v193Z"/><path class="cls-6" d="M399.41,953.46H277.64V807.36a46.89,46.89,0,0,1,46.89-46.9h74.88v193Z"/></g></g><g id="freepik--Character--inject-2"><polygon class="cls-8" points="552.56 856.96 547.37 808.71 315.02 808.71 302.57 856.96 552.56 856.96"/><path class="cls-9" d="M583.29,321.31c0,3-4.59,5.77-4.94,8.71s4,6.46,3.52,9.38-5.54,5-6.23,8,2.9,7,2,9.81-6.25,4-7.4,6.75,1.79,7.38.46,10-6.89,3-8.36,5.53.66,7.54-1.08,10-7.17,2-9.19,4.23-.46,7.56-2.53,9.7-7.38.89-9.58,2.87-1.54,7.42-3.89,9.19-7.42-.16-9.9,1.49-2.53,7.12-5.1,8.62-7.35-1.15-10,.16-3.46,6.71-6.22,7.86-7.12-2.16-9.95-1.2-4.32,6.18-7.21,6.89-6.76-3.05-9.7-2.48-5.1,5.56-8,5.95-6.32-3.9-9.31-3.72-5.76,4.87-8.75,4.87S446,439.25,443.1,439s-6.39,4.09-9.31,3.72-5.17-5.37-8.06-5.95-6.9,3.24-9.7,2.48-4.41-6-7.21-6.89-7.22,2.3-9.95,1.17-3.56-6.52-6.23-7.83-7.44,1.33-10-.16-2.65-6.9-5.11-8.62-7.58.32-9.9-1.51-1.68-7.27-3.88-9.2-7.54-.73-9.58-2.87-.62-7.42-2.53-9.69-7.35-1.82-9.19-4.23.46-7.42-1.08-10-6.89-2.87-8.34-5.52,1.56-7.28.44-10-6.48-3.93-7.4-6.76,2.69-6.89,2-9.81-5.79-4.89-6.25-7.83,3.74-6.39,3.51-9.38-4.71-5.74-4.71-8.8,4.71-5.79,4.94-8.73-4-6.45-3.51-9.37,5.56-5,6.25-7.84-2.92-6.89-2-9.81,6.27-4,7.4-6.75-1.79-7.35-.44-10,6.89-3,8.34-5.54-.64-7.56,1.08-10,7.17-2,9.19-4.23.46-7.56,2.53-9.7,7.37-.89,9.6-2.87,1.52-7.42,3.86-9.19,7.45.14,9.9-1.51,2.53-7.13,5.1-8.62,7.36,1.17,10-.16,3.47-6.71,6.23-7.84,7.12,2.14,9.95,1.2,4.32-6.2,7.21-6.89S423,206.55,426,206s5.1-5.56,8.06-5.95,6.32,3.93,9.31,3.72,5.74-4.87,8.75-4.87,5.81,4.59,8.75,4.87,6.37-4.09,9.19-3.72,5.17,5.4,8.07,5.95,6.89-3.24,9.69-2.48,4.41,6,7.22,6.89,7.21-2.3,9.95-1.2,3.58,6.55,6.22,7.84,7.47-1.33,10,.16,2.66,6.89,5.1,8.62,7.58-.3,9.9,1.51,1.68,7.26,3.89,9.19,7.53.76,9.58,2.87.64,7.42,2.52,9.7,7.36,1.84,9.19,4.23-.46,7.44,1.08,10,7,2.89,8.37,5.54-1.59,7.26-.46,10,6.48,3.93,7.39,6.75-2.68,6.9-2,9.81,5.77,4.9,6.23,7.84-3.75,6.41-3.52,9.37S583.29,318.3,583.29,321.31Z"/><g class="cls-10"><path class="cls-11" d="M583.29,321.31c0-3-4.59-5.79-4.91-8.73s4-6.45,3.49-9.37-5.54-5-6.23-7.84,2.9-6.89,2-9.81-6.25-4-7.4-6.75,1.79-7.35.46-10-6.89-3-8.36-5.54.66-7.54-1.08-10-7.17-1.93-9.19-4.23-.46-7.54-2.53-9.7-7.38-.87-9.58-2.87-1.52-7.4-3.89-9.19-7.42.16-9.9-1.51-2.53-7.13-5.1-8.62-7.35,1.17-10-.16-3.46-6.71-6.22-7.84-7.12,2.14-9.95,1.2-4.32-6.2-7.21-6.89-6.76,3.05-9.7,2.48-5.1-5.56-8.06-5.95-6.3,3.93-9.19,3.72-5.77-4.87-8.76-4.87-5.81,4.59-8.75,4.87-6.39-4.09-9.31-3.72-5.17,5.4-8.06,5.95-6.89-3.24-9.7-2.48-4.41,6-7.21,6.89-7.22-2.3-10-1.2-3.56,6.55-6.23,7.84-7.44-1.33-10,.16-2.65,6.89-5.1,8.62-7.56-.3-9.91,1.51-1.67,7.26-3.86,9.19-7.53.74-9.6,2.87-.62,7.42-2.53,9.7-7.35,1.81-9.19,4.23.46,7.42-1.08,10-6.89,2.87-8.34,5.54,1.59,7.26.44,10-6.48,3.93-7.4,6.75,2.69,6.9,2,9.81-5.79,4.9-6.25,7.84,3.75,6.41,3.52,9.37-4.94,5.72-4.94,8.73,4.71,5.77,4.94,8.71-4,6.46-3.52,9.38,5.56,5,6.25,7.83-2.92,7-2,9.81,6.25,4,7.4,6.76-1.79,7.37-.44,10a5.88,5.88,0,0,0,3,2.3h0c-.69-2.5-2.55-5.33-1.86-7.44.92-2.83,6.27-4,7.4-6.76s-1.77-7.35-.44-10,6.89-3,8.34-5.54-.64-7.56,1.08-10,7.19-1.93,9.08-4.23.48-7.53,2.52-9.69,7.4-.88,9.61-2.88,1.51-7.39,3.86-9.19,7.44.14,9.9-1.51,2.55-7.13,5.12-8.62,7.33,1.17,10-.16,3.47-6.71,6.2-7.83,7.13,2.13,9.95,1.19,4.34-6.2,7.22-6.89,6.89,3,9.69,2.48,5.1-5.56,8.07-5.95,6.31,3.93,9.19,3.72,5.76-4.87,8.75-4.87,5.81,4.6,8.75,4.87,6.37-4.09,9.31-3.72,5.14,5.4,8,5.95,6.89-3.24,9.72-2.48,4.41,6,7.21,6.89,7.22-2.3,9.95-1.19,3.56,6.54,6.2,7.85,7.47-1.33,10,.14,2.67,6.89,5.12,8.62,7.56-.3,9.91,1.51,1.65,7.26,3.86,9.19,7.53.76,9.6,2.9.62,7.4,2.53,9.67,7.35,1.84,9.07,4.25-.46,7.42,1.08,9.95c.94,1.54,3.33,2.3,5.36,3.22q.16.58.39,1.17a6.43,6.43,0,0,1-.28-3.42c.69-2.88,5.77-4.9,6.23-7.84s-3.75-6.39-3.49-9.37S583.29,324.37,583.29,321.31Z"/></g><path class="cls-12" d="M583.29,321.31c0,3-4.59,5.77-4.94,8.71s4,6.46,3.52,9.38-5.54,5-6.23,8,2.9,7,2,9.81-6.25,4-7.4,6.75,1.79,7.38.46,10-6.89,3-8.36,5.53.66,7.54-1.08,10-7.17,2-9.19,4.23-.46,7.56-2.53,9.7-7.38.89-9.58,2.87-1.54,7.42-3.89,9.19-7.42-.16-9.9,1.49-2.53,7.12-5.1,8.62-7.35-1.15-10,.16-3.46,6.71-6.22,7.86-7.12-2.16-9.95-1.2-4.32,6.18-7.21,6.89-6.76-3.05-9.7-2.48-5.1,5.56-8,5.95-6.32-3.9-9.31-3.72-5.76,4.87-8.75,4.87S446,439.25,443.1,439s-6.39,4.09-9.31,3.72-5.17-5.37-8.06-5.95-6.9,3.24-9.7,2.48-4.41-6-7.21-6.89-7.22,2.3-9.95,1.17-3.56-6.52-6.23-7.83-7.44,1.33-10-.16-2.65-6.9-5.11-8.62-7.58.32-9.9-1.51-1.68-7.27-3.88-9.2-7.54-.73-9.58-2.87-.62-7.42-2.53-9.69-7.35-1.82-9.19-4.23.46-7.42-1.08-10-6.89-2.87-8.34-5.52,1.56-7.28.44-10-6.48-3.93-7.4-6.76,2.69-6.89,2-9.81-5.79-4.89-6.25-7.83,3.74-6.39,3.51-9.38-4.71-5.74-4.71-8.8,4.71-5.79,4.94-8.73-4-6.45-3.51-9.37,5.56-5,6.25-7.84-2.92-6.89-2-9.81,6.27-4,7.4-6.75-1.79-7.35-.44-10,6.89-3,8.34-5.54-.64-7.56,1.08-10,7.17-2,9.19-4.23.46-7.56,2.53-9.7,7.37-.89,9.6-2.87,1.52-7.42,3.86-9.19,7.45.14,9.9-1.51,2.53-7.13,5.1-8.62,7.36,1.17,10-.16,3.47-6.71,6.23-7.84,7.12,2.14,9.95,1.2,4.32-6.2,7.21-6.89S423,206.55,426,206s5.1-5.56,8.06-5.95,6.32,3.93,9.31,3.72,5.74-4.87,8.75-4.87,5.81,4.59,8.75,4.87,6.37-4.09,9.19-3.72,5.17,5.4,8.07,5.95,6.89-3.24,9.69-2.48,4.41,6,7.22,6.89,7.21-2.3,9.95-1.2,3.58,6.55,6.22,7.84,7.47-1.33,10,.16,2.66,6.89,5.1,8.62,7.58-.3,9.9,1.51,1.68,7.26,3.89,9.19,7.53.76,9.58,2.87.64,7.42,2.52,9.7,7.36,1.84,9.19,4.23-.46,7.44,1.08,10,7,2.89,8.37,5.54-1.59,7.26-.46,10,6.48,3.93,7.39,6.75-2.68,6.9-2,9.81,5.77,4.9,6.23,7.84-3.75,6.41-3.52,9.37S583.29,318.3,583.29,321.31Z"/><path class="cls-13" d="M436.25,474.47s-36,10-62,13.78-42.12,3.84-47.47,16.87-49,160-58.22,177.67S254,740.22,270.07,741,334.4,640.67,334.4,640.67l14.54,27.57S303.77,809.91,304.53,816s20.68,18.38,58.2,21.44,41.35,2.3,67.41,9.19,61.25-2.3,78.11-11.49,36-12.25,43.66-16.84,7.65-5.35,7.65-14.54-36-141.69-36-141.69L545,605.43s49,101.09,51.3,110.28,16.84,20.68,30.63,17.62,27.57-13,23.75-36-68.17-183-72.76-196.81.76-26.81-18.38-31.41-113.34.76-113.34.76Z"/><g class="cls-14"><path class="cls-15" d="M577.94,500.52c-4.6-13.78.76-26.81-18.38-31.41-17.35-4.15-96.22-.16-111,.65l5.28,17.73s35.61,6.9,56.29,6.9,37.91-2.3,45.95,19.53,57.44,164.27,75.82,194.14a166.49,166.49,0,0,0,11.83,16.56c5.75-5.76,9.06-14.52,6.9-27.29C646.86,674.35,582.53,514.31,577.94,500.52Z"/><path class="cls-15" d="M551.91,818.34c7.65-4.6,7.65-5.35,7.65-14.54s-36-141.69-36-141.69l20.54-54.27c-5.91-8.64-14.66-22.79-13.65-29.2A259.8,259.8,0,0,0,532,549.53s-5.75,36.76-21.83,57.44-97.64,29.86-137.85,29.86c-21,0-32.56,2.51-36.58,6.37l7.08,13.39c16.31,10.32,56.24,25.09,100.72,31.94s67.78,97.64,75.82,110.28S502.12,831,486,833.27s-37.91-9.19-59.74-6.89-32.16,13.79-39.06,2.3-2.29-39.06-9.19-26.42-9.19,27.57-17.23,27.57c-5.77,0-26.28-.6-39.56-1.36a140.18,140.18,0,0,0,41.47,9c37.54,3.08,41.35,2.3,67.41,9.19s61.25-2.3,78.11-11.49S544.23,822.93,551.91,818.34Z"/><path class="cls-15" d="M340.86,652.92l.43-1.13S326,628.47,327.71,618.5s-.2-38-.2-38-20.68,78.12-29.87,93.06S262,731,262,731s-.21.85-.53,2.3c1.58,4.6,4.32,7.47,8.57,7.65,16.08.78,64.33-100.31,64.33-100.31Z"/></g><path class="cls-12" d="M436.25,474.47s-36,10-62,13.78-42.12,3.84-47.47,16.87-49,160-58.22,177.67S254,740.22,270.07,741,334.4,640.67,334.4,640.67l14.54,27.57S303.77,809.91,304.53,816s20.68,18.38,58.2,21.44,41.35,2.3,67.41,9.19,61.25-2.3,78.11-11.49,36-12.25,43.66-16.84,7.65-5.35,7.65-14.54-36-141.69-36-141.69L545,605.43s49,101.09,51.3,110.28,16.84,20.68,30.63,17.62,27.57-13,23.75-36-68.17-183-72.76-196.81.76-26.81-18.38-31.41-113.34.76-113.34.76Z"/><path class="cls-12" d="M545,605.43s-13-16.09-14.57-26.79,13-49.79,13-49.79"/><path class="cls-12" d="M334.4,640.67s-6.69-12.89-6.69-22.19,12.64-51.9,12.64-51.9"/><path class="cls-12" d="M462.3,508.93a304.39,304.39,0,0,0,33.18-41.15c-25.85.76-49.26,2.09-49.26,2.09l-10,4.6s-12.87,3.56-28.79,7.26c-.89,12.61-2.78,40.62-3.38,56.31-.75,20.68-1.51,30.63-1.51,30.63S434,538.8,462.3,508.93Z"/><path class="cls-16" d="M288.45,675.13s-9.19,58.2-18.38,65.85-23.73,5.38-29.87-23,0-35.22,10-49S284.61,644.49,288.45,675.13Z"/><g class="cls-17"><path class="cls-13" d="M288.45,675.13s-9.19,58.2-18.38,65.85-23.73,5.38-29.87-23,0-35.22,10-49S284.61,644.49,288.45,675.13Z"/></g><path class="cls-12" d="M288.45,675.13s-9.19,58.2-18.38,65.85-23.73,5.38-29.87-23,0-35.22,10-49S284.61,644.49,288.45,675.13Z"/><path class="cls-18" d="M411.76,417s9.19,32.16,8.41,52.84-6.11,52.09-8.41,66.63,8.41,4.6,32.92-26.79,31.41-40.6,32.93-51.33,1.53-39.81,1.53-39.81a32.39,32.39,0,0,1-31.4,7.65c-19.14-5.35-31.39-19.14-34.47-19.14S411.76,417,411.76,417Z"/><g class="cls-19"><path class="cls-20" d="M447.74,426.22c-19.14-5.35-31.39-19.14-34.47-19.14s-1.51,9.95-1.51,9.95,1.84,6.48,3.81,15.46c9.47,11.65,28,34.46,30.65,37.38,3.61,4.12,10.29,20.68-1.54,39.84,24.52-31.41,31.41-40.6,32.93-51.33s1.53-39.81,1.53-39.81A32.39,32.39,0,0,1,447.74,426.22Z"/></g><path class="cls-12" d="M411.76,417s9.19,32.16,8.41,52.84-6.11,52.09-8.41,66.63,8.41,4.6,32.92-26.79,31.41-40.6,32.93-51.33,1.53-39.81,1.53-39.81a32.39,32.39,0,0,1-31.4,7.65c-19.14-5.35-31.39-19.14-34.47-19.14S411.76,417,411.76,417Z"/><path class="cls-18" d="M403.51,358.26s-8.57-10-14.31-1.43,11.48,37.22,16.47,37.22,2.85-20,2.85-25S403.51,358.26,403.51,358.26Z"/><path class="cls-4" d="M503,366.14s8.57-10,14.31-1.43-11.49,37.22-16.47,37.22S498,381.88,498,376.87,503,366.14,503,366.14Z"/><g class="cls-21"><path class="cls-18" d="M503,366.14s8.57-10,14.31-1.43-11.49,37.22-16.47,37.22S498,381.88,498,376.87,503,366.14,503,366.14Z"/></g><path class="cls-12" d="M503,366.14s8.57-10,14.31-1.43-11.49,37.22-16.47,37.22S498,381.88,498,376.87,503,366.14,503,366.14Z"/><path class="cls-18" d="M479.67,288.09c-.89,2.18-1.51,4.8-3.17,5.77-2.57,1.47-7.35-1.17-10,.14s-3.47,6.71-6.23,7.85-7.12-2.13-9.95-1.19-4.32,6.18-7.21,6.89-6.78-3.08-9.7-2.5-5.1,5.58-8.06,5.95-6.32-3.91-9.31-3.72c-2.57.16-5,3.76-7.63,4.59-3.37,9.19-5.4,21.41-5.6,37.68,0,0-.71,47.22,4.29,60.1s31.5,36.51,40.79,37.94,13.6-1.43,17.89-5.72,32.17-27.21,35.06-36.51,13.6-69.41,10-89.45C508.67,303.69,495.39,293.61,479.67,288.09Z"/><g class="cls-22"><path class="cls-20" d="M489.92,292.57c3.33,5.91,6.25,15.23,5,29.25-2.62,28.72-.67,51.58-5.24,71.22s-20.2,41.11-28.95,45.95-19.37,3.66-31.13-2.87l-.67-.34c7.47,6.41,14.87,11.35,19,12,9.3,1.42,13.6-1.43,17.89-5.72s32.17-27.21,35.06-36.51,13.6-69.41,10-89.44C509.17,306.54,500.86,298.34,489.92,292.57Z"/></g><path class="cls-12" d="M479.67,288.09c-.89,2.18-1.51,4.8-3.17,5.77-2.57,1.47-7.35-1.17-10,.14s-3.47,6.71-6.23,7.85-7.12-2.13-9.95-1.19-4.32,6.18-7.21,6.89-6.78-3.08-9.7-2.5-5.1,5.58-8.06,5.95-6.32-3.91-9.31-3.72c-2.57.16-5,3.76-7.63,4.59-3.37,9.19-5.4,21.41-5.6,37.68,0,0-.71,47.22,4.29,60.1s31.5,36.51,40.79,37.94,13.6-1.43,17.89-5.72,32.17-27.21,35.06-36.51,13.6-69.41,10-89.45C508.67,303.69,495.39,293.61,479.67,288.09Z"/><path class="cls-12" d="M455,391.18s10.73,1.45,11.49-8.57"/><path class="cls-12" d="M472.94,404.07s-12.89,2.14-35.08-4.3c0,0,2.87,17.19,14.31,20S472.94,404.07,472.94,404.07Z"/><path class="cls-9" d="M444.52,362.33c-.14,4.13-1.84,7.46-3.81,7.39s-3.47-3.49-3.33-7.62,1.83-7.47,3.81-7.4S444.68,358.17,444.52,362.33Z"/><path class="cls-12" d="M435.49,355.78a11,11,0,0,1,10.89.94"/><path class="cls-9" d="M482.32,367.31c-.44,4.11-2.3,7.31-4.35,7.1s-3.19-3.72-2.75-7.86,2.29-7.3,4.34-7.1S482.75,363.18,482.32,367.31Z"/><path class="cls-12" d="M473.84,360.14a10.9,10.9,0,0,1,10.77,1.73"/><path class="cls-23" d="M427,341.6a26.17,26.17,0,0,1,24.58-1.42"/><path class="cls-23" d="M472,344.43s11.33-7.56,22.68,6.15"/><path class="cls-16" d="M537.34,744.06s-11.49-23.76-12.24-45.19,8.43-32.93,18.38-22.22S545.77,733.33,537.34,744.06Z"/><g class="cls-24"><path class="cls-13" d="M537.34,744.06s-11.49-23.76-12.24-45.19,8.43-32.93,18.38-22.22S545.77,733.33,537.34,744.06Z"/></g><path class="cls-12" d="M537.34,744.06s-11.49-23.76-12.24-45.19,8.43-32.93,18.38-22.22S545.77,733.33,537.34,744.06Z"/><path class="cls-18" d="M625.43,669.76s-51.33,0-79.66-10.71-53.6-26-66.63-38.3-17.62-15.32-32.92-16.84-26.81-10-26.81-4.59,4.59,9.19,9.19,11.48,21.43,10,21.43,10,1.54,3.84-14.54,6.89a222.73,222.73,0,0,0-46.71,14.55C375,648.32,370.4,652.92,375,654.46s19.14-3.84,22.19-3.84,19.92-2.3,19.92-2.3-31.41,13.79-36,17.62-17.6,9.19-12.25,11.49,27.57-1.54,27.57-1.54-23,6.9-13.78,10S411,684.32,411,684.32s22.21,3.06,28.35,0,42.11-18.38,42.11-18.38,55.14,47.47,102.63,59,46.71,0,46.71,0"/><g class="cls-25"><path class="cls-20" d="M571.83,721.22c9.19-4.06,16.45-7.42,16.45-7.42l2.3-45.95c-15.12-1.47-32.17-4.11-44.76-8.87-28.38-10.66-53.65-26-66.68-38.23-9.19-8.59-14.13-12.66-21.55-14.84,3.93,3.26,7.77,7.47,7.77,11.49,0,8-13.79,16.08-24.12,20.68l-41.36,18.38s33.31-13.79,31-5.75-25.28,18.38-48.25,24.13a74,74,0,0,0-10.23,3.33c8.14.55,24-2.19,24-2.19s-23,6.9-13.78,9.95S411,684.42,411,684.42s22.21,3.05,28.35,0S481.44,666,481.44,666,527.6,705.76,571.83,721.22Z"/></g><path class="cls-12" d="M625.43,669.76s-51.33,0-79.66-10.71-53.6-26-66.63-38.3-17.62-15.32-32.92-16.84-26.81-10-26.81-4.59,4.59,9.19,9.19,11.48,21.43,10,21.43,10,1.54,3.84-14.54,6.89a222.73,222.73,0,0,0-46.71,14.55C375,648.32,370.4,652.92,375,654.46s19.14-3.84,22.19-3.84,19.92-2.3,19.92-2.3-31.41,13.79-36,17.62-17.6,9.19-12.25,11.49,27.57-1.54,27.57-1.54-23,6.9-13.78,10S411,684.32,411,684.32s22.21,3.06,28.35,0,42.11-18.38,42.11-18.38,55.14,47.47,102.63,59,46.71,0,46.71,0"/><line class="cls-12" x1="396.43" y1="675.89" x2="423.5" y2="666.36"/><line class="cls-12" x1="410.98" y1="684.32" x2="428.83" y2="679.66"/><path class="cls-16" d="M650.7,712.65c-3.08,19.14-11.49,32.17-46.73,31.41s-66.63,0-66.63,0a215.23,215.23,0,0,0,6.14-33.7c2.29-20.68,2.29-51.31,2.29-51.31s48.25,10.71,87.31,6.89"/><g class="cls-26"><path class="cls-13" d="M650.7,712.65c-3.08,19.14-11.49,32.17-46.73,31.41s-66.63,0-66.63,0a215.23,215.23,0,0,0,6.14-33.7c2.29-20.68,2.29-51.31,2.29-51.31s48.25,10.71,87.31,6.89"/></g><path class="cls-12" d="M650.7,712.65c-3.08,19.14-11.49,32.17-46.73,31.41s-66.63,0-66.63,0a215.23,215.23,0,0,0,6.14-33.7c2.29-20.68,2.29-51.31,2.29-51.31s48.25,10.71,87.31,6.89"/><path class="cls-18" d="M293,565.61s-4.13,12.78-29.11,59.74c-21,39.61-27.57,56.68-27.57,71.22s13,31.41,32.17,19.14,25.27-27,28.4-48.39,19.6-92,19.6-92S311.42,558,293,565.61Z"/><g class="cls-27"><path class="cls-20" d="M296.93,667.32c3.05-21.43,19.6-92,19.6-92s-3.73-12.56-16.09-11.48L295.85,582s-16.59,88.2-32.67,111.17A35.7,35.7,0,0,1,239.44,709c4.94,9.45,15.47,15.49,29.09,6.76C287.69,703.46,293.87,688.76,296.93,667.32Z"/></g><path class="cls-12" d="M293,565.61s-4.13,12.78-29.11,59.74c-21,39.61-27.57,56.68-27.57,71.22s13,31.41,32.17,19.14,25.27-27,28.4-48.39,19.6-92,19.6-92S311.42,558,293,565.61Z"/><path class="cls-18" d="M300.7,539.58s-26,0-29.09,3.81-3.08,13.79,6.11,13.79,23.76-.76,28.35-3.81S308.39,538.18,300.7,539.58Z"/><path class="cls-18" d="M289.8,581.21a13.39,13.39,0,0,0,4.6,12c6,5.33,17.3,2,15.3-1.31s-14-10-14-10Z"/><path class="cls-18" d="M288.45,569.45s-4.6,7.65-1.54,11.49,11.49,4.59,21.46,2.29,13-13,4.59-13.78A238.55,238.55,0,0,0,288.45,569.45Z"/><path class="cls-18" d="M284.61,557.18s-6.11,3.84-3.81,10S293,573.26,305.29,571s12.27-15.3,7.67-16.08S284.61,557.18,284.61,557.18Z"/><path class="cls-4" d="M329.32,607.68h0a32.38,32.38,0,0,1-32.15-32.56V525H361.5V575.5a32.18,32.18,0,0,1-32.18,32.18Z"/><g class="cls-28"><path class="cls-15" d="M338.52,525.13v55.14s-2.47,12.73-19.06,16.08a54.94,54.94,0,0,1-12.92,1,31.36,31.36,0,0,0,23.14,10.27h0c17.55,0,31.78-14.54,31.82-32.49V525H338.68Z"/></g><path class="cls-12" d="M330.47,608.83h0a32.38,32.38,0,0,1-32.15-32.56V526.11h64.33v50.54a32.18,32.18,0,0,1-32.18,32.18Z"/><path class="cls-12" d="M288.06,451.4a15,15,0,0,1,10.2-2.43"/><path class="cls-12" d="M315.45,522s4.18-10.23-5.59-21.85c-7.69-9.19-21.53-10.52-29-19.78-4.94-6.12-3.84-15.14.48-22"/><path class="cls-12" d="M318.32,484.26s16.72,4.18,21.82,18.1,1.41,19,1.41,19"/></g><g id="freepik--Floor--inject-2"><line class="cls-12" x1="52.48" y1="856.96" x2="1012.85" y2="856.96"/></g><g id="freepik--Device--inject-2"><rect class="cls-8" x="686.6" y="431.92" width="255.03" height="459.51" rx="15.51"/><rect class="cls-29" x="675.11" y="431.92" width="255.03" height="459.51" rx="15.51"/><path class="cls-9" d="M820.42,460.63H786.67a3.26,3.26,0,0,1-3.26-3.26v-.18h0a3.47,3.47,0,0,1,3.44-3.45H820.6a3.27,3.27,0,0,1,3.27,3.26v.19h0a3.42,3.42,0,0,1-3.4,3.44Z"/><path class="cls-2" d="M912.91,851.22H690.05V460.63h48l5.39,4.47a10.58,10.58,0,0,0,6.72,2.43H850.33a10.65,10.65,0,0,0,7-2.65l5-4.25h50.58Z"/><path class="cls-12" d="M914.06,852.36H691.2V461.78h48l5.38,4.47a10.61,10.61,0,0,0,6.73,2.43h99a10.65,10.65,0,0,0,7-2.65l5-4.25h51.73Z"/><path class="cls-9" d="M809.52,864.52a5.08,5.08,0,0,0-6.43-4.9,5,5,0,0,0-3.55,3.55,5.09,5.09,0,0,0,4.9,6.43h0a5.07,5.07,0,0,0,5-5.08Z"/></g></svg>