<svg id="Capa_1" data-name="Capa 1" xmlns="http://www.w3.org/2000/svg" xmlns:xlink="http://www.w3.org/1999/xlink" viewBox="0 0 1000 1000"><defs><style>.cls-1,.cls-14,.cls-22,.cls-7,.cls-8{fill:none;}.cls-11,.cls-19,.cls-2,.cls-23,.cls-4{fill:#fff;}.cls-2{opacity:0.7;}.cls-11,.cls-12,.cls-2,.cls-20{isolation:isolate;}.cls-3{fill:#d3d3d3;}.cls-13,.cls-14,.cls-15,.cls-23,.cls-26,.cls-4,.cls-7,.cls-8{stroke:#263238;}.cls-28,.cls-4,.cls-7{stroke-miterlimit:10;}.cls-14,.cls-15,.cls-22,.cls-23,.cls-26,.cls-4,.cls-7{stroke-width:2.21px;}.cls-26,.cls-5{fill:#ba68c8;}.cls-6{clip-path:url(#clip-path);}.cls-13,.cls-14,.cls-15,.cls-22,.cls-23,.cls-26,.cls-8{stroke-linecap:round;stroke-linejoin:round;}.cls-8{stroke-width:2.09px;}.cls-15,.cls-9{fill:#263238;}.cls-10{clip-path:url(#clip-path-2);}.cls-11,.cls-12{opacity:0.1;}.cls-13{fill:#e8ab79;stroke-width:2.28px;}.cls-16{fill:#664b38;}.cls-17{clip-path:url(#clip-path-3);}.cls-18{opacity:0.5;}.cls-20{fill-opacity:0.7;opacity:0.2;}.cls-21{clip-path:url(#clip-path-4);}.cls-22{stroke:#5b3e2a;}.cls-24{clip-path:url(#clip-path-5);}.cls-25{clip-path:url(#clip-path-6);}.cls-27,.cls-28{fill:#9ec10c;}.cls-28{stroke:#020100;}.cls-29{clip-path:url(#clip-path-7);}</style><clipPath id="clip-path"><rect class="cls-1" x="153.5" y="372.85" width="245.77" height="35.43" rx="4.63"/></clipPath><clipPath id="clip-path-2"><path class="cls-1" d="M923.24,617.86,889.92,813.47H671l40.57-191.16a69,69,0,0,1,66.9-54.62H880.88a42.67,42.67,0,0,1,30.67,12.9,30.58,30.58,0,0,1,2.2,2.21A42.76,42.76,0,0,1,923.24,617.86Z"/></clipPath><clipPath id="clip-path-3"><path class="cls-1" d="M785.54,813.47H609.92s-22.77-28.59-37-48.12l-2-2.81A130.79,130.79,0,0,1,562.68,750a9.26,9.26,0,0,1-.71-1.76c-1.73-5.63-.74-15.77,1.21-26.24.6-3.25,1.3-6.59,2-9.74,3.21-14.1,7.14-26.39,7.14-26.39s-4.86.29-12.69.6c-3.51.15-7.6.3-12.16.43-7.3.2-15.72.38-24.54.4h-10.4c-10.67-.13-21.51-.51-31.32-1.3-3.19-.26-6.26-.55-9.19-.92a81.9,81.9,0,0,1-21.84-4.88c-2.92-1.3-5.54-4.4-7.87-9.13a87.93,87.93,0,0,1-6-17.33,286.76,286.76,0,0,1-5.91-32.39c-.62-4.6-1.17-9.33-1.67-14.1-.88-8.18-1.63-16.47-2.2-24.58q-.37-4.93-.66-9.7c-.49-7.59-.88-14.91-1.19-21.66-.13-3.32-.26-6.6-.37-9.53-.38-10-.55-18.21-.66-23.35v-5.94s27.64-5.91,37.16-31.64c0,0,1,4.39,2.68,12.24.69,3.3,1.48,7.2,2.36,11.62.72,3.73,1.51,7.83,2.31,12.22,1.32,6.93,2.68,14.65,4,22.94.55,3.28,1.08,6.6,1.63,10.09,1,6.36,1.93,13,2.84,19.8.39,3,.79,6.11,1.16,9.21.48,3.7.9,7.41,1.32,11.17s.79,7.28,1.14,11,.62,6.75.88,10.11c.16,1.9.31,3.76.44,5.66a45.63,45.63,0,0,1,7.19-.55,5.32,5.32,0,0,1,2.69.55c1.73,1.27,2.94,8.62,2.94,8.62l2.4-.49,8.8-1.76L522.72,620l8.8-1.63c4.39-.82,8.79-1.63,13.34-2.4l8.8-1.52c6.29-1,12.27-2,17.59-2.68,3.32-.46,6.34-.84,8.93-1.08l1.39-.13a97.79,97.79,0,0,1,16.32.46c34.72,3.26,96.43,18,126.78,19.79,13.19.8,21.44,23.62,27.82,52.92,1.71,7.87,3.29,16.23,4.83,24.74q1.26,7.05,2.44,14.18c.64,3.76,1.26,7.48,1.9,11.22h0c.55,3.3,1.1,6.59,1.67,9.8q1,6,2.06,11.7c.62,3.41,1.24,6.76,1.9,10,.92,4.73,1.86,9.24,2.88,13.5.77,3.28,1.56,6.4,2.37,9.33A95.3,95.3,0,0,0,778.22,804a27.82,27.82,0,0,0,4.88,7.36A11.67,11.67,0,0,0,785.54,813.47Z"/></clipPath><clipPath id="clip-path-4"><path class="cls-1" d="M754.23,683.44l7-5.09s7.1,16.4,7.3,22.54a3.88,3.88,0,0,1-.17,1.55c-.78,2-3.9,11.38-6.85,20.19-.37,1.13-.75,2.22-1.1,3.32-1.84,5.56-3.48,10.48-4.19,12.58h0l-.11.33-.24.75s.33,3.48.75,8.86c.31,4,.64,9.08.91,14.66h0c.18,3.16.29,6.49.4,9.87v15.1c-.11,3.61-.29,7.07-.6,10.24-.69,7-2,12.62-4.08,15.13H523.34s-20-13.55-21.07-24.06a54.32,54.32,0,0,1,0-15.8h2.6l8.42.44,12.33-2.56,8.73-1.75c7.37-1.46,15.8-3.12,23.91-4.62,3-.56,5.93-1.08,8.74-1.58l3-.55,1.66-.29c4-.68,7.7-1.27,10.72-1.68a59.41,59.41,0,0,1,7.06-.69h37.33l9.37.11c5.2-.11,10.2-.29,14.68-.55l3.65-.23h0c2.63-.19,5-.42,7-.68a25,25,0,0,0,6-1.29,2.49,2.49,0,0,0,1.09-.68,5.29,5.29,0,0,1,.75-.82c3.61-3.32,9.19.24,9.19.24l.93-3.45,2.92-10.87h0l.14-.49,2-7.35.73-.53.55-.42h0"/></clipPath><clipPath id="clip-path-5"><path class="cls-1" d="M281.71,782.47h0a2,2,0,0,0-1.49.91L262.91,810.3a2,2,0,0,0,1.73,3.17H397.06v-31Z"/></clipPath><clipPath id="clip-path-6"><path class="cls-1" d="M406.14,813.47H379.73A2,2,0,0,1,378,810.3l17.27-26.74A2.07,2.07,0,0,1,399,784l9.16,26.73a2.08,2.08,0,0,1-1.33,2.62A2.31,2.31,0,0,1,406.14,813.47Z"/></clipPath><clipPath id="clip-path-7"><path class="cls-1" d="M929.94,758.75l-2.22,13.34-.49,2.85-8.12,45.79H792.74l-7.48-42.83-.49-2.78-2.84-16.37a3.82,3.82,0,0,1,3.15-4.4,4.07,4.07,0,0,1,.61-.05H926.21a3.81,3.81,0,0,1,3.79,3.82A3.36,3.36,0,0,1,929.94,758.75Z"/></clipPath></defs><g id="freepik--background-simple--inject-2"><path class="cls-2" d="M280.49,455.41s-43.18,94.67,17.5,190,185.67,145.69,285.7,188.75S787.61,856.24,837,785.71s-18.34-120.87-18.43-221.44,17.73-127.2-46.47-212.16S550.5,248.33,431.5,311.35,280.49,455.41,280.49,455.41Z"/><path class="cls-3" d="M855,505.28c-28.19-26.46-75.38-29.43-112.1-46.76-63.18-29.84-87.66-97.81-145.14-135C561.45,300,512.42,290.84,468.57,296c-62.24,7.32-120.8,42.73-138.39,94.66a112.2,112.2,0,0,0-5.33,46.56c2.82,31,10.65,62.32,3.25,92.74-8.15,33.51-33.84,61.79-49.19,93.47-19.11,39.44-21.68,83.62-13.57,125.67,5.58,28.69,16.7,57.64,39.9,79,1.75,1.62,3.58,3.16,5.44,4.67H564c15.9-17.21,27.87-37.58,41.92-55.66,35.2-45.46,91.53-77.89,153.07-93.1,27.56-6.81,57.44-10.86,79.59-26.37,22.78-15.95,33.25-41.41,37.79-66.19C881.93,561.43,879,527.8,855,505.28Z"/></g><g id="freepik--interface-1--inject-2"><rect class="cls-4" x="125.82" y="347.38" width="303.34" height="303.34" rx="15.72"/><rect class="cls-5" x="153.5" y="372.85" width="245.77" height="35.43" rx="4.63"/><g class="cls-6"><rect class="cls-3" x="153.5" y="372.85" width="245.77" height="35.43" rx="4.63"/></g><rect class="cls-7" x="154.6" y="373.95" width="245.77" height="35.43" rx="4.63"/><path class="cls-4" d="M365,374h30.8a4.63,4.63,0,0,1,4.63,4.63v26.17a4.63,4.63,0,0,1-4.63,4.63H365V374Z"/><path class="cls-3" d="M393,399.54l-5.87-5.87a2.2,2.2,0,0,0-2.21-.55l-.53-.54a8.35,8.35,0,0,0-.71-11.07,8.64,8.64,0,0,0-11.89,0,8.39,8.39,0,0,0,11.07,12.6l.53.53a2.23,2.23,0,0,0,.53,2.11l5.89,5.89a2.27,2.27,0,0,0,1.58.64,2.22,2.22,0,0,0,1.61-3.74Zm-19.53-7.66a6.18,6.18,0,1,1,.12.12l-.12-.12Z"/></g><g id="freepik--Desktop--inject-2"><line class="cls-8" x1="140.99" y1="814.58" x2="918.62" y2="814.58"/><line class="cls-8" x1="306.78" y1="823.43" x2="802.17" y2="823.43"/><line class="cls-8" x1="466.64" y1="841.15" x2="604.8" y2="841.15"/><line class="cls-8" x1="815.99" y1="823.43" x2="837.7" y2="823.43"/><line class="cls-8" x1="442.96" y1="841.15" x2="415.33" y2="841.15"/><line class="cls-8" x1="198.22" y1="823.43" x2="170.59" y2="823.43"/></g><g id="freepik--Character--inject-2"><path class="cls-9" d="M923.24,617.86,889.92,813.47H671l40.57-191.16a69,69,0,0,1,66.9-54.62H880.88a42.67,42.67,0,0,1,30.67,12.9,30.58,30.58,0,0,1,2.2,2.21A42.76,42.76,0,0,1,923.24,617.86Z"/><g class="cls-10"><path class="cls-11" d="M740.73,647.15a26.25,26.25,0,0,0,19.94,9.11h57.46a57.21,57.21,0,0,0,56-44.51l3.19-13.66a33.82,33.82,0,0,1,23.93-25,42.48,42.48,0,0,0-20.73-5.37H779.4a68.4,68.4,0,0,0-38,11.5l-6.9,46.88A26.27,26.27,0,0,0,740.73,647.15Z"/><path class="cls-11" d="M880,598.11l-3.2,13.79a60,60,0,0,1-58.69,46.58h-58a28.74,28.74,0,0,1-28.91-28.56,28.22,28.22,0,0,1,.31-4.4l6.63-45.09a69,69,0,0,0-26.81,41.42L670.64,813.47H844.37l40.92-211.6A27,27,0,0,1,911.81,580a41.1,41.1,0,0,0-7.16-5.86A31.93,31.93,0,0,0,880,598.11Z"/><path class="cls-12" d="M815.72,813.47H670.47l40.74-192a69.24,69.24,0,0,1,67.18-54.84c3.26,9.92,4,25.35-4.89,48.13,0,0,20.44-3.3,26.28,49.67C805.34,714.78,806.14,702.54,815.72,813.47Z"/></g><path class="cls-7" d="M923.24,619,889.92,814.58H671l40.57-191.16a69,69,0,0,1,66.9-54.62H880.88a42.67,42.67,0,0,1,30.67,12.9,28.67,28.67,0,0,1,2.2,2.21A42.75,42.75,0,0,1,923.24,619Z"/><path class="cls-13" d="M513.14,785.79h-26c-2.22,0-29.85-3.87-34.26-4.45s-17.69,33.24-17.69,33.24H538.56Z"/><path class="cls-14" d="M454.79,785.93s-1.46,5.56,0,7.6,5,1.46,5,5.25-.29,6.13,5,8.85,1.46,4.85,5.56,6.51"/><path class="cls-14" d="M454.13,799.93s-9.28,9.47-11.89,14.06"/><path class="cls-14" d="M457.4,808.43a37.2,37.2,0,0,0-5.53,5.62"/><path class="cls-15" d="M460.61,479.2c-1.57-7.77-37.64,15.1-37.42,31.87s31,14.1,31,14.1S463.23,492.16,460.61,479.2Z"/><path class="cls-13" d="M458.58,492.42c-7.38-40-5.47-37.64-10.52-52.94a34.23,34.23,0,0,0-9.7-15.5c-18.82-10.36-52.06-36.16-52.06-36.16s-4,2.95.67,8.2,21.41,19.28,21.41,19.28-11.07,1.53-9.14,7.82c0,0-6.65,1.5-2,12.29a15.37,15.37,0,0,0-1.08,5.4c.84,4,4.94,8.86,9,7.88,0,0,12,13.71,23.64,18.71l2.64,50.31Z"/><path class="cls-14" d="M412.74,420.37a5.61,5.61,0,0,1-2.06,3.66"/><path class="cls-14" d="M407.92,421.55a9.3,9.3,0,0,1,3.8,6.24"/><path class="cls-14" d="M399.26,423.16c0,3.63,6.24,12.22,10.29,13"/><path class="cls-14" d="M397.24,435.45A40.38,40.38,0,0,0,400,439.5c6.42,7.51,9.5,2.22,9.5,2.22"/><path class="cls-14" d="M405.15,448.74a30.39,30.39,0,0,0,5.53-1.75c2.06-1.69,0-5.1,0-5.1"/><path class="cls-13" d="M434.49,427a12.24,12.24,0,0,1-6.65.44c-3.07-.88-12.71-3.78-15.34-1s-3.06,15.3-3.06,15.3,5.32,3.72,8-5.53c0,0,2.9,2.21,4.43,8.85s4.6,13,8.55,12.82"/><path class="cls-16" d="M631.44,447.19s56.92,9.38,76.79,36.84-8.86,78.83,7,107.45,65.41,52,40.88,115.63S629.89,734,589.37,657.47,631.44,447.19,631.44,447.19Z"/><path class="cls-16" d="M642.18,449.93s-29.47-10.29-60.56-1.53-32,37.36-24.93,82.19S541,611.08,569.44,633.11s115-30.53,115-30.53S719.78,477.72,642.18,449.93Z"/><path class="cls-5" d="M785.54,813.47H609.92s-22.77-28.59-37-48.12l-2-2.81A130.79,130.79,0,0,1,562.68,750a9.26,9.26,0,0,1-.71-1.76c-1.73-5.63-.74-15.77,1.21-26.24.6-3.25,1.3-6.59,2-9.74,3.21-14.1,7.14-26.39,7.14-26.39s-4.86.29-12.69.6c-3.51.15-7.6.3-12.16.43-7.3.2-15.72.38-24.54.4h-10.4c-10.67-.13-21.51-.51-31.32-1.3-3.19-.26-6.26-.55-9.19-.92a81.9,81.9,0,0,1-21.84-4.88c-2.92-1.3-5.54-4.4-7.87-9.13a87.93,87.93,0,0,1-6-17.33,286.76,286.76,0,0,1-5.91-32.39c-.62-4.6-1.17-9.33-1.67-14.1-.88-8.18-1.63-16.47-2.2-24.58q-.37-4.93-.66-9.7c-.49-7.59-.88-14.91-1.19-21.66-.13-3.32-.26-6.6-.37-9.53-.38-10-.55-18.21-.66-23.35v-5.94s27.64-5.91,37.16-31.64c0,0,1,4.39,2.68,12.24.69,3.3,1.48,7.2,2.36,11.62.72,3.73,1.51,7.83,2.31,12.22,1.32,6.93,2.68,14.65,4,22.94.55,3.28,1.08,6.6,1.63,10.09,1,6.36,1.93,13,2.84,19.8.39,3,.79,6.11,1.16,9.21.48,3.7.9,7.41,1.32,11.17s.79,7.28,1.14,11,.62,6.75.88,10.11c.16,1.9.31,3.76.44,5.66a45.63,45.63,0,0,1,7.19-.55,5.32,5.32,0,0,1,2.69.55c1.73,1.27,2.94,8.62,2.94,8.62l2.4-.49,8.8-1.76L522.72,620l8.8-1.63c4.39-.82,8.79-1.63,13.34-2.4l8.8-1.52c6.29-1,12.27-2,17.59-2.68,3.32-.46,6.34-.84,8.93-1.08l1.39-.13a97.79,97.79,0,0,1,16.32.46c34.72,3.26,96.43,18,126.78,19.79,13.19.8,21.44,23.62,27.82,52.92,1.71,7.87,3.29,16.23,4.83,24.74q1.26,7.05,2.44,14.18c.64,3.76,1.26,7.48,1.9,11.22h0c.55,3.3,1.1,6.59,1.67,9.8q1,6,2.06,11.7c.62,3.41,1.24,6.76,1.9,10,.92,4.73,1.86,9.24,2.88,13.5.77,3.28,1.56,6.4,2.37,9.33A95.3,95.3,0,0,0,778.22,804a27.82,27.82,0,0,0,4.88,7.36A11.67,11.67,0,0,0,785.54,813.47Z"/><g class="cls-17"><g class="cls-18"><path class="cls-19" d="M768.54,700.89a40.1,40.1,0,0,1-9.48,7.46c-13.17,7.73-32.26,10.89-50.39,10.23l-2.79-.16c-30.56-2.21-59.45-20.7-90.12-54.13-23.56-25.71-20.37-45.66-17.23-54.14,35,3.28,97.1,18.16,127.65,19.93,13.29.79,21.59,23.78,28,53.27l7-5.09S768.34,694.75,768.54,700.89Z"/><path class="cls-19" d="M765.11,743.82a54.29,54.29,0,0,1-8.48,4.76,65.06,65.06,0,0,1-27,5.6,84.44,84.44,0,0,1-24.35-3.74,181.64,181.64,0,0,1-22.92-8.61h0c-21-9.5-38.64-22-55.82-34.14q-5.31-3.75-10.65-7.49a68.45,68.45,0,0,1-25.75-37,64,64,0,0,1-18.36-52.23c3.35-.47,6.38-.85,9-1.09a55.71,55.71,0,0,0,16.43,47.85l1,.95.26,1.31c0,.2,4.72,20.61,22.52,33,3.59,2.48,7.13,5,10.69,7.53,17.3,12.24,33.88,24,53.57,33a173.27,173.27,0,0,0,22.6,8.52c20.15,6,36.94,3.1,48.36-3.08a41.46,41.46,0,0,0,7.31-4.93C764,737.27,764.6,740.57,765.11,743.82Z"/><path class="cls-19" d="M768.37,765.67a69.53,69.53,0,0,1-11.07,7.47,93.77,93.77,0,0,1-43.57,11.47,65.21,65.21,0,0,1-21-3.28c-10.67-3.63-24.53-12-39-21.94h0c-12.44-8.53-25.31-18.2-36.84-26.88-13.29-10-25.8-19.38-29.72-20.8-13-4.67-13.48-27.52-13.28-35-23.54-23.27-28.79-47-29.32-61.6l8.86-1.53c.27,12.94,4.67,35.72,28.08,58.15l1.46,1.42v2.06c-.49,8.14.64,25.75,7.35,28.16,4.91,1.77,14.86,9.14,32,22.14,13.28,10.05,29.62,22.25,44.52,32,10.87,7.09,21,12.85,28.79,15.5,19.81,6.65,45.43.16,61.29-9.67h0a47.47,47.47,0,0,0,9.65-7.64C767.16,759,767.78,762.4,768.37,765.67Z"/><path class="cls-19" d="M560.25,686.1c-3.54.15-7.66.31-12.24.44-18.43-20.48-23.56-51-25-67.36l8.86-1.63C533.26,634,538.75,668.07,560.25,686.1Z"/><path class="cls-19" d="M774.39,788.66a94.56,94.56,0,0,1-17,10.29,102.94,102.94,0,0,1-43.91,9.35c-40.08,0-81-20.15-105.57-44.8l-3.15-3.14c-21.56-21.5-34.45-33-40.94-38.44.6-3.27,1.31-6.64,2-9.81,5.07,4.06,19.46,16.19,48.31,45.13,1.05,1.06,2.22,2.1,3.26,3.14,33.5,31.18,94.3,53.36,140.56,28.34a86.62,86.62,0,0,0,14-9.45C772.77,782.57,773.57,785.71,774.39,788.66Z"/><path class="cls-19" d="M523.25,687.26H512.78c-14.84-26-14.84-42.07-16-62.62l8.86-1.77C511,643.75,510.08,655,523.25,687.26Z"/><path class="cls-19" d="M601.75,776.27c18.9,16.7,51.72,30.71,85.37,37.2H653.51c-23.76-8.06-44.61-19.09-57.57-30.58A271.24,271.24,0,0,0,573.67,765L570,762.5l1.66-.31a130.78,130.78,0,0,1-8.3-12.67,8.51,8.51,0,0,1-.71-1.77,154.44,154.44,0,0,1,19.73,12.65C588.08,764.69,594.55,769.89,601.75,776.27Z"/><path class="cls-19" d="M785,811.39c-1.06.73-2.21,1.42-3.27,2.08H758.22A72.64,72.64,0,0,0,780.1,804,28.33,28.33,0,0,0,785,811.39Z"/><path class="cls-19" d="M481.29,685.59c-3.21-.27-6.31-.56-9.25-.93,3.94-14.11,11.82-46.17,9-74.27.16,1.91.31,3.79.45,5.69a47.31,47.31,0,0,1,7.24-.55C491.12,634.24,484.44,673.14,481.29,685.59Z"/><path class="cls-19" d="M480.21,600.21c-6.51,29.67-21.63,54.51-38.09,70.34A88.15,88.15,0,0,1,436,653.11c25.06-18.87,39.85-47.41,43-63.91Q479.66,594.69,480.21,600.21Z"/><path class="cls-19" d="M477.73,578a88,88,0,0,1-47.65,42.62c-.62-4.63-1.17-9.39-1.68-14.19,23.05-9.33,39.61-23.36,48.15-37.8C477,571.73,477.35,574.83,477.73,578Z"/><path class="cls-19" d="M473.7,548.8c-10.56,19.26-29.07,31.28-47.54,32.92q-.37-5-.66-9.76A66.59,66.59,0,0,0,472,538.63C472.61,541.93,473.15,545.3,473.7,548.8Z"/><path class="cls-19" d="M468,515.54c-8.46,18.58-22.41,33.37-43.71,34.61-.13-3.35-.27-6.65-.38-9.59a56.08,56.08,0,0,0,41.76-37.33C466.41,507,467.21,511.11,468,515.54Z"/><path class="cls-19" d="M463.68,491.54C452.32,509.67,437.46,516,423.63,517v-6s27.83-6,37.42-31.87C461,479.2,462,483.7,463.68,491.54Z"/></g><path class="cls-20" d="M573,685.82s-4.9.29-12.78.6c-3.54.15-7.66.31-12.24.44-7.35.2-15.83.38-24.71.4H512.82l-6-.11a41.35,41.35,0,0,1,19.66-8.44c21.62-2.21,23.83-8.06,23.83-8.06a22.91,22.91,0,0,0,20.3-9.49C572.19,665.32,573,685.82,573,685.82Z"/><path class="cls-20" d="M788.59,813.47H611.77S588.85,784.68,574.54,765l-2-2.83a132.77,132.77,0,0,1-8.31-12.67,9.06,9.06,0,0,1-.7-1.77c-1.4-4.43-1-11.89.15-20,2.9,7.51,7.6,14.82,14.77,14.24,14.39-1.17,33.74,16.74,50.35,13.62s44.88-6.47,48-22.3c0,0,1.55,5.2,7.86,2.86,0,0,42.07,5.62,77.81-14.37v.29c.64,3.78,1.26,7.52,1.9,11.29h0c.55,3.32,1.11,6.64,1.68,9.87q1,6,2.08,11.78c.62,3.43,1.24,6.8,1.91,10.08.93,4.76,1.88,9.3,2.9,13.59.77,3.3,1.57,6.45,2.39,9.39A96.27,96.27,0,0,0,781,804a28.53,28.53,0,0,0,4.92,7.42A12,12,0,0,0,788.59,813.47Z"/></g><path class="cls-14" d="M784.43,814.58H608.81s-22.76-28.59-37-48.12l-2-2.82a132,132,0,0,1-8.25-12.57,9.49,9.49,0,0,1-.7-1.76c-1.74-5.63-.75-15.77,1.21-26.24.59-3.25,1.29-6.6,2-9.74,3.21-14.1,7.15-26.39,7.15-26.39s-4.86.28-12.69.59c-3.52.16-7.61.31-12.16.44-7.3.2-15.73.38-24.55.4h-10.4c-10.66-.13-21.51-.51-31.31-1.3-3.19-.26-6.27-.55-9.2-.92a81.85,81.85,0,0,1-21.83-4.89c-2.93-1.29-5.55-4.39-7.88-9.12a87.9,87.9,0,0,1-6-17.33,285,285,0,0,1-5.92-32.39c-.62-4.6-1.17-9.33-1.67-14.1-.88-8.18-1.63-16.47-2.2-24.59q-.37-4.92-.66-9.7c-.48-7.58-.88-14.91-1.19-21.66-.13-3.32-.26-6.59-.37-9.52-.38-10-.55-18.21-.66-23.35v-5.94s27.64-5.92,37.16-31.65c0,0,1,4.4,2.69,12.25.68,3.3,1.47,7.19,2.35,11.61.73,3.74,1.52,7.83,2.31,12.23,1.32,6.93,2.68,14.65,4,22.94.55,3.27,1.08,6.59,1.63,10.09,1,6.36,1.94,13,2.84,19.79.39,3,.79,6.12,1.16,9.22.49,3.69.91,7.41,1.32,11.17s.79,7.28,1.15,11,.61,6.75.88,10.11c.15,1.89.3,3.76.44,5.65a46.76,46.76,0,0,1,7.19-.55,5.41,5.41,0,0,1,2.68.55c1.74,1.28,3,8.62,3,8.62l2.39-.48,8.8-1.76,17.13-3.3,8.8-1.63c4.4-.81,8.8-1.62,13.35-2.39l8.79-1.52c6.29-1,12.28-2,17.6-2.68,3.32-.46,6.33-.84,8.93-1.08l1.38-.13a97.79,97.79,0,0,1,16.32.46c34.72,3.25,96.43,18,126.78,19.79,13.19.79,21.44,23.62,27.82,52.91,1.71,7.88,3.3,16.23,4.84,24.74q1.24,7.07,2.44,14.19c.64,3.76,1.25,7.48,1.89,11.21h0c.55,3.3,1.1,6.6,1.67,9.81q1,6,2.07,11.7c.61,3.41,1.23,6.75,1.89,10,.92,4.73,1.87,9.23,2.88,13.5.77,3.28,1.56,6.4,2.37,9.32a95.89,95.89,0,0,0,5.68,15.79,28.21,28.21,0,0,0,4.88,7.37A11.67,11.67,0,0,0,784.43,814.58Z"/><path class="cls-5" d="M754.23,683.44l7-5.09s7.1,16.4,7.3,22.54a3.88,3.88,0,0,1-.17,1.55c-.78,2-3.9,11.38-6.85,20.19-.37,1.13-.75,2.22-1.1,3.32-1.84,5.56-3.48,10.48-4.19,12.58h0l-.11.33-.24.75s.33,3.48.75,8.86c.31,4,.64,9.08.91,14.66h0c.18,3.16.29,6.49.4,9.87v15.1c-.11,3.61-.29,7.07-.6,10.24-.69,7-2,12.62-4.08,15.13H523.34s-20-13.55-21.07-24.06a54.32,54.32,0,0,1,0-15.8h2.6l8.42.44,12.33-2.56,8.73-1.75c7.37-1.46,15.8-3.12,23.91-4.62,3-.56,5.93-1.08,8.74-1.58l3-.55,1.66-.29c4-.68,7.7-1.27,10.72-1.68a59.41,59.41,0,0,1,7.06-.69h37.33l9.37.11c5.2-.11,10.2-.29,14.68-.55l3.65-.23h0c2.63-.19,5-.42,7-.68a25,25,0,0,0,6-1.29,2.49,2.49,0,0,0,1.09-.68,5.29,5.29,0,0,1,.75-.82c3.61-3.32,9.19.24,9.19.24l.93-3.45,2.92-10.87h0l.14-.49,2-7.35.73-.53.55-.42h0"/><g class="cls-21"><g class="cls-18"><path class="cls-19" d="M768.54,700.89a40.1,40.1,0,0,1-9.48,7.46c-13.17,7.73-32.26,10.89-50.39,10.23l-2.79-.16,48.31-35,7-5.09S768.34,694.75,768.54,700.89Z"/><path class="cls-19" d="M760.41,726c-1.83,5.56-3.47,10.48-4.18,12.58h0a87.16,87.16,0,0,1-38.82,8.86,106.66,106.66,0,0,1-35-6.12l2-7.35.73-.53.56-.42h0C700.05,737.93,731.39,744.75,760.41,726Z"/><path class="cls-19" d="M758,783.85c-3.63.27-7.15.4-10.59.4-42.07,0-68.52-19.66-78.18-28.34,3.61-3.32,9.19.24,9.19.24l.93-3.45c12.22,9.59,39.1,25.37,78.65,22.25Z"/><path class="cls-19" d="M719.21,813.47H705.92c-2-1.71-4.2-3.5-6.64-5.4A312.42,312.42,0,0,1,650.79,759l3.65-.22h0c2.64-.2,5-.42,7-.69a301.41,301.41,0,0,0,43.38,43C710.57,805.72,715.33,809.82,719.21,813.47Z"/><path class="cls-19" d="M664,813.47h-10.5a278.45,278.45,0,0,1-26.79-53.74l9.48-.24A289.16,289.16,0,0,0,664,813.47Z"/><path class="cls-19" d="M621.39,813.47h-9.61a265.75,265.75,0,0,1-16-53.14h9A257,257,0,0,0,621.39,813.47Z"/><path class="cls-19" d="M583,813.47h-10a172.22,172.22,0,0,1-14.88-48.71c3-.6,5.94-1.15,8.75-1.69A164.72,164.72,0,0,0,583,813.47Z"/><path class="cls-19" d="M551.88,813.47H541.32a119.81,119.81,0,0,1-15.85-41.94l8.72-1.86A113.56,113.56,0,0,0,551.88,813.47Z"/><path class="cls-19" d="M527.1,813.47h-3.39s-20-13.55-21.07-24.06a54.32,54.32,0,0,1,0-15.8h2.22C505.75,783.79,510.71,798.12,527.1,813.47Z"/></g></g><path class="cls-14" d="M753.12,683.44l7-5.09s7.11,16.4,7.31,22.54a4.08,4.08,0,0,1-.18,1.55c-.78,2-3.9,11.38-6.84,20.19-.38,1.13-.75,2.22-1.11,3.32-1.84,5.56-3.48,10.48-4.18,12.58h0l-.11.33-.25.75s.33,3.48.75,8.86c.31,4,.65,9.08.91,14.66h0c.18,3.16.29,6.49.4,9.87v16.2c-.11,3.62-.29,7.08-.6,10.25-.69,7-2,12.62-4.08,15.13H522.23s-20-13.55-21.07-24.07a54.25,54.25,0,0,1,0-15.79h3.71l8.42.44,12.33-2.56,8.73-1.75c7.37-1.46,15.8-3.13,23.91-4.62,3-.57,5.93-1.09,8.74-1.59l3-.54,1.66-.29c4-.69,7.7-1.27,10.72-1.69a57.38,57.38,0,0,1,7.06-.68h37.33l9.37.11c5.2-.11,10.2-.29,14.68-.56l3.65-.22h0c2.63-.2,5-.42,7-.68a25.45,25.45,0,0,0,6-1.29,2.51,2.51,0,0,0,1.09-.69,5.22,5.22,0,0,1,.75-.81c3.61-3.33,9.19.24,9.19.24l.93-3.46,2.92-10.87h0l.14-.48,2-7.35.73-.54.55-.42h0"/><path class="cls-13" d="M708.23,625c11.2-.8,28.16-7.93,43.26,12.26s8.17,59.06,8.17,59.06-28.78,24.8-76,7.26S594.5,644.2,609,611.7C609,611.72,683.27,626.76,708.23,625Z"/><path class="cls-13" d="M624.2,643.5A57.81,57.81,0,0,0,614,605.7a77.93,77.93,0,0,0-15.14-17.07h0s59.78-69,58-26.57a77.66,77.66,0,0,0,29.83,64.34"/><path class="cls-9" d="M637.9,589.85S632.39,601.74,614,605.7a78.23,78.23,0,0,0-15.15-17.07Z"/><path class="cls-13" d="M640.6,588.58a87.16,87.16,0,0,1-53.71,8.64c-15.81-2.44-22.85-54.07-16.3-64a42.49,42.49,0,0,0,4.78-16.81c1-16.14,3.17-44.62,17.72-50.93,37.37-16.38,97.64-10.58,101.61,34.26,2.41,27.1-13.69,60.82-41.23,81"/><path class="cls-14" d="M606.68,500.35a17.72,17.72,0,0,1,21.13,8.86"/><path class="cls-14" d="M586.73,499.55a6.51,6.51,0,0,0-9.2,0l0,0"/><ellipse class="cls-9" cx="615.78" cy="525.19" rx="7.02" ry="3.76" transform="translate(-25.88 1018.43) rotate(-78.01)"/><ellipse class="cls-9" cx="583.32" cy="520.61" rx="7.02" ry="3.76" transform="translate(-47.11 983.06) rotate(-78.01)"/><path class="cls-14" d="M589.37,525.17s-4.08,8.59-11.87,9.19-1.46,13.28,4.61,15.5"/><path class="cls-14" d="M583.32,562.77s-1.72,7.77,4.61,9.43a10,10,0,0,0,2.61.31c5.74,0,11.36-3.41,14.88-6a37.55,37.55,0,0,0,3.61-3.05c-8.41,1.86-19.68.4-25.71-.64-2.61-.45-4.23-.82-4.23-.82"/><path class="cls-16" d="M624.2,466.74s-15.35,37.42,22.54,74.35c0,0,5.53,36.51,0,70-8.86,53.76,29.07,49.67,29.07,49.67s-31.24,0-19-42.93c7.26-25.4,22.56-55.91,22.56-55.91s38.11-49.64,15.5-83.23-124.57-38.35-120.94,8.63C573.89,487.35,596.32,463.37,624.2,466.74Z"/><path class="cls-16" d="M690.27,523.31s5.47,28-8.44,63.5-10.18,56.42,0,56.69,31.58-33.75,46.06-20.26a22.68,22.68,0,0,0-16.74,5.38c-8.62,6.79-25.11,29.36-38.68,24.55s-11.61-18.31-4-50.15a129.79,129.79,0,0,0,.29-58.65Z"/><path class="cls-22" d="M666.36,546.25a64.75,64.75,0,0,0,5.73,3.67"/><path class="cls-22" d="M633.36,461.64c-1.61,28.3,5,59.3,27.17,79.87"/><path class="cls-22" d="M699.79,559.56a59.66,59.66,0,0,0,6.64,2.39"/><path class="cls-22" d="M656.77,499.55c3.83,22.14,16.47,45,36.18,56.55"/><path class="cls-22" d="M605.75,462.07c-22.45,2.05-50.41,11.8-47.07,39.41"/><path class="cls-22" d="M622.89,461.64q-5.62-.27-11.25,0"/><path class="cls-22" d="M656.57,582.94c-.47,19.93-11.54,39.85-3.9,62"/><path class="cls-22" d="M656.81,562a122,122,0,0,1,.13,13.79"/><path class="cls-22" d="M671.89,605.08c-.8,3.68-1.68,7.35-2.66,11.07"/><path class="cls-22" d="M677.6,565.6A299.05,299.05,0,0,1,673.48,597"/><path class="cls-22" d="M719.56,614.38a71.85,71.85,0,0,1,14.64,8.86"/><path class="cls-22" d="M684.42,565.6c-2.57,21.3,10.37,36.62,28.52,45.55"/><path class="cls-9" d="M609,563.41a37.55,37.55,0,0,1-3.61,3.05c-12.6-1.1-17.49,5.74-17.49,5.74-6.33-1.66-4.61-9.43-4.61-9.43C589.35,563.81,600.62,565.22,609,563.41Z"/><path class="cls-14" d="M635.51,667.83s6.75-9.28,11.4-9.19,47.3-9.19,61.76-20.15"/><path class="cls-14" d="M615.76,621.84s-4.43,14.11,1.48,24.8,11.08,10.67,10.57,21.19"/><path class="cls-14" d="M696.84,678.35c4.43-.45,0,29.2,0,29.2"/><path class="cls-14" d="M573,685.5s1.66-24.69-7.55-34.34"/><path class="cls-14" d="M544.2,665.06s16,15.5,28.94,16.14"/><path class="cls-14" d="M494.47,624.76a63.13,63.13,0,0,0-5.36,29"/><path class="cls-14" d="M481.54,616.15S468,620,462.18,631.05"/><path class="cls-14" d="M675.81,723.25s-.29,26.57,3.56,29.45"/><path class="cls-14" d="M678.44,756.15s13.95,6.65,17.72,16.79"/><path class="cls-14" d="M603,610.62s-11.25,17.71,0,47.25"/><path class="cls-14" d="M768.36,702.5s-17.05,24.36-46.25,20.82"/></g><g id="freepik--Device--inject-2"><path class="cls-23" d="M410.22,810.15H306.9a8.59,8.59,0,0,1-7.8-5.21l-24.74-73.73c-1-2.88,1-5.2,4.37-5.2H382a8.57,8.57,0,0,1,7.81,5.2l24.69,73.73C415.49,807.81,413.57,810.15,410.22,810.15Z"/><path class="cls-3" d="M405.8,814.58H302.48a8.61,8.61,0,0,1-7.81-5.21l-24.74-73.73c-1-2.88,1-5.2,4.37-5.2H377.6a8.57,8.57,0,0,1,7.81,5.2l24.69,73.73C411.07,812.24,409.14,814.58,405.8,814.58Z"/><path class="cls-5" d="M281.71,782.47h0a2,2,0,0,0-1.49.91L262.91,810.3a2,2,0,0,0,1.73,3.17H397.06v-31Z"/><g class="cls-24"><path class="cls-3" d="M281.71,782.47h0a2,2,0,0,0-1.49.91L262.91,810.3a2,2,0,0,0,1.73,3.17H397.06v-31Z"/></g><path class="cls-7" d="M280.6,783.58h0a1.9,1.9,0,0,0-1.48.91L261.8,811.41a2,2,0,0,0,.57,2.82,2.06,2.06,0,0,0,1.16.35H396v-31Z"/><path class="cls-5" d="M406.14,813.47H379.73A2,2,0,0,1,378,810.3l17.27-26.74A2.07,2.07,0,0,1,399,784l9.16,26.73a2.08,2.08,0,0,1-1.33,2.62A2.31,2.31,0,0,1,406.14,813.47Z"/><g class="cls-25"><path class="cls-3" d="M406.14,813.47H379.73A2,2,0,0,1,378,810.3l17.27-26.74A2.07,2.07,0,0,1,399,784l9.16,26.73a2.08,2.08,0,0,1-1.33,2.62A2.31,2.31,0,0,1,406.14,813.47Z"/></g><path class="cls-7" d="M406.14,814.58H379.73a2,2,0,0,1-2.07-2,2,2,0,0,1,.34-1.16l17.27-26.75a2.06,2.06,0,0,1,2.85-.6,2.09,2.09,0,0,1,.83,1.07l9.16,26.72a2.07,2.07,0,0,1-1.33,2.62A2,2,0,0,1,406.14,814.58Z"/></g><g id="freepik--Plant--inject-2"><path class="cls-26" d="M862.89,768.66s4.89-42.58,21.17-79.51,1.61-44.82-7.09-35.58-18.27,43.86-18.27,43.86,4.43-36.27,2.57-55.58c-2.57-28.29-7-50.41-19.93-46.91-15.05,4,6.34,58.63.67,115.93,0,0-19.93-31.57-26.88-58.56S790.2,637,796.44,661.16,826.82,698.8,836.16,725c0,0-31-28.79-41-17.45-5.6,6.38,8.57,11.07,14.71,13.93,29.78,14.26,37.42,49.93,37.42,49.93Z"/><path class="cls-27" d="M862.89,768.66s4.89-42.58,21.17-79.51,1.61-44.82-7.09-35.58-18.27,43.86-18.27,43.86,4.43-36.27,2.57-55.58c-2.57-28.29-7-50.41-19.93-46.91-15.05,4,6.34,58.63.67,115.93,0,0-19.93-31.57-26.88-58.56S790.2,637,796.44,661.16,826.82,698.8,836.16,725c0,0-31-28.79-41-17.45-5.6,6.38,8.57,11.07,14.71,13.93,29.78,14.26,37.42,49.93,37.42,49.93Z"/><path class="cls-28" d="M844.8,759.47S847.26,714.92,831,678s-1.75-39.86,7-30.58,15.34,57.06,15.34,57.06,7.64-42.84,4.16-72.45-3.23-46.27,8.86-46.27c15.5,0,11.93,72.49-.66,115.93,0,0,19.92-31.57,26.88-58.56s24.93-15.3,18.68,8.85-30.37,37.64-39.72,63.84c0,0,31-28.79,41-17.45,5.6,6.38-8.57,11.07-14.7,13.93-29.78,14.26-37.42,49.93-37.42,49.93Z"/><path class="cls-14" d="M839.24,676.13c13.79,31.18,14.59,76.61,14.59,76.61s18.16-90.29,13.6-128.42"/><path class="cls-14" d="M898.91,658.24S878.63,701,860.08,717.42"/><path class="cls-14" d="M898.91,704.34s-34.27,22-42.69,35.56"/><path class="cls-9" d="M929.94,758.75l-2.22,13.34-.49,2.85-8.12,45.79H792.74l-7.48-42.83-.49-2.78-2.84-16.37a3.82,3.82,0,0,1,3.15-4.4,4.07,4.07,0,0,1,.61-.05H926.21a3.81,3.81,0,0,1,3.79,3.82A3.36,3.36,0,0,1,929.94,758.75Z"/><g class="cls-29"><g class="cls-18"><path class="cls-19" d="M927.32,772.4l-.49,2.84a12.21,12.21,0,0,0-4.56,3.36c-15.72,17.94-28.78,13.29-43.59.64-12.82-10.93-19.51-4.78-29.65,4.43-1.77,1.64-3.63,3.35-5.63,5.07-4.09,3.5-7.48,4.9-10.58,4.9-5.27,0-9.61-4.12-14.88-9.1a124.91,124.91,0,0,0-9.59-8.35c-6.64-5.14-15.5-2.22-22.78,2l-.49-2.77c7.86-4.43,17.23-7.11,24.82-1.29a115,115,0,0,1,9.79,8.66c8.5,8,12.75,12.07,22.14,4.1,2-1.69,3.81-3.37,5.56-5,10.32-9.5,18.51-17,33-4.63,16.79,14.3,27.28,14.21,40-.36A14.14,14.14,0,0,1,927.32,772.4Z"/></g></g></g></svg>