<svg id="Capa_1" data-name="Capa 1" xmlns="http://www.w3.org/2000/svg" xmlns:xlink="http://www.w3.org/1999/xlink" viewBox="0 0 1000 1000"><defs><style>.cls-1,.cls-26,.cls-27,.cls-6,.cls-8,.cls-9{fill:none;}.cls-2,.cls-7{fill:#d3d3d3;}.cls-3,.cls-4{fill:#fff;}.cls-3{opacity:0.5;isolation:isolate;}.cls-15,.cls-19,.cls-25,.cls-26,.cls-27,.cls-28,.cls-4,.cls-5,.cls-7,.cls-8{stroke:#263238;}.cls-15,.cls-19,.cls-25,.cls-26,.cls-27,.cls-28,.cls-4,.cls-5,.cls-6,.cls-7,.cls-8,.cls-9{stroke-linecap:round;stroke-linejoin:round;}.cls-15,.cls-19,.cls-4,.cls-5,.cls-7,.cls-8{stroke-width:2.28px;}.cls-25,.cls-29,.cls-5{fill:#263238;}.cls-6,.cls-9{stroke:#fff;}.cls-6{stroke-width:4.56px;}.cls-9{stroke-width:1.71px;}.cls-10{fill:#99c95b;}.cls-11{clip-path:url(#clip-path);}.cls-12{fill:#ba68c8;}.cls-13{fill:#f2b255;}.cls-14{clip-path:url(#clip-path-2);}.cls-15{fill:#e8ab79;}.cls-16{fill:#916f4e;}.cls-17{clip-path:url(#clip-path-3);}.cls-18{fill:#84705d;}.cls-19{fill:#a88556;}.cls-20{clip-path:url(#clip-path-4);}.cls-21{clip-path:url(#clip-path-5);}.cls-22{fill:#cc9369;}.cls-23{clip-path:url(#clip-path-6);}.cls-24{fill:#222220;}.cls-25,.cls-26,.cls-28{stroke-width:1.23px;}.cls-27{stroke-width:2.46px;}.cls-28{fill:#ce6b51;}</style><clipPath id="clip-path"><path class="cls-1" d="M751.34,415.44s-20.67-3.67-30.78,1.83-68.45,49.15-68.45,49.15L602.5,428.77v24.35S637,494.46,647.06,497.2s80.85-36.28,80.85-36.28-2.74,38.13,1.85,46.39,26.65,15.17,44.56,23,36.76,29.41,47.78,34.45,19.77,3.68,27.57-17.91S847.82,511,845.11,505a521.47,521.47,0,0,0-36.31-57.89C793.17,426,751.34,415.44,751.34,415.44Z"/></clipPath><clipPath id="clip-path-2"><path class="cls-1" d="M288,396.69s-11.41-4-32.7,16.54-42.39,41.07-55.72,64.19-19.78,57-21.38,77.58a35.27,35.27,0,0,0,45.64,35.6c16-4.7,69.3-76.76,77.76-88.08s17-25.42,17-25.42,44.4,41.57,60.56,48.83,41.71,2.33,41.71,2.33l1.21-27.39s-23.82-4-25.83-5.24-36.33-40-54.1-61.36-29.87-34.71-38.8-37.95A19.4,19.4,0,0,0,288,396.69Z"/></clipPath><clipPath id="clip-path-3"><path class="cls-1" d="M294.48,384.18S286,394.27,280,400.31s-8.88,6.07-8.88,17.78S276,460,283.3,461.6s37-42.3,37-42.3l-10.5-40.37S298.52,378.52,294.48,384.18Z"/></clipPath><clipPath id="clip-path-4"><path class="cls-1" d="M201.81,502.86s47.92,87.19,58.94,105S283,627.2,289.41,627.2s139.67-18.26,139.67-18.26V599s-66.17-3.21-85.18-7.25-47.24-5.66-47.24-5.66-26.24-76.76-36.73-91.71a44.57,44.57,0,0,0-25.83-17.75"/></clipPath><clipPath id="clip-path-5"><path class="cls-1" d="M768.15,469.64l-65.72,75.3L606,573.89s-25.71-2.28-31.69-2.76-10.57,4.13-14.24,7.81-12.87,6.84-11,9.65,5,1.39,11-.46,10.11-2.76,10.11-2.76-19.76,18.39-24.81,23.44-4.15,7.8-.93,7.8,20.67-16,20.67-16a127.26,127.26,0,0,0-8.71,11.41c-3.22,5-7.83,9.12-4.57,10.1s16.54-11.4,16.54-11.4l6.44-4.16s-10.57,12-8.26,13.33,12.39-8.72,12.39-8.72,16.54-5.52,21.13-11,7.37-9.13,7.37-9.13,51.91-9.65,71.19-12.87,41.83-6,50.09-13.32,73.5-69.37,76.72-77.58"/></clipPath><clipPath id="clip-path-6"><path class="cls-1" d="M699.69,338.7a48.67,48.67,0,0,0-4.15,23.44c1.39,12,1.85,17.91-.46,21.13s-6,1.85-5.5,7.83,7.81,8.26,7.81,8.26,10.1,19.76,13.69,23.89,8.71,2.28,12.87.45,12.39-6,12.39-6,10.56,27.57,15.63,34,9.13-2.28,10.56-9.65,2.28-23.89,0-29.39-8.74-19.76-8.74-19.76,13.33-1.82,21.61-19.76-9.13-41.35-34.45-46.85S702.43,332.27,699.69,338.7Z"/></clipPath></defs><g id="freepik--background-simple--inject-2"><path class="cls-2" d="M840.71,260.48S746.54,136.46,565.13,120s-231.38,103.1-294.22,164.3S76.66,390.46,66.64,538.39,136.65,761,248.05,758s145.69,22.43,240,73.22,251.39,29.87,325.67-46.32S943.73,671.37,959.36,529.35,840.71,260.48,840.71,260.48Z"/></g><g id="freepik--Icon--inject-2"><path class="cls-3" d="M675.91,678.69a58,58,0,0,0-35.07,11.75L401.66,495.12A58.06,58.06,0,0,0,403,447.86L638.26,276.72A58.2,58.2,0,1,0,622,254.41L386.74,425.54a58.33,58.33,0,1,0-2.56,91L623.36,711.89a58.24,58.24,0,1,0,52.49-33.2Z"/></g><g id="freepik--device-1--inject-2"><path class="cls-4" d="M248.18,294.6l61.2,419.51c.8,5.53-141.66,56.66-147,58.3l-12.48.67c-8.07.2-13.69-3.18-14.69-10.11L76.7,318.49a8.83,8.83,0,0,1,7.55-9.93L238.3,287.09A8.85,8.85,0,0,1,248.18,294.6Z"/><path class="cls-5" d="M265.68,292.29l61.16,419.52A11.41,11.41,0,0,1,319,724.27l-151.6,46.52a11.41,11.41,0,0,1-14.18-7.7,11.55,11.55,0,0,1-.36-1.65L94.16,316.18a8.84,8.84,0,0,1,7.57-9.92l153.91-21.48A8.88,8.88,0,0,1,265.68,292.29Z"/><line class="cls-6" x1="228.99" y1="727.74" x2="262.69" y2="716.51"/><polygon class="cls-7" points="253.82 303.33 115.97 326.77 168.82 731.98 309.4 688.33 253.82 303.33"/></g><g id="freepik--device-2--inject-2"><path class="cls-4" d="M804.2,294.6,742.89,714.11c-.8,5.53,141.65,56.66,147,58.3l12.48.67c8.08.2,13.7-3.18,14.7-10.11l58.51-444.48a8.84,8.84,0,0,0-7.58-9.93L814.08,287.09A8.85,8.85,0,0,0,804.2,294.6Z"/><path class="cls-5" d="M786.63,292.29l-61.2,419.52a11.42,11.42,0,0,0,7.87,12.46l151.61,46.52a11.36,11.36,0,0,0,14.53-9.35l58.67-445.26a8.85,8.85,0,0,0-7.58-9.92L796.62,284.78A8.88,8.88,0,0,0,786.63,292.29Z"/><line class="cls-6" x1="783.18" y1="713.29" x2="815.29" y2="723.72"/><polygon class="cls-7" points="798.45 303.33 936.29 326.77 883.45 731.98 742.86 688.33 798.45 303.33"/></g><g id="freepik--Photo--inject-2"><path class="cls-8" d="M178,494c8-10.29,18.48-16.54,30-16.54,25.1,0,45.41,29.8,45.41,66.58,0,31.28-14.74,57.55-34.59,64.67"/><path class="cls-8" d="M167.7,513.11a74.63,74.63,0,0,1,5.84-12.6"/><path class="cls-8" d="M207.93,610.56c-25.1,0-45.39-29.82-45.39-66.58a94.65,94.65,0,0,1,2.86-23.34"/><path class="cls-8" d="M858.55,487.18c-8-10.29-18.48-16.54-30-16.54-25.1,0-45.38,29.8-45.38,66.58,0,31.29,14.71,57.55,34.57,64.67"/><path class="cls-8" d="M868.82,506.26a74.22,74.22,0,0,0-5.84-12.6"/><path class="cls-8" d="M828.59,603.72c25.1,0,45.41-29.83,45.41-66.59a94.66,94.66,0,0,0-2.87-23.34"/><path class="cls-5" d="M776.41,314.81s18.82-27.11,49.15-18.37,46,29.39,43.65,51-7.81,47.33,7.35,52.83,37.67-2.28,50.2,15.17S944.21,460,926.3,483s-57.55,29-87.42,11.07-51-40.89-51.45-74,9.12-48.24,6.84-67.08-7.34-20.22-7.34-20.22Z"/><path class="cls-9" d="M821,343.43c7.49,16.29-5.77,51.57-6.84,65.65-3.09,38.38,12.27,71.37,54.49,78.26s59.07-27.61,54.49-44.49c-3.27-11.94-21.5-8.45-23,7.66s13.81,7.67,14.58,4.57"/><path class="cls-9" d="M781.86,335.49s17-8.54,32.68,1.07"/><path class="cls-9" d="M884.06,463.64a43.56,43.56,0,0,0,7.44-3.09"/><path class="cls-9" d="M776.47,332.41s24.56-19.19,52.19-12.28,29.16,44.5,19.19,67.52-14.58,51.43,2.28,69.07a29.11,29.11,0,0,0,24.46,8.85"/><path class="cls-10" d="M751.34,415.44s-20.67-3.67-30.78,1.83-68.45,49.15-68.45,49.15L602.5,428.77v24.35S637,494.46,647.06,497.2s80.85-36.28,80.85-36.28-2.74,38.13,1.85,46.39,26.65,15.17,44.56,23,36.76,29.41,47.78,34.45,19.77,3.68,27.57-17.91S847.82,511,845.11,505a521.47,521.47,0,0,0-36.31-57.89C793.17,426,751.34,415.44,751.34,415.44Z"/><g class="cls-11"><path class="cls-12" d="M819.46,543.39c-6.57-8,3.65-18.26,11.68-24.81s-35.76-1.46-37.95-5.11,9.5-10.22,16-16-19.29,6.41-34.23-2.28-24.07-5.75-24.07-5.75,16-21.89,19.69-35-2.28-15.31-2.28-15.31L764,420.3c-8.61-3.17-14.93-4.77-14.93-4.77s-20.67-3.67-30.78,1.83-68.45,49.15-68.45,49.15l-49.61-37.65v24.35s34.45,41.34,44.56,44.08S725.63,461,725.63,461s-2.74,38.13,1.85,46.39,26.65,15.18,44.56,23,36.76,29.41,47.78,34.45c9,4.11,16.43,4,23.09-7.84C835.84,552.44,823.68,548.5,819.46,543.39Z"/><path class="cls-10" d="M819.46,543.39c-6.57-8,3.65-18.26,11.68-24.81s-35.76-1.46-37.95-5.11,9.5-10.22,16-16-19.29,6.41-34.23-2.28-24.07-5.75-24.07-5.75,16-21.89,19.69-35-2.28-15.31-2.28-15.31L764,420.3c-8.61-3.17-14.93-4.77-14.93-4.77s-20.67-3.67-30.78,1.83-68.45,49.15-68.45,49.15l-49.61-37.65v24.35s34.45,41.34,44.56,44.08S725.63,461,725.63,461s-2.74,38.13,1.85,46.39,26.65,15.18,44.56,23,36.76,29.41,47.78,34.45c9,4.11,16.43,4,23.09-7.84C835.84,552.44,823.68,548.5,819.46,543.39Z"/></g><path class="cls-8" d="M750.2,415.44s-20.67-3.67-30.78,1.83S651,466.42,651,466.42l-49.61-37.65v24.35s34.45,41.34,44.56,44.08,80.85-36.28,80.85-36.28-2.74,38.13,1.85,46.39,26.65,15.17,44.56,23S809.94,559.7,821,564.74s19.76,3.68,27.57-17.91S846.68,511,844,505a519.92,519.92,0,0,0-36.3-57.89C792,426,750.2,415.44,750.2,415.44Z"/><path class="cls-8" d="M791,503.82s18.25-1.14,30.8-8"/><path class="cls-8" d="M785.31,508.38s25.1,3.42,44.49,0"/><polyline class="cls-8" points="704.3 444.49 726.78 460.92 687.19 450.19"/><path class="cls-5" d="M742.11,420s-3.9,18.64,2.28,31.06,15.52,15.54,22.52,6.23,8.54-31.95-3.88-38.07S744.44,416.86,742.11,420Z"/><path class="cls-13" d="M288,396.69s-11.41-4-32.7,16.54-42.39,41.07-55.72,64.19-19.78,57-21.38,77.58a35.27,35.27,0,0,0,45.64,35.6c16-4.7,69.3-76.76,77.76-88.08s17-25.42,17-25.42,44.4,41.57,60.56,48.83,41.71,2.33,41.71,2.33l1.21-27.39s-23.82-4-25.83-5.24-36.33-40-54.1-61.36-29.87-34.71-38.8-37.95A19.4,19.4,0,0,0,288,396.69Z"/><g class="cls-14"><path class="cls-12" d="M342.1,434.22c-12.89-15.51-22.82-26.76-30.64-33l-1.69.23C285,406.13,271,450.33,271,450.33a313.5,313.5,0,0,1-3.36,31.47c-2,9.38-21.42-19.42-21.42-12.05s14.05,20.77,16,23.43-6-2-10-3.33-15.4,33.48-19.42,40.16-49.56,23.46-46.21,28.14,29.46-6,29.46-6-6.71,8.72-22.11,16.75a25.78,25.78,0,0,0-9.31,8.2,34.69,34.69,0,0,0,39.39,13.46c16-4.7,69.3-76.76,77.76-88.08s17-25.42,17-25.42,44.4,41.57,60.56,48.83,41.64,2.4,41.64,2.4l1.21-27.39s-23.82-4-25.83-5.24S359.88,455.63,342.1,434.22Z"/><path class="cls-13" d="M342.1,434.22c-12.89-15.51-22.82-26.76-30.64-33l-1.69.23C285,406.13,271,450.33,271,450.33a313.5,313.5,0,0,1-3.36,31.47c-2,9.38-21.42-19.42-21.42-12.05s14.05,20.77,16,23.43-6-2-10-3.33-15.4,33.48-19.42,40.16-49.56,23.46-46.21,28.14,29.46-6,29.46-6-6.71,8.72-22.11,16.75a25.78,25.78,0,0,0-9.31,8.2,34.69,34.69,0,0,0,39.39,13.46c16-4.7,69.3-76.76,77.76-88.08s17-25.42,17-25.42,44.4,41.57,60.56,48.83,41.64,2.4,41.64,2.4l1.21-27.39s-23.82-4-25.83-5.24S359.88,455.63,342.1,434.22Z"/></g><path class="cls-8" d="M288,396.69s-11.41-4-32.7,16.54-42.39,41.07-55.72,64.19-19.78,57-21.38,77.58a35.27,35.27,0,0,0,45.64,35.6c16-4.7,69.3-76.76,77.76-88.08s17-25.42,17-25.42,44.4,41.57,60.56,48.83,41.71,2.33,41.71,2.33l1.21-27.39s-23.82-4-25.83-5.24-36.33-40-54.1-61.36-29.87-34.71-38.8-37.95A19.4,19.4,0,0,0,288,396.69Z"/><path class="cls-8" d="M197.73,526.64a23.39,23.39,0,0,0,22.82-2.29"/><path class="cls-8" d="M186.32,543.75s29.67,1.14,43.36-17.11"/><polyline class="cls-8" points="347.19 461.6 318.69 477.03 355.18 473.01"/><path class="cls-5" d="M283.44,392.88s-20.93,10.83-21.7,19.37-2.1,22.45,3.3,37.95,15.29,26.35,19.95,25.57,17.82-13.94,19.37-44.17S296.6,392.88,283.44,392.88Z"/><rect class="cls-5" x="405.12" y="362.66" width="232.75" height="239.59"/><rect class="cls-4" x="416.53" y="374.07" width="212.21" height="219.06"/><path class="cls-7" d="M628.74,382.3c-35.11,15-27.11,55.29-54.1,84.25-30.86,33.09-67.43,3.42-121.15,36.51a105.65,105.65,0,0,0-37,39.86v50.2H628.74Z"/><circle class="cls-7" cx="447.82" cy="406.27" r="26.81"/><path class="cls-15" d="M546.15,358.62s-4-2.41-6.46.8-5.64,8.49-4.43,11.41,5.25-2.42,7.67-5.25A9.83,9.83,0,0,0,546.15,358.62Z"/><path class="cls-15" d="M552.63,357.42a3.87,3.87,0,0,0-5.48-.25,3.71,3.71,0,0,0-1,1.45c-2.42,4.84-1.21,16.14.82,17.35s3.21.82,4.83-5.25S554.22,362.25,552.63,357.42Z"/><path class="cls-15" d="M559.08,357.12a3.86,3.86,0,0,0-6.45,1.21c-2.45,4.84-1.24,16.15.79,17.36s3.22.8,4.84-5.25S560.68,361.84,559.08,357.12Z"/><path class="cls-15" d="M565.54,356.59a3.89,3.89,0,0,0-6.46,1.21c-2.44,4.86-1.21,16.16.8,17.37s3.22.8,4.84-5.25S567.14,361.45,565.54,356.59Z"/><line class="cls-8" x1="578.84" y1="611.16" x2="587.15" y2="604.58"/><path class="cls-16" d="M294.48,384.18S286,394.27,280,400.31s-8.88,6.07-8.88,17.78S276,460,283.3,461.6s37-42.3,37-42.3l-10.5-40.37S298.52,378.52,294.48,384.18Z"/><g class="cls-17"><path class="cls-12" d="M300.39,417.52c-2.53,17.66-10.38,28.77-20.81,40.64a6.82,6.82,0,0,0,3.72,3.44c7.28,1.62,37-42.3,37-42.3l-7.05-27.16-5.5-4.76A137,137,0,0,0,300.39,417.52Z"/><path class="cls-18" d="M300.39,417.52c-2.53,17.66-10.38,28.77-20.81,40.64a6.82,6.82,0,0,0,3.72,3.44c7.28,1.62,37-42.3,37-42.3l-7.05-27.16-5.5-4.76A137,137,0,0,0,300.39,417.52Z"/></g><path class="cls-8" d="M294.48,384.18S286,394.27,280,400.31s-8.88,6.07-8.88,17.78S276,460,283.3,461.6s37-42.3,37-42.3l-10.5-40.37S298.52,378.52,294.48,384.18Z"/><path class="cls-19" d="M427.85,599,448,584.46a17.3,17.3,0,0,1,17.77-2,175.33,175.33,0,0,0,18.26,5.25c1.21,0,.41,2.83-3.24,4s-9.29.41-13.3,0a14.63,14.63,0,0,0-7.69,1.62s18.57,3.22,23.41,4.84,11.73,4.44,9.7,6.45a17.84,17.84,0,0,1-6.05,4.45c-1.62.39-4.57-1.62-9.7.8s-16.15,5.66-21.4,5.66-27.84-6.46-27.84-6.46Z"/><path class="cls-13" d="M201.81,502.86s47.92,87.19,58.94,105S283,627.2,289.41,627.2s139.67-18.26,139.67-18.26V599s-66.17-3.21-85.18-7.25-47.24-5.66-47.24-5.66-26.24-76.76-36.73-91.71a44.57,44.57,0,0,0-25.83-17.75"/><g class="cls-20"><path class="cls-12" d="M296.66,586s-26.24-76.69-36.73-91.64c-.64-.91-1.3-1.78-2-2.62,2.28,8.42,8.72,31.24,12.48,43.63,4.7,15.4,10.73,23.45,6.71,24.78S245,530.7,249,542.75s38.17,37.51,38.17,40.18-15.4,4-8,8,20.76,2.69,20.76,2.69-18.75,9.38-12.73,11.41,23.44-10.72,26.79-10.72c2.88,0,73.61,10.91,101.88,16.5l13.24-1.78V599s-66.17-3.21-85.18-7.25S296.66,586,296.66,586Z"/><path class="cls-13" d="M296.66,586s-26.24-76.69-36.73-91.64c-.64-.91-1.3-1.78-2-2.62,2.28,8.42,8.72,31.24,12.48,43.63,4.7,15.4,10.73,23.45,6.71,24.78S245,530.7,249,542.75s38.17,37.51,38.17,40.18-15.4,4-8,8,20.76,2.69,20.76,2.69-18.75,9.38-12.73,11.41,23.44-10.72,26.79-10.72c2.88,0,73.61,10.91,101.88,16.5l13.24-1.78V599s-66.17-3.21-85.18-7.25S296.66,586,296.66,586Z"/></g><path class="cls-8" d="M200.67,502.86s47.92,87.19,58.94,105,22.2,19.38,28.66,19.38,139.67-18.26,139.67-18.26V599s-66.17-3.21-85.18-7.25-47.24-5.66-47.24-5.66-26.24-76.76-36.73-91.71A44.56,44.56,0,0,0,233,476.62"/><path class="cls-10" d="M768.15,469.64l-65.72,75.3L606,573.89s-25.71-2.28-31.69-2.76-10.57,4.13-14.24,7.81-12.87,6.84-11,9.65,5,1.39,11-.46,10.11-2.76,10.11-2.76-19.76,18.39-24.81,23.44-4.15,7.8-.93,7.8,20.67-16,20.67-16a127.26,127.26,0,0,0-8.71,11.41c-3.22,5-7.83,9.12-4.57,10.1s16.54-11.4,16.54-11.4l6.44-4.16s-10.57,12-8.26,13.33,12.39-8.72,12.39-8.72,16.54-5.52,21.13-11,7.37-9.13,7.37-9.13,51.91-9.65,71.19-12.87,41.83-6,50.09-13.32,73.5-69.37,76.72-77.58"/><g class="cls-21"><path class="cls-12" d="M728.56,528.78c-2.29-.48,11.41-22.82,21.38-38.26L702.43,545,606,573.89l-20.26-1.78c.34,2.08.57,3.34.57,3.34L595,590.78s100.7-32.86,105.08-32.86,4.38,1.46,9.49,2.92.73-5.84.73-5.84a112.32,112.32,0,0,0,20.43-4.38c8-2.92-19-2.28-14.58-4.38s44.51-24.81,53.25-40.14S732.21,529.51,728.56,528.78Z"/><path class="cls-10" d="M728.56,528.78c-2.29-.48,11.41-22.82,21.38-38.26L702.43,545,606,573.89l-20.26-1.78c.34,2.08.57,3.34.57,3.34L595,590.78s100.7-32.86,105.08-32.86,4.38,1.46,9.49,2.92.73-5.84.73-5.84a112.32,112.32,0,0,0,20.43-4.38c8-2.92-19-2.28-14.58-4.38s44.51-24.81,53.25-40.14S732.21,529.51,728.56,528.78Z"/></g><path class="cls-8" d="M768.15,469.64l-65.72,75.3L606,573.89s-25.71-2.28-31.69-2.76-10.57,4.13-14.24,7.81-12.87,6.84-11,9.65,5,1.39,11-.46,10.11-2.76,10.11-2.76-19.76,18.39-24.81,23.44-4.15,7.8-.93,7.8,20.67-16,20.67-16a127.26,127.26,0,0,0-8.71,11.41c-3.22,5-7.83,9.12-4.57,10.1s16.54-11.4,16.54-11.4l6.44-4.16s-10.57,12-8.26,13.33,12.39-8.72,12.39-8.72,16.54-5.52,21.13-11,7.37-9.13,7.37-9.13,51.91-9.65,71.19-12.87,41.83-6,50.09-13.32,73.5-69.37,76.72-77.58"/><path class="cls-15" d="M560,579c-3.67,3.68-12.87,6.85-11,9.65s5,1.4,11-.45,10.11-2.76,10.11-2.76-19.76,18.39-24.8,23.43-4.16,7.81-.94,7.81,20.67-16,20.67-16a130.18,130.18,0,0,0-8.71,11.41c-3.22,5-7.83,9.13-4.57,10.11s16.55-11.41,16.55-11.41l6.43-4.15s-10.56,12-8.26,13.32,12.39-8.71,12.39-8.71,16.55-5.52,21.13-11,7.37-9.13,7.37-9.13l-1.39-17s-25.72-2.28-31.69-2.76S563.69,575.31,560,579Z"/><path class="cls-22" d="M699.69,338.7a48.67,48.67,0,0,0-4.15,23.44c1.39,12,1.85,17.91-.46,21.13s-6,1.85-5.5,7.83,7.81,8.26,7.81,8.26,10.1,19.76,13.69,23.89,8.71,2.28,12.87.45,12.39-6,12.39-6,10.56,27.57,15.63,34,9.13-2.28,10.56-9.65,2.28-23.89,0-29.39-8.74-19.76-8.74-19.76,13.33-1.82,21.61-19.76-9.13-41.35-34.45-46.85S702.43,332.27,699.69,338.7Z"/><g class="cls-23"><path class="cls-12" d="M747.54,395.91s-4.38,12.39-6.57,15.31-20.54,10.22-27.73,5.84-11-17.5-10.22-28.45-3.65-23.37,5.84-28.48,27-1.46,27-1.46l19.71-8-43.79-13.14s-6.34,2.28-13.82,5.57a45.49,45.49,0,0,0-2.42,19c1.39,12,1.85,17.91-.46,21.13s-6,1.85-5.5,7.83,7.81,8.26,7.81,8.26,10.1,19.76,13.69,23.89,8.71,2.28,12.87.45,12.39-6,12.39-6,10.56,27.56,15.63,34c2.39,3,4.56,2.67,6.34.68C755.09,433.72,747.54,395.91,747.54,395.91Z"/><path class="cls-22" d="M747.54,395.91s-4.38,12.39-6.57,15.31-20.54,10.22-27.73,5.84-11-17.5-10.22-28.45-3.65-23.37,5.84-28.48,27-1.46,27-1.46l19.71-8-43.79-13.14s-6.34,2.28-13.82,5.57a45.49,45.49,0,0,0-2.42,19c1.39,12,1.85,17.91-.46,21.13s-6,1.85-5.5,7.83,7.81,8.26,7.81,8.26,10.1,19.76,13.69,23.89,8.71,2.28,12.87.45,12.39-6,12.39-6,10.56,27.56,15.63,34c2.39,3,4.56,2.67,6.34.68C755.09,433.72,747.54,395.91,747.54,395.91Z"/></g><path class="cls-8" d="M699.69,338.7a48.67,48.67,0,0,0-4.15,23.44c1.39,12,1.85,17.91-.46,21.13s-6,1.85-5.5,7.83,7.81,8.26,7.81,8.26,10.1,19.76,13.69,23.89,8.71,2.28,12.87.45,12.39-6,12.39-6,10.56,27.57,15.63,34,9.13-2.28,10.56-9.65,2.28-23.89,0-29.39-8.74-19.76-8.74-19.76,13.33-1.82,21.61-19.76-9.13-41.35-34.45-46.85S702.43,332.27,699.69,338.7Z"/><ellipse class="cls-24" cx="706.35" cy="379.14" rx="1.6" ry="4.13"/><path class="cls-8" d="M702.91,368.53s6.41-6.44,10.08,3.22"/><path class="cls-8" d="M708.36,406.25s12-.46,13.69-10.57"/><path class="cls-5" d="M757.08,368.28a7.68,7.68,0,0,0-8.54,5.31c-1,3-3,6.26-7,6-7.34-.45-6.43-12.86-9.12-18.25s-11.94-5.52-28.48-6.85-29.41-1.39-28-22.52,14.69-35.82,23.89-33.54,6.41,12,6.41,12,29.41-14.24,54.22-7.35,30.78,30.32,29.87,52.48S778.32,390.43,771,393.65s-12.84,8.28-16,7.35-4.56-8.26-1.85-10.57,11-12.39,8.74-18.25A5.76,5.76,0,0,0,757.08,368.28Z"/><path class="cls-9" d="M694.37,332.41S685.93,349.29,705.1,350s43-12.27,60.63-6.84,19.19,21.47,14.58,32.22"/><path class="cls-9" d="M726.62,330.1s49.1-19.19,56.79,9.13"/></g><path class="cls-25" d="M231,358.8c-6.65,29.63,14.86,54.08,51.89,62.39,23.39,5.24,34.56-14.72,56.79-22.12C357,393.28,366.76,382,369.23,371c6.64-29.63-10.78-58-47.3-68.52C260,284.75,237.59,329.17,231,358.8Z"/><path class="cls-19" d="M349.37,366.4s2.64,15.11.65,24-5.22,9.86-6.07,19-6.63,18.85-12.7,24.42-16.34,13.76-22.7,15.23-8.82-.81-16.28-5.39-15.3-15.06-20.95-22.14-.94-17.58-.94-17.58-7.28-5.12-7.8-11.05a35.13,35.13,0,0,1,1.06-11.28,35.75,35.75,0,0,0,24.88-5c12-7.77,15.87-19.68,31.34-21.48S347.62,360.77,349.37,366.4Z"/><path class="cls-26" d="M333.81,387.36s-5.82,4.49-7.32,11.14"/><path class="cls-26" d="M325.83,412.4s1.55,5.89-6.12,5.36"/><path class="cls-27" d="M325.81,379.54s-5.91-8.45-18.7-2.61"/><path class="cls-27" d="M336.94,384.82s8.28-2.11,11.45,5.72"/><path class="cls-28" d="M320.35,430.57s-3.18,6.81-10.69,5.52-7.79-12.84-7.79-12.84l11.46,3.81c3.83,1.26,7.35,2.05,7.35,2.05Z"/><path class="cls-25" d="M316.48,429.56a4.88,4.88,0,0,1-5,1.43,4.71,4.71,0,0,1-3.46-3.86Z"/><path class="cls-28" d="M323.21,429.6a16.78,16.78,0,0,0-8.8-4.75c-5.16-.76-10.81-1.19-12.77-1.63a9.22,9.22,0,0,1-3.35-1.54,44.73,44.73,0,0,0,14,7.11C320,430.9,323.21,429.6,323.21,429.6Z"/><path class="cls-29" d="M310.66,393.71c-.85,2.64-.55,5.1.66,5.49s2.9-1.46,3.74-4.12.56-5.11-.66-5.49S311.52,391,310.66,393.71Z"/><path class="cls-29" d="M335.53,401.59c-.85,2.65-.55,5.11.66,5.49s2.9-1.46,3.74-4.12.55-5.1-.66-5.49S336.39,398.93,335.53,401.59Z"/><line class="cls-26" x1="324.75" y1="408.12" x2="320.24" y2="406.72"/><line class="cls-26" x1="324.01" y1="406.02" x2="319.88" y2="404.71"/></svg>